<?xml version="1.0" encoding="utf-8" standalone="no"?>
<!DOCTYPE svg PUBLIC "-//W3C//DTD SVG 1.1//EN"
  "http://www.w3.org/Graphics/SVG/1.1/DTD/svg11.dtd">
<!-- Created with matplotlib (https://matplotlib.org/) -->
<svg height="261.130625pt" version="1.1" viewBox="0 0 388.80625 261.130625" width="388.80625pt" xmlns="http://www.w3.org/2000/svg" xmlns:xlink="http://www.w3.org/1999/xlink">
 <defs>
  <style type="text/css">
*{stroke-linecap:butt;stroke-linejoin:round;}
  </style>
 </defs>
 <g id="figure_1">
  <g id="patch_1">
   <path d="M 0 261.130625 
L 388.80625 261.130625 
L 388.80625 0 
L 0 0 
z
" style="fill:#ffffff;"/>
  </g>
  <g id="axes_1">
   <g id="patch_2">
    <path d="M 46.80625 224.64 
L 381.60625 224.64 
L 381.60625 7.2 
L 46.80625 7.2 
z
" style="fill:#eaeaf2;"/>
   </g>
   <g id="matplotlib.axis_1">
    <g id="xtick_1">
     <g id="line2d_1">
      <path clip-path="url(#p3bd9377efc)" d="M 62.024432 224.64 
L 62.024432 7.2 
" style="fill:none;stroke:#ffffff;stroke-linecap:round;stroke-width:0.8;"/>
     </g>
     <g id="text_1">
      <!-- −1.00 -->
      <defs>
       <path d="M 52.828125 31.203125 
L 5.5625 31.203125 
L 5.5625 39.40625 
L 52.828125 39.40625 
z
" id="ArialMT-8722"/>
       <path d="M 37.25 0 
L 28.46875 0 
L 28.46875 56 
Q 25.296875 52.984375 20.140625 49.953125 
Q 14.984375 46.921875 10.890625 45.40625 
L 10.890625 53.90625 
Q 18.265625 57.375 23.78125 62.296875 
Q 29.296875 67.234375 31.59375 71.875 
L 37.25 71.875 
z
" id="ArialMT-49"/>
       <path d="M 9.078125 0 
L 9.078125 10.015625 
L 19.09375 10.015625 
L 19.09375 0 
z
" id="ArialMT-46"/>
       <path d="M 4.15625 35.296875 
Q 4.15625 48 6.765625 55.734375 
Q 9.375 63.484375 14.515625 67.671875 
Q 19.671875 71.875 27.484375 71.875 
Q 33.25 71.875 37.59375 69.546875 
Q 41.9375 67.234375 44.765625 62.859375 
Q 47.609375 58.5 49.21875 52.21875 
Q 50.828125 45.953125 50.828125 35.296875 
Q 50.828125 22.703125 48.234375 14.96875 
Q 45.65625 7.234375 40.5 3 
Q 35.359375 -1.21875 27.484375 -1.21875 
Q 17.140625 -1.21875 11.234375 6.203125 
Q 4.15625 15.140625 4.15625 35.296875 
z
M 13.1875 35.296875 
Q 13.1875 17.671875 17.3125 11.828125 
Q 21.4375 6 27.484375 6 
Q 33.546875 6 37.671875 11.859375 
Q 41.796875 17.71875 41.796875 35.296875 
Q 41.796875 52.984375 37.671875 58.78125 
Q 33.546875 64.59375 27.390625 64.59375 
Q 21.34375 64.59375 17.71875 59.46875 
Q 13.1875 52.9375 13.1875 35.296875 
z
" id="ArialMT-48"/>
      </defs>
      <g style="fill:#262626;" transform="translate(49.373651 238.797812)scale(0.1 -0.1)">
       <use xlink:href="#ArialMT-8722"/>
       <use x="58.398438" xlink:href="#ArialMT-49"/>
       <use x="114.013672" xlink:href="#ArialMT-46"/>
       <use x="141.796875" xlink:href="#ArialMT-48"/>
       <use x="197.412109" xlink:href="#ArialMT-48"/>
      </g>
     </g>
    </g>
    <g id="xtick_2">
     <g id="line2d_2">
      <path clip-path="url(#p3bd9377efc)" d="M 99.860556 224.64 
L 99.860556 7.2 
" style="fill:none;stroke:#ffffff;stroke-linecap:round;stroke-width:0.8;"/>
     </g>
     <g id="text_2">
      <!-- −0.75 -->
      <defs>
       <path d="M 4.734375 62.203125 
L 4.734375 70.65625 
L 51.078125 70.65625 
L 51.078125 63.8125 
Q 44.234375 56.546875 37.515625 44.484375 
Q 30.8125 32.421875 27.15625 19.671875 
Q 24.515625 10.6875 23.78125 0 
L 14.75 0 
Q 14.890625 8.453125 18.0625 20.40625 
Q 21.234375 32.375 27.171875 43.484375 
Q 33.109375 54.59375 39.796875 62.203125 
z
" id="ArialMT-55"/>
       <path d="M 4.15625 18.75 
L 13.375 19.53125 
Q 14.40625 12.796875 18.140625 9.390625 
Q 21.875 6 27.15625 6 
Q 33.5 6 37.890625 10.78125 
Q 42.28125 15.578125 42.28125 23.484375 
Q 42.28125 31 38.0625 35.34375 
Q 33.84375 39.703125 27 39.703125 
Q 22.75 39.703125 19.328125 37.765625 
Q 15.921875 35.84375 13.96875 32.765625 
L 5.71875 33.84375 
L 12.640625 70.609375 
L 48.25 70.609375 
L 48.25 62.203125 
L 19.671875 62.203125 
L 15.828125 42.96875 
Q 22.265625 47.46875 29.34375 47.46875 
Q 38.71875 47.46875 45.15625 40.96875 
Q 51.609375 34.46875 51.609375 24.265625 
Q 51.609375 14.546875 45.953125 7.46875 
Q 39.0625 -1.21875 27.15625 -1.21875 
Q 17.390625 -1.21875 11.203125 4.25 
Q 5.03125 9.71875 4.15625 18.75 
z
" id="ArialMT-53"/>
      </defs>
      <g style="fill:#262626;" transform="translate(87.209775 238.797812)scale(0.1 -0.1)">
       <use xlink:href="#ArialMT-8722"/>
       <use x="58.398438" xlink:href="#ArialMT-48"/>
       <use x="114.013672" xlink:href="#ArialMT-46"/>
       <use x="141.796875" xlink:href="#ArialMT-55"/>
       <use x="197.412109" xlink:href="#ArialMT-53"/>
      </g>
     </g>
    </g>
    <g id="xtick_3">
     <g id="line2d_3">
      <path clip-path="url(#p3bd9377efc)" d="M 137.696681 224.64 
L 137.696681 7.2 
" style="fill:none;stroke:#ffffff;stroke-linecap:round;stroke-width:0.8;"/>
     </g>
     <g id="text_3">
      <!-- −0.50 -->
      <g style="fill:#262626;" transform="translate(125.045899 238.797812)scale(0.1 -0.1)">
       <use xlink:href="#ArialMT-8722"/>
       <use x="58.398438" xlink:href="#ArialMT-48"/>
       <use x="114.013672" xlink:href="#ArialMT-46"/>
       <use x="141.796875" xlink:href="#ArialMT-53"/>
       <use x="197.412109" xlink:href="#ArialMT-48"/>
      </g>
     </g>
    </g>
    <g id="xtick_4">
     <g id="line2d_4">
      <path clip-path="url(#p3bd9377efc)" d="M 175.532805 224.64 
L 175.532805 7.2 
" style="fill:none;stroke:#ffffff;stroke-linecap:round;stroke-width:0.8;"/>
     </g>
     <g id="text_4">
      <!-- −0.25 -->
      <defs>
       <path d="M 50.34375 8.453125 
L 50.34375 0 
L 3.03125 0 
Q 2.9375 3.171875 4.046875 6.109375 
Q 5.859375 10.9375 9.828125 15.625 
Q 13.8125 20.3125 21.34375 26.46875 
Q 33.015625 36.03125 37.109375 41.625 
Q 41.21875 47.21875 41.21875 52.203125 
Q 41.21875 57.421875 37.46875 61 
Q 33.734375 64.59375 27.734375 64.59375 
Q 21.390625 64.59375 17.578125 60.78125 
Q 13.765625 56.984375 13.71875 50.25 
L 4.6875 51.171875 
Q 5.609375 61.28125 11.65625 66.578125 
Q 17.71875 71.875 27.9375 71.875 
Q 38.234375 71.875 44.234375 66.15625 
Q 50.25 60.453125 50.25 52 
Q 50.25 47.703125 48.484375 43.546875 
Q 46.734375 39.40625 42.65625 34.8125 
Q 38.578125 30.21875 29.109375 22.21875 
Q 21.1875 15.578125 18.9375 13.203125 
Q 16.703125 10.84375 15.234375 8.453125 
z
" id="ArialMT-50"/>
      </defs>
      <g style="fill:#262626;" transform="translate(162.882024 238.797812)scale(0.1 -0.1)">
       <use xlink:href="#ArialMT-8722"/>
       <use x="58.398438" xlink:href="#ArialMT-48"/>
       <use x="114.013672" xlink:href="#ArialMT-46"/>
       <use x="141.796875" xlink:href="#ArialMT-50"/>
       <use x="197.412109" xlink:href="#ArialMT-53"/>
      </g>
     </g>
    </g>
    <g id="xtick_5">
     <g id="line2d_5">
      <path clip-path="url(#p3bd9377efc)" d="M 213.36893 224.64 
L 213.36893 7.2 
" style="fill:none;stroke:#ffffff;stroke-linecap:round;stroke-width:0.8;"/>
     </g>
     <g id="text_5">
      <!-- 0.00 -->
      <g style="fill:#262626;" transform="translate(203.638461 238.797812)scale(0.1 -0.1)">
       <use xlink:href="#ArialMT-48"/>
       <use x="55.615234" xlink:href="#ArialMT-46"/>
       <use x="83.398438" xlink:href="#ArialMT-48"/>
       <use x="139.013672" xlink:href="#ArialMT-48"/>
      </g>
     </g>
    </g>
    <g id="xtick_6">
     <g id="line2d_6">
      <path clip-path="url(#p3bd9377efc)" d="M 251.205054 224.64 
L 251.205054 7.2 
" style="fill:none;stroke:#ffffff;stroke-linecap:round;stroke-width:0.8;"/>
     </g>
     <g id="text_6">
      <!-- 0.25 -->
      <g style="fill:#262626;" transform="translate(241.474585 238.797812)scale(0.1 -0.1)">
       <use xlink:href="#ArialMT-48"/>
       <use x="55.615234" xlink:href="#ArialMT-46"/>
       <use x="83.398438" xlink:href="#ArialMT-50"/>
       <use x="139.013672" xlink:href="#ArialMT-53"/>
      </g>
     </g>
    </g>
    <g id="xtick_7">
     <g id="line2d_7">
      <path clip-path="url(#p3bd9377efc)" d="M 289.041178 224.64 
L 289.041178 7.2 
" style="fill:none;stroke:#ffffff;stroke-linecap:round;stroke-width:0.8;"/>
     </g>
     <g id="text_7">
      <!-- 0.50 -->
      <g style="fill:#262626;" transform="translate(279.31071 238.797812)scale(0.1 -0.1)">
       <use xlink:href="#ArialMT-48"/>
       <use x="55.615234" xlink:href="#ArialMT-46"/>
       <use x="83.398438" xlink:href="#ArialMT-53"/>
       <use x="139.013672" xlink:href="#ArialMT-48"/>
      </g>
     </g>
    </g>
    <g id="xtick_8">
     <g id="line2d_8">
      <path clip-path="url(#p3bd9377efc)" d="M 326.877303 224.64 
L 326.877303 7.2 
" style="fill:none;stroke:#ffffff;stroke-linecap:round;stroke-width:0.8;"/>
     </g>
     <g id="text_8">
      <!-- 0.75 -->
      <g style="fill:#262626;" transform="translate(317.146834 238.797812)scale(0.1 -0.1)">
       <use xlink:href="#ArialMT-48"/>
       <use x="55.615234" xlink:href="#ArialMT-46"/>
       <use x="83.398438" xlink:href="#ArialMT-55"/>
       <use x="139.013672" xlink:href="#ArialMT-53"/>
      </g>
     </g>
    </g>
    <g id="xtick_9">
     <g id="line2d_9">
      <path clip-path="url(#p3bd9377efc)" d="M 364.713427 224.64 
L 364.713427 7.2 
" style="fill:none;stroke:#ffffff;stroke-linecap:round;stroke-width:0.8;"/>
     </g>
     <g id="text_9">
      <!-- 1.00 -->
      <g style="fill:#262626;" transform="translate(354.982959 238.797812)scale(0.1 -0.1)">
       <use xlink:href="#ArialMT-49"/>
       <use x="55.615234" xlink:href="#ArialMT-46"/>
       <use x="83.398438" xlink:href="#ArialMT-48"/>
       <use x="139.013672" xlink:href="#ArialMT-48"/>
      </g>
     </g>
    </g>
    <g id="text_10">
     <!-- $\mu$ -->
     <defs>
      <path d="M -1.3125 -20.796875 
L 13.375 54.6875 
L 22.40625 54.6875 
L 15.765625 20.65625 
Q 15.578125 19.625 15.421875 18.359375 
Q 15.28125 17.09375 15.28125 15.828125 
Q 15.28125 11.28125 18.140625 8.828125 
Q 21 6.390625 26.3125 6.390625 
Q 33.546875 6.390625 37.984375 10.484375 
Q 42.4375 14.59375 44 22.796875 
L 50.203125 54.6875 
L 59.1875 54.6875 
L 51.03125 12.640625 
Q 50.828125 11.71875 50.75 11.03125 
Q 50.6875 10.359375 50.6875 9.8125 
Q 50.6875 8.296875 51.296875 7.59375 
Q 51.90625 6.890625 53.21875 6.890625 
Q 53.71875 6.890625 54.5625 7.125 
Q 55.421875 7.375 56.984375 8.015625 
L 55.609375 0.78125 
Q 53.46875 -0.296875 51.515625 -0.859375 
Q 49.5625 -1.421875 47.703125 -1.421875 
Q 44.484375 -1.421875 42.65625 0.625 
Q 40.828125 2.6875 40.828125 6.296875 
Q 38.09375 2.390625 34.296875 0.484375 
Q 30.515625 -1.421875 25.390625 -1.421875 
Q 20.84375 -1.421875 17.453125 0.671875 
Q 14.0625 2.78125 12.984375 6.203125 
L 7.71875 -20.796875 
z
" id="DejaVuSans-Oblique-956"/>
     </defs>
     <g style="fill:#262626;" transform="translate(211.00625 251.830625)scale(0.1 -0.1)">
      <use transform="translate(0 0.3125)" xlink:href="#DejaVuSans-Oblique-956"/>
     </g>
    </g>
   </g>
   <g id="matplotlib.axis_2">
    <g id="ytick_1">
     <g id="line2d_10">
      <path clip-path="url(#p3bd9377efc)" d="M 46.80625 224.64 
L 381.60625 224.64 
" style="fill:none;stroke:#ffffff;stroke-linecap:round;stroke-width:0.8;"/>
     </g>
     <g id="text_11">
      <!-- 0.00 -->
      <g style="fill:#262626;" transform="translate(20.345313 228.218906)scale(0.1 -0.1)">
       <use xlink:href="#ArialMT-48"/>
       <use x="55.615234" xlink:href="#ArialMT-46"/>
       <use x="83.398438" xlink:href="#ArialMT-48"/>
       <use x="139.013672" xlink:href="#ArialMT-48"/>
      </g>
     </g>
    </g>
    <g id="ytick_2">
     <g id="line2d_11">
      <path clip-path="url(#p3bd9377efc)" d="M 46.80625 199.175603 
L 381.60625 199.175603 
" style="fill:none;stroke:#ffffff;stroke-linecap:round;stroke-width:0.8;"/>
     </g>
     <g id="text_12">
      <!-- 0.25 -->
      <g style="fill:#262626;" transform="translate(20.345313 202.75451)scale(0.1 -0.1)">
       <use xlink:href="#ArialMT-48"/>
       <use x="55.615234" xlink:href="#ArialMT-46"/>
       <use x="83.398438" xlink:href="#ArialMT-50"/>
       <use x="139.013672" xlink:href="#ArialMT-53"/>
      </g>
     </g>
    </g>
    <g id="ytick_3">
     <g id="line2d_12">
      <path clip-path="url(#p3bd9377efc)" d="M 46.80625 173.711207 
L 381.60625 173.711207 
" style="fill:none;stroke:#ffffff;stroke-linecap:round;stroke-width:0.8;"/>
     </g>
     <g id="text_13">
      <!-- 0.50 -->
      <g style="fill:#262626;" transform="translate(20.345313 177.290113)scale(0.1 -0.1)">
       <use xlink:href="#ArialMT-48"/>
       <use x="55.615234" xlink:href="#ArialMT-46"/>
       <use x="83.398438" xlink:href="#ArialMT-53"/>
       <use x="139.013672" xlink:href="#ArialMT-48"/>
      </g>
     </g>
    </g>
    <g id="ytick_4">
     <g id="line2d_13">
      <path clip-path="url(#p3bd9377efc)" d="M 46.80625 148.24681 
L 381.60625 148.24681 
" style="fill:none;stroke:#ffffff;stroke-linecap:round;stroke-width:0.8;"/>
     </g>
     <g id="text_14">
      <!-- 0.75 -->
      <g style="fill:#262626;" transform="translate(20.345313 151.825717)scale(0.1 -0.1)">
       <use xlink:href="#ArialMT-48"/>
       <use x="55.615234" xlink:href="#ArialMT-46"/>
       <use x="83.398438" xlink:href="#ArialMT-55"/>
       <use x="139.013672" xlink:href="#ArialMT-53"/>
      </g>
     </g>
    </g>
    <g id="ytick_5">
     <g id="line2d_14">
      <path clip-path="url(#p3bd9377efc)" d="M 46.80625 122.782414 
L 381.60625 122.782414 
" style="fill:none;stroke:#ffffff;stroke-linecap:round;stroke-width:0.8;"/>
     </g>
     <g id="text_15">
      <!-- 1.00 -->
      <g style="fill:#262626;" transform="translate(20.345313 126.36132)scale(0.1 -0.1)">
       <use xlink:href="#ArialMT-49"/>
       <use x="55.615234" xlink:href="#ArialMT-46"/>
       <use x="83.398438" xlink:href="#ArialMT-48"/>
       <use x="139.013672" xlink:href="#ArialMT-48"/>
      </g>
     </g>
    </g>
    <g id="ytick_6">
     <g id="line2d_15">
      <path clip-path="url(#p3bd9377efc)" d="M 46.80625 97.318017 
L 381.60625 97.318017 
" style="fill:none;stroke:#ffffff;stroke-linecap:round;stroke-width:0.8;"/>
     </g>
     <g id="text_16">
      <!-- 1.25 -->
      <g style="fill:#262626;" transform="translate(20.345313 100.896923)scale(0.1 -0.1)">
       <use xlink:href="#ArialMT-49"/>
       <use x="55.615234" xlink:href="#ArialMT-46"/>
       <use x="83.398438" xlink:href="#ArialMT-50"/>
       <use x="139.013672" xlink:href="#ArialMT-53"/>
      </g>
     </g>
    </g>
    <g id="ytick_7">
     <g id="line2d_16">
      <path clip-path="url(#p3bd9377efc)" d="M 46.80625 71.853621 
L 381.60625 71.853621 
" style="fill:none;stroke:#ffffff;stroke-linecap:round;stroke-width:0.8;"/>
     </g>
     <g id="text_17">
      <!-- 1.50 -->
      <g style="fill:#262626;" transform="translate(20.345313 75.432527)scale(0.1 -0.1)">
       <use xlink:href="#ArialMT-49"/>
       <use x="55.615234" xlink:href="#ArialMT-46"/>
       <use x="83.398438" xlink:href="#ArialMT-53"/>
       <use x="139.013672" xlink:href="#ArialMT-48"/>
      </g>
     </g>
    </g>
    <g id="ytick_8">
     <g id="line2d_17">
      <path clip-path="url(#p3bd9377efc)" d="M 46.80625 46.389224 
L 381.60625 46.389224 
" style="fill:none;stroke:#ffffff;stroke-linecap:round;stroke-width:0.8;"/>
     </g>
     <g id="text_18">
      <!-- 1.75 -->
      <g style="fill:#262626;" transform="translate(20.345313 49.96813)scale(0.1 -0.1)">
       <use xlink:href="#ArialMT-49"/>
       <use x="55.615234" xlink:href="#ArialMT-46"/>
       <use x="83.398438" xlink:href="#ArialMT-55"/>
       <use x="139.013672" xlink:href="#ArialMT-53"/>
      </g>
     </g>
    </g>
    <g id="ytick_9">
     <g id="line2d_18">
      <path clip-path="url(#p3bd9377efc)" d="M 46.80625 20.924828 
L 381.60625 20.924828 
" style="fill:none;stroke:#ffffff;stroke-linecap:round;stroke-width:0.8;"/>
     </g>
     <g id="text_19">
      <!-- 2.00 -->
      <g style="fill:#262626;" transform="translate(20.345313 24.503734)scale(0.1 -0.1)">
       <use xlink:href="#ArialMT-50"/>
       <use x="55.615234" xlink:href="#ArialMT-46"/>
       <use x="83.398438" xlink:href="#ArialMT-48"/>
       <use x="139.013672" xlink:href="#ArialMT-48"/>
      </g>
     </g>
    </g>
    <g id="text_20">
     <!-- Posterior Belief -->
     <defs>
      <path d="M 7.71875 0 
L 7.71875 71.578125 
L 34.71875 71.578125 
Q 41.84375 71.578125 45.609375 70.90625 
Q 50.875 70.015625 54.4375 67.546875 
Q 58.015625 65.09375 60.1875 60.640625 
Q 62.359375 56.203125 62.359375 50.875 
Q 62.359375 41.75 56.546875 35.421875 
Q 50.734375 29.109375 35.546875 29.109375 
L 17.1875 29.109375 
L 17.1875 0 
z
M 17.1875 37.546875 
L 35.6875 37.546875 
Q 44.875 37.546875 48.734375 40.96875 
Q 52.59375 44.390625 52.59375 50.59375 
Q 52.59375 55.078125 50.3125 58.265625 
Q 48.046875 61.46875 44.34375 62.5 
Q 41.9375 63.140625 35.5 63.140625 
L 17.1875 63.140625 
z
" id="ArialMT-80"/>
      <path d="M 3.328125 25.921875 
Q 3.328125 40.328125 11.328125 47.265625 
Q 18.015625 53.03125 27.640625 53.03125 
Q 38.328125 53.03125 45.109375 46.015625 
Q 51.90625 39.015625 51.90625 26.65625 
Q 51.90625 16.65625 48.90625 10.90625 
Q 45.90625 5.171875 40.15625 2 
Q 34.421875 -1.171875 27.640625 -1.171875 
Q 16.75 -1.171875 10.03125 5.8125 
Q 3.328125 12.796875 3.328125 25.921875 
z
M 12.359375 25.921875 
Q 12.359375 15.96875 16.703125 11.015625 
Q 21.046875 6.0625 27.640625 6.0625 
Q 34.1875 6.0625 38.53125 11.03125 
Q 42.875 16.015625 42.875 26.21875 
Q 42.875 35.84375 38.5 40.796875 
Q 34.125 45.75 27.640625 45.75 
Q 21.046875 45.75 16.703125 40.8125 
Q 12.359375 35.890625 12.359375 25.921875 
z
" id="ArialMT-111"/>
      <path d="M 3.078125 15.484375 
L 11.765625 16.84375 
Q 12.5 11.625 15.84375 8.84375 
Q 19.1875 6.0625 25.203125 6.0625 
Q 31.25 6.0625 34.171875 8.515625 
Q 37.109375 10.984375 37.109375 14.3125 
Q 37.109375 17.28125 34.515625 19 
Q 32.71875 20.171875 25.53125 21.96875 
Q 15.875 24.421875 12.140625 26.203125 
Q 8.40625 27.984375 6.46875 31.125 
Q 4.546875 34.28125 4.546875 38.09375 
Q 4.546875 41.546875 6.125 44.5 
Q 7.71875 47.46875 10.453125 49.421875 
Q 12.5 50.921875 16.03125 51.96875 
Q 19.578125 53.03125 23.640625 53.03125 
Q 29.734375 53.03125 34.34375 51.265625 
Q 38.96875 49.515625 41.15625 46.5 
Q 43.359375 43.5 44.1875 38.484375 
L 35.59375 37.3125 
Q 35.015625 41.3125 32.203125 43.546875 
Q 29.390625 45.796875 24.265625 45.796875 
Q 18.21875 45.796875 15.625 43.796875 
Q 13.03125 41.796875 13.03125 39.109375 
Q 13.03125 37.40625 14.109375 36.03125 
Q 15.1875 34.625 17.484375 33.6875 
Q 18.796875 33.203125 25.25 31.453125 
Q 34.578125 28.953125 38.25 27.359375 
Q 41.9375 25.78125 44.03125 22.75 
Q 46.140625 19.734375 46.140625 15.234375 
Q 46.140625 10.84375 43.578125 6.953125 
Q 41.015625 3.078125 36.171875 0.953125 
Q 31.34375 -1.171875 25.25 -1.171875 
Q 15.140625 -1.171875 9.84375 3.03125 
Q 4.546875 7.234375 3.078125 15.484375 
z
" id="ArialMT-115"/>
      <path d="M 25.78125 7.859375 
L 27.046875 0.09375 
Q 23.34375 -0.6875 20.40625 -0.6875 
Q 15.625 -0.6875 12.984375 0.828125 
Q 10.359375 2.34375 9.28125 4.8125 
Q 8.203125 7.28125 8.203125 15.1875 
L 8.203125 45.015625 
L 1.765625 45.015625 
L 1.765625 51.859375 
L 8.203125 51.859375 
L 8.203125 64.703125 
L 16.9375 69.96875 
L 16.9375 51.859375 
L 25.78125 51.859375 
L 25.78125 45.015625 
L 16.9375 45.015625 
L 16.9375 14.703125 
Q 16.9375 10.9375 17.40625 9.859375 
Q 17.875 8.796875 18.921875 8.15625 
Q 19.96875 7.515625 21.921875 7.515625 
Q 23.390625 7.515625 25.78125 7.859375 
z
" id="ArialMT-116"/>
      <path d="M 42.09375 16.703125 
L 51.171875 15.578125 
Q 49.03125 7.625 43.21875 3.21875 
Q 37.40625 -1.171875 28.375 -1.171875 
Q 17 -1.171875 10.328125 5.828125 
Q 3.65625 12.84375 3.65625 25.484375 
Q 3.65625 38.578125 10.390625 45.796875 
Q 17.140625 53.03125 27.875 53.03125 
Q 38.28125 53.03125 44.875 45.953125 
Q 51.46875 38.875 51.46875 26.03125 
Q 51.46875 25.25 51.421875 23.6875 
L 12.75 23.6875 
Q 13.234375 15.140625 17.578125 10.59375 
Q 21.921875 6.0625 28.421875 6.0625 
Q 33.25 6.0625 36.671875 8.59375 
Q 40.09375 11.140625 42.09375 16.703125 
z
M 13.234375 30.90625 
L 42.1875 30.90625 
Q 41.609375 37.453125 38.875 40.71875 
Q 34.671875 45.796875 27.984375 45.796875 
Q 21.921875 45.796875 17.796875 41.75 
Q 13.671875 37.703125 13.234375 30.90625 
z
" id="ArialMT-101"/>
      <path d="M 6.5 0 
L 6.5 51.859375 
L 14.40625 51.859375 
L 14.40625 44 
Q 17.4375 49.515625 20 51.265625 
Q 22.5625 53.03125 25.640625 53.03125 
Q 30.078125 53.03125 34.671875 50.203125 
L 31.640625 42.046875 
Q 28.421875 43.953125 25.203125 43.953125 
Q 22.3125 43.953125 20.015625 42.21875 
Q 17.71875 40.484375 16.75 37.40625 
Q 15.28125 32.71875 15.28125 27.15625 
L 15.28125 0 
z
" id="ArialMT-114"/>
      <path d="M 6.640625 61.46875 
L 6.640625 71.578125 
L 15.4375 71.578125 
L 15.4375 61.46875 
z
M 6.640625 0 
L 6.640625 51.859375 
L 15.4375 51.859375 
L 15.4375 0 
z
" id="ArialMT-105"/>
      <path id="ArialMT-32"/>
      <path d="M 7.328125 0 
L 7.328125 71.578125 
L 34.1875 71.578125 
Q 42.390625 71.578125 47.34375 69.40625 
Q 52.296875 67.234375 55.09375 62.71875 
Q 57.90625 58.203125 57.90625 53.265625 
Q 57.90625 48.6875 55.421875 44.625 
Q 52.9375 40.578125 47.90625 38.09375 
Q 54.390625 36.1875 57.875 31.59375 
Q 61.375 27 61.375 20.75 
Q 61.375 15.71875 59.25 11.390625 
Q 57.125 7.078125 54 4.734375 
Q 50.875 2.390625 46.15625 1.1875 
Q 41.453125 0 34.625 0 
z
M 16.796875 41.5 
L 32.28125 41.5 
Q 38.578125 41.5 41.3125 42.328125 
Q 44.921875 43.40625 46.75 45.890625 
Q 48.578125 48.390625 48.578125 52.15625 
Q 48.578125 55.71875 46.875 58.421875 
Q 45.171875 61.140625 41.984375 62.140625 
Q 38.8125 63.140625 31.109375 63.140625 
L 16.796875 63.140625 
z
M 16.796875 8.453125 
L 34.625 8.453125 
Q 39.203125 8.453125 41.0625 8.796875 
Q 44.34375 9.375 46.53125 10.734375 
Q 48.734375 12.109375 50.140625 14.71875 
Q 51.5625 17.328125 51.5625 20.75 
Q 51.5625 24.75 49.515625 27.703125 
Q 47.46875 30.671875 43.828125 31.859375 
Q 40.1875 33.0625 33.34375 33.0625 
L 16.796875 33.0625 
z
" id="ArialMT-66"/>
      <path d="M 6.390625 0 
L 6.390625 71.578125 
L 15.1875 71.578125 
L 15.1875 0 
z
" id="ArialMT-108"/>
      <path d="M 8.6875 0 
L 8.6875 45.015625 
L 0.921875 45.015625 
L 0.921875 51.859375 
L 8.6875 51.859375 
L 8.6875 57.375 
Q 8.6875 62.59375 9.625 65.140625 
Q 10.890625 68.5625 14.078125 70.671875 
Q 17.28125 72.796875 23.046875 72.796875 
Q 26.765625 72.796875 31.25 71.921875 
L 29.9375 64.265625 
Q 27.203125 64.75 24.75 64.75 
Q 20.75 64.75 19.09375 63.03125 
Q 17.4375 61.328125 17.4375 56.640625 
L 17.4375 51.859375 
L 27.546875 51.859375 
L 27.546875 45.015625 
L 17.4375 45.015625 
L 17.4375 0 
z
" id="ArialMT-102"/>
     </defs>
     <g style="fill:#262626;" transform="translate(14.357813 149.822344)rotate(-90)scale(0.1 -0.1)">
      <use xlink:href="#ArialMT-80"/>
      <use x="66.699219" xlink:href="#ArialMT-111"/>
      <use x="122.314453" xlink:href="#ArialMT-115"/>
      <use x="172.314453" xlink:href="#ArialMT-116"/>
      <use x="200.097656" xlink:href="#ArialMT-101"/>
      <use x="255.712891" xlink:href="#ArialMT-114"/>
      <use x="289.013672" xlink:href="#ArialMT-105"/>
      <use x="311.230469" xlink:href="#ArialMT-111"/>
      <use x="366.845703" xlink:href="#ArialMT-114"/>
      <use x="400.146484" xlink:href="#ArialMT-32"/>
      <use x="427.929688" xlink:href="#ArialMT-66"/>
      <use x="494.628906" xlink:href="#ArialMT-101"/>
      <use x="550.244141" xlink:href="#ArialMT-108"/>
      <use x="572.460938" xlink:href="#ArialMT-105"/>
      <use x="594.677734" xlink:href="#ArialMT-101"/>
      <use x="650.292969" xlink:href="#ArialMT-102"/>
     </g>
    </g>
   </g>
   <g id="patch_3">
    <path clip-path="url(#p3bd9377efc)" d="M 105.320943 224.64 
L 110.227919 224.64 
L 110.227919 223.673439 
L 105.320943 223.673439 
z
" style="fill:#87ceeb;opacity:0.4;stroke:#ffffff;stroke-linejoin:miter;"/>
   </g>
   <g id="patch_4">
    <path clip-path="url(#p3bd9377efc)" d="M 110.227919 224.64 
L 115.134896 224.64 
L 115.134896 224.64 
L 110.227919 224.64 
z
" style="fill:#87ceeb;opacity:0.4;stroke:#ffffff;stroke-linejoin:miter;"/>
   </g>
   <g id="patch_5">
    <path clip-path="url(#p3bd9377efc)" d="M 115.134896 224.64 
L 120.041872 224.64 
L 120.041872 224.156719 
L 115.134896 224.156719 
z
" style="fill:#87ceeb;opacity:0.4;stroke:#ffffff;stroke-linejoin:miter;"/>
   </g>
   <g id="patch_6">
    <path clip-path="url(#p3bd9377efc)" d="M 120.041872 224.64 
L 124.948848 224.64 
L 124.948848 223.673439 
L 120.041872 223.673439 
z
" style="fill:#87ceeb;opacity:0.4;stroke:#ffffff;stroke-linejoin:miter;"/>
   </g>
   <g id="patch_7">
    <path clip-path="url(#p3bd9377efc)" d="M 124.948848 224.64 
L 129.855824 224.64 
L 129.855824 224.39836 
L 124.948848 224.39836 
z
" style="fill:#87ceeb;opacity:0.4;stroke:#ffffff;stroke-linejoin:miter;"/>
   </g>
   <g id="patch_8">
    <path clip-path="url(#p3bd9377efc)" d="M 129.855824 224.64 
L 134.7628 224.64 
L 134.7628 223.190158 
L 129.855824 223.190158 
z
" style="fill:#87ceeb;opacity:0.4;stroke:#ffffff;stroke-linejoin:miter;"/>
   </g>
   <g id="patch_9">
    <path clip-path="url(#p3bd9377efc)" d="M 134.7628 224.64 
L 139.669776 224.64 
L 139.669776 219.807195 
L 134.7628 219.807195 
z
" style="fill:#87ceeb;opacity:0.4;stroke:#ffffff;stroke-linejoin:miter;"/>
   </g>
   <g id="patch_10">
    <path clip-path="url(#p3bd9377efc)" d="M 139.669776 224.64 
L 144.576752 224.64 
L 144.576752 221.015396 
L 139.669776 221.015396 
z
" style="fill:#87ceeb;opacity:0.4;stroke:#ffffff;stroke-linejoin:miter;"/>
   </g>
   <g id="patch_11">
    <path clip-path="url(#p3bd9377efc)" d="M 144.576752 224.64 
L 149.483728 224.64 
L 149.483728 214.974389 
L 144.576752 214.974389 
z
" style="fill:#87ceeb;opacity:0.4;stroke:#ffffff;stroke-linejoin:miter;"/>
   </g>
   <g id="patch_12">
    <path clip-path="url(#p3bd9377efc)" d="M 149.483728 224.64 
L 154.390704 224.64 
L 154.390704 210.624864 
L 149.483728 210.624864 
z
" style="fill:#87ceeb;opacity:0.4;stroke:#ffffff;stroke-linejoin:miter;"/>
   </g>
   <g id="patch_13">
    <path clip-path="url(#p3bd9377efc)" d="M 154.390704 224.64 
L 159.29768 224.64 
L 159.29768 206.516979 
L 154.390704 206.516979 
z
" style="fill:#87ceeb;opacity:0.4;stroke:#ffffff;stroke-linejoin:miter;"/>
   </g>
   <g id="patch_14">
    <path clip-path="url(#p3bd9377efc)" d="M 159.29768 224.64 
L 164.204656 224.64 
L 164.204656 200.717613 
L 159.29768 200.717613 
z
" style="fill:#87ceeb;opacity:0.4;stroke:#ffffff;stroke-linejoin:miter;"/>
   </g>
   <g id="patch_15">
    <path clip-path="url(#p3bd9377efc)" d="M 164.204656 224.64 
L 169.111632 224.64 
L 169.111632 192.501844 
L 164.204656 192.501844 
z
" style="fill:#87ceeb;opacity:0.4;stroke:#ffffff;stroke-linejoin:miter;"/>
   </g>
   <g id="patch_16">
    <path clip-path="url(#p3bd9377efc)" d="M 169.111632 224.64 
L 174.018608 224.64 
L 174.018608 182.594592 
L 169.111632 182.594592 
z
" style="fill:#87ceeb;opacity:0.4;stroke:#ffffff;stroke-linejoin:miter;"/>
   </g>
   <g id="patch_17">
    <path clip-path="url(#p3bd9377efc)" d="M 174.018608 224.64 
L 178.925584 224.64 
L 178.925584 176.795226 
L 174.018608 176.795226 
z
" style="fill:#87ceeb;opacity:0.4;stroke:#ffffff;stroke-linejoin:miter;"/>
   </g>
   <g id="patch_18">
    <path clip-path="url(#p3bd9377efc)" d="M 178.925584 224.64 
L 183.83256 224.64 
L 183.83256 164.229932 
L 178.925584 164.229932 
z
" style="fill:#87ceeb;opacity:0.4;stroke:#ffffff;stroke-linejoin:miter;"/>
   </g>
   <g id="patch_19">
    <path clip-path="url(#p3bd9377efc)" d="M 183.83256 224.64 
L 188.739537 224.64 
L 188.739537 144.173789 
L 183.83256 144.173789 
z
" style="fill:#87ceeb;opacity:0.4;stroke:#ffffff;stroke-linejoin:miter;"/>
   </g>
   <g id="patch_20">
    <path clip-path="url(#p3bd9377efc)" d="M 188.739537 224.64 
L 193.646513 224.64 
L 193.646513 136.19966 
L 188.739537 136.19966 
z
" style="fill:#87ceeb;opacity:0.4;stroke:#ffffff;stroke-linejoin:miter;"/>
   </g>
   <g id="patch_21">
    <path clip-path="url(#p3bd9377efc)" d="M 193.646513 224.64 
L 198.553489 224.64 
L 198.553489 114.452035 
L 193.646513 114.452035 
z
" style="fill:#87ceeb;opacity:0.4;stroke:#ffffff;stroke-linejoin:miter;"/>
   </g>
   <g id="patch_22">
    <path clip-path="url(#p3bd9377efc)" d="M 198.553489 224.64 
L 203.460465 224.64 
L 203.460465 107.444467 
L 198.553489 107.444467 
z
" style="fill:#87ceeb;opacity:0.4;stroke:#ffffff;stroke-linejoin:miter;"/>
   </g>
   <g id="patch_23">
    <path clip-path="url(#p3bd9377efc)" d="M 203.460465 224.64 
L 208.367441 224.64 
L 208.367441 71.681707 
L 203.460465 71.681707 
z
" style="fill:#87ceeb;opacity:0.4;stroke:#ffffff;stroke-linejoin:miter;"/>
   </g>
   <g id="patch_24">
    <path clip-path="url(#p3bd9377efc)" d="M 208.367441 224.64 
L 213.274417 224.64 
L 213.274417 67.090542 
L 208.367441 67.090542 
z
" style="fill:#87ceeb;opacity:0.4;stroke:#ffffff;stroke-linejoin:miter;"/>
   </g>
   <g id="patch_25">
    <path clip-path="url(#p3bd9377efc)" d="M 213.274417 224.64 
L 218.181393 224.64 
L 218.181393 46.551119 
L 213.274417 46.551119 
z
" style="fill:#87ceeb;opacity:0.4;stroke:#ffffff;stroke-linejoin:miter;"/>
   </g>
   <g id="patch_26">
    <path clip-path="url(#p3bd9377efc)" d="M 218.181393 224.64 
L 223.088369 224.64 
L 223.088369 61.291175 
L 218.181393 61.291175 
z
" style="fill:#87ceeb;opacity:0.4;stroke:#ffffff;stroke-linejoin:miter;"/>
   </g>
   <g id="patch_27">
    <path clip-path="url(#p3bd9377efc)" d="M 223.088369 224.64 
L 227.995345 224.64 
L 227.995345 17.554286 
L 223.088369 17.554286 
z
" style="fill:#87ceeb;opacity:0.4;stroke:#ffffff;stroke-linejoin:miter;"/>
   </g>
   <g id="patch_28">
    <path clip-path="url(#p3bd9377efc)" d="M 227.995345 224.64 
L 232.902321 224.64 
L 232.902321 27.219897 
L 227.995345 27.219897 
z
" style="fill:#87ceeb;opacity:0.4;stroke:#ffffff;stroke-linejoin:miter;"/>
   </g>
   <g id="patch_29">
    <path clip-path="url(#p3bd9377efc)" d="M 232.902321 224.64 
L 237.809297 224.64 
L 237.809297 47.276039 
L 232.902321 47.276039 
z
" style="fill:#87ceeb;opacity:0.4;stroke:#ffffff;stroke-linejoin:miter;"/>
   </g>
   <g id="patch_30">
    <path clip-path="url(#p3bd9377efc)" d="M 237.809297 224.64 
L 242.716273 224.64 
L 242.716273 68.782024 
L 237.809297 68.782024 
z
" style="fill:#87ceeb;opacity:0.4;stroke:#ffffff;stroke-linejoin:miter;"/>
   </g>
   <g id="patch_31">
    <path clip-path="url(#p3bd9377efc)" d="M 242.716273 224.64 
L 247.623249 224.64 
L 247.623249 52.592125 
L 242.716273 52.592125 
z
" style="fill:#87ceeb;opacity:0.4;stroke:#ffffff;stroke-linejoin:miter;"/>
   </g>
   <g id="patch_32">
    <path clip-path="url(#p3bd9377efc)" d="M 247.623249 224.64 
L 252.530225 224.64 
L 252.530225 69.990225 
L 247.623249 69.990225 
z
" style="fill:#87ceeb;opacity:0.4;stroke:#ffffff;stroke-linejoin:miter;"/>
   </g>
   <g id="patch_33">
    <path clip-path="url(#p3bd9377efc)" d="M 252.530225 224.64 
L 257.437202 224.64 
L 257.437202 84.005361 
L 252.530225 84.005361 
z
" style="fill:#87ceeb;opacity:0.4;stroke:#ffffff;stroke-linejoin:miter;"/>
   </g>
   <g id="patch_34">
    <path clip-path="url(#p3bd9377efc)" d="M 257.437202 224.64 
L 262.344178 224.64 
L 262.344178 112.035633 
L 257.437202 112.035633 
z
" style="fill:#87ceeb;opacity:0.4;stroke:#ffffff;stroke-linejoin:miter;"/>
   </g>
   <g id="patch_35">
    <path clip-path="url(#p3bd9377efc)" d="M 262.344178 224.64 
L 267.251154 224.64 
L 267.251154 120.009762 
L 262.344178 120.009762 
z
" style="fill:#87ceeb;opacity:0.4;stroke:#ffffff;stroke-linejoin:miter;"/>
   </g>
   <g id="patch_36">
    <path clip-path="url(#p3bd9377efc)" d="M 267.251154 224.64 
L 272.15813 224.64 
L 272.15813 116.385158 
L 267.251154 116.385158 
z
" style="fill:#87ceeb;opacity:0.4;stroke:#ffffff;stroke-linejoin:miter;"/>
   </g>
   <g id="patch_37">
    <path clip-path="url(#p3bd9377efc)" d="M 272.15813 224.64 
L 277.065106 224.64 
L 277.065106 150.214796 
L 272.15813 150.214796 
z
" style="fill:#87ceeb;opacity:0.4;stroke:#ffffff;stroke-linejoin:miter;"/>
   </g>
   <g id="patch_38">
    <path clip-path="url(#p3bd9377efc)" d="M 277.065106 224.64 
L 281.972082 224.64 
L 281.972082 169.787658 
L 277.065106 169.787658 
z
" style="fill:#87ceeb;opacity:0.4;stroke:#ffffff;stroke-linejoin:miter;"/>
   </g>
   <g id="patch_39">
    <path clip-path="url(#p3bd9377efc)" d="M 281.972082 224.64 
L 286.879058 224.64 
L 286.879058 179.694909 
L 281.972082 179.694909 
z
" style="fill:#87ceeb;opacity:0.4;stroke:#ffffff;stroke-linejoin:miter;"/>
   </g>
   <g id="patch_40">
    <path clip-path="url(#p3bd9377efc)" d="M 286.879058 224.64 
L 291.786034 224.64 
L 291.786034 185.494276 
L 286.879058 185.494276 
z
" style="fill:#87ceeb;opacity:0.4;stroke:#ffffff;stroke-linejoin:miter;"/>
   </g>
   <g id="patch_41">
    <path clip-path="url(#p3bd9377efc)" d="M 291.786034 224.64 
L 296.69301 224.64 
L 296.69301 196.851369 
L 291.786034 196.851369 
z
" style="fill:#87ceeb;opacity:0.4;stroke:#ffffff;stroke-linejoin:miter;"/>
   </g>
   <g id="patch_42">
    <path clip-path="url(#p3bd9377efc)" d="M 296.69301 224.64 
L 301.599986 224.64 
L 301.599986 207.483541 
L 296.69301 207.483541 
z
" style="fill:#87ceeb;opacity:0.4;stroke:#ffffff;stroke-linejoin:miter;"/>
   </g>
   <g id="patch_43">
    <path clip-path="url(#p3bd9377efc)" d="M 301.599986 224.64 
L 306.506962 224.64 
L 306.506962 212.799627 
L 301.599986 212.799627 
z
" style="fill:#87ceeb;opacity:0.4;stroke:#ffffff;stroke-linejoin:miter;"/>
   </g>
   <g id="patch_44">
    <path clip-path="url(#p3bd9377efc)" d="M 306.506962 224.64 
L 311.413938 224.64 
L 311.413938 213.282907 
L 306.506962 213.282907 
z
" style="fill:#87ceeb;opacity:0.4;stroke:#ffffff;stroke-linejoin:miter;"/>
   </g>
   <g id="patch_45">
    <path clip-path="url(#p3bd9377efc)" d="M 311.413938 224.64 
L 316.320914 224.64 
L 316.320914 220.773756 
L 311.413938 220.773756 
z
" style="fill:#87ceeb;opacity:0.4;stroke:#ffffff;stroke-linejoin:miter;"/>
   </g>
   <g id="patch_46">
    <path clip-path="url(#p3bd9377efc)" d="M 316.320914 224.64 
L 321.22789 224.64 
L 321.22789 215.45767 
L 316.320914 215.45767 
z
" style="fill:#87ceeb;opacity:0.4;stroke:#ffffff;stroke-linejoin:miter;"/>
   </g>
   <g id="patch_47">
    <path clip-path="url(#p3bd9377efc)" d="M 321.22789 224.64 
L 326.134867 224.64 
L 326.134867 221.981957 
L 321.22789 221.981957 
z
" style="fill:#87ceeb;opacity:0.4;stroke:#ffffff;stroke-linejoin:miter;"/>
   </g>
   <g id="patch_48">
    <path clip-path="url(#p3bd9377efc)" d="M 326.134867 224.64 
L 331.041843 224.64 
L 331.041843 224.156719 
L 326.134867 224.156719 
z
" style="fill:#87ceeb;opacity:0.4;stroke:#ffffff;stroke-linejoin:miter;"/>
   </g>
   <g id="patch_49">
    <path clip-path="url(#p3bd9377efc)" d="M 331.041843 224.64 
L 335.948819 224.64 
L 335.948819 222.223597 
L 331.041843 222.223597 
z
" style="fill:#87ceeb;opacity:0.4;stroke:#ffffff;stroke-linejoin:miter;"/>
   </g>
   <g id="patch_50">
    <path clip-path="url(#p3bd9377efc)" d="M 335.948819 224.64 
L 340.855795 224.64 
L 340.855795 223.190158 
L 335.948819 223.190158 
z
" style="fill:#87ceeb;opacity:0.4;stroke:#ffffff;stroke-linejoin:miter;"/>
   </g>
   <g id="patch_51">
    <path clip-path="url(#p3bd9377efc)" d="M 340.855795 224.64 
L 345.762771 224.64 
L 345.762771 224.64 
L 340.855795 224.64 
z
" style="fill:#87ceeb;opacity:0.4;stroke:#ffffff;stroke-linejoin:miter;"/>
   </g>
   <g id="patch_52">
    <path clip-path="url(#p3bd9377efc)" d="M 345.762771 224.64 
L 350.669747 224.64 
L 350.669747 224.156719 
L 345.762771 224.156719 
z
" style="fill:#87ceeb;opacity:0.4;stroke:#ffffff;stroke-linejoin:miter;"/>
   </g>
   <g id="line2d_19">
    <path clip-path="url(#p3bd9377efc)" d="M 89.602622 224.63524 
L 98.320274 224.49093 
L 104.858513 224.279032 
L 117.934991 224.243788 
L 124.473229 223.831293 
L 126.652642 223.607872 
L 128.832055 223.258289 
L 131.011468 222.75881 
L 135.370294 221.466203 
L 139.72912 219.92326 
L 141.908533 218.872786 
L 144.087946 217.509464 
L 146.267359 215.831965 
L 148.446772 213.912821 
L 152.805598 209.678765 
L 157.164424 205.110008 
L 159.343837 202.615126 
L 161.52325 199.861367 
L 163.702663 196.775662 
L 168.061489 189.802402 
L 172.420315 182.547358 
L 174.599728 178.705362 
L 176.779141 174.333026 
L 178.958553 169.126516 
L 181.137966 163.010255 
L 194.214444 122.003634 
L 198.57327 107.635742 
L 202.932096 92.184486 
L 205.111509 84.335431 
L 207.290922 76.942718 
L 209.470335 70.328409 
L 211.649748 64.523925 
L 213.829161 59.340764 
L 222.546813 39.959307 
L 224.726226 36.003244 
L 226.905639 33.908711 
L 229.085052 34.329057 
L 231.264465 37.230993 
L 233.443878 41.951615 
L 235.62329 47.458383 
L 237.802703 52.640228 
L 239.982116 56.663874 
L 242.161529 59.362674 
L 244.340942 61.383745 
L 246.520355 63.85542 
L 248.699768 67.73711 
L 250.879181 73.333459 
L 253.058594 80.296223 
L 259.596833 103.116621 
L 261.776246 109.766295 
L 263.955659 115.620097 
L 268.314485 126.378229 
L 270.493898 132.461887 
L 272.673311 139.475822 
L 279.21155 162.869438 
L 281.390963 169.743094 
L 283.570376 175.654848 
L 285.749789 180.723155 
L 287.929202 185.249673 
L 292.288027 193.603058 
L 294.46744 197.508719 
L 296.646853 201.144498 
L 298.826266 204.429278 
L 301.005679 207.290468 
L 303.185092 209.692024 
L 305.364505 211.669641 
L 307.543918 213.318305 
L 309.723331 214.728669 
L 311.902744 215.940451 
L 314.082157 216.968446 
L 324.979222 221.430981 
L 327.158635 222.092649 
L 329.338048 222.519299 
L 344.593939 224.262038 
L 348.952764 224.414117 
L 366.388068 224.63678 
L 366.388068 224.63678 
" style="fill:none;stroke:#87ceeb;stroke-linecap:round;stroke-width:1.5;"/>
   </g>
   <g id="line2d_20">
    <path clip-path="url(#p3bd9377efc)" d="M 62.024432 224.639541 
L 102.66604 224.52803 
L 112.97809 224.285034 
L 119.650593 223.929019 
L 125.109914 223.422432 
L 129.356052 222.824462 
L 132.995599 222.116425 
L 136.635146 221.174606 
L 139.668102 220.167977 
L 142.701058 218.917408 
L 145.127423 217.711701 
L 147.553787 216.297114 
L 149.980152 214.647783 
L 152.406517 212.736812 
L 154.832881 210.536705 
L 157.259246 208.019896 
L 159.685611 205.159381 
L 162.111975 201.92945 
L 164.53834 198.306511 
L 166.964705 194.269984 
L 169.39107 189.80326 
L 171.817434 184.894693 
L 174.243799 179.538595 
L 177.276755 172.216755 
L 180.309711 164.218011 
L 183.342666 155.58368 
L 186.982214 144.476117 
L 191.228352 130.692806 
L 197.900855 108.05065 
L 203.966766 87.701503 
L 207.606313 76.247087 
L 210.639269 67.43832 
L 213.065634 61.012894 
L 215.491999 55.241648 
L 217.311772 51.394767 
L 219.131546 47.997652 
L 220.951319 45.079921 
L 222.771093 42.667328 
L 223.984275 41.350373 
L 225.197457 40.272839 
L 226.41064 39.439048 
L 227.623822 38.852356 
L 228.837005 38.51513 
L 230.050187 38.428733 
L 231.263369 38.593516 
L 232.476552 39.008811 
L 233.689734 39.67294 
L 234.902916 40.583226 
L 236.116099 41.736008 
L 237.329281 43.126668 
L 239.149054 45.646305 
L 240.968828 48.666058 
L 242.788601 52.159336 
L 244.608375 56.095768 
L 247.03474 61.975014 
L 249.461104 68.494263 
L 252.49406 77.399 
L 256.133607 88.936099 
L 260.986337 105.202887 
L 270.691795 137.923127 
L 274.937934 151.276242 
L 278.577481 161.9035 
L 281.610437 170.082194 
L 284.643392 177.593123 
L 287.676348 184.410745 
L 290.102713 189.361201 
L 292.529078 193.869011 
L 294.955442 197.945303 
L 297.381807 201.606264 
L 299.808172 204.87214 
L 302.234536 207.766282 
L 304.660901 210.314236 
L 307.087266 212.542917 
L 309.513631 214.479867 
L 311.939995 216.152614 
L 314.36636 217.588128 
L 317.399316 219.088363 
L 320.432272 220.306139 
L 323.465228 221.285203 
L 327.104775 222.20005 
L 330.744322 222.886841 
L 334.99046 223.465998 
L 339.843189 223.912476 
L 345.909101 224.251953 
L 354.401377 224.487902 
L 364.713427 224.595373 
L 364.713427 224.595373 
" style="fill:none;stroke:#c0c0c0;stroke-linecap:round;stroke-opacity:0.7;stroke-width:1.5;"/>
   </g>
   <g id="patch_53">
    <path d="M 46.80625 224.64 
L 46.80625 7.2 
" style="fill:none;stroke:#ffffff;stroke-linecap:square;stroke-linejoin:miter;stroke-width:0.8;"/>
   </g>
   <g id="patch_54">
    <path d="M 381.60625 224.64 
L 381.60625 7.2 
" style="fill:none;stroke:#ffffff;stroke-linecap:square;stroke-linejoin:miter;stroke-width:0.8;"/>
   </g>
   <g id="patch_55">
    <path d="M 46.80625 224.64 
L 381.60625 224.64 
" style="fill:none;stroke:#ffffff;stroke-linecap:square;stroke-linejoin:miter;stroke-width:0.8;"/>
   </g>
   <g id="patch_56">
    <path d="M 46.80625 7.2 
L 381.60625 7.2 
" style="fill:none;stroke:#ffffff;stroke-linecap:square;stroke-linejoin:miter;stroke-width:0.8;"/>
   </g>
   <g id="legend_1">
    <g id="patch_57">
     <path d="M 255.354687 43.607812 
L 374.60625 43.607812 
Q 376.60625 43.607812 376.60625 41.607812 
L 376.60625 14.2 
Q 376.60625 12.2 374.60625 12.2 
L 255.354687 12.2 
Q 253.354687 12.2 253.354687 14.2 
L 253.354687 41.607812 
Q 253.354687 43.607812 255.354687 43.607812 
z
" style="fill:#eaeaf2;opacity:0.8;stroke:#cccccc;stroke-linejoin:miter;"/>
    </g>
    <g id="line2d_21">
     <path d="M 257.354687 19.857812 
L 277.354687 19.857812 
" style="fill:none;stroke:#c0c0c0;stroke-linecap:round;stroke-opacity:0.7;stroke-width:1.5;"/>
    </g>
    <g id="line2d_22"/>
    <g id="text_21">
     <!-- Analytic Posterior -->
     <defs>
      <path d="M -0.140625 0 
L 27.34375 71.578125 
L 37.546875 71.578125 
L 66.84375 0 
L 56.0625 0 
L 47.703125 21.6875 
L 17.78125 21.6875 
L 9.90625 0 
z
M 20.515625 29.390625 
L 44.78125 29.390625 
L 37.3125 49.21875 
Q 33.890625 58.25 32.234375 64.0625 
Q 30.859375 57.171875 28.375 50.390625 
z
" id="ArialMT-65"/>
      <path d="M 6.59375 0 
L 6.59375 51.859375 
L 14.5 51.859375 
L 14.5 44.484375 
Q 20.21875 53.03125 31 53.03125 
Q 35.6875 53.03125 39.625 51.34375 
Q 43.5625 49.65625 45.515625 46.921875 
Q 47.46875 44.1875 48.25 40.4375 
Q 48.734375 37.984375 48.734375 31.890625 
L 48.734375 0 
L 39.9375 0 
L 39.9375 31.546875 
Q 39.9375 36.921875 38.90625 39.578125 
Q 37.890625 42.234375 35.28125 43.8125 
Q 32.671875 45.40625 29.15625 45.40625 
Q 23.53125 45.40625 19.453125 41.84375 
Q 15.375 38.28125 15.375 28.328125 
L 15.375 0 
z
" id="ArialMT-110"/>
      <path d="M 40.4375 6.390625 
Q 35.546875 2.25 31.03125 0.53125 
Q 26.515625 -1.171875 21.34375 -1.171875 
Q 12.796875 -1.171875 8.203125 3 
Q 3.609375 7.171875 3.609375 13.671875 
Q 3.609375 17.484375 5.34375 20.625 
Q 7.078125 23.78125 9.890625 25.6875 
Q 12.703125 27.59375 16.21875 28.5625 
Q 18.796875 29.25 24.03125 29.890625 
Q 34.671875 31.15625 39.703125 32.90625 
Q 39.75 34.71875 39.75 35.203125 
Q 39.75 40.578125 37.25 42.78125 
Q 33.890625 45.75 27.25 45.75 
Q 21.046875 45.75 18.09375 43.578125 
Q 15.140625 41.40625 13.71875 35.890625 
L 5.125 37.0625 
Q 6.296875 42.578125 8.984375 45.96875 
Q 11.671875 49.359375 16.75 51.1875 
Q 21.828125 53.03125 28.515625 53.03125 
Q 35.15625 53.03125 39.296875 51.46875 
Q 43.453125 49.90625 45.40625 47.53125 
Q 47.359375 45.171875 48.140625 41.546875 
Q 48.578125 39.3125 48.578125 33.453125 
L 48.578125 21.734375 
Q 48.578125 9.46875 49.140625 6.21875 
Q 49.703125 2.984375 51.375 0 
L 42.1875 0 
Q 40.828125 2.734375 40.4375 6.390625 
z
M 39.703125 26.03125 
Q 34.90625 24.078125 25.34375 22.703125 
Q 19.921875 21.921875 17.671875 20.9375 
Q 15.4375 19.96875 14.203125 18.09375 
Q 12.984375 16.21875 12.984375 13.921875 
Q 12.984375 10.40625 15.640625 8.0625 
Q 18.3125 5.71875 23.4375 5.71875 
Q 28.515625 5.71875 32.46875 7.9375 
Q 36.421875 10.15625 38.28125 14.015625 
Q 39.703125 17 39.703125 22.796875 
z
" id="ArialMT-97"/>
      <path d="M 6.203125 -19.96875 
L 5.21875 -11.71875 
Q 8.109375 -12.5 10.25 -12.5 
Q 13.1875 -12.5 14.9375 -11.515625 
Q 16.703125 -10.546875 17.828125 -8.796875 
Q 18.65625 -7.46875 20.515625 -2.25 
Q 20.75 -1.515625 21.296875 -0.09375 
L 1.609375 51.859375 
L 11.078125 51.859375 
L 21.875 21.828125 
Q 23.96875 16.109375 25.640625 9.8125 
Q 27.15625 15.875 29.25 21.625 
L 40.328125 51.859375 
L 49.125 51.859375 
L 29.390625 -0.875 
Q 26.21875 -9.421875 24.46875 -12.640625 
Q 22.125 -17 19.09375 -19.015625 
Q 16.0625 -21.046875 11.859375 -21.046875 
Q 9.328125 -21.046875 6.203125 -19.96875 
z
" id="ArialMT-121"/>
      <path d="M 40.4375 19 
L 49.078125 17.875 
Q 47.65625 8.9375 41.8125 3.875 
Q 35.984375 -1.171875 27.484375 -1.171875 
Q 16.84375 -1.171875 10.375 5.78125 
Q 3.90625 12.75 3.90625 25.734375 
Q 3.90625 34.125 6.6875 40.421875 
Q 9.46875 46.734375 15.15625 49.875 
Q 20.84375 53.03125 27.546875 53.03125 
Q 35.984375 53.03125 41.359375 48.75 
Q 46.734375 44.484375 48.25 36.625 
L 39.703125 35.296875 
Q 38.484375 40.53125 35.375 43.15625 
Q 32.28125 45.796875 27.875 45.796875 
Q 21.234375 45.796875 17.078125 41.03125 
Q 12.9375 36.28125 12.9375 25.984375 
Q 12.9375 15.53125 16.9375 10.796875 
Q 20.953125 6.0625 27.390625 6.0625 
Q 32.5625 6.0625 36.03125 9.234375 
Q 39.5 12.40625 40.4375 19 
z
" id="ArialMT-99"/>
     </defs>
     <g style="fill:#262626;" transform="translate(285.354687 23.357812)scale(0.1 -0.1)">
      <use xlink:href="#ArialMT-65"/>
      <use x="66.699219" xlink:href="#ArialMT-110"/>
      <use x="122.314453" xlink:href="#ArialMT-97"/>
      <use x="177.929688" xlink:href="#ArialMT-108"/>
      <use x="200.146484" xlink:href="#ArialMT-121"/>
      <use x="250.146484" xlink:href="#ArialMT-116"/>
      <use x="277.929688" xlink:href="#ArialMT-105"/>
      <use x="300.146484" xlink:href="#ArialMT-99"/>
      <use x="350.146484" xlink:href="#ArialMT-32"/>
      <use x="377.929688" xlink:href="#ArialMT-80"/>
      <use x="444.628906" xlink:href="#ArialMT-111"/>
      <use x="500.244141" xlink:href="#ArialMT-115"/>
      <use x="550.244141" xlink:href="#ArialMT-116"/>
      <use x="578.027344" xlink:href="#ArialMT-101"/>
      <use x="633.642578" xlink:href="#ArialMT-114"/>
      <use x="666.943359" xlink:href="#ArialMT-105"/>
      <use x="689.160156" xlink:href="#ArialMT-111"/>
      <use x="744.775391" xlink:href="#ArialMT-114"/>
     </g>
    </g>
    <g id="patch_58">
     <path d="M 257.354687 37.620312 
L 277.354687 37.620312 
L 277.354687 30.620312 
L 257.354687 30.620312 
z
" style="fill:#87ceeb;opacity:0.4;stroke:#ffffff;stroke-linejoin:miter;"/>
    </g>
    <g id="text_22">
     <!-- Estimated Posterior -->
     <defs>
      <path d="M 7.90625 0 
L 7.90625 71.578125 
L 59.671875 71.578125 
L 59.671875 63.140625 
L 17.390625 63.140625 
L 17.390625 41.21875 
L 56.984375 41.21875 
L 56.984375 32.8125 
L 17.390625 32.8125 
L 17.390625 8.453125 
L 61.328125 8.453125 
L 61.328125 0 
z
" id="ArialMT-69"/>
      <path d="M 6.59375 0 
L 6.59375 51.859375 
L 14.453125 51.859375 
L 14.453125 44.578125 
Q 16.890625 48.390625 20.9375 50.703125 
Q 25 53.03125 30.171875 53.03125 
Q 35.9375 53.03125 39.625 50.640625 
Q 43.3125 48.25 44.828125 43.953125 
Q 50.984375 53.03125 60.84375 53.03125 
Q 68.5625 53.03125 72.703125 48.75 
Q 76.859375 44.484375 76.859375 35.59375 
L 76.859375 0 
L 68.109375 0 
L 68.109375 32.671875 
Q 68.109375 37.9375 67.25 40.25 
Q 66.40625 42.578125 64.15625 43.984375 
Q 61.921875 45.40625 58.890625 45.40625 
Q 53.421875 45.40625 49.796875 41.765625 
Q 46.1875 38.140625 46.1875 30.125 
L 46.1875 0 
L 37.40625 0 
L 37.40625 33.6875 
Q 37.40625 39.546875 35.25 42.46875 
Q 33.109375 45.40625 28.21875 45.40625 
Q 24.515625 45.40625 21.359375 43.453125 
Q 18.21875 41.5 16.796875 37.734375 
Q 15.375 33.984375 15.375 26.90625 
L 15.375 0 
z
" id="ArialMT-109"/>
      <path d="M 40.234375 0 
L 40.234375 6.546875 
Q 35.296875 -1.171875 25.734375 -1.171875 
Q 19.53125 -1.171875 14.328125 2.25 
Q 9.125 5.671875 6.265625 11.796875 
Q 3.421875 17.921875 3.421875 25.875 
Q 3.421875 33.640625 6 39.96875 
Q 8.59375 46.296875 13.765625 49.65625 
Q 18.953125 53.03125 25.34375 53.03125 
Q 30.03125 53.03125 33.6875 51.046875 
Q 37.359375 49.078125 39.65625 45.90625 
L 39.65625 71.578125 
L 48.390625 71.578125 
L 48.390625 0 
z
M 12.453125 25.875 
Q 12.453125 15.921875 16.640625 10.984375 
Q 20.84375 6.0625 26.5625 6.0625 
Q 32.328125 6.0625 36.34375 10.765625 
Q 40.375 15.484375 40.375 25.140625 
Q 40.375 35.796875 36.265625 40.765625 
Q 32.171875 45.75 26.171875 45.75 
Q 20.3125 45.75 16.375 40.96875 
Q 12.453125 36.1875 12.453125 25.875 
z
" id="ArialMT-100"/>
     </defs>
     <g style="fill:#262626;" transform="translate(285.354687 37.620312)scale(0.1 -0.1)">
      <use xlink:href="#ArialMT-69"/>
      <use x="66.699219" xlink:href="#ArialMT-115"/>
      <use x="116.699219" xlink:href="#ArialMT-116"/>
      <use x="144.482422" xlink:href="#ArialMT-105"/>
      <use x="166.699219" xlink:href="#ArialMT-109"/>
      <use x="250" xlink:href="#ArialMT-97"/>
      <use x="305.615234" xlink:href="#ArialMT-116"/>
      <use x="333.398438" xlink:href="#ArialMT-101"/>
      <use x="389.013672" xlink:href="#ArialMT-100"/>
      <use x="444.628906" xlink:href="#ArialMT-32"/>
      <use x="472.412109" xlink:href="#ArialMT-80"/>
      <use x="539.111328" xlink:href="#ArialMT-111"/>
      <use x="594.726562" xlink:href="#ArialMT-115"/>
      <use x="644.726562" xlink:href="#ArialMT-116"/>
      <use x="672.509766" xlink:href="#ArialMT-101"/>
      <use x="728.125" xlink:href="#ArialMT-114"/>
      <use x="761.425781" xlink:href="#ArialMT-105"/>
      <use x="783.642578" xlink:href="#ArialMT-111"/>
      <use x="839.257812" xlink:href="#ArialMT-114"/>
     </g>
    </g>
   </g>
  </g>
 </g>
 <defs>
  <clipPath id="p3bd9377efc">
   <rect height="217.44" width="334.8" x="46.80625" y="7.2"/>
  </clipPath>
 </defs>
</svg>
