<?xml version="1.0" encoding="utf-8" standalone="no"?>
<!DOCTYPE svg PUBLIC "-//W3C//DTD SVG 1.1//EN"
  "http://www.w3.org/Graphics/SVG/1.1/DTD/svg11.dtd">
<!-- Created with matplotlib (https://matplotlib.org/) -->
<svg height="261.130625pt" version="1.1" viewBox="0 0 388.80625 261.130625" width="388.80625pt" xmlns="http://www.w3.org/2000/svg" xmlns:xlink="http://www.w3.org/1999/xlink">
 <defs>
  <style type="text/css">
*{stroke-linecap:butt;stroke-linejoin:round;}
  </style>
 </defs>
 <g id="figure_1">
  <g id="patch_1">
   <path d="M 0 261.130625 
L 388.80625 261.130625 
L 388.80625 0 
L 0 0 
z
" style="fill:#ffffff;"/>
  </g>
  <g id="axes_1">
   <g id="patch_2">
    <path d="M 46.80625 224.64 
L 381.60625 224.64 
L 381.60625 7.2 
L 46.80625 7.2 
z
" style="fill:#eaeaf2;"/>
   </g>
   <g id="matplotlib.axis_1">
    <g id="xtick_1">
     <g id="line2d_1">
      <path clip-path="url(#pbc833889fb)" d="M 80.419132 224.64 
L 80.419132 7.2 
" style="fill:none;stroke:#ffffff;stroke-linecap:round;stroke-width:0.8;"/>
     </g>
     <g id="text_1">
      <!-- −0.75 -->
      <defs>
       <path d="M 52.828125 31.203125 
L 5.5625 31.203125 
L 5.5625 39.40625 
L 52.828125 39.40625 
z
" id="ArialMT-8722"/>
       <path d="M 4.15625 35.296875 
Q 4.15625 48 6.765625 55.734375 
Q 9.375 63.484375 14.515625 67.671875 
Q 19.671875 71.875 27.484375 71.875 
Q 33.25 71.875 37.59375 69.546875 
Q 41.9375 67.234375 44.765625 62.859375 
Q 47.609375 58.5 49.21875 52.21875 
Q 50.828125 45.953125 50.828125 35.296875 
Q 50.828125 22.703125 48.234375 14.96875 
Q 45.65625 7.234375 40.5 3 
Q 35.359375 -1.21875 27.484375 -1.21875 
Q 17.140625 -1.21875 11.234375 6.203125 
Q 4.15625 15.140625 4.15625 35.296875 
z
M 13.1875 35.296875 
Q 13.1875 17.671875 17.3125 11.828125 
Q 21.4375 6 27.484375 6 
Q 33.546875 6 37.671875 11.859375 
Q 41.796875 17.71875 41.796875 35.296875 
Q 41.796875 52.984375 37.671875 58.78125 
Q 33.546875 64.59375 27.390625 64.59375 
Q 21.34375 64.59375 17.71875 59.46875 
Q 13.1875 52.9375 13.1875 35.296875 
z
" id="ArialMT-48"/>
       <path d="M 9.078125 0 
L 9.078125 10.015625 
L 19.09375 10.015625 
L 19.09375 0 
z
" id="ArialMT-46"/>
       <path d="M 4.734375 62.203125 
L 4.734375 70.65625 
L 51.078125 70.65625 
L 51.078125 63.8125 
Q 44.234375 56.546875 37.515625 44.484375 
Q 30.8125 32.421875 27.15625 19.671875 
Q 24.515625 10.6875 23.78125 0 
L 14.75 0 
Q 14.890625 8.453125 18.0625 20.40625 
Q 21.234375 32.375 27.171875 43.484375 
Q 33.109375 54.59375 39.796875 62.203125 
z
" id="ArialMT-55"/>
       <path d="M 4.15625 18.75 
L 13.375 19.53125 
Q 14.40625 12.796875 18.140625 9.390625 
Q 21.875 6 27.15625 6 
Q 33.5 6 37.890625 10.78125 
Q 42.28125 15.578125 42.28125 23.484375 
Q 42.28125 31 38.0625 35.34375 
Q 33.84375 39.703125 27 39.703125 
Q 22.75 39.703125 19.328125 37.765625 
Q 15.921875 35.84375 13.96875 32.765625 
L 5.71875 33.84375 
L 12.640625 70.609375 
L 48.25 70.609375 
L 48.25 62.203125 
L 19.671875 62.203125 
L 15.828125 42.96875 
Q 22.265625 47.46875 29.34375 47.46875 
Q 38.71875 47.46875 45.15625 40.96875 
Q 51.609375 34.46875 51.609375 24.265625 
Q 51.609375 14.546875 45.953125 7.46875 
Q 39.0625 -1.21875 27.15625 -1.21875 
Q 17.390625 -1.21875 11.203125 4.25 
Q 5.03125 9.71875 4.15625 18.75 
z
" id="ArialMT-53"/>
      </defs>
      <g style="fill:#262626;" transform="translate(67.76835 238.797812)scale(0.1 -0.1)">
       <use xlink:href="#ArialMT-8722"/>
       <use x="58.398438" xlink:href="#ArialMT-48"/>
       <use x="114.013672" xlink:href="#ArialMT-46"/>
       <use x="141.796875" xlink:href="#ArialMT-55"/>
       <use x="197.412109" xlink:href="#ArialMT-53"/>
      </g>
     </g>
    </g>
    <g id="xtick_2">
     <g id="line2d_2">
      <path clip-path="url(#pbc833889fb)" d="M 121.015152 224.64 
L 121.015152 7.2 
" style="fill:none;stroke:#ffffff;stroke-linecap:round;stroke-width:0.8;"/>
     </g>
     <g id="text_2">
      <!-- −0.50 -->
      <g style="fill:#262626;" transform="translate(108.364371 238.797812)scale(0.1 -0.1)">
       <use xlink:href="#ArialMT-8722"/>
       <use x="58.398438" xlink:href="#ArialMT-48"/>
       <use x="114.013672" xlink:href="#ArialMT-46"/>
       <use x="141.796875" xlink:href="#ArialMT-53"/>
       <use x="197.412109" xlink:href="#ArialMT-48"/>
      </g>
     </g>
    </g>
    <g id="xtick_3">
     <g id="line2d_3">
      <path clip-path="url(#pbc833889fb)" d="M 161.611172 224.64 
L 161.611172 7.2 
" style="fill:none;stroke:#ffffff;stroke-linecap:round;stroke-width:0.8;"/>
     </g>
     <g id="text_3">
      <!-- −0.25 -->
      <defs>
       <path d="M 50.34375 8.453125 
L 50.34375 0 
L 3.03125 0 
Q 2.9375 3.171875 4.046875 6.109375 
Q 5.859375 10.9375 9.828125 15.625 
Q 13.8125 20.3125 21.34375 26.46875 
Q 33.015625 36.03125 37.109375 41.625 
Q 41.21875 47.21875 41.21875 52.203125 
Q 41.21875 57.421875 37.46875 61 
Q 33.734375 64.59375 27.734375 64.59375 
Q 21.390625 64.59375 17.578125 60.78125 
Q 13.765625 56.984375 13.71875 50.25 
L 4.6875 51.171875 
Q 5.609375 61.28125 11.65625 66.578125 
Q 17.71875 71.875 27.9375 71.875 
Q 38.234375 71.875 44.234375 66.15625 
Q 50.25 60.453125 50.25 52 
Q 50.25 47.703125 48.484375 43.546875 
Q 46.734375 39.40625 42.65625 34.8125 
Q 38.578125 30.21875 29.109375 22.21875 
Q 21.1875 15.578125 18.9375 13.203125 
Q 16.703125 10.84375 15.234375 8.453125 
z
" id="ArialMT-50"/>
      </defs>
      <g style="fill:#262626;" transform="translate(148.960391 238.797812)scale(0.1 -0.1)">
       <use xlink:href="#ArialMT-8722"/>
       <use x="58.398438" xlink:href="#ArialMT-48"/>
       <use x="114.013672" xlink:href="#ArialMT-46"/>
       <use x="141.796875" xlink:href="#ArialMT-50"/>
       <use x="197.412109" xlink:href="#ArialMT-53"/>
      </g>
     </g>
    </g>
    <g id="xtick_4">
     <g id="line2d_4">
      <path clip-path="url(#pbc833889fb)" d="M 202.207192 224.64 
L 202.207192 7.2 
" style="fill:none;stroke:#ffffff;stroke-linecap:round;stroke-width:0.8;"/>
     </g>
     <g id="text_4">
      <!-- 0.00 -->
      <g style="fill:#262626;" transform="translate(192.476724 238.797812)scale(0.1 -0.1)">
       <use xlink:href="#ArialMT-48"/>
       <use x="55.615234" xlink:href="#ArialMT-46"/>
       <use x="83.398438" xlink:href="#ArialMT-48"/>
       <use x="139.013672" xlink:href="#ArialMT-48"/>
      </g>
     </g>
    </g>
    <g id="xtick_5">
     <g id="line2d_5">
      <path clip-path="url(#pbc833889fb)" d="M 242.803213 224.64 
L 242.803213 7.2 
" style="fill:none;stroke:#ffffff;stroke-linecap:round;stroke-width:0.8;"/>
     </g>
     <g id="text_5">
      <!-- 0.25 -->
      <g style="fill:#262626;" transform="translate(233.072744 238.797812)scale(0.1 -0.1)">
       <use xlink:href="#ArialMT-48"/>
       <use x="55.615234" xlink:href="#ArialMT-46"/>
       <use x="83.398438" xlink:href="#ArialMT-50"/>
       <use x="139.013672" xlink:href="#ArialMT-53"/>
      </g>
     </g>
    </g>
    <g id="xtick_6">
     <g id="line2d_6">
      <path clip-path="url(#pbc833889fb)" d="M 283.399233 224.64 
L 283.399233 7.2 
" style="fill:none;stroke:#ffffff;stroke-linecap:round;stroke-width:0.8;"/>
     </g>
     <g id="text_6">
      <!-- 0.50 -->
      <g style="fill:#262626;" transform="translate(273.668764 238.797812)scale(0.1 -0.1)">
       <use xlink:href="#ArialMT-48"/>
       <use x="55.615234" xlink:href="#ArialMT-46"/>
       <use x="83.398438" xlink:href="#ArialMT-53"/>
       <use x="139.013672" xlink:href="#ArialMT-48"/>
      </g>
     </g>
    </g>
    <g id="xtick_7">
     <g id="line2d_7">
      <path clip-path="url(#pbc833889fb)" d="M 323.995253 224.64 
L 323.995253 7.2 
" style="fill:none;stroke:#ffffff;stroke-linecap:round;stroke-width:0.8;"/>
     </g>
     <g id="text_7">
      <!-- 0.75 -->
      <g style="fill:#262626;" transform="translate(314.264784 238.797812)scale(0.1 -0.1)">
       <use xlink:href="#ArialMT-48"/>
       <use x="55.615234" xlink:href="#ArialMT-46"/>
       <use x="83.398438" xlink:href="#ArialMT-55"/>
       <use x="139.013672" xlink:href="#ArialMT-53"/>
      </g>
     </g>
    </g>
    <g id="xtick_8">
     <g id="line2d_8">
      <path clip-path="url(#pbc833889fb)" d="M 364.591273 224.64 
L 364.591273 7.2 
" style="fill:none;stroke:#ffffff;stroke-linecap:round;stroke-width:0.8;"/>
     </g>
     <g id="text_8">
      <!-- 1.00 -->
      <defs>
       <path d="M 37.25 0 
L 28.46875 0 
L 28.46875 56 
Q 25.296875 52.984375 20.140625 49.953125 
Q 14.984375 46.921875 10.890625 45.40625 
L 10.890625 53.90625 
Q 18.265625 57.375 23.78125 62.296875 
Q 29.296875 67.234375 31.59375 71.875 
L 37.25 71.875 
z
" id="ArialMT-49"/>
      </defs>
      <g style="fill:#262626;" transform="translate(354.860805 238.797812)scale(0.1 -0.1)">
       <use xlink:href="#ArialMT-49"/>
       <use x="55.615234" xlink:href="#ArialMT-46"/>
       <use x="83.398438" xlink:href="#ArialMT-48"/>
       <use x="139.013672" xlink:href="#ArialMT-48"/>
      </g>
     </g>
    </g>
    <g id="text_9">
     <!-- $\mu$ -->
     <defs>
      <path d="M -1.3125 -20.796875 
L 13.375 54.6875 
L 22.40625 54.6875 
L 15.765625 20.65625 
Q 15.578125 19.625 15.421875 18.359375 
Q 15.28125 17.09375 15.28125 15.828125 
Q 15.28125 11.28125 18.140625 8.828125 
Q 21 6.390625 26.3125 6.390625 
Q 33.546875 6.390625 37.984375 10.484375 
Q 42.4375 14.59375 44 22.796875 
L 50.203125 54.6875 
L 59.1875 54.6875 
L 51.03125 12.640625 
Q 50.828125 11.71875 50.75 11.03125 
Q 50.6875 10.359375 50.6875 9.8125 
Q 50.6875 8.296875 51.296875 7.59375 
Q 51.90625 6.890625 53.21875 6.890625 
Q 53.71875 6.890625 54.5625 7.125 
Q 55.421875 7.375 56.984375 8.015625 
L 55.609375 0.78125 
Q 53.46875 -0.296875 51.515625 -0.859375 
Q 49.5625 -1.421875 47.703125 -1.421875 
Q 44.484375 -1.421875 42.65625 0.625 
Q 40.828125 2.6875 40.828125 6.296875 
Q 38.09375 2.390625 34.296875 0.484375 
Q 30.515625 -1.421875 25.390625 -1.421875 
Q 20.84375 -1.421875 17.453125 0.671875 
Q 14.0625 2.78125 12.984375 6.203125 
L 7.71875 -20.796875 
z
" id="DejaVuSans-Oblique-956"/>
     </defs>
     <g style="fill:#262626;" transform="translate(211.00625 251.830625)scale(0.1 -0.1)">
      <use transform="translate(0 0.3125)" xlink:href="#DejaVuSans-Oblique-956"/>
     </g>
    </g>
   </g>
   <g id="matplotlib.axis_2">
    <g id="ytick_1">
     <g id="line2d_9">
      <path clip-path="url(#pbc833889fb)" d="M 46.80625 224.64 
L 381.60625 224.64 
" style="fill:none;stroke:#ffffff;stroke-linecap:round;stroke-width:0.8;"/>
     </g>
     <g id="text_10">
      <!-- 0.00 -->
      <g style="fill:#262626;" transform="translate(20.345313 228.218906)scale(0.1 -0.1)">
       <use xlink:href="#ArialMT-48"/>
       <use x="55.615234" xlink:href="#ArialMT-46"/>
       <use x="83.398438" xlink:href="#ArialMT-48"/>
       <use x="139.013672" xlink:href="#ArialMT-48"/>
      </g>
     </g>
    </g>
    <g id="ytick_2">
     <g id="line2d_10">
      <path clip-path="url(#pbc833889fb)" d="M 46.80625 199.175603 
L 381.60625 199.175603 
" style="fill:none;stroke:#ffffff;stroke-linecap:round;stroke-width:0.8;"/>
     </g>
     <g id="text_11">
      <!-- 0.25 -->
      <g style="fill:#262626;" transform="translate(20.345313 202.75451)scale(0.1 -0.1)">
       <use xlink:href="#ArialMT-48"/>
       <use x="55.615234" xlink:href="#ArialMT-46"/>
       <use x="83.398438" xlink:href="#ArialMT-50"/>
       <use x="139.013672" xlink:href="#ArialMT-53"/>
      </g>
     </g>
    </g>
    <g id="ytick_3">
     <g id="line2d_11">
      <path clip-path="url(#pbc833889fb)" d="M 46.80625 173.711207 
L 381.60625 173.711207 
" style="fill:none;stroke:#ffffff;stroke-linecap:round;stroke-width:0.8;"/>
     </g>
     <g id="text_12">
      <!-- 0.50 -->
      <g style="fill:#262626;" transform="translate(20.345313 177.290113)scale(0.1 -0.1)">
       <use xlink:href="#ArialMT-48"/>
       <use x="55.615234" xlink:href="#ArialMT-46"/>
       <use x="83.398438" xlink:href="#ArialMT-53"/>
       <use x="139.013672" xlink:href="#ArialMT-48"/>
      </g>
     </g>
    </g>
    <g id="ytick_4">
     <g id="line2d_12">
      <path clip-path="url(#pbc833889fb)" d="M 46.80625 148.24681 
L 381.60625 148.24681 
" style="fill:none;stroke:#ffffff;stroke-linecap:round;stroke-width:0.8;"/>
     </g>
     <g id="text_13">
      <!-- 0.75 -->
      <g style="fill:#262626;" transform="translate(20.345313 151.825717)scale(0.1 -0.1)">
       <use xlink:href="#ArialMT-48"/>
       <use x="55.615234" xlink:href="#ArialMT-46"/>
       <use x="83.398438" xlink:href="#ArialMT-55"/>
       <use x="139.013672" xlink:href="#ArialMT-53"/>
      </g>
     </g>
    </g>
    <g id="ytick_5">
     <g id="line2d_13">
      <path clip-path="url(#pbc833889fb)" d="M 46.80625 122.782414 
L 381.60625 122.782414 
" style="fill:none;stroke:#ffffff;stroke-linecap:round;stroke-width:0.8;"/>
     </g>
     <g id="text_14">
      <!-- 1.00 -->
      <g style="fill:#262626;" transform="translate(20.345313 126.36132)scale(0.1 -0.1)">
       <use xlink:href="#ArialMT-49"/>
       <use x="55.615234" xlink:href="#ArialMT-46"/>
       <use x="83.398438" xlink:href="#ArialMT-48"/>
       <use x="139.013672" xlink:href="#ArialMT-48"/>
      </g>
     </g>
    </g>
    <g id="ytick_6">
     <g id="line2d_14">
      <path clip-path="url(#pbc833889fb)" d="M 46.80625 97.318017 
L 381.60625 97.318017 
" style="fill:none;stroke:#ffffff;stroke-linecap:round;stroke-width:0.8;"/>
     </g>
     <g id="text_15">
      <!-- 1.25 -->
      <g style="fill:#262626;" transform="translate(20.345313 100.896923)scale(0.1 -0.1)">
       <use xlink:href="#ArialMT-49"/>
       <use x="55.615234" xlink:href="#ArialMT-46"/>
       <use x="83.398438" xlink:href="#ArialMT-50"/>
       <use x="139.013672" xlink:href="#ArialMT-53"/>
      </g>
     </g>
    </g>
    <g id="ytick_7">
     <g id="line2d_15">
      <path clip-path="url(#pbc833889fb)" d="M 46.80625 71.853621 
L 381.60625 71.853621 
" style="fill:none;stroke:#ffffff;stroke-linecap:round;stroke-width:0.8;"/>
     </g>
     <g id="text_16">
      <!-- 1.50 -->
      <g style="fill:#262626;" transform="translate(20.345313 75.432527)scale(0.1 -0.1)">
       <use xlink:href="#ArialMT-49"/>
       <use x="55.615234" xlink:href="#ArialMT-46"/>
       <use x="83.398438" xlink:href="#ArialMT-53"/>
       <use x="139.013672" xlink:href="#ArialMT-48"/>
      </g>
     </g>
    </g>
    <g id="ytick_8">
     <g id="line2d_16">
      <path clip-path="url(#pbc833889fb)" d="M 46.80625 46.389224 
L 381.60625 46.389224 
" style="fill:none;stroke:#ffffff;stroke-linecap:round;stroke-width:0.8;"/>
     </g>
     <g id="text_17">
      <!-- 1.75 -->
      <g style="fill:#262626;" transform="translate(20.345313 49.96813)scale(0.1 -0.1)">
       <use xlink:href="#ArialMT-49"/>
       <use x="55.615234" xlink:href="#ArialMT-46"/>
       <use x="83.398438" xlink:href="#ArialMT-55"/>
       <use x="139.013672" xlink:href="#ArialMT-53"/>
      </g>
     </g>
    </g>
    <g id="ytick_9">
     <g id="line2d_17">
      <path clip-path="url(#pbc833889fb)" d="M 46.80625 20.924828 
L 381.60625 20.924828 
" style="fill:none;stroke:#ffffff;stroke-linecap:round;stroke-width:0.8;"/>
     </g>
     <g id="text_18">
      <!-- 2.00 -->
      <g style="fill:#262626;" transform="translate(20.345313 24.503734)scale(0.1 -0.1)">
       <use xlink:href="#ArialMT-50"/>
       <use x="55.615234" xlink:href="#ArialMT-46"/>
       <use x="83.398438" xlink:href="#ArialMT-48"/>
       <use x="139.013672" xlink:href="#ArialMT-48"/>
      </g>
     </g>
    </g>
    <g id="text_19">
     <!-- Posterior Belief -->
     <defs>
      <path d="M 7.71875 0 
L 7.71875 71.578125 
L 34.71875 71.578125 
Q 41.84375 71.578125 45.609375 70.90625 
Q 50.875 70.015625 54.4375 67.546875 
Q 58.015625 65.09375 60.1875 60.640625 
Q 62.359375 56.203125 62.359375 50.875 
Q 62.359375 41.75 56.546875 35.421875 
Q 50.734375 29.109375 35.546875 29.109375 
L 17.1875 29.109375 
L 17.1875 0 
z
M 17.1875 37.546875 
L 35.6875 37.546875 
Q 44.875 37.546875 48.734375 40.96875 
Q 52.59375 44.390625 52.59375 50.59375 
Q 52.59375 55.078125 50.3125 58.265625 
Q 48.046875 61.46875 44.34375 62.5 
Q 41.9375 63.140625 35.5 63.140625 
L 17.1875 63.140625 
z
" id="ArialMT-80"/>
      <path d="M 3.328125 25.921875 
Q 3.328125 40.328125 11.328125 47.265625 
Q 18.015625 53.03125 27.640625 53.03125 
Q 38.328125 53.03125 45.109375 46.015625 
Q 51.90625 39.015625 51.90625 26.65625 
Q 51.90625 16.65625 48.90625 10.90625 
Q 45.90625 5.171875 40.15625 2 
Q 34.421875 -1.171875 27.640625 -1.171875 
Q 16.75 -1.171875 10.03125 5.8125 
Q 3.328125 12.796875 3.328125 25.921875 
z
M 12.359375 25.921875 
Q 12.359375 15.96875 16.703125 11.015625 
Q 21.046875 6.0625 27.640625 6.0625 
Q 34.1875 6.0625 38.53125 11.03125 
Q 42.875 16.015625 42.875 26.21875 
Q 42.875 35.84375 38.5 40.796875 
Q 34.125 45.75 27.640625 45.75 
Q 21.046875 45.75 16.703125 40.8125 
Q 12.359375 35.890625 12.359375 25.921875 
z
" id="ArialMT-111"/>
      <path d="M 3.078125 15.484375 
L 11.765625 16.84375 
Q 12.5 11.625 15.84375 8.84375 
Q 19.1875 6.0625 25.203125 6.0625 
Q 31.25 6.0625 34.171875 8.515625 
Q 37.109375 10.984375 37.109375 14.3125 
Q 37.109375 17.28125 34.515625 19 
Q 32.71875 20.171875 25.53125 21.96875 
Q 15.875 24.421875 12.140625 26.203125 
Q 8.40625 27.984375 6.46875 31.125 
Q 4.546875 34.28125 4.546875 38.09375 
Q 4.546875 41.546875 6.125 44.5 
Q 7.71875 47.46875 10.453125 49.421875 
Q 12.5 50.921875 16.03125 51.96875 
Q 19.578125 53.03125 23.640625 53.03125 
Q 29.734375 53.03125 34.34375 51.265625 
Q 38.96875 49.515625 41.15625 46.5 
Q 43.359375 43.5 44.1875 38.484375 
L 35.59375 37.3125 
Q 35.015625 41.3125 32.203125 43.546875 
Q 29.390625 45.796875 24.265625 45.796875 
Q 18.21875 45.796875 15.625 43.796875 
Q 13.03125 41.796875 13.03125 39.109375 
Q 13.03125 37.40625 14.109375 36.03125 
Q 15.1875 34.625 17.484375 33.6875 
Q 18.796875 33.203125 25.25 31.453125 
Q 34.578125 28.953125 38.25 27.359375 
Q 41.9375 25.78125 44.03125 22.75 
Q 46.140625 19.734375 46.140625 15.234375 
Q 46.140625 10.84375 43.578125 6.953125 
Q 41.015625 3.078125 36.171875 0.953125 
Q 31.34375 -1.171875 25.25 -1.171875 
Q 15.140625 -1.171875 9.84375 3.03125 
Q 4.546875 7.234375 3.078125 15.484375 
z
" id="ArialMT-115"/>
      <path d="M 25.78125 7.859375 
L 27.046875 0.09375 
Q 23.34375 -0.6875 20.40625 -0.6875 
Q 15.625 -0.6875 12.984375 0.828125 
Q 10.359375 2.34375 9.28125 4.8125 
Q 8.203125 7.28125 8.203125 15.1875 
L 8.203125 45.015625 
L 1.765625 45.015625 
L 1.765625 51.859375 
L 8.203125 51.859375 
L 8.203125 64.703125 
L 16.9375 69.96875 
L 16.9375 51.859375 
L 25.78125 51.859375 
L 25.78125 45.015625 
L 16.9375 45.015625 
L 16.9375 14.703125 
Q 16.9375 10.9375 17.40625 9.859375 
Q 17.875 8.796875 18.921875 8.15625 
Q 19.96875 7.515625 21.921875 7.515625 
Q 23.390625 7.515625 25.78125 7.859375 
z
" id="ArialMT-116"/>
      <path d="M 42.09375 16.703125 
L 51.171875 15.578125 
Q 49.03125 7.625 43.21875 3.21875 
Q 37.40625 -1.171875 28.375 -1.171875 
Q 17 -1.171875 10.328125 5.828125 
Q 3.65625 12.84375 3.65625 25.484375 
Q 3.65625 38.578125 10.390625 45.796875 
Q 17.140625 53.03125 27.875 53.03125 
Q 38.28125 53.03125 44.875 45.953125 
Q 51.46875 38.875 51.46875 26.03125 
Q 51.46875 25.25 51.421875 23.6875 
L 12.75 23.6875 
Q 13.234375 15.140625 17.578125 10.59375 
Q 21.921875 6.0625 28.421875 6.0625 
Q 33.25 6.0625 36.671875 8.59375 
Q 40.09375 11.140625 42.09375 16.703125 
z
M 13.234375 30.90625 
L 42.1875 30.90625 
Q 41.609375 37.453125 38.875 40.71875 
Q 34.671875 45.796875 27.984375 45.796875 
Q 21.921875 45.796875 17.796875 41.75 
Q 13.671875 37.703125 13.234375 30.90625 
z
" id="ArialMT-101"/>
      <path d="M 6.5 0 
L 6.5 51.859375 
L 14.40625 51.859375 
L 14.40625 44 
Q 17.4375 49.515625 20 51.265625 
Q 22.5625 53.03125 25.640625 53.03125 
Q 30.078125 53.03125 34.671875 50.203125 
L 31.640625 42.046875 
Q 28.421875 43.953125 25.203125 43.953125 
Q 22.3125 43.953125 20.015625 42.21875 
Q 17.71875 40.484375 16.75 37.40625 
Q 15.28125 32.71875 15.28125 27.15625 
L 15.28125 0 
z
" id="ArialMT-114"/>
      <path d="M 6.640625 61.46875 
L 6.640625 71.578125 
L 15.4375 71.578125 
L 15.4375 61.46875 
z
M 6.640625 0 
L 6.640625 51.859375 
L 15.4375 51.859375 
L 15.4375 0 
z
" id="ArialMT-105"/>
      <path id="ArialMT-32"/>
      <path d="M 7.328125 0 
L 7.328125 71.578125 
L 34.1875 71.578125 
Q 42.390625 71.578125 47.34375 69.40625 
Q 52.296875 67.234375 55.09375 62.71875 
Q 57.90625 58.203125 57.90625 53.265625 
Q 57.90625 48.6875 55.421875 44.625 
Q 52.9375 40.578125 47.90625 38.09375 
Q 54.390625 36.1875 57.875 31.59375 
Q 61.375 27 61.375 20.75 
Q 61.375 15.71875 59.25 11.390625 
Q 57.125 7.078125 54 4.734375 
Q 50.875 2.390625 46.15625 1.1875 
Q 41.453125 0 34.625 0 
z
M 16.796875 41.5 
L 32.28125 41.5 
Q 38.578125 41.5 41.3125 42.328125 
Q 44.921875 43.40625 46.75 45.890625 
Q 48.578125 48.390625 48.578125 52.15625 
Q 48.578125 55.71875 46.875 58.421875 
Q 45.171875 61.140625 41.984375 62.140625 
Q 38.8125 63.140625 31.109375 63.140625 
L 16.796875 63.140625 
z
M 16.796875 8.453125 
L 34.625 8.453125 
Q 39.203125 8.453125 41.0625 8.796875 
Q 44.34375 9.375 46.53125 10.734375 
Q 48.734375 12.109375 50.140625 14.71875 
Q 51.5625 17.328125 51.5625 20.75 
Q 51.5625 24.75 49.515625 27.703125 
Q 47.46875 30.671875 43.828125 31.859375 
Q 40.1875 33.0625 33.34375 33.0625 
L 16.796875 33.0625 
z
" id="ArialMT-66"/>
      <path d="M 6.390625 0 
L 6.390625 71.578125 
L 15.1875 71.578125 
L 15.1875 0 
z
" id="ArialMT-108"/>
      <path d="M 8.6875 0 
L 8.6875 45.015625 
L 0.921875 45.015625 
L 0.921875 51.859375 
L 8.6875 51.859375 
L 8.6875 57.375 
Q 8.6875 62.59375 9.625 65.140625 
Q 10.890625 68.5625 14.078125 70.671875 
Q 17.28125 72.796875 23.046875 72.796875 
Q 26.765625 72.796875 31.25 71.921875 
L 29.9375 64.265625 
Q 27.203125 64.75 24.75 64.75 
Q 20.75 64.75 19.09375 63.03125 
Q 17.4375 61.328125 17.4375 56.640625 
L 17.4375 51.859375 
L 27.546875 51.859375 
L 27.546875 45.015625 
L 17.4375 45.015625 
L 17.4375 0 
z
" id="ArialMT-102"/>
     </defs>
     <g style="fill:#262626;" transform="translate(14.357813 149.822344)rotate(-90)scale(0.1 -0.1)">
      <use xlink:href="#ArialMT-80"/>
      <use x="66.699219" xlink:href="#ArialMT-111"/>
      <use x="122.314453" xlink:href="#ArialMT-115"/>
      <use x="172.314453" xlink:href="#ArialMT-116"/>
      <use x="200.097656" xlink:href="#ArialMT-101"/>
      <use x="255.712891" xlink:href="#ArialMT-114"/>
      <use x="289.013672" xlink:href="#ArialMT-105"/>
      <use x="311.230469" xlink:href="#ArialMT-111"/>
      <use x="366.845703" xlink:href="#ArialMT-114"/>
      <use x="400.146484" xlink:href="#ArialMT-32"/>
      <use x="427.929688" xlink:href="#ArialMT-66"/>
      <use x="494.628906" xlink:href="#ArialMT-101"/>
      <use x="550.244141" xlink:href="#ArialMT-108"/>
      <use x="572.460938" xlink:href="#ArialMT-105"/>
      <use x="594.677734" xlink:href="#ArialMT-101"/>
      <use x="650.292969" xlink:href="#ArialMT-102"/>
     </g>
    </g>
   </g>
   <g id="patch_3">
    <path clip-path="url(#pbc833889fb)" d="M 74.852669 224.64 
L 80.354651 224.64 
L 80.354651 224.582188 
L 74.852669 224.582188 
z
" style="fill:#c0c0c0;opacity:0.4;stroke:#ffffff;stroke-linejoin:miter;"/>
   </g>
   <g id="patch_4">
    <path clip-path="url(#pbc833889fb)" d="M 80.354651 224.64 
L 85.856633 224.64 
L 85.856633 224.582188 
L 80.354651 224.582188 
z
" style="fill:#c0c0c0;opacity:0.4;stroke:#ffffff;stroke-linejoin:miter;"/>
   </g>
   <g id="patch_5">
    <path clip-path="url(#pbc833889fb)" d="M 85.856633 224.64 
L 91.358615 224.64 
L 91.358615 224.177508 
L 85.856633 224.177508 
z
" style="fill:#c0c0c0;opacity:0.4;stroke:#ffffff;stroke-linejoin:miter;"/>
   </g>
   <g id="patch_6">
    <path clip-path="url(#pbc833889fb)" d="M 91.358615 224.64 
L 96.860597 224.64 
L 96.860597 224.582188 
L 91.358615 224.582188 
z
" style="fill:#c0c0c0;opacity:0.4;stroke:#ffffff;stroke-linejoin:miter;"/>
   </g>
   <g id="patch_7">
    <path clip-path="url(#pbc833889fb)" d="M 96.860597 224.64 
L 102.362579 224.64 
L 102.362579 224.177508 
L 96.860597 224.177508 
z
" style="fill:#c0c0c0;opacity:0.4;stroke:#ffffff;stroke-linejoin:miter;"/>
   </g>
   <g id="patch_8">
    <path clip-path="url(#pbc833889fb)" d="M 102.362579 224.64 
L 107.864561 224.64 
L 107.864561 224.350942 
L 102.362579 224.350942 
z
" style="fill:#c0c0c0;opacity:0.4;stroke:#ffffff;stroke-linejoin:miter;"/>
   </g>
   <g id="patch_9">
    <path clip-path="url(#pbc833889fb)" d="M 107.864561 224.64 
L 113.366543 224.64 
L 113.366543 223.946262 
L 107.864561 223.946262 
z
" style="fill:#c0c0c0;opacity:0.4;stroke:#ffffff;stroke-linejoin:miter;"/>
   </g>
   <g id="patch_10">
    <path clip-path="url(#pbc833889fb)" d="M 113.366543 224.64 
L 118.868525 224.64 
L 118.868525 220.940063 
L 113.366543 220.940063 
z
" style="fill:#c0c0c0;opacity:0.4;stroke:#ffffff;stroke-linejoin:miter;"/>
   </g>
   <g id="patch_11">
    <path clip-path="url(#pbc833889fb)" d="M 118.868525 224.64 
L 124.370506 224.64 
L 124.370506 220.304137 
L 118.868525 220.304137 
z
" style="fill:#c0c0c0;opacity:0.4;stroke:#ffffff;stroke-linejoin:miter;"/>
   </g>
   <g id="patch_12">
    <path clip-path="url(#pbc833889fb)" d="M 124.370506 224.64 
L 129.872488 224.64 
L 129.872488 217.76043 
L 124.370506 217.76043 
z
" style="fill:#c0c0c0;opacity:0.4;stroke:#ffffff;stroke-linejoin:miter;"/>
   </g>
   <g id="patch_13">
    <path clip-path="url(#pbc833889fb)" d="M 129.872488 224.64 
L 135.37447 224.64 
L 135.37447 213.771436 
L 129.872488 213.771436 
z
" style="fill:#c0c0c0;opacity:0.4;stroke:#ffffff;stroke-linejoin:miter;"/>
   </g>
   <g id="patch_14">
    <path clip-path="url(#pbc833889fb)" d="M 135.37447 224.64 
L 140.876452 224.64 
L 140.876452 208.684023 
L 135.37447 208.684023 
z
" style="fill:#c0c0c0;opacity:0.4;stroke:#ffffff;stroke-linejoin:miter;"/>
   </g>
   <g id="patch_15">
    <path clip-path="url(#pbc833889fb)" d="M 140.876452 224.64 
L 146.378434 224.64 
L 146.378434 205.041897 
L 140.876452 205.041897 
z
" style="fill:#c0c0c0;opacity:0.4;stroke:#ffffff;stroke-linejoin:miter;"/>
   </g>
   <g id="patch_16">
    <path clip-path="url(#pbc833889fb)" d="M 146.378434 224.64 
L 151.880416 224.64 
L 151.880416 197.063909 
L 146.378434 197.063909 
z
" style="fill:#c0c0c0;opacity:0.4;stroke:#ffffff;stroke-linejoin:miter;"/>
   </g>
   <g id="patch_17">
    <path clip-path="url(#pbc833889fb)" d="M 151.880416 224.64 
L 157.382398 224.64 
L 157.382398 191.976496 
L 151.880416 191.976496 
z
" style="fill:#c0c0c0;opacity:0.4;stroke:#ffffff;stroke-linejoin:miter;"/>
   </g>
   <g id="patch_18">
    <path clip-path="url(#pbc833889fb)" d="M 157.382398 224.64 
L 162.88438 224.64 
L 162.88438 174.864288 
L 157.382398 174.864288 
z
" style="fill:#c0c0c0;opacity:0.4;stroke:#ffffff;stroke-linejoin:miter;"/>
   </g>
   <g id="patch_19">
    <path clip-path="url(#pbc833889fb)" d="M 162.88438 224.64 
L 168.386362 224.64 
L 168.386362 174.864288 
L 162.88438 174.864288 
z
" style="fill:#c0c0c0;opacity:0.4;stroke:#ffffff;stroke-linejoin:miter;"/>
   </g>
   <g id="patch_20">
    <path clip-path="url(#pbc833889fb)" d="M 168.386362 224.64 
L 173.888344 224.64 
L 173.888344 159.023934 
L 168.386362 159.023934 
z
" style="fill:#c0c0c0;opacity:0.4;stroke:#ffffff;stroke-linejoin:miter;"/>
   </g>
   <g id="patch_21">
    <path clip-path="url(#pbc833889fb)" d="M 173.888344 224.64 
L 179.390326 224.64 
L 179.390326 131.216596 
L 173.888344 131.216596 
z
" style="fill:#c0c0c0;opacity:0.4;stroke:#ffffff;stroke-linejoin:miter;"/>
   </g>
   <g id="patch_22">
    <path clip-path="url(#pbc833889fb)" d="M 179.390326 224.64 
L 184.892308 224.64 
L 184.892308 120.058975 
L 179.390326 120.058975 
z
" style="fill:#c0c0c0;opacity:0.4;stroke:#ffffff;stroke-linejoin:miter;"/>
   </g>
   <g id="patch_23">
    <path clip-path="url(#pbc833889fb)" d="M 184.892308 224.64 
L 190.39429 224.64 
L 190.39429 99.99838 
L 184.892308 99.99838 
z
" style="fill:#c0c0c0;opacity:0.4;stroke:#ffffff;stroke-linejoin:miter;"/>
   </g>
   <g id="patch_24">
    <path clip-path="url(#pbc833889fb)" d="M 190.39429 224.64 
L 195.896271 224.64 
L 195.896271 89.823554 
L 190.39429 89.823554 
z
" style="fill:#c0c0c0;opacity:0.4;stroke:#ffffff;stroke-linejoin:miter;"/>
   </g>
   <g id="patch_25">
    <path clip-path="url(#pbc833889fb)" d="M 195.896271 224.64 
L 201.398253 224.64 
L 201.398253 77.105021 
L 195.896271 77.105021 
z
" style="fill:#c0c0c0;opacity:0.4;stroke:#ffffff;stroke-linejoin:miter;"/>
   </g>
   <g id="patch_26">
    <path clip-path="url(#pbc833889fb)" d="M 201.398253 224.64 
L 206.900235 224.64 
L 206.900235 36.174471 
L 201.398253 36.174471 
z
" style="fill:#c0c0c0;opacity:0.4;stroke:#ffffff;stroke-linejoin:miter;"/>
   </g>
   <g id="patch_27">
    <path clip-path="url(#pbc833889fb)" d="M 206.900235 224.64 
L 212.402217 224.64 
L 212.402217 44.846197 
L 206.900235 44.846197 
z
" style="fill:#c0c0c0;opacity:0.4;stroke:#ffffff;stroke-linejoin:miter;"/>
   </g>
   <g id="patch_28">
    <path clip-path="url(#pbc833889fb)" d="M 212.402217 224.64 
L 217.904199 224.64 
L 217.904199 39.758784 
L 212.402217 39.758784 
z
" style="fill:#c0c0c0;opacity:0.4;stroke:#ffffff;stroke-linejoin:miter;"/>
   </g>
   <g id="patch_29">
    <path clip-path="url(#pbc833889fb)" d="M 217.904199 224.64 
L 223.406181 224.64 
L 223.406181 36.116659 
L 217.904199 36.116659 
z
" style="fill:#c0c0c0;opacity:0.4;stroke:#ffffff;stroke-linejoin:miter;"/>
   </g>
   <g id="patch_30">
    <path clip-path="url(#pbc833889fb)" d="M 223.406181 224.64 
L 228.908163 224.64 
L 228.908163 31.029246 
L 223.406181 31.029246 
z
" style="fill:#c0c0c0;opacity:0.4;stroke:#ffffff;stroke-linejoin:miter;"/>
   </g>
   <g id="patch_31">
    <path clip-path="url(#pbc833889fb)" d="M 228.908163 224.64 
L 234.410145 224.64 
L 234.410145 69.531713 
L 228.908163 69.531713 
z
" style="fill:#c0c0c0;opacity:0.4;stroke:#ffffff;stroke-linejoin:miter;"/>
   </g>
   <g id="patch_32">
    <path clip-path="url(#pbc833889fb)" d="M 234.410145 224.64 
L 239.912127 224.64 
L 239.912127 63.750562 
L 234.410145 63.750562 
z
" style="fill:#c0c0c0;opacity:0.4;stroke:#ffffff;stroke-linejoin:miter;"/>
   </g>
   <g id="patch_33">
    <path clip-path="url(#pbc833889fb)" d="M 239.912127 224.64 
L 245.414109 224.64 
L 245.414109 74.734749 
L 239.912127 74.734749 
z
" style="fill:#c0c0c0;opacity:0.4;stroke:#ffffff;stroke-linejoin:miter;"/>
   </g>
   <g id="patch_34">
    <path clip-path="url(#pbc833889fb)" d="M 245.414109 224.64 
L 250.916091 224.64 
L 250.916091 89.476685 
L 245.414109 89.476685 
z
" style="fill:#c0c0c0;opacity:0.4;stroke:#ffffff;stroke-linejoin:miter;"/>
   </g>
   <g id="patch_35">
    <path clip-path="url(#pbc833889fb)" d="M 250.916091 224.64 
L 256.418073 224.64 
L 256.418073 103.582694 
L 250.916091 103.582694 
z
" style="fill:#c0c0c0;opacity:0.4;stroke:#ffffff;stroke-linejoin:miter;"/>
   </g>
   <g id="patch_36">
    <path clip-path="url(#pbc833889fb)" d="M 256.418073 224.64 
L 261.920055 224.64 
L 261.920055 128.152586 
L 256.418073 128.152586 
z
" style="fill:#c0c0c0;opacity:0.4;stroke:#ffffff;stroke-linejoin:miter;"/>
   </g>
   <g id="patch_37">
    <path clip-path="url(#pbc833889fb)" d="M 261.920055 224.64 
L 267.422037 224.64 
L 267.422037 132.661884 
L 261.920055 132.661884 
z
" style="fill:#c0c0c0;opacity:0.4;stroke:#ffffff;stroke-linejoin:miter;"/>
   </g>
   <g id="patch_38">
    <path clip-path="url(#pbc833889fb)" d="M 267.422037 224.64 
L 272.924018 224.64 
L 272.924018 153.763086 
L 267.422037 153.763086 
z
" style="fill:#c0c0c0;opacity:0.4;stroke:#ffffff;stroke-linejoin:miter;"/>
   </g>
   <g id="patch_39">
    <path clip-path="url(#pbc833889fb)" d="M 272.924018 224.64 
L 278.426 224.64 
L 278.426 173.01432 
L 272.924018 173.01432 
z
" style="fill:#c0c0c0;opacity:0.4;stroke:#ffffff;stroke-linejoin:miter;"/>
   </g>
   <g id="patch_40">
    <path clip-path="url(#pbc833889fb)" d="M 278.426 224.64 
L 283.927982 224.64 
L 283.927982 185.154737 
L 278.426 185.154737 
z
" style="fill:#c0c0c0;opacity:0.4;stroke:#ffffff;stroke-linejoin:miter;"/>
   </g>
   <g id="patch_41">
    <path clip-path="url(#pbc833889fb)" d="M 283.927982 224.64 
L 289.429964 224.64 
L 289.429964 194.231145 
L 283.927982 194.231145 
z
" style="fill:#c0c0c0;opacity:0.4;stroke:#ffffff;stroke-linejoin:miter;"/>
   </g>
   <g id="patch_42">
    <path clip-path="url(#pbc833889fb)" d="M 289.429964 224.64 
L 294.931946 224.64 
L 294.931946 201.573207 
L 289.429964 201.573207 
z
" style="fill:#c0c0c0;opacity:0.4;stroke:#ffffff;stroke-linejoin:miter;"/>
   </g>
   <g id="patch_43">
    <path clip-path="url(#pbc833889fb)" d="M 294.931946 224.64 
L 300.433928 224.64 
L 300.433928 208.510588 
L 294.931946 208.510588 
z
" style="fill:#c0c0c0;opacity:0.4;stroke:#ffffff;stroke-linejoin:miter;"/>
   </g>
   <g id="patch_44">
    <path clip-path="url(#pbc833889fb)" d="M 300.433928 224.64 
L 305.93591 224.64 
L 305.93591 214.002682 
L 300.433928 214.002682 
z
" style="fill:#c0c0c0;opacity:0.4;stroke:#ffffff;stroke-linejoin:miter;"/>
   </g>
   <g id="patch_45">
    <path clip-path="url(#pbc833889fb)" d="M 305.93591 224.64 
L 311.437892 224.64 
L 311.437892 215.737027 
L 305.93591 215.737027 
z
" style="fill:#c0c0c0;opacity:0.4;stroke:#ffffff;stroke-linejoin:miter;"/>
   </g>
   <g id="patch_46">
    <path clip-path="url(#pbc833889fb)" d="M 311.437892 224.64 
L 316.939874 224.64 
L 316.939874 219.436964 
L 311.437892 219.436964 
z
" style="fill:#c0c0c0;opacity:0.4;stroke:#ffffff;stroke-linejoin:miter;"/>
   </g>
   <g id="patch_47">
    <path clip-path="url(#pbc833889fb)" d="M 316.939874 224.64 
L 322.441856 224.64 
L 322.441856 221.286932 
L 316.939874 221.286932 
z
" style="fill:#c0c0c0;opacity:0.4;stroke:#ffffff;stroke-linejoin:miter;"/>
   </g>
   <g id="patch_48">
    <path clip-path="url(#pbc833889fb)" d="M 322.441856 224.64 
L 327.943838 224.64 
L 327.943838 222.096293 
L 322.441856 222.096293 
z
" style="fill:#c0c0c0;opacity:0.4;stroke:#ffffff;stroke-linejoin:miter;"/>
   </g>
   <g id="patch_49">
    <path clip-path="url(#pbc833889fb)" d="M 327.943838 224.64 
L 333.44582 224.64 
L 333.44582 222.847843 
L 327.943838 222.847843 
z
" style="fill:#c0c0c0;opacity:0.4;stroke:#ffffff;stroke-linejoin:miter;"/>
   </g>
   <g id="patch_50">
    <path clip-path="url(#pbc833889fb)" d="M 333.44582 224.64 
L 338.947802 224.64 
L 338.947802 223.252524 
L 333.44582 223.252524 
z
" style="fill:#c0c0c0;opacity:0.4;stroke:#ffffff;stroke-linejoin:miter;"/>
   </g>
   <g id="patch_51">
    <path clip-path="url(#pbc833889fb)" d="M 338.947802 224.64 
L 344.449783 224.64 
L 344.449783 224.235319 
L 338.947802 224.235319 
z
" style="fill:#c0c0c0;opacity:0.4;stroke:#ffffff;stroke-linejoin:miter;"/>
   </g>
   <g id="patch_52">
    <path clip-path="url(#pbc833889fb)" d="M 344.449783 224.64 
L 349.951765 224.64 
L 349.951765 223.946262 
L 344.449783 223.946262 
z
" style="fill:#c0c0c0;opacity:0.4;stroke:#ffffff;stroke-linejoin:miter;"/>
   </g>
   <g id="patch_53">
    <path clip-path="url(#pbc833889fb)" d="M 86.277818 224.64 
L 91.542726 224.64 
L 91.542726 223.673439 
L 86.277818 223.673439 
z
" style="fill:#87ceeb;opacity:0.4;stroke:#ffffff;stroke-linejoin:miter;"/>
   </g>
   <g id="patch_54">
    <path clip-path="url(#pbc833889fb)" d="M 91.542726 224.64 
L 96.807633 224.64 
L 96.807633 224.64 
L 91.542726 224.64 
z
" style="fill:#87ceeb;opacity:0.4;stroke:#ffffff;stroke-linejoin:miter;"/>
   </g>
   <g id="patch_55">
    <path clip-path="url(#pbc833889fb)" d="M 96.807633 224.64 
L 102.072541 224.64 
L 102.072541 224.156719 
L 96.807633 224.156719 
z
" style="fill:#87ceeb;opacity:0.4;stroke:#ffffff;stroke-linejoin:miter;"/>
   </g>
   <g id="patch_56">
    <path clip-path="url(#pbc833889fb)" d="M 102.072541 224.64 
L 107.337448 224.64 
L 107.337448 223.673439 
L 102.072541 223.673439 
z
" style="fill:#87ceeb;opacity:0.4;stroke:#ffffff;stroke-linejoin:miter;"/>
   </g>
   <g id="patch_57">
    <path clip-path="url(#pbc833889fb)" d="M 107.337448 224.64 
L 112.602356 224.64 
L 112.602356 224.39836 
L 107.337448 224.39836 
z
" style="fill:#87ceeb;opacity:0.4;stroke:#ffffff;stroke-linejoin:miter;"/>
   </g>
   <g id="patch_58">
    <path clip-path="url(#pbc833889fb)" d="M 112.602356 224.64 
L 117.867264 224.64 
L 117.867264 223.190158 
L 112.602356 223.190158 
z
" style="fill:#87ceeb;opacity:0.4;stroke:#ffffff;stroke-linejoin:miter;"/>
   </g>
   <g id="patch_59">
    <path clip-path="url(#pbc833889fb)" d="M 117.867264 224.64 
L 123.132171 224.64 
L 123.132171 219.807195 
L 117.867264 219.807195 
z
" style="fill:#87ceeb;opacity:0.4;stroke:#ffffff;stroke-linejoin:miter;"/>
   </g>
   <g id="patch_60">
    <path clip-path="url(#pbc833889fb)" d="M 123.132171 224.64 
L 128.397079 224.64 
L 128.397079 221.015396 
L 123.132171 221.015396 
z
" style="fill:#87ceeb;opacity:0.4;stroke:#ffffff;stroke-linejoin:miter;"/>
   </g>
   <g id="patch_61">
    <path clip-path="url(#pbc833889fb)" d="M 128.397079 224.64 
L 133.661987 224.64 
L 133.661987 214.974389 
L 128.397079 214.974389 
z
" style="fill:#87ceeb;opacity:0.4;stroke:#ffffff;stroke-linejoin:miter;"/>
   </g>
   <g id="patch_62">
    <path clip-path="url(#pbc833889fb)" d="M 133.661987 224.64 
L 138.926894 224.64 
L 138.926894 210.624864 
L 133.661987 210.624864 
z
" style="fill:#87ceeb;opacity:0.4;stroke:#ffffff;stroke-linejoin:miter;"/>
   </g>
   <g id="patch_63">
    <path clip-path="url(#pbc833889fb)" d="M 138.926894 224.64 
L 144.191802 224.64 
L 144.191802 206.516979 
L 138.926894 206.516979 
z
" style="fill:#87ceeb;opacity:0.4;stroke:#ffffff;stroke-linejoin:miter;"/>
   </g>
   <g id="patch_64">
    <path clip-path="url(#pbc833889fb)" d="M 144.191802 224.64 
L 149.456709 224.64 
L 149.456709 200.717613 
L 144.191802 200.717613 
z
" style="fill:#87ceeb;opacity:0.4;stroke:#ffffff;stroke-linejoin:miter;"/>
   </g>
   <g id="patch_65">
    <path clip-path="url(#pbc833889fb)" d="M 149.456709 224.64 
L 154.721617 224.64 
L 154.721617 192.501844 
L 149.456709 192.501844 
z
" style="fill:#87ceeb;opacity:0.4;stroke:#ffffff;stroke-linejoin:miter;"/>
   </g>
   <g id="patch_66">
    <path clip-path="url(#pbc833889fb)" d="M 154.721617 224.64 
L 159.986525 224.64 
L 159.986525 182.594592 
L 154.721617 182.594592 
z
" style="fill:#87ceeb;opacity:0.4;stroke:#ffffff;stroke-linejoin:miter;"/>
   </g>
   <g id="patch_67">
    <path clip-path="url(#pbc833889fb)" d="M 159.986525 224.64 
L 165.251432 224.64 
L 165.251432 176.795226 
L 159.986525 176.795226 
z
" style="fill:#87ceeb;opacity:0.4;stroke:#ffffff;stroke-linejoin:miter;"/>
   </g>
   <g id="patch_68">
    <path clip-path="url(#pbc833889fb)" d="M 165.251432 224.64 
L 170.51634 224.64 
L 170.51634 164.229932 
L 165.251432 164.229932 
z
" style="fill:#87ceeb;opacity:0.4;stroke:#ffffff;stroke-linejoin:miter;"/>
   </g>
   <g id="patch_69">
    <path clip-path="url(#pbc833889fb)" d="M 170.51634 224.64 
L 175.781247 224.64 
L 175.781247 144.173789 
L 170.51634 144.173789 
z
" style="fill:#87ceeb;opacity:0.4;stroke:#ffffff;stroke-linejoin:miter;"/>
   </g>
   <g id="patch_70">
    <path clip-path="url(#pbc833889fb)" d="M 175.781247 224.64 
L 181.046155 224.64 
L 181.046155 136.19966 
L 175.781247 136.19966 
z
" style="fill:#87ceeb;opacity:0.4;stroke:#ffffff;stroke-linejoin:miter;"/>
   </g>
   <g id="patch_71">
    <path clip-path="url(#pbc833889fb)" d="M 181.046155 224.64 
L 186.311063 224.64 
L 186.311063 114.452035 
L 181.046155 114.452035 
z
" style="fill:#87ceeb;opacity:0.4;stroke:#ffffff;stroke-linejoin:miter;"/>
   </g>
   <g id="patch_72">
    <path clip-path="url(#pbc833889fb)" d="M 186.311063 224.64 
L 191.57597 224.64 
L 191.57597 107.444467 
L 186.311063 107.444467 
z
" style="fill:#87ceeb;opacity:0.4;stroke:#ffffff;stroke-linejoin:miter;"/>
   </g>
   <g id="patch_73">
    <path clip-path="url(#pbc833889fb)" d="M 191.57597 224.64 
L 196.840878 224.64 
L 196.840878 71.681707 
L 191.57597 71.681707 
z
" style="fill:#87ceeb;opacity:0.4;stroke:#ffffff;stroke-linejoin:miter;"/>
   </g>
   <g id="patch_74">
    <path clip-path="url(#pbc833889fb)" d="M 196.840878 224.64 
L 202.105786 224.64 
L 202.105786 67.090542 
L 196.840878 67.090542 
z
" style="fill:#87ceeb;opacity:0.4;stroke:#ffffff;stroke-linejoin:miter;"/>
   </g>
   <g id="patch_75">
    <path clip-path="url(#pbc833889fb)" d="M 202.105786 224.64 
L 207.370693 224.64 
L 207.370693 46.551119 
L 202.105786 46.551119 
z
" style="fill:#87ceeb;opacity:0.4;stroke:#ffffff;stroke-linejoin:miter;"/>
   </g>
   <g id="patch_76">
    <path clip-path="url(#pbc833889fb)" d="M 207.370693 224.64 
L 212.635601 224.64 
L 212.635601 61.291175 
L 207.370693 61.291175 
z
" style="fill:#87ceeb;opacity:0.4;stroke:#ffffff;stroke-linejoin:miter;"/>
   </g>
   <g id="patch_77">
    <path clip-path="url(#pbc833889fb)" d="M 212.635601 224.64 
L 217.900508 224.64 
L 217.900508 17.554286 
L 212.635601 17.554286 
z
" style="fill:#87ceeb;opacity:0.4;stroke:#ffffff;stroke-linejoin:miter;"/>
   </g>
   <g id="patch_78">
    <path clip-path="url(#pbc833889fb)" d="M 217.900508 224.64 
L 223.165416 224.64 
L 223.165416 27.219897 
L 217.900508 27.219897 
z
" style="fill:#87ceeb;opacity:0.4;stroke:#ffffff;stroke-linejoin:miter;"/>
   </g>
   <g id="patch_79">
    <path clip-path="url(#pbc833889fb)" d="M 223.165416 224.64 
L 228.430324 224.64 
L 228.430324 47.276039 
L 223.165416 47.276039 
z
" style="fill:#87ceeb;opacity:0.4;stroke:#ffffff;stroke-linejoin:miter;"/>
   </g>
   <g id="patch_80">
    <path clip-path="url(#pbc833889fb)" d="M 228.430324 224.64 
L 233.695231 224.64 
L 233.695231 68.782024 
L 228.430324 68.782024 
z
" style="fill:#87ceeb;opacity:0.4;stroke:#ffffff;stroke-linejoin:miter;"/>
   </g>
   <g id="patch_81">
    <path clip-path="url(#pbc833889fb)" d="M 233.695231 224.64 
L 238.960139 224.64 
L 238.960139 52.592125 
L 233.695231 52.592125 
z
" style="fill:#87ceeb;opacity:0.4;stroke:#ffffff;stroke-linejoin:miter;"/>
   </g>
   <g id="patch_82">
    <path clip-path="url(#pbc833889fb)" d="M 238.960139 224.64 
L 244.225047 224.64 
L 244.225047 69.990225 
L 238.960139 69.990225 
z
" style="fill:#87ceeb;opacity:0.4;stroke:#ffffff;stroke-linejoin:miter;"/>
   </g>
   <g id="patch_83">
    <path clip-path="url(#pbc833889fb)" d="M 244.225047 224.64 
L 249.489954 224.64 
L 249.489954 84.005361 
L 244.225047 84.005361 
z
" style="fill:#87ceeb;opacity:0.4;stroke:#ffffff;stroke-linejoin:miter;"/>
   </g>
   <g id="patch_84">
    <path clip-path="url(#pbc833889fb)" d="M 249.489954 224.64 
L 254.754862 224.64 
L 254.754862 112.035633 
L 249.489954 112.035633 
z
" style="fill:#87ceeb;opacity:0.4;stroke:#ffffff;stroke-linejoin:miter;"/>
   </g>
   <g id="patch_85">
    <path clip-path="url(#pbc833889fb)" d="M 254.754862 224.64 
L 260.019769 224.64 
L 260.019769 120.009762 
L 254.754862 120.009762 
z
" style="fill:#87ceeb;opacity:0.4;stroke:#ffffff;stroke-linejoin:miter;"/>
   </g>
   <g id="patch_86">
    <path clip-path="url(#pbc833889fb)" d="M 260.019769 224.64 
L 265.284677 224.64 
L 265.284677 116.385158 
L 260.019769 116.385158 
z
" style="fill:#87ceeb;opacity:0.4;stroke:#ffffff;stroke-linejoin:miter;"/>
   </g>
   <g id="patch_87">
    <path clip-path="url(#pbc833889fb)" d="M 265.284677 224.64 
L 270.549585 224.64 
L 270.549585 150.214796 
L 265.284677 150.214796 
z
" style="fill:#87ceeb;opacity:0.4;stroke:#ffffff;stroke-linejoin:miter;"/>
   </g>
   <g id="patch_88">
    <path clip-path="url(#pbc833889fb)" d="M 270.549585 224.64 
L 275.814492 224.64 
L 275.814492 169.787658 
L 270.549585 169.787658 
z
" style="fill:#87ceeb;opacity:0.4;stroke:#ffffff;stroke-linejoin:miter;"/>
   </g>
   <g id="patch_89">
    <path clip-path="url(#pbc833889fb)" d="M 275.814492 224.64 
L 281.0794 224.64 
L 281.0794 179.694909 
L 275.814492 179.694909 
z
" style="fill:#87ceeb;opacity:0.4;stroke:#ffffff;stroke-linejoin:miter;"/>
   </g>
   <g id="patch_90">
    <path clip-path="url(#pbc833889fb)" d="M 281.0794 224.64 
L 286.344308 224.64 
L 286.344308 185.494276 
L 281.0794 185.494276 
z
" style="fill:#87ceeb;opacity:0.4;stroke:#ffffff;stroke-linejoin:miter;"/>
   </g>
   <g id="patch_91">
    <path clip-path="url(#pbc833889fb)" d="M 286.344308 224.64 
L 291.609215 224.64 
L 291.609215 196.851369 
L 286.344308 196.851369 
z
" style="fill:#87ceeb;opacity:0.4;stroke:#ffffff;stroke-linejoin:miter;"/>
   </g>
   <g id="patch_92">
    <path clip-path="url(#pbc833889fb)" d="M 291.609215 224.64 
L 296.874123 224.64 
L 296.874123 207.483541 
L 291.609215 207.483541 
z
" style="fill:#87ceeb;opacity:0.4;stroke:#ffffff;stroke-linejoin:miter;"/>
   </g>
   <g id="patch_93">
    <path clip-path="url(#pbc833889fb)" d="M 296.874123 224.64 
L 302.13903 224.64 
L 302.13903 212.799627 
L 296.874123 212.799627 
z
" style="fill:#87ceeb;opacity:0.4;stroke:#ffffff;stroke-linejoin:miter;"/>
   </g>
   <g id="patch_94">
    <path clip-path="url(#pbc833889fb)" d="M 302.13903 224.64 
L 307.403938 224.64 
L 307.403938 213.282907 
L 302.13903 213.282907 
z
" style="fill:#87ceeb;opacity:0.4;stroke:#ffffff;stroke-linejoin:miter;"/>
   </g>
   <g id="patch_95">
    <path clip-path="url(#pbc833889fb)" d="M 307.403938 224.64 
L 312.668846 224.64 
L 312.668846 220.773756 
L 307.403938 220.773756 
z
" style="fill:#87ceeb;opacity:0.4;stroke:#ffffff;stroke-linejoin:miter;"/>
   </g>
   <g id="patch_96">
    <path clip-path="url(#pbc833889fb)" d="M 312.668846 224.64 
L 317.933753 224.64 
L 317.933753 215.45767 
L 312.668846 215.45767 
z
" style="fill:#87ceeb;opacity:0.4;stroke:#ffffff;stroke-linejoin:miter;"/>
   </g>
   <g id="patch_97">
    <path clip-path="url(#pbc833889fb)" d="M 317.933753 224.64 
L 323.198661 224.64 
L 323.198661 221.981957 
L 317.933753 221.981957 
z
" style="fill:#87ceeb;opacity:0.4;stroke:#ffffff;stroke-linejoin:miter;"/>
   </g>
   <g id="patch_98">
    <path clip-path="url(#pbc833889fb)" d="M 323.198661 224.64 
L 328.463568 224.64 
L 328.463568 224.156719 
L 323.198661 224.156719 
z
" style="fill:#87ceeb;opacity:0.4;stroke:#ffffff;stroke-linejoin:miter;"/>
   </g>
   <g id="patch_99">
    <path clip-path="url(#pbc833889fb)" d="M 328.463568 224.64 
L 333.728476 224.64 
L 333.728476 222.223597 
L 328.463568 222.223597 
z
" style="fill:#87ceeb;opacity:0.4;stroke:#ffffff;stroke-linejoin:miter;"/>
   </g>
   <g id="patch_100">
    <path clip-path="url(#pbc833889fb)" d="M 333.728476 224.64 
L 338.993384 224.64 
L 338.993384 223.190158 
L 333.728476 223.190158 
z
" style="fill:#87ceeb;opacity:0.4;stroke:#ffffff;stroke-linejoin:miter;"/>
   </g>
   <g id="patch_101">
    <path clip-path="url(#pbc833889fb)" d="M 338.993384 224.64 
L 344.258291 224.64 
L 344.258291 224.64 
L 338.993384 224.64 
z
" style="fill:#87ceeb;opacity:0.4;stroke:#ffffff;stroke-linejoin:miter;"/>
   </g>
   <g id="patch_102">
    <path clip-path="url(#pbc833889fb)" d="M 344.258291 224.64 
L 349.523199 224.64 
L 349.523199 224.156719 
L 344.258291 224.156719 
z
" style="fill:#87ceeb;opacity:0.4;stroke:#ffffff;stroke-linejoin:miter;"/>
   </g>
   <g id="line2d_18">
    <path clip-path="url(#pbc833889fb)" d="M 62.024432 224.639231 
L 83.337819 224.559318 
L 97.546743 224.307297 
L 102.283052 224.295595 
L 104.651206 224.196204 
L 107.01936 223.938206 
L 109.387514 223.458907 
L 116.491976 221.549826 
L 118.86013 221.007707 
L 121.228284 220.347256 
L 123.596438 219.477502 
L 125.964593 218.366902 
L 128.332747 216.96132 
L 130.700901 215.21344 
L 135.437209 211.228144 
L 140.173517 207.55295 
L 142.541671 205.315802 
L 144.909825 202.563513 
L 149.646134 196.2872 
L 152.014288 192.854385 
L 154.382442 189.014628 
L 159.11875 180.909477 
L 163.855058 173.883887 
L 166.223212 169.49333 
L 168.591366 163.492295 
L 170.95952 155.642541 
L 175.695829 137.433611 
L 178.063983 129.847208 
L 180.432137 124.00972 
L 182.800291 118.805246 
L 185.168445 112.833035 
L 192.272907 91.699076 
L 194.641061 84.474441 
L 197.009216 75.950369 
L 201.745524 55.933742 
L 204.113678 47.868803 
L 206.481832 42.568557 
L 208.849986 39.19091 
L 211.21814 37.109445 
L 213.586294 36.695859 
L 215.954448 37.811032 
L 218.322603 39.260233 
L 220.690757 40.147698 
L 223.058911 40.691936 
L 225.427065 42.056552 
L 227.795219 45.691442 
L 230.163373 51.838581 
L 232.531527 58.855002 
L 234.899681 64.915329 
L 237.267835 69.625159 
L 239.635989 73.432642 
L 242.004144 76.794885 
L 244.372298 80.432471 
L 246.740452 85.243962 
L 249.108606 91.535795 
L 258.581222 120.659475 
L 265.685685 140.60941 
L 270.421993 154.292332 
L 275.158301 167.989341 
L 277.526455 174.973507 
L 279.894609 181.381137 
L 282.262763 186.74348 
L 284.630917 190.960838 
L 286.999071 194.369416 
L 291.73538 200.839272 
L 294.103534 204.119624 
L 296.471688 207.045301 
L 298.839842 209.502459 
L 301.207996 211.598881 
L 303.57615 213.373821 
L 305.944304 214.795744 
L 315.416921 219.402338 
L 317.785075 220.30367 
L 320.153229 220.974446 
L 324.889537 221.931726 
L 329.625845 222.660581 
L 339.098462 223.812864 
L 343.83477 224.101095 
L 350.939232 224.310754 
L 358.043694 224.601995 
L 362.780003 224.637539 
L 362.780003 224.637539 
" style="fill:none;stroke:#c0c0c0;stroke-linecap:round;stroke-width:1.5;"/>
   </g>
   <g id="line2d_19">
    <path clip-path="url(#pbc833889fb)" d="M 69.412949 224.63524 
L 78.766496 224.49093 
L 85.781656 224.279032 
L 99.811977 224.243788 
L 106.827137 223.831293 
L 109.165524 223.607872 
L 111.503911 223.258289 
L 113.842297 222.75881 
L 118.519071 221.466203 
L 123.195844 219.92326 
L 125.534231 218.872786 
L 127.872618 217.509464 
L 130.211005 215.831965 
L 132.549391 213.912821 
L 137.226165 209.678765 
L 141.902939 205.110008 
L 144.241325 202.615126 
L 146.579712 199.861367 
L 148.918099 196.775662 
L 153.594872 189.802402 
L 158.271646 182.547358 
L 160.610033 178.705362 
L 162.948419 174.333026 
L 165.286806 169.126516 
L 167.625193 163.010255 
L 179.317127 128.891757 
L 183.9939 114.92941 
L 188.670674 100.045477 
L 193.347447 84.335431 
L 195.685834 76.942718 
L 198.024221 70.328409 
L 200.362608 64.523925 
L 202.700994 59.340764 
L 212.054542 39.959307 
L 214.392928 36.003244 
L 216.731315 33.908711 
L 219.069702 34.329057 
L 221.408089 37.230993 
L 223.746475 41.951615 
L 226.084862 47.458383 
L 228.423249 52.640228 
L 230.761636 56.663874 
L 233.100022 59.362674 
L 235.438409 61.383745 
L 237.776796 63.85542 
L 240.115183 67.73711 
L 242.45357 73.333459 
L 244.791956 80.296223 
L 251.807117 103.116621 
L 254.145503 109.766295 
L 256.48389 115.620097 
L 261.160664 126.378229 
L 263.49905 132.461887 
L 265.837437 139.475822 
L 272.852597 162.869438 
L 275.190984 169.743094 
L 277.529371 175.654848 
L 279.867758 180.723155 
L 282.206145 185.249673 
L 286.882918 193.603058 
L 289.221305 197.508719 
L 291.559692 201.144498 
L 293.898078 204.429278 
L 296.236465 207.290468 
L 298.574852 209.692024 
L 300.913239 211.669641 
L 303.251625 213.318305 
L 305.590012 214.728669 
L 307.928399 215.940451 
L 310.266786 216.968446 
L 321.95872 221.430981 
L 324.297106 222.092649 
L 326.635493 222.519299 
L 343.004201 224.262038 
L 347.680974 224.414117 
L 366.388068 224.63678 
L 366.388068 224.63678 
" style="fill:none;stroke:#87ceeb;stroke-linecap:round;stroke-width:1.5;"/>
   </g>
   <g id="patch_103">
    <path d="M 46.80625 224.64 
L 46.80625 7.2 
" style="fill:none;stroke:#ffffff;stroke-linecap:square;stroke-linejoin:miter;stroke-width:0.8;"/>
   </g>
   <g id="patch_104">
    <path d="M 381.60625 224.64 
L 381.60625 7.2 
" style="fill:none;stroke:#ffffff;stroke-linecap:square;stroke-linejoin:miter;stroke-width:0.8;"/>
   </g>
   <g id="patch_105">
    <path d="M 46.80625 224.64 
L 381.60625 224.64 
" style="fill:none;stroke:#ffffff;stroke-linecap:square;stroke-linejoin:miter;stroke-width:0.8;"/>
   </g>
   <g id="patch_106">
    <path d="M 46.80625 7.2 
L 381.60625 7.2 
" style="fill:none;stroke:#ffffff;stroke-linecap:square;stroke-linejoin:miter;stroke-width:0.8;"/>
   </g>
   <g id="legend_1">
    <g id="patch_107">
     <path d="M 309.810937 43.729687 
L 374.60625 43.729687 
Q 376.60625 43.729687 376.60625 41.729687 
L 376.60625 14.2 
Q 376.60625 12.2 374.60625 12.2 
L 309.810937 12.2 
Q 307.810937 12.2 307.810937 14.2 
L 307.810937 41.729687 
Q 307.810937 43.729687 309.810937 43.729687 
z
" style="fill:#eaeaf2;opacity:0.8;stroke:#cccccc;stroke-linejoin:miter;"/>
    </g>
    <g id="patch_108">
     <path d="M 311.810937 23.479687 
L 331.810937 23.479687 
L 331.810937 16.479687 
L 311.810937 16.479687 
z
" style="fill:#c0c0c0;opacity:0.4;stroke:#ffffff;stroke-linejoin:miter;"/>
    </g>
    <g id="text_20">
     <!-- PyMC3 -->
     <defs>
      <path d="M 6.203125 -19.96875 
L 5.21875 -11.71875 
Q 8.109375 -12.5 10.25 -12.5 
Q 13.1875 -12.5 14.9375 -11.515625 
Q 16.703125 -10.546875 17.828125 -8.796875 
Q 18.65625 -7.46875 20.515625 -2.25 
Q 20.75 -1.515625 21.296875 -0.09375 
L 1.609375 51.859375 
L 11.078125 51.859375 
L 21.875 21.828125 
Q 23.96875 16.109375 25.640625 9.8125 
Q 27.15625 15.875 29.25 21.625 
L 40.328125 51.859375 
L 49.125 51.859375 
L 29.390625 -0.875 
Q 26.21875 -9.421875 24.46875 -12.640625 
Q 22.125 -17 19.09375 -19.015625 
Q 16.0625 -21.046875 11.859375 -21.046875 
Q 9.328125 -21.046875 6.203125 -19.96875 
z
" id="ArialMT-121"/>
      <path d="M 7.421875 0 
L 7.421875 71.578125 
L 21.6875 71.578125 
L 38.625 20.90625 
Q 40.96875 13.8125 42.046875 10.296875 
Q 43.265625 14.203125 45.84375 21.78125 
L 62.984375 71.578125 
L 75.734375 71.578125 
L 75.734375 0 
L 66.609375 0 
L 66.609375 59.90625 
L 45.796875 0 
L 37.25 0 
L 16.546875 60.9375 
L 16.546875 0 
z
" id="ArialMT-77"/>
      <path d="M 58.796875 25.09375 
L 68.265625 22.703125 
Q 65.28125 11.03125 57.546875 4.90625 
Q 49.8125 -1.21875 38.625 -1.21875 
Q 27.046875 -1.21875 19.796875 3.484375 
Q 12.546875 8.203125 8.765625 17.140625 
Q 4.984375 26.078125 4.984375 36.328125 
Q 4.984375 47.515625 9.25 55.828125 
Q 13.53125 64.15625 21.40625 68.46875 
Q 29.296875 72.796875 38.765625 72.796875 
Q 49.515625 72.796875 56.828125 67.328125 
Q 64.15625 61.859375 67.046875 51.953125 
L 57.71875 49.75 
Q 55.21875 57.5625 50.484375 61.125 
Q 45.75 64.703125 38.578125 64.703125 
Q 30.328125 64.703125 24.78125 60.734375 
Q 19.234375 56.78125 16.984375 50.109375 
Q 14.75 43.453125 14.75 36.375 
Q 14.75 27.25 17.40625 20.4375 
Q 20.0625 13.625 25.671875 10.25 
Q 31.296875 6.890625 37.84375 6.890625 
Q 45.796875 6.890625 51.3125 11.46875 
Q 56.84375 16.0625 58.796875 25.09375 
z
" id="ArialMT-67"/>
      <path d="M 4.203125 18.890625 
L 12.984375 20.0625 
Q 14.5 12.59375 18.140625 9.296875 
Q 21.78125 6 27 6 
Q 33.203125 6 37.46875 10.296875 
Q 41.75 14.59375 41.75 20.953125 
Q 41.75 27 37.796875 30.921875 
Q 33.84375 34.859375 27.734375 34.859375 
Q 25.25 34.859375 21.53125 33.890625 
L 22.515625 41.609375 
Q 23.390625 41.5 23.921875 41.5 
Q 29.546875 41.5 34.03125 44.421875 
Q 38.53125 47.359375 38.53125 53.46875 
Q 38.53125 58.296875 35.25 61.46875 
Q 31.984375 64.65625 26.8125 64.65625 
Q 21.6875 64.65625 18.265625 61.421875 
Q 14.84375 58.203125 13.875 51.765625 
L 5.078125 53.328125 
Q 6.6875 62.15625 12.390625 67.015625 
Q 18.109375 71.875 26.609375 71.875 
Q 32.46875 71.875 37.390625 69.359375 
Q 42.328125 66.84375 44.9375 62.5 
Q 47.5625 58.15625 47.5625 53.265625 
Q 47.5625 48.640625 45.0625 44.828125 
Q 42.578125 41.015625 37.703125 38.765625 
Q 44.046875 37.3125 47.5625 32.6875 
Q 51.078125 28.078125 51.078125 21.140625 
Q 51.078125 11.765625 44.234375 5.25 
Q 37.40625 -1.265625 26.953125 -1.265625 
Q 17.53125 -1.265625 11.296875 4.34375 
Q 5.078125 9.96875 4.203125 18.890625 
z
" id="ArialMT-51"/>
     </defs>
     <g style="fill:#262626;" transform="translate(339.810937 23.479687)scale(0.1 -0.1)">
      <use xlink:href="#ArialMT-80"/>
      <use x="66.699219" xlink:href="#ArialMT-121"/>
      <use x="116.699219" xlink:href="#ArialMT-77"/>
      <use x="200" xlink:href="#ArialMT-67"/>
      <use x="272.216797" xlink:href="#ArialMT-51"/>
     </g>
    </g>
    <g id="patch_109">
     <path d="M 311.810937 37.742187 
L 331.810937 37.742187 
L 331.810937 30.742187 
L 311.810937 30.742187 
z
" style="fill:#87ceeb;opacity:0.4;stroke:#ffffff;stroke-linejoin:miter;"/>
    </g>
    <g id="text_21">
     <!-- Manual -->
     <defs>
      <path d="M 40.4375 6.390625 
Q 35.546875 2.25 31.03125 0.53125 
Q 26.515625 -1.171875 21.34375 -1.171875 
Q 12.796875 -1.171875 8.203125 3 
Q 3.609375 7.171875 3.609375 13.671875 
Q 3.609375 17.484375 5.34375 20.625 
Q 7.078125 23.78125 9.890625 25.6875 
Q 12.703125 27.59375 16.21875 28.5625 
Q 18.796875 29.25 24.03125 29.890625 
Q 34.671875 31.15625 39.703125 32.90625 
Q 39.75 34.71875 39.75 35.203125 
Q 39.75 40.578125 37.25 42.78125 
Q 33.890625 45.75 27.25 45.75 
Q 21.046875 45.75 18.09375 43.578125 
Q 15.140625 41.40625 13.71875 35.890625 
L 5.125 37.0625 
Q 6.296875 42.578125 8.984375 45.96875 
Q 11.671875 49.359375 16.75 51.1875 
Q 21.828125 53.03125 28.515625 53.03125 
Q 35.15625 53.03125 39.296875 51.46875 
Q 43.453125 49.90625 45.40625 47.53125 
Q 47.359375 45.171875 48.140625 41.546875 
Q 48.578125 39.3125 48.578125 33.453125 
L 48.578125 21.734375 
Q 48.578125 9.46875 49.140625 6.21875 
Q 49.703125 2.984375 51.375 0 
L 42.1875 0 
Q 40.828125 2.734375 40.4375 6.390625 
z
M 39.703125 26.03125 
Q 34.90625 24.078125 25.34375 22.703125 
Q 19.921875 21.921875 17.671875 20.9375 
Q 15.4375 19.96875 14.203125 18.09375 
Q 12.984375 16.21875 12.984375 13.921875 
Q 12.984375 10.40625 15.640625 8.0625 
Q 18.3125 5.71875 23.4375 5.71875 
Q 28.515625 5.71875 32.46875 7.9375 
Q 36.421875 10.15625 38.28125 14.015625 
Q 39.703125 17 39.703125 22.796875 
z
" id="ArialMT-97"/>
      <path d="M 6.59375 0 
L 6.59375 51.859375 
L 14.5 51.859375 
L 14.5 44.484375 
Q 20.21875 53.03125 31 53.03125 
Q 35.6875 53.03125 39.625 51.34375 
Q 43.5625 49.65625 45.515625 46.921875 
Q 47.46875 44.1875 48.25 40.4375 
Q 48.734375 37.984375 48.734375 31.890625 
L 48.734375 0 
L 39.9375 0 
L 39.9375 31.546875 
Q 39.9375 36.921875 38.90625 39.578125 
Q 37.890625 42.234375 35.28125 43.8125 
Q 32.671875 45.40625 29.15625 45.40625 
Q 23.53125 45.40625 19.453125 41.84375 
Q 15.375 38.28125 15.375 28.328125 
L 15.375 0 
z
" id="ArialMT-110"/>
      <path d="M 40.578125 0 
L 40.578125 7.625 
Q 34.515625 -1.171875 24.125 -1.171875 
Q 19.53125 -1.171875 15.546875 0.578125 
Q 11.578125 2.34375 9.640625 5 
Q 7.71875 7.671875 6.9375 11.53125 
Q 6.390625 14.109375 6.390625 19.734375 
L 6.390625 51.859375 
L 15.1875 51.859375 
L 15.1875 23.09375 
Q 15.1875 16.21875 15.71875 13.8125 
Q 16.546875 10.359375 19.234375 8.375 
Q 21.921875 6.390625 25.875 6.390625 
Q 29.828125 6.390625 33.296875 8.421875 
Q 36.765625 10.453125 38.203125 13.9375 
Q 39.65625 17.4375 39.65625 24.078125 
L 39.65625 51.859375 
L 48.4375 51.859375 
L 48.4375 0 
z
" id="ArialMT-117"/>
     </defs>
     <g style="fill:#262626;" transform="translate(339.810937 37.742187)scale(0.1 -0.1)">
      <use xlink:href="#ArialMT-77"/>
      <use x="83.300781" xlink:href="#ArialMT-97"/>
      <use x="138.916016" xlink:href="#ArialMT-110"/>
      <use x="194.53125" xlink:href="#ArialMT-117"/>
      <use x="250.146484" xlink:href="#ArialMT-97"/>
      <use x="305.761719" xlink:href="#ArialMT-108"/>
     </g>
    </g>
   </g>
  </g>
 </g>
 <defs>
  <clipPath id="pbc833889fb">
   <rect height="217.44" width="334.8" x="46.80625" y="7.2"/>
  </clipPath>
 </defs>
</svg>
