<?xml version="1.0" encoding="utf-8" standalone="no"?>
<!DOCTYPE svg PUBLIC "-//W3C//DTD SVG 1.1//EN"
  "http://www.w3.org/Graphics/SVG/1.1/DTD/svg11.dtd">
<!-- Created with matplotlib (https://matplotlib.org/) -->
<svg height="248.518125pt" version="1.1" viewBox="0 0 370.942187 248.518125" width="370.942187pt" xmlns="http://www.w3.org/2000/svg" xmlns:xlink="http://www.w3.org/1999/xlink">
 <defs>
  <style type="text/css">
*{stroke-linecap:butt;stroke-linejoin:round;}
  </style>
 </defs>
 <g id="figure_1">
  <g id="patch_1">
   <path d="M 0 248.518125 
L 370.942187 248.518125 
L 370.942187 0 
L 0 0 
z
" style="fill:#ffffff;"/>
  </g>
  <g id="axes_1">
   <g id="patch_2">
    <path d="M 28.942188 224.64 
L 363.742188 224.64 
L 363.742188 7.2 
L 28.942188 7.2 
z
" style="fill:#e5e5e5;"/>
   </g>
   <g id="matplotlib.axis_1">
    <g id="xtick_1">
     <g id="line2d_1">
      <path clip-path="url(#pdbee65f521)" d="M 74.596733 224.64 
L 74.596733 7.2 
" style="fill:none;stroke:#ffffff;stroke-linecap:square;stroke-width:0.8;"/>
     </g>
     <g id="line2d_2">
      <defs>
       <path d="M 0 0 
L 0 3.5 
" id="m3d3811bd36" style="stroke:#555555;stroke-width:0.8;"/>
      </defs>
      <g>
       <use style="fill:#555555;stroke:#555555;stroke-width:0.8;" x="74.596733" xlink:href="#m3d3811bd36" y="224.64"/>
      </g>
     </g>
     <g id="text_1">
      <!-- −4 -->
      <defs>
       <path d="M 10.59375 35.5 
L 73.1875 35.5 
L 73.1875 27.203125 
L 10.59375 27.203125 
z
" id="DejaVuSans-8722"/>
       <path d="M 37.796875 64.3125 
L 12.890625 25.390625 
L 37.796875 25.390625 
z
M 35.203125 72.90625 
L 47.609375 72.90625 
L 47.609375 25.390625 
L 58.015625 25.390625 
L 58.015625 17.1875 
L 47.609375 17.1875 
L 47.609375 0 
L 37.796875 0 
L 37.796875 17.1875 
L 4.890625 17.1875 
L 4.890625 26.703125 
z
" id="DejaVuSans-52"/>
      </defs>
      <g style="fill:#555555;" transform="translate(67.225639 239.238437)scale(0.1 -0.1)">
       <use xlink:href="#DejaVuSans-8722"/>
       <use x="83.789062" xlink:href="#DejaVuSans-52"/>
      </g>
     </g>
    </g>
    <g id="xtick_2">
     <g id="line2d_3">
      <path clip-path="url(#pdbee65f521)" d="M 135.46946 224.64 
L 135.46946 7.2 
" style="fill:none;stroke:#ffffff;stroke-linecap:square;stroke-width:0.8;"/>
     </g>
     <g id="line2d_4">
      <g>
       <use style="fill:#555555;stroke:#555555;stroke-width:0.8;" x="135.46946" xlink:href="#m3d3811bd36" y="224.64"/>
      </g>
     </g>
     <g id="text_2">
      <!-- −2 -->
      <defs>
       <path d="M 19.1875 8.296875 
L 53.609375 8.296875 
L 53.609375 0 
L 7.328125 0 
L 7.328125 8.296875 
Q 12.9375 14.109375 22.625 23.890625 
Q 32.328125 33.6875 34.8125 36.53125 
Q 39.546875 41.84375 41.421875 45.53125 
Q 43.3125 49.21875 43.3125 52.78125 
Q 43.3125 58.59375 39.234375 62.25 
Q 35.15625 65.921875 28.609375 65.921875 
Q 23.96875 65.921875 18.8125 64.3125 
Q 13.671875 62.703125 7.8125 59.421875 
L 7.8125 69.390625 
Q 13.765625 71.78125 18.9375 73 
Q 24.125 74.21875 28.421875 74.21875 
Q 39.75 74.21875 46.484375 68.546875 
Q 53.21875 62.890625 53.21875 53.421875 
Q 53.21875 48.921875 51.53125 44.890625 
Q 49.859375 40.875 45.40625 35.40625 
Q 44.1875 33.984375 37.640625 27.21875 
Q 31.109375 20.453125 19.1875 8.296875 
z
" id="DejaVuSans-50"/>
      </defs>
      <g style="fill:#555555;" transform="translate(128.098366 239.238437)scale(0.1 -0.1)">
       <use xlink:href="#DejaVuSans-8722"/>
       <use x="83.789062" xlink:href="#DejaVuSans-50"/>
      </g>
     </g>
    </g>
    <g id="xtick_3">
     <g id="line2d_5">
      <path clip-path="url(#pdbee65f521)" d="M 196.342188 224.64 
L 196.342188 7.2 
" style="fill:none;stroke:#ffffff;stroke-linecap:square;stroke-width:0.8;"/>
     </g>
     <g id="line2d_6">
      <g>
       <use style="fill:#555555;stroke:#555555;stroke-width:0.8;" x="196.342188" xlink:href="#m3d3811bd36" y="224.64"/>
      </g>
     </g>
     <g id="text_3">
      <!-- 0 -->
      <defs>
       <path d="M 31.78125 66.40625 
Q 24.171875 66.40625 20.328125 58.90625 
Q 16.5 51.421875 16.5 36.375 
Q 16.5 21.390625 20.328125 13.890625 
Q 24.171875 6.390625 31.78125 6.390625 
Q 39.453125 6.390625 43.28125 13.890625 
Q 47.125 21.390625 47.125 36.375 
Q 47.125 51.421875 43.28125 58.90625 
Q 39.453125 66.40625 31.78125 66.40625 
z
M 31.78125 74.21875 
Q 44.046875 74.21875 50.515625 64.515625 
Q 56.984375 54.828125 56.984375 36.375 
Q 56.984375 17.96875 50.515625 8.265625 
Q 44.046875 -1.421875 31.78125 -1.421875 
Q 19.53125 -1.421875 13.0625 8.265625 
Q 6.59375 17.96875 6.59375 36.375 
Q 6.59375 54.828125 13.0625 64.515625 
Q 19.53125 74.21875 31.78125 74.21875 
z
" id="DejaVuSans-48"/>
      </defs>
      <g style="fill:#555555;" transform="translate(193.160938 239.238437)scale(0.1 -0.1)">
       <use xlink:href="#DejaVuSans-48"/>
      </g>
     </g>
    </g>
    <g id="xtick_4">
     <g id="line2d_7">
      <path clip-path="url(#pdbee65f521)" d="M 257.214915 224.64 
L 257.214915 7.2 
" style="fill:none;stroke:#ffffff;stroke-linecap:square;stroke-width:0.8;"/>
     </g>
     <g id="line2d_8">
      <g>
       <use style="fill:#555555;stroke:#555555;stroke-width:0.8;" x="257.214915" xlink:href="#m3d3811bd36" y="224.64"/>
      </g>
     </g>
     <g id="text_4">
      <!-- 2 -->
      <g style="fill:#555555;" transform="translate(254.033665 239.238437)scale(0.1 -0.1)">
       <use xlink:href="#DejaVuSans-50"/>
      </g>
     </g>
    </g>
    <g id="xtick_5">
     <g id="line2d_9">
      <path clip-path="url(#pdbee65f521)" d="M 318.087642 224.64 
L 318.087642 7.2 
" style="fill:none;stroke:#ffffff;stroke-linecap:square;stroke-width:0.8;"/>
     </g>
     <g id="line2d_10">
      <g>
       <use style="fill:#555555;stroke:#555555;stroke-width:0.8;" x="318.087642" xlink:href="#m3d3811bd36" y="224.64"/>
      </g>
     </g>
     <g id="text_5">
      <!-- 4 -->
      <g style="fill:#555555;" transform="translate(314.906392 239.238437)scale(0.1 -0.1)">
       <use xlink:href="#DejaVuSans-52"/>
      </g>
     </g>
    </g>
   </g>
   <g id="matplotlib.axis_2">
    <g id="ytick_1">
     <g id="line2d_11">
      <path clip-path="url(#pdbee65f521)" d="M 28.942188 200.439745 
L 363.742188 200.439745 
" style="fill:none;stroke:#ffffff;stroke-linecap:square;stroke-width:0.8;"/>
     </g>
     <g id="line2d_12">
      <defs>
       <path d="M 0 0 
L -3.5 0 
" id="m6a80d16c87" style="stroke:#555555;stroke-width:0.8;"/>
      </defs>
      <g>
       <use style="fill:#555555;stroke:#555555;stroke-width:0.8;" x="28.942188" xlink:href="#m6a80d16c87" y="200.439745"/>
      </g>
     </g>
     <g id="text_6">
      <!-- −2 -->
      <g style="fill:#555555;" transform="translate(7.2 204.238964)scale(0.1 -0.1)">
       <use xlink:href="#DejaVuSans-8722"/>
       <use x="83.789062" xlink:href="#DejaVuSans-50"/>
      </g>
     </g>
    </g>
    <g id="ytick_2">
     <g id="line2d_13">
      <path clip-path="url(#pdbee65f521)" d="M 28.942188 161.474272 
L 363.742188 161.474272 
" style="fill:none;stroke:#ffffff;stroke-linecap:square;stroke-width:0.8;"/>
     </g>
     <g id="line2d_14">
      <g>
       <use style="fill:#555555;stroke:#555555;stroke-width:0.8;" x="28.942188" xlink:href="#m6a80d16c87" y="161.474272"/>
      </g>
     </g>
     <g id="text_7">
      <!-- −1 -->
      <defs>
       <path d="M 12.40625 8.296875 
L 28.515625 8.296875 
L 28.515625 63.921875 
L 10.984375 60.40625 
L 10.984375 69.390625 
L 28.421875 72.90625 
L 38.28125 72.90625 
L 38.28125 8.296875 
L 54.390625 8.296875 
L 54.390625 0 
L 12.40625 0 
z
" id="DejaVuSans-49"/>
      </defs>
      <g style="fill:#555555;" transform="translate(7.2 165.273491)scale(0.1 -0.1)">
       <use xlink:href="#DejaVuSans-8722"/>
       <use x="83.789062" xlink:href="#DejaVuSans-49"/>
      </g>
     </g>
    </g>
    <g id="ytick_3">
     <g id="line2d_15">
      <path clip-path="url(#pdbee65f521)" d="M 28.942188 122.508799 
L 363.742188 122.508799 
" style="fill:none;stroke:#ffffff;stroke-linecap:square;stroke-width:0.8;"/>
     </g>
     <g id="line2d_16">
      <g>
       <use style="fill:#555555;stroke:#555555;stroke-width:0.8;" x="28.942188" xlink:href="#m6a80d16c87" y="122.508799"/>
      </g>
     </g>
     <g id="text_8">
      <!-- 0 -->
      <g style="fill:#555555;" transform="translate(15.579688 126.308018)scale(0.1 -0.1)">
       <use xlink:href="#DejaVuSans-48"/>
      </g>
     </g>
    </g>
    <g id="ytick_4">
     <g id="line2d_17">
      <path clip-path="url(#pdbee65f521)" d="M 28.942188 83.543326 
L 363.742188 83.543326 
" style="fill:none;stroke:#ffffff;stroke-linecap:square;stroke-width:0.8;"/>
     </g>
     <g id="line2d_18">
      <g>
       <use style="fill:#555555;stroke:#555555;stroke-width:0.8;" x="28.942188" xlink:href="#m6a80d16c87" y="83.543326"/>
      </g>
     </g>
     <g id="text_9">
      <!-- 1 -->
      <g style="fill:#555555;" transform="translate(15.579688 87.342545)scale(0.1 -0.1)">
       <use xlink:href="#DejaVuSans-49"/>
      </g>
     </g>
    </g>
    <g id="ytick_5">
     <g id="line2d_19">
      <path clip-path="url(#pdbee65f521)" d="M 28.942188 44.577853 
L 363.742188 44.577853 
" style="fill:none;stroke:#ffffff;stroke-linecap:square;stroke-width:0.8;"/>
     </g>
     <g id="line2d_20">
      <g>
       <use style="fill:#555555;stroke:#555555;stroke-width:0.8;" x="28.942188" xlink:href="#m6a80d16c87" y="44.577853"/>
      </g>
     </g>
     <g id="text_10">
      <!-- 2 -->
      <g style="fill:#555555;" transform="translate(15.579688 48.377072)scale(0.1 -0.1)">
       <use xlink:href="#DejaVuSans-50"/>
      </g>
     </g>
    </g>
   </g>
   <g id="line2d_21">
    <path clip-path="url(#pdbee65f521)" d="M 44.160369 103.154097 
L 50.371872 117.33175 
L 56.583375 103.2348 
L 62.794878 95.209839 
L 69.00638 100.12897 
L 75.217883 99.1348 
L 81.429386 104.781026 
L 87.640889 116.235006 
L 93.852392 121.319562 
L 100.063894 122.587891 
L 106.275397 137.867757 
L 112.4869 179.087863 
L 118.698403 196.974574 
L 124.909905 182.127968 
L 131.121408 168.409231 
L 137.332911 149.53673 
L 143.544414 138.179874 
L 149.755917 153.251332 
L 155.967419 159.339832 
L 162.178922 143.667225 
L 168.390425 128.800035 
L 174.601928 114.160455 
L 180.813431 78.110798 
L 187.024933 54.106785 
L 193.236436 85.701531 
L 199.447939 144.144008 
L 205.659442 184.455442 
L 211.870944 171.977407 
L 218.082447 125.015831 
L 224.29395 102.849315 
L 230.505453 120.69959 
L 236.716956 145.462738 
L 242.928458 148.474503 
L 249.139961 135.955431 
L 255.351464 134.893317 
L 261.562967 140.635395 
L 267.77447 128.917026 
L 273.985972 111.267293 
L 280.197475 117.403693 
L 286.408978 146.280605 
L 292.620481 180.843031 
L 298.831983 187.203111 
L 305.043486 134.457698 
L 311.254989 87.896999 
L 317.466492 96.227049 
L 323.677995 115.881153 
L 329.889497 100.457985 
L 336.101 74.814426 
L 342.312503 83.242542 
L 348.524006 108.999904 
" style="fill:none;stroke:#e24a33;stroke-linecap:square;stroke-width:1.5;"/>
   </g>
   <g id="line2d_22">
    <path clip-path="url(#pdbee65f521)" d="M 44.160369 127.896333 
L 50.371872 137.475195 
L 56.583375 142.982715 
L 62.794878 112.793691 
L 69.00638 77.674148 
L 75.217883 82.854046 
L 81.429386 112.141443 
L 87.640889 112.068524 
L 93.852392 85.887001 
L 100.063894 68.727752 
L 106.275397 76.210129 
L 112.4869 100.95734 
L 118.698403 129.614927 
L 124.909905 147.187225 
L 131.121408 129.860643 
L 137.332911 94.753923 
L 143.544414 75.771659 
L 149.755917 87.32969 
L 155.967419 124.900949 
L 162.178922 143.639152 
L 168.390425 122.122771 
L 174.601928 87.737937 
L 180.813431 92.97568 
L 187.024933 131.353066 
L 193.236436 147.491612 
L 199.447939 128.450423 
L 205.659442 105.520087 
L 211.870944 118.873168 
L 218.082447 142.991686 
L 224.29395 143.309598 
L 230.505453 142.000079 
L 236.716956 133.991524 
L 242.928458 106.055403 
L 249.139961 98.354266 
L 255.351464 117.428844 
L 261.562967 111.612515 
L 267.77447 70.404445 
L 273.985972 41.793285 
L 280.197475 60.915693 
L 286.408978 96.901635 
L 292.620481 118.724675 
L 298.831983 142.477972 
L 305.043486 142.756405 
L 311.254989 132.573525 
L 317.466492 147.829113 
L 323.677995 145.703105 
L 329.889497 117.607433 
L 336.101 129.608345 
L 342.312503 180.681286 
L 348.524006 183.397296 
" style="fill:none;stroke:#348abd;stroke-linecap:square;stroke-width:1.5;"/>
   </g>
   <g id="line2d_23">
    <path clip-path="url(#pdbee65f521)" d="M 44.160369 97.271309 
L 50.371872 96.513051 
L 56.583375 102.967783 
L 62.794878 111.857316 
L 69.00638 119.969249 
L 75.217883 132.899291 
L 81.429386 156.028763 
L 87.640889 169.413133 
L 93.852392 141.607039 
L 100.063894 107.853182 
L 106.275397 113.089741 
L 112.4869 130.970124 
L 118.698403 117.540075 
L 124.909905 102.106441 
L 131.121408 133.851741 
L 137.332911 180.074765 
L 143.544414 174.393711 
L 149.755917 132.231876 
L 155.967419 122.126981 
L 162.178922 138.992387 
L 168.390425 128.824787 
L 174.601928 91.774897 
L 180.813431 65.480392 
L 187.024933 68.170996 
L 193.236436 84.000411 
L 199.447939 73.446146 
L 205.659442 87.147415 
L 211.870944 134.850086 
L 218.082447 127.015699 
L 224.29395 91.270764 
L 230.505453 86.96319 
L 236.716956 87.540714 
L 242.928458 93.125134 
L 249.139961 114.659629 
L 255.351464 125.547998 
L 261.562967 111.732633 
L 267.77447 97.114838 
L 273.985972 86.106077 
L 280.197475 99.649707 
L 286.408978 154.109134 
L 292.620481 190.253807 
L 298.831983 191.436758 
L 305.043486 186.685342 
L 311.254989 174.703933 
L 317.466492 177.029948 
L 323.677995 201.007975 
L 329.889497 210.511557 
L 336.101 206.68038 
L 342.312503 214.756364 
L 348.524006 212.704283 
" style="fill:none;stroke:#988ed5;stroke-linecap:square;stroke-width:1.5;"/>
   </g>
   <g id="line2d_24">
    <path clip-path="url(#pdbee65f521)" d="M 44.160369 63.163221 
L 50.371872 117.831833 
L 56.583375 179.697522 
L 62.794878 209.712684 
L 69.00638 201.552152 
L 75.217883 165.174616 
L 81.429386 142.635043 
L 87.640889 128.631939 
L 93.852392 110.758057 
L 100.063894 113.974515 
L 106.275397 137.479977 
L 112.4869 125.910534 
L 118.698403 98.596717 
L 124.909905 104.579816 
L 131.121408 115.860456 
L 137.332911 112.636699 
L 143.544414 118.618327 
L 149.755917 131.08295 
L 155.967419 124.865115 
L 162.178922 124.176415 
L 168.390425 129.971339 
L 174.601928 112.242709 
L 180.813431 110.721499 
L 187.024933 146.361306 
L 193.236436 158.310557 
L 199.447939 121.608268 
L 205.659442 98.974951 
L 211.870944 116.362288 
L 218.082447 145.532279 
L 224.29395 153.123553 
L 230.505453 126.951118 
L 236.716956 92.876274 
L 242.928458 58.464492 
L 249.139961 46.905783 
L 255.351464 82.212101 
L 261.562967 125.297792 
L 267.77447 134.979356 
L 273.985972 112.885106 
L 280.197475 97.760035 
L 286.408978 89.072697 
L 292.620481 75.052485 
L 298.831983 65.887191 
L 305.043486 57.38207 
L 311.254989 52.250551 
L 317.466492 64.904038 
L 323.677995 85.729478 
L 329.889497 96.699416 
L 336.101 88.016249 
L 342.312503 73.842844 
L 348.524006 89.065616 
" style="fill:none;stroke:#777777;stroke-linecap:square;stroke-width:1.5;"/>
   </g>
   <g id="line2d_25">
    <path clip-path="url(#pdbee65f521)" d="M 44.160369 131.632696 
L 50.371872 169.145753 
L 56.583375 188.639886 
L 62.794878 163.571969 
L 69.00638 145.591176 
L 75.217883 139.964821 
L 81.429386 113.795604 
L 87.640889 120.535175 
L 93.852392 172.688762 
L 100.063894 198.93022 
L 106.275397 181.537991 
L 112.4869 156.029182 
L 118.698403 133.870081 
L 124.909905 125.92583 
L 131.121408 132.217799 
L 137.332911 128.747158 
L 143.544414 107.454032 
L 149.755917 87.422789 
L 155.967419 90.540561 
L 162.178922 106.983148 
L 168.390425 131.477685 
L 174.601928 158.133818 
L 180.813431 167.563502 
L 187.024933 135.268939 
L 193.236436 100.368047 
L 199.447939 125.141127 
L 205.659442 169.455376 
L 211.870944 183.758002 
L 218.082447 151.989649 
L 224.29395 96.687305 
L 230.505453 75.453893 
L 236.716956 78.360345 
L 242.928458 89.348512 
L 249.139961 103.914395 
L 255.351464 111.039067 
L 261.562967 118.677398 
L 267.77447 117.975035 
L 273.985972 84.950488 
L 280.197475 60.057586 
L 286.408978 69.01311 
L 292.620481 87.340225 
L 298.831983 103.120848 
L 305.043486 105.079697 
L 311.254989 83.401106 
L 317.466492 79.250388 
L 323.677995 116.469206 
L 329.889497 148.523021 
L 336.101 130.654448 
L 342.312503 101.124229 
L 348.524006 89.448066 
" style="fill:none;stroke:#fbc15e;stroke-linecap:square;stroke-width:1.5;"/>
   </g>
   <g id="line2d_26">
    <path clip-path="url(#pdbee65f521)" d="M 44.160369 131.632056 
L 50.371872 142.704556 
L 56.583375 141.808668 
L 62.794878 149.956339 
L 69.00638 168.474282 
L 75.217883 159.122343 
L 81.429386 111.636991 
L 87.640889 66.742809 
L 93.852392 66.307573 
L 100.063894 113.538759 
L 106.275397 153.440225 
L 112.4869 146.621377 
L 118.698403 99.79884 
L 124.909905 42.594958 
L 131.121408 17.083636 
L 137.332911 45.12588 
L 143.544414 91.103875 
L 149.755917 104.311792 
L 155.967419 88.407353 
L 162.178922 76.903437 
L 168.390425 94.401984 
L 174.601928 117.399264 
L 180.813431 106.4993 
L 187.024933 78.808074 
L 193.236436 77.255594 
L 199.447939 105.739269 
L 205.659442 144.687281 
L 211.870944 162.403033 
L 218.082447 168.455495 
L 224.29395 185.585063 
L 230.505453 185.456213 
L 236.716956 158.742404 
L 242.928458 147.037808 
L 249.139961 156.833144 
L 255.351464 153.14794 
L 261.562967 145.408662 
L 267.77447 152.819408 
L 273.985972 163.830158 
L 280.197475 161.711199 
L 286.408978 150.478363 
L 292.620481 135.379106 
L 298.831983 127.13008 
L 305.043486 117.469888 
L 311.254989 98.903065 
L 317.466492 87.30729 
L 323.677995 97.864911 
L 329.889497 123.752387 
L 336.101 141.016032 
L 342.312503 156.630295 
L 348.524006 164.183195 
" style="fill:none;stroke:#8eba42;stroke-linecap:square;stroke-width:1.5;"/>
   </g>
   <g id="line2d_27">
    <path clip-path="url(#pdbee65f521)" d="M 44.160369 60.974025 
L 50.371872 95.57607 
L 56.583375 146.472672 
L 62.794878 164.483198 
L 69.00638 154.592665 
L 75.217883 153.299007 
L 81.429386 157.600228 
L 87.640889 148.439358 
L 93.852392 122.690303 
L 100.063894 97.179295 
L 106.275397 71.860038 
L 112.4869 56.115595 
L 118.698403 81.770528 
L 124.909905 133.182733 
L 131.121408 173.709203 
L 137.332911 163.979049 
L 143.544414 108.518397 
L 149.755917 74.135464 
L 155.967419 79.530606 
L 162.178922 104.075441 
L 168.390425 124.109049 
L 174.601928 132.730071 
L 180.813431 138.03714 
L 187.024933 157.965561 
L 193.236436 185.968607 
L 199.447939 171.857962 
L 205.659442 108.560498 
L 211.870944 60.475207 
L 218.082447 67.052986 
L 224.29395 88.337617 
L 230.505453 80.656266 
L 236.716956 60.662008 
L 242.928458 51.04497 
L 249.139961 66.768172 
L 255.351464 117.987996 
L 261.562967 162.764027 
L 267.77447 161.149013 
L 273.985972 127.327095 
L 280.197475 96.671615 
L 286.408978 109.289443 
L 292.620481 158.455916 
L 298.831983 167.539779 
L 305.043486 137.906208 
L 311.254989 110.540463 
L 317.466492 86.306962 
L 323.677995 81.730154 
L 329.889497 92.65262 
L 336.101 93.633539 
L 342.312503 98.869336 
L 348.524006 128.900438 
" style="fill:none;stroke:#ffb5b8;stroke-linecap:square;stroke-width:1.5;"/>
   </g>
   <g id="line2d_28">
    <path clip-path="url(#pdbee65f521)" d="M 44.160369 92.605342 
L 50.371872 91.080338 
L 56.583375 93.455071 
L 62.794878 128.789714 
L 69.00638 151.399684 
L 75.217883 138.491063 
L 81.429386 113.626981 
L 87.640889 100.647392 
L 93.852392 103.767594 
L 100.063894 107.218112 
L 106.275397 106.259703 
L 112.4869 120.936192 
L 118.698403 150.351988 
L 124.909905 165.713332 
L 131.121408 171.95559 
L 137.332911 169.757014 
L 143.544414 128.476842 
L 149.755917 64.105327 
L 155.967419 39.086288 
L 162.178922 63.854982 
L 168.390425 90.623648 
L 174.601928 102.849731 
L 180.813431 125.093278 
L 187.024933 147.111568 
L 193.236436 151.895297 
L 199.447939 155.778141 
L 205.659442 173.466111 
L 211.870944 190.664595 
L 218.082447 176.997639 
L 224.29395 138.705677 
L 230.505453 119.32408 
L 236.716956 129.462752 
L 242.928458 131.051027 
L 249.139961 118.945079 
L 255.351464 132.205268 
L 261.562967 161.379535 
L 267.77447 165.294864 
L 273.985972 144.78349 
L 280.197475 105.796292 
L 286.408978 57.130404 
L 292.620481 41.820286 
L 298.831983 68.895354 
L 305.043486 92.780817 
L 311.254989 112.852231 
L 317.466492 149.487113 
L 323.677995 182.576158 
L 329.889497 177.859401 
L 336.101 140.506884 
L 342.312503 124.236807 
L 348.524006 139.844512 
" style="fill:none;stroke:#e24a33;stroke-linecap:square;stroke-width:1.5;"/>
   </g>
   <g id="line2d_29">
    <path clip-path="url(#pdbee65f521)" d="M 44.160369 140.802091 
L 50.371872 158.013468 
L 56.583375 168.556153 
L 62.794878 180.760367 
L 69.00638 176.73316 
L 75.217883 147.705168 
L 81.429386 117.17861 
L 87.640889 104.34647 
L 93.852392 113.184151 
L 100.063894 128.607915 
L 106.275397 129.906217 
L 112.4869 109.079831 
L 118.698403 87.45808 
L 124.909905 80.671811 
L 131.121408 79.066063 
L 137.332911 96.953169 
L 143.544414 132.234798 
L 149.755917 151.363553 
L 155.967419 156.360056 
L 162.178922 156.692371 
L 168.390425 140.737141 
L 174.601928 124.421423 
L 180.813431 132.538787 
L 187.024933 153.88289 
L 193.236436 141.929215 
L 199.447939 98.509796 
L 205.659442 83.683709 
L 211.870944 103.797729 
L 218.082447 117.412049 
L 224.29395 107.609716 
L 230.505453 89.26871 
L 236.716956 81.881422 
L 242.928458 83.460147 
L 249.139961 84.656652 
L 255.351464 98.208425 
L 261.562967 118.426155 
L 267.77447 123.279298 
L 273.985972 95.433071 
L 280.197475 52.104417 
L 286.408978 44.341293 
L 292.620481 74.286061 
L 298.831983 90.481527 
L 305.043486 74.752174 
L 311.254989 83.297451 
L 317.466492 131.409156 
L 323.677995 166.130045 
L 329.889497 170.969554 
L 336.101 127.769766 
L 342.312503 47.716013 
L 348.524006 22.643501 
" style="fill:none;stroke:#348abd;stroke-linecap:square;stroke-width:1.5;"/>
   </g>
   <g id="line2d_30">
    <path clip-path="url(#pdbee65f521)" d="M 44.160369 101.367691 
L 50.371872 137.460854 
L 56.583375 161.58226 
L 62.794878 154.143319 
L 69.00638 157.436443 
L 75.217883 159.58037 
L 81.429386 144.788673 
L 87.640889 157.809136 
L 93.852392 178.281143 
L 100.063894 164.977244 
L 106.275397 141.990189 
L 112.4869 122.808587 
L 118.698403 112.678852 
L 124.909905 132.013504 
L 131.121408 154.481721 
L 137.332911 141.19398 
L 143.544414 122.6224 
L 149.755917 97.552431 
L 155.967419 79.234202 
L 162.178922 114.299843 
L 168.390425 116.663174 
L 174.601928 59.855115 
L 180.813431 36.933035 
L 187.024933 52.335867 
L 193.236436 66.323101 
L 199.447939 72.415592 
L 205.659442 78.534977 
L 211.870944 96.25807 
L 218.082447 124.641291 
L 224.29395 136.505655 
L 230.505453 127.340969 
L 236.716956 122.482004 
L 242.928458 118.800404 
L 249.139961 116.284617 
L 255.351464 125.921228 
L 261.562967 143.54133 
L 267.77447 161.897371 
L 273.985972 175.229553 
L 280.197475 179.165623 
L 286.408978 155.909897 
L 292.620481 112.151086 
L 298.831983 88.791007 
L 305.043486 114.862248 
L 311.254989 156.499752 
L 317.466492 174.723979 
L 323.677995 184.38768 
L 329.889497 191.763422 
L 336.101 168.280409 
L 342.312503 116.507685 
L 348.524006 99.302543 
" style="fill:none;stroke:#988ed5;stroke-linecap:square;stroke-width:1.5;"/>
   </g>
   <g id="patch_3">
    <path d="M 28.942188 224.64 
L 28.942188 7.2 
" style="fill:none;stroke:#ffffff;stroke-linecap:square;stroke-linejoin:miter;"/>
   </g>
   <g id="patch_4">
    <path d="M 363.742188 224.64 
L 363.742188 7.2 
" style="fill:none;stroke:#ffffff;stroke-linecap:square;stroke-linejoin:miter;"/>
   </g>
   <g id="patch_5">
    <path d="M 28.942188 224.64 
L 363.742188 224.64 
" style="fill:none;stroke:#ffffff;stroke-linecap:square;stroke-linejoin:miter;"/>
   </g>
   <g id="patch_6">
    <path d="M 28.942188 7.2 
L 363.742188 7.2 
" style="fill:none;stroke:#ffffff;stroke-linecap:square;stroke-linejoin:miter;"/>
   </g>
  </g>
 </g>
 <defs>
  <clipPath id="pdbee65f521">
   <rect height="217.44" width="334.8" x="28.942188" y="7.2"/>
  </clipPath>
 </defs>
</svg>
