<?xml version="1.0" encoding="utf-8" standalone="no"?>
<!DOCTYPE svg PUBLIC "-//W3C//DTD SVG 1.1//EN"
  "http://www.w3.org/Graphics/SVG/1.1/DTD/svg11.dtd">
<!-- Created with matplotlib (https://matplotlib.org/) -->
<svg height="249.276667pt" version="1.1" viewBox="0 0 370.942187 249.276667" width="370.942187pt" xmlns="http://www.w3.org/2000/svg" xmlns:xlink="http://www.w3.org/1999/xlink">
 <defs>
  <style type="text/css">
*{stroke-linecap:butt;stroke-linejoin:round;}
  </style>
 </defs>
 <g id="figure_1">
  <g id="patch_1">
   <path d="M 0 249.276667 
L 370.942187 249.276667 
L 370.942187 0 
L 0 0 
z
" style="fill:#ffffff;"/>
  </g>
  <g id="axes_1">
   <g id="patch_2">
    <path d="M 28.942188 225.398542 
L 363.742188 225.398542 
L 363.742188 7.958542 
L 28.942188 7.958542 
z
" style="fill:#e5e5e5;"/>
   </g>
   <g id="matplotlib.axis_1">
    <g id="xtick_1">
     <g id="line2d_1">
      <path clip-path="url(#p626cdcab90)" d="M 74.596733 225.398542 
L 74.596733 7.958542 
" style="fill:none;stroke:#ffffff;stroke-linecap:square;stroke-width:0.8;"/>
     </g>
     <g id="line2d_2">
      <defs>
       <path d="M 0 0 
L 0 3.5 
" id="m2ba391605c" style="stroke:#555555;stroke-width:0.8;"/>
      </defs>
      <g>
       <use style="fill:#555555;stroke:#555555;stroke-width:0.8;" x="74.596733" xlink:href="#m2ba391605c" y="225.398542"/>
      </g>
     </g>
     <g id="text_1">
      <!-- −4 -->
      <defs>
       <path d="M 10.59375 35.5 
L 73.1875 35.5 
L 73.1875 27.203125 
L 10.59375 27.203125 
z
" id="DejaVuSans-8722"/>
       <path d="M 37.796875 64.3125 
L 12.890625 25.390625 
L 37.796875 25.390625 
z
M 35.203125 72.90625 
L 47.609375 72.90625 
L 47.609375 25.390625 
L 58.015625 25.390625 
L 58.015625 17.1875 
L 47.609375 17.1875 
L 47.609375 0 
L 37.796875 0 
L 37.796875 17.1875 
L 4.890625 17.1875 
L 4.890625 26.703125 
z
" id="DejaVuSans-52"/>
      </defs>
      <g style="fill:#555555;" transform="translate(67.225639 239.996979)scale(0.1 -0.1)">
       <use xlink:href="#DejaVuSans-8722"/>
       <use x="83.789062" xlink:href="#DejaVuSans-52"/>
      </g>
     </g>
    </g>
    <g id="xtick_2">
     <g id="line2d_3">
      <path clip-path="url(#p626cdcab90)" d="M 135.46946 225.398542 
L 135.46946 7.958542 
" style="fill:none;stroke:#ffffff;stroke-linecap:square;stroke-width:0.8;"/>
     </g>
     <g id="line2d_4">
      <g>
       <use style="fill:#555555;stroke:#555555;stroke-width:0.8;" x="135.46946" xlink:href="#m2ba391605c" y="225.398542"/>
      </g>
     </g>
     <g id="text_2">
      <!-- −2 -->
      <defs>
       <path d="M 19.1875 8.296875 
L 53.609375 8.296875 
L 53.609375 0 
L 7.328125 0 
L 7.328125 8.296875 
Q 12.9375 14.109375 22.625 23.890625 
Q 32.328125 33.6875 34.8125 36.53125 
Q 39.546875 41.84375 41.421875 45.53125 
Q 43.3125 49.21875 43.3125 52.78125 
Q 43.3125 58.59375 39.234375 62.25 
Q 35.15625 65.921875 28.609375 65.921875 
Q 23.96875 65.921875 18.8125 64.3125 
Q 13.671875 62.703125 7.8125 59.421875 
L 7.8125 69.390625 
Q 13.765625 71.78125 18.9375 73 
Q 24.125 74.21875 28.421875 74.21875 
Q 39.75 74.21875 46.484375 68.546875 
Q 53.21875 62.890625 53.21875 53.421875 
Q 53.21875 48.921875 51.53125 44.890625 
Q 49.859375 40.875 45.40625 35.40625 
Q 44.1875 33.984375 37.640625 27.21875 
Q 31.109375 20.453125 19.1875 8.296875 
z
" id="DejaVuSans-50"/>
      </defs>
      <g style="fill:#555555;" transform="translate(128.098366 239.996979)scale(0.1 -0.1)">
       <use xlink:href="#DejaVuSans-8722"/>
       <use x="83.789062" xlink:href="#DejaVuSans-50"/>
      </g>
     </g>
    </g>
    <g id="xtick_3">
     <g id="line2d_5">
      <path clip-path="url(#p626cdcab90)" d="M 196.342188 225.398542 
L 196.342188 7.958542 
" style="fill:none;stroke:#ffffff;stroke-linecap:square;stroke-width:0.8;"/>
     </g>
     <g id="line2d_6">
      <g>
       <use style="fill:#555555;stroke:#555555;stroke-width:0.8;" x="196.342188" xlink:href="#m2ba391605c" y="225.398542"/>
      </g>
     </g>
     <g id="text_3">
      <!-- 0 -->
      <defs>
       <path d="M 31.78125 66.40625 
Q 24.171875 66.40625 20.328125 58.90625 
Q 16.5 51.421875 16.5 36.375 
Q 16.5 21.390625 20.328125 13.890625 
Q 24.171875 6.390625 31.78125 6.390625 
Q 39.453125 6.390625 43.28125 13.890625 
Q 47.125 21.390625 47.125 36.375 
Q 47.125 51.421875 43.28125 58.90625 
Q 39.453125 66.40625 31.78125 66.40625 
z
M 31.78125 74.21875 
Q 44.046875 74.21875 50.515625 64.515625 
Q 56.984375 54.828125 56.984375 36.375 
Q 56.984375 17.96875 50.515625 8.265625 
Q 44.046875 -1.421875 31.78125 -1.421875 
Q 19.53125 -1.421875 13.0625 8.265625 
Q 6.59375 17.96875 6.59375 36.375 
Q 6.59375 54.828125 13.0625 64.515625 
Q 19.53125 74.21875 31.78125 74.21875 
z
" id="DejaVuSans-48"/>
      </defs>
      <g style="fill:#555555;" transform="translate(193.160938 239.996979)scale(0.1 -0.1)">
       <use xlink:href="#DejaVuSans-48"/>
      </g>
     </g>
    </g>
    <g id="xtick_4">
     <g id="line2d_7">
      <path clip-path="url(#p626cdcab90)" d="M 257.214915 225.398542 
L 257.214915 7.958542 
" style="fill:none;stroke:#ffffff;stroke-linecap:square;stroke-width:0.8;"/>
     </g>
     <g id="line2d_8">
      <g>
       <use style="fill:#555555;stroke:#555555;stroke-width:0.8;" x="257.214915" xlink:href="#m2ba391605c" y="225.398542"/>
      </g>
     </g>
     <g id="text_4">
      <!-- 2 -->
      <g style="fill:#555555;" transform="translate(254.033665 239.996979)scale(0.1 -0.1)">
       <use xlink:href="#DejaVuSans-50"/>
      </g>
     </g>
    </g>
    <g id="xtick_5">
     <g id="line2d_9">
      <path clip-path="url(#p626cdcab90)" d="M 318.087642 225.398542 
L 318.087642 7.958542 
" style="fill:none;stroke:#ffffff;stroke-linecap:square;stroke-width:0.8;"/>
     </g>
     <g id="line2d_10">
      <g>
       <use style="fill:#555555;stroke:#555555;stroke-width:0.8;" x="318.087642" xlink:href="#m2ba391605c" y="225.398542"/>
      </g>
     </g>
     <g id="text_5">
      <!-- 4 -->
      <g style="fill:#555555;" transform="translate(314.906392 239.996979)scale(0.1 -0.1)">
       <use xlink:href="#DejaVuSans-52"/>
      </g>
     </g>
    </g>
   </g>
   <g id="matplotlib.axis_2">
    <g id="ytick_1">
     <g id="line2d_11">
      <path clip-path="url(#p626cdcab90)" d="M 28.942188 190.31741 
L 363.742188 190.31741 
" style="fill:none;stroke:#ffffff;stroke-linecap:square;stroke-width:0.8;"/>
     </g>
     <g id="line2d_12">
      <defs>
       <path d="M 0 0 
L -3.5 0 
" id="mb030646390" style="stroke:#555555;stroke-width:0.8;"/>
      </defs>
      <g>
       <use style="fill:#555555;stroke:#555555;stroke-width:0.8;" x="28.942188" xlink:href="#mb030646390" y="190.31741"/>
      </g>
     </g>
     <g id="text_6">
      <!-- −2 -->
      <g style="fill:#555555;" transform="translate(7.2 194.116629)scale(0.1 -0.1)">
       <use xlink:href="#DejaVuSans-8722"/>
       <use x="83.789062" xlink:href="#DejaVuSans-50"/>
      </g>
     </g>
    </g>
    <g id="ytick_2">
     <g id="line2d_13">
      <path clip-path="url(#p626cdcab90)" d="M 28.942188 154.453772 
L 363.742188 154.453772 
" style="fill:none;stroke:#ffffff;stroke-linecap:square;stroke-width:0.8;"/>
     </g>
     <g id="line2d_14">
      <g>
       <use style="fill:#555555;stroke:#555555;stroke-width:0.8;" x="28.942188" xlink:href="#mb030646390" y="154.453772"/>
      </g>
     </g>
     <g id="text_7">
      <!-- −1 -->
      <defs>
       <path d="M 12.40625 8.296875 
L 28.515625 8.296875 
L 28.515625 63.921875 
L 10.984375 60.40625 
L 10.984375 69.390625 
L 28.421875 72.90625 
L 38.28125 72.90625 
L 38.28125 8.296875 
L 54.390625 8.296875 
L 54.390625 0 
L 12.40625 0 
z
" id="DejaVuSans-49"/>
      </defs>
      <g style="fill:#555555;" transform="translate(7.2 158.25299)scale(0.1 -0.1)">
       <use xlink:href="#DejaVuSans-8722"/>
       <use x="83.789062" xlink:href="#DejaVuSans-49"/>
      </g>
     </g>
    </g>
    <g id="ytick_3">
     <g id="line2d_15">
      <path clip-path="url(#p626cdcab90)" d="M 28.942188 118.590133 
L 363.742188 118.590133 
" style="fill:none;stroke:#ffffff;stroke-linecap:square;stroke-width:0.8;"/>
     </g>
     <g id="line2d_16">
      <g>
       <use style="fill:#555555;stroke:#555555;stroke-width:0.8;" x="28.942188" xlink:href="#mb030646390" y="118.590133"/>
      </g>
     </g>
     <g id="text_8">
      <!-- 0 -->
      <g style="fill:#555555;" transform="translate(15.579688 122.389352)scale(0.1 -0.1)">
       <use xlink:href="#DejaVuSans-48"/>
      </g>
     </g>
    </g>
    <g id="ytick_4">
     <g id="line2d_17">
      <path clip-path="url(#p626cdcab90)" d="M 28.942188 82.726495 
L 363.742188 82.726495 
" style="fill:none;stroke:#ffffff;stroke-linecap:square;stroke-width:0.8;"/>
     </g>
     <g id="line2d_18">
      <g>
       <use style="fill:#555555;stroke:#555555;stroke-width:0.8;" x="28.942188" xlink:href="#mb030646390" y="82.726495"/>
      </g>
     </g>
     <g id="text_9">
      <!-- 1 -->
      <g style="fill:#555555;" transform="translate(15.579688 86.525714)scale(0.1 -0.1)">
       <use xlink:href="#DejaVuSans-49"/>
      </g>
     </g>
    </g>
    <g id="ytick_5">
     <g id="line2d_19">
      <path clip-path="url(#p626cdcab90)" d="M 28.942188 46.862857 
L 363.742188 46.862857 
" style="fill:none;stroke:#ffffff;stroke-linecap:square;stroke-width:0.8;"/>
     </g>
     <g id="line2d_20">
      <g>
       <use style="fill:#555555;stroke:#555555;stroke-width:0.8;" x="28.942188" xlink:href="#mb030646390" y="46.862857"/>
      </g>
     </g>
     <g id="text_10">
      <!-- 2 -->
      <g style="fill:#555555;" transform="translate(15.579688 50.662076)scale(0.1 -0.1)">
       <use xlink:href="#DejaVuSans-50"/>
      </g>
     </g>
    </g>
    <g id="ytick_6">
     <g id="line2d_21">
      <path clip-path="url(#p626cdcab90)" d="M 28.942188 10.999219 
L 363.742188 10.999219 
" style="fill:none;stroke:#ffffff;stroke-linecap:square;stroke-width:0.8;"/>
     </g>
     <g id="line2d_22">
      <g>
       <use style="fill:#555555;stroke:#555555;stroke-width:0.8;" x="28.942188" xlink:href="#mb030646390" y="10.999219"/>
      </g>
     </g>
     <g id="text_11">
      <!-- 3 -->
      <defs>
       <path d="M 40.578125 39.3125 
Q 47.65625 37.796875 51.625 33 
Q 55.609375 28.21875 55.609375 21.1875 
Q 55.609375 10.40625 48.1875 4.484375 
Q 40.765625 -1.421875 27.09375 -1.421875 
Q 22.515625 -1.421875 17.65625 -0.515625 
Q 12.796875 0.390625 7.625 2.203125 
L 7.625 11.71875 
Q 11.71875 9.328125 16.59375 8.109375 
Q 21.484375 6.890625 26.8125 6.890625 
Q 36.078125 6.890625 40.9375 10.546875 
Q 45.796875 14.203125 45.796875 21.1875 
Q 45.796875 27.640625 41.28125 31.265625 
Q 36.765625 34.90625 28.71875 34.90625 
L 20.21875 34.90625 
L 20.21875 43.015625 
L 29.109375 43.015625 
Q 36.375 43.015625 40.234375 45.921875 
Q 44.09375 48.828125 44.09375 54.296875 
Q 44.09375 59.90625 40.109375 62.90625 
Q 36.140625 65.921875 28.71875 65.921875 
Q 24.65625 65.921875 20.015625 65.03125 
Q 15.375 64.15625 9.8125 62.3125 
L 9.8125 71.09375 
Q 15.4375 72.65625 20.34375 73.4375 
Q 25.25 74.21875 29.59375 74.21875 
Q 40.828125 74.21875 47.359375 69.109375 
Q 53.90625 64.015625 53.90625 55.328125 
Q 53.90625 49.265625 50.4375 45.09375 
Q 46.96875 40.921875 40.578125 39.3125 
z
" id="DejaVuSans-51"/>
      </defs>
      <g style="fill:#555555;" transform="translate(15.579688 14.798437)scale(0.1 -0.1)">
       <use xlink:href="#DejaVuSans-51"/>
      </g>
     </g>
    </g>
   </g>
   <g id="PathCollection_1">
    <defs>
     <path d="M 0 3 
C 0.795609 3 1.55874 2.683901 2.12132 2.12132 
C 2.683901 1.55874 3 0.795609 3 0 
C 3 -0.795609 2.683901 -1.55874 2.12132 -2.12132 
C 1.55874 -2.683901 0.795609 -3 0 -3 
C -0.795609 -3 -1.55874 -2.683901 -2.12132 -2.12132 
C -2.683901 -1.55874 -3 -0.795609 -3 0 
C -3 0.795609 -2.683901 1.55874 -2.12132 2.12132 
C -1.55874 2.683901 -0.795609 3 0 3 
z
" id="m0c7f91b4f0" style="stroke:#000000;stroke-width:0.5;"/>
    </defs>
    <g clip-path="url(#p626cdcab90)">
     <use style="stroke:#000000;stroke-width:0.5;" x="240.75409" xlink:href="#m0c7f91b4f0" y="83.909307"/>
     <use style="stroke:#000000;stroke-width:0.5;" x="217.88453" xlink:href="#m0c7f91b4f0" y="97.25879"/>
     <use style="stroke:#000000;stroke-width:0.5;" x="152.543264" xlink:href="#m0c7f91b4f0" y="153.099701"/>
     <use style="stroke:#000000;stroke-width:0.5;" x="344.419738" xlink:href="#m0c7f91b4f0" y="152.474815"/>
     <use style="stroke:#000000;stroke-width:0.5;" x="228.536196" xlink:href="#m0c7f91b4f0" y="89.376984"/>
     <use style="stroke:#000000;stroke-width:0.5;" x="116.363578" xlink:href="#m0c7f91b4f0" y="143.726324"/>
     <use style="stroke:#000000;stroke-width:0.5;" x="75.139253" xlink:href="#m0c7f91b4f0" y="103.237696"/>
     <use style="stroke:#000000;stroke-width:0.5;" x="90.685133" xlink:href="#m0c7f91b4f0" y="119.211437"/>
     <use style="stroke:#000000;stroke-width:0.5;" x="119.020958" xlink:href="#m0c7f91b4f0" y="145.656785"/>
     <use style="stroke:#000000;stroke-width:0.5;" x="93.065936" xlink:href="#m0c7f91b4f0" y="121.732238"/>
     <use style="stroke:#000000;stroke-width:0.5;" x="100.944587" xlink:href="#m0c7f91b4f0" y="129.895322"/>
     <use style="stroke:#000000;stroke-width:0.5;" x="130.932972" xlink:href="#m0c7f91b4f0" y="152.112323"/>
     <use style="stroke:#000000;stroke-width:0.5;" x="96.928987" xlink:href="#m0c7f91b4f0" y="125.783841"/>
     <use style="stroke:#000000;stroke-width:0.5;" x="317.103155" xlink:href="#m0c7f91b4f0" y="133.517689"/>
     <use style="stroke:#000000;stroke-width:0.5;" x="68.580604" xlink:href="#m0c7f91b4f0" y="97.279008"/>
    </g>
   </g>
   <g id="line2d_23">
    <path clip-path="url(#p626cdcab90)" d="M 44.160369 206.992371 
L 50.371872 190.738593 
L 56.583375 150.018714 
L 62.794878 108.000771 
L 69.00638 97.330072 
L 75.217883 103.352587 
L 81.429386 112.19898 
L 87.640889 116.672523 
L 93.852392 122.591064 
L 100.063894 128.935769 
L 106.275397 136.279186 
L 112.4869 141.235756 
L 118.698403 145.429824 
L 124.909905 148.286862 
L 131.121408 152.358624 
L 137.332911 161.886762 
L 143.544414 162.514293 
L 149.755917 159.085817 
L 155.967419 136.159061 
L 162.178922 93.771279 
L 168.390425 75.550825 
L 174.601928 90.225131 
L 180.813431 130.609457 
L 187.024933 142.604118 
L 193.236436 116.63909 
L 199.447939 100.860075 
L 205.659442 91.900038 
L 211.870944 91.597961 
L 218.082447 97.32066 
L 224.29395 93.40154 
L 230.505453 88.620251 
L 236.716956 87.267949 
L 242.928458 82.067292 
L 249.139961 76.936533 
L 255.351464 59.717262 
L 261.562967 55.394461 
L 267.77447 96.657701 
L 273.985972 143.483394 
L 280.197475 141.852957 
L 286.408978 90.120879 
L 292.620481 52.305307 
L 298.831983 70.103718 
L 305.043486 113.954234 
L 311.254989 133.784096 
L 317.466492 133.409676 
L 323.677995 128.747652 
L 329.889497 123.665325 
L 336.101 138.913559 
L 342.312503 154.1619 
L 348.524006 138.245166 
" style="fill:none;stroke:#e24a33;stroke-linecap:square;stroke-opacity:0.3;stroke-width:1.5;"/>
   </g>
   <g id="line2d_24">
    <path clip-path="url(#p626cdcab90)" d="M 44.160369 92.948403 
L 50.371872 75.876171 
L 56.583375 75.499989 
L 62.794878 94.418329 
L 69.00638 97.174357 
L 75.217883 103.405378 
L 81.429386 114.311751 
L 87.640889 116.880031 
L 93.852392 122.59348 
L 100.063894 128.929758 
L 106.275397 136.751679 
L 112.4869 142.183338 
L 118.698403 145.365172 
L 124.909905 151.680092 
L 131.121408 151.963786 
L 137.332911 139.050335 
L 143.544414 119.177606 
L 149.755917 134.815803 
L 155.967419 168.777159 
L 162.178922 149.267572 
L 168.390425 109.606257 
L 174.601928 105.020446 
L 180.813431 120.278484 
L 187.024933 122.224602 
L 193.236436 111.347249 
L 199.447939 103.194011 
L 205.659442 90.530523 
L 211.870944 81.34088 
L 218.082447 97.991504 
L 224.29395 106.743771 
L 230.505453 78.482205 
L 236.716956 64.821853 
L 242.928458 100.082143 
L 249.139961 145.872587 
L 255.351464 174.423263 
L 261.562967 176.37723 
L 267.77447 148.957561 
L 273.985972 124.406953 
L 280.197475 135.865264 
L 286.408978 161.640018 
L 292.620481 174.180406 
L 298.831983 159.80953 
L 305.043486 137.977783 
L 311.254989 135.608689 
L 317.466492 132.871529 
L 323.677995 117.823007 
L 329.889497 116.597086 
L 336.101 130.823422 
L 342.312503 146.921128 
L 348.524006 162.326657 
" style="fill:none;stroke:#348abd;stroke-linecap:square;stroke-opacity:0.3;stroke-width:1.5;"/>
   </g>
   <g id="line2d_25">
    <path clip-path="url(#p626cdcab90)" d="M 44.160369 103.481522 
L 50.371872 107.746075 
L 56.583375 89.167531 
L 62.794878 90.516836 
L 69.00638 97.631721 
L 75.217883 103.333785 
L 81.429386 111.536497 
L 87.640889 116.573396 
L 93.852392 122.589421 
L 100.063894 128.93167 
L 106.275397 136.55258 
L 112.4869 141.494621 
L 118.698403 145.434133 
L 124.909905 146.776211 
L 131.121408 152.626842 
L 137.332911 178.220105 
L 143.544414 191.574621 
L 149.755917 169.937908 
L 155.967419 133.676779 
L 162.178922 113.00465 
L 168.390425 97.318002 
L 174.601928 71.8134 
L 180.813431 60.917741 
L 187.024933 82.691103 
L 193.236436 129.472276 
L 199.447939 147.121084 
L 205.659442 109.777147 
L 211.870944 86.49712 
L 218.082447 97.660333 
L 224.29395 99.392983 
L 230.505453 83.304407 
L 236.716956 73.090089 
L 242.928458 94.163259 
L 249.139961 123.825263 
L 255.351464 141.498434 
L 261.562967 126.427223 
L 267.77447 89.618347 
L 273.985972 91.444557 
L 280.197475 127.4088 
L 286.408978 149.304094 
L 292.620481 156.74427 
L 298.831983 153.534814 
L 305.043486 133.506795 
L 311.254989 129.139563 
L 317.466492 133.450327 
L 323.677995 135.184262 
L 329.889497 164.41828 
L 336.101 189.666037 
L 342.312503 167.391692 
L 348.524006 124.103901 
" style="fill:none;stroke:#988ed5;stroke-linecap:square;stroke-opacity:0.3;stroke-width:1.5;"/>
   </g>
   <g id="line2d_26">
    <path clip-path="url(#p626cdcab90)" d="M 44.160369 120.482633 
L 50.371872 90.923712 
L 56.583375 73.194554 
L 62.794878 85.960665 
L 69.00638 97.74938 
L 75.217883 103.309181 
L 81.429386 109.269912 
L 87.640889 115.936437 
L 93.852392 122.563656 
L 100.063894 128.979447 
L 106.275397 136.390085 
L 112.4869 142.595267 
L 118.698403 145.307685 
L 124.909905 155.859721 
L 131.121408 151.470761 
L 137.332911 120.648133 
L 143.544414 110.338484 
L 149.755917 139.747814 
L 155.967419 160.207088 
L 162.178922 153.075652 
L 168.390425 157.313153 
L 174.601928 173.88625 
L 180.813431 166.795162 
L 187.024933 137.380082 
L 193.236436 131.176943 
L 199.447939 162.766268 
L 205.659442 175.334648 
L 211.870944 142.14591 
L 218.082447 95.989861 
L 224.29395 77.133593 
L 230.505453 97.286146 
L 236.716956 101.857506 
L 242.928458 72.329359 
L 249.139961 56.350023 
L 255.351464 76.450604 
L 261.562967 105.218151 
L 267.77447 108.902648 
L 273.985972 97.840376 
L 280.197475 99.079482 
L 286.408978 114.484556 
L 292.620481 135.440073 
L 298.831983 147.789194 
L 305.043486 145.767901 
L 311.254989 136.763897 
L 317.466492 133.018703 
L 323.677995 109.689069 
L 329.889497 90.271768 
L 336.101 117.438068 
L 342.312503 148.534641 
L 348.524006 148.775555 
" style="fill:none;stroke:#777777;stroke-linecap:square;stroke-opacity:0.3;stroke-width:1.5;"/>
   </g>
   <g id="line2d_27">
    <path clip-path="url(#p626cdcab90)" d="M 44.160369 108.953257 
L 50.371872 120.463775 
L 56.583375 116.174868 
L 62.794878 105.18499 
L 69.00638 97.214977 
L 75.217883 103.359167 
L 81.429386 111.675894 
L 87.640889 116.547334 
L 93.852392 122.593237 
L 100.063894 128.897818 
L 106.275397 137.954365 
L 112.4869 143.566264 
L 118.698403 145.287456 
L 124.909905 155.908147 
L 131.121408 151.52703 
L 137.332911 125.711562 
L 143.544414 119.321509 
L 149.755917 141.652804 
L 155.967419 164.679495 
L 162.178922 175.222802 
L 168.390425 162.777241 
L 174.601928 134.083651 
L 180.813431 111.839456 
L 187.024933 104.117543 
L 193.236436 103.898195 
L 199.447939 94.646954 
L 205.659442 81.35769 
L 211.870944 88.081538 
L 218.082447 97.291824 
L 224.29395 92.628522 
L 230.505453 88.435764 
L 236.716956 86.174175 
L 242.928458 81.069101 
L 249.139961 65.246752 
L 255.351464 58.684 
L 261.562967 77.37928 
L 267.77447 96.843272 
L 273.985972 88.46189 
L 280.197475 55.753843 
L 286.408978 34.943317 
L 292.620481 48.843738 
L 298.831983 79.959474 
L 305.043486 116.082508 
L 311.254989 143.725167 
L 317.466492 132.019032 
L 323.677995 109.207305 
L 329.889497 104.138536 
L 336.101 117.239581 
L 342.312503 146.105399 
L 348.524006 153.110956 
" style="fill:none;stroke:#fbc15e;stroke-linecap:square;stroke-opacity:0.3;stroke-width:1.5;"/>
   </g>
   <g id="line2d_28">
    <path clip-path="url(#p626cdcab90)" d="M 44.160369 107.656138 
L 50.371872 149.871255 
L 56.583375 147.916054 
L 62.794878 113.453074 
L 69.00638 97.123424 
L 75.217883 103.35754 
L 81.429386 111.21147 
L 87.640889 116.334145 
L 93.852392 122.577064 
L 100.063894 128.96725 
L 106.275397 135.715282 
L 112.4869 140.770603 
L 118.698403 145.453297 
L 124.909905 147.137485 
L 131.121408 152.468448 
L 137.332911 167.967518 
L 143.544414 176.708444 
L 149.755917 166.04326 
L 155.967419 131.967443 
L 162.178922 98.620807 
L 168.390425 87.632471 
L 174.601928 85.684253 
L 180.813431 97.376473 
L 187.024933 118.079136 
L 193.236436 114.718291 
L 199.447939 78.974924 
L 205.659442 59.068146 
L 211.870944 79.60318 
L 218.082447 97.391585 
L 224.29395 92.019291 
L 230.505453 90.080333 
L 236.716956 90.365847 
L 242.928458 80.57063 
L 249.139961 91.362423 
L 255.351464 140.581143 
L 261.562967 179.627745 
L 267.77447 169.282963 
L 273.985972 151.780187 
L 280.197475 138.92126 
L 286.408978 122.763855 
L 292.620481 120.079149 
L 298.831983 126.945337 
L 305.043486 134.302182 
L 311.254989 133.972203 
L 317.466492 133.789395 
L 323.677995 141.990043 
L 329.889497 148.346874 
L 336.101 154.705655 
L 342.312503 155.844881 
L 348.524006 140.532526 
" style="fill:none;stroke:#8eba42;stroke-linecap:square;stroke-opacity:0.3;stroke-width:1.5;"/>
   </g>
   <g id="line2d_29">
    <path clip-path="url(#p626cdcab90)" d="M 44.160369 143.349126 
L 50.371872 114.057733 
L 56.583375 91.103917 
L 62.794878 89.241427 
L 69.00638 97.916681 
L 75.217883 103.255408 
L 81.429386 105.83204 
L 87.640889 115.194338 
L 93.852392 122.53327 
L 100.063894 129.062328 
L 106.275397 134.618855 
L 112.4869 141.310908 
L 118.698403 145.340416 
L 124.909905 155.372232 
L 131.121408 151.480835 
L 137.332911 120.060399 
L 143.544414 106.525021 
L 149.755917 137.734662 
L 155.967419 159.632942 
L 162.178922 143.575919 
L 168.390425 135.02482 
L 174.601928 126.202321 
L 180.813431 110.780868 
L 187.024933 93.964951 
L 193.236436 71.369542 
L 199.447939 76.227182 
L 205.659442 107.424421 
L 211.870944 114.937538 
L 218.082447 96.594489 
L 224.29395 84.082984 
L 230.505453 94.146124 
L 236.716956 99.066921 
L 242.928458 70.751396 
L 249.139961 35.091479 
L 255.351464 28.207691 
L 261.562967 47.926568 
L 267.77447 83.909446 
L 273.985972 117.858641 
L 280.197475 127.582353 
L 286.408978 114.749578 
L 292.620481 124.74677 
L 298.831983 159.814281 
L 305.043486 167.45163 
L 311.254989 142.955777 
L 317.466492 134.218899 
L 323.677995 163.073637 
L 329.889497 181.477069 
L 336.101 163.867574 
L 342.312503 148.912952 
L 348.524006 170.956025 
" style="fill:none;stroke:#ffb5b8;stroke-linecap:square;stroke-opacity:0.3;stroke-width:1.5;"/>
   </g>
   <g id="line2d_30">
    <path clip-path="url(#p626cdcab90)" d="M 44.160369 136.500141 
L 50.371872 145.71977 
L 56.583375 144.102025 
L 62.794878 117.97036 
L 69.00638 96.755569 
L 75.217883 103.415043 
L 81.429386 113.664663 
L 87.640889 116.63499 
L 93.852392 122.580586 
L 100.063894 128.972513 
L 106.275397 135.544086 
L 112.4869 140.783932 
L 118.698403 145.439764 
L 124.909905 148.292087 
L 131.121408 152.305901 
L 137.332911 157.969276 
L 143.544414 155.984012 
L 149.755917 152.695078 
L 155.967419 154.786439 
L 162.178922 164.158569 
L 168.390425 183.220961 
L 174.601928 188.15213 
L 180.813431 164.692007 
L 187.024933 126.510452 
L 193.236436 102.310434 
L 199.447939 94.966662 
L 205.659442 88.971709 
L 211.870944 90.553453 
L 218.082447 97.325857 
L 224.29395 92.713559 
L 230.505453 89.271252 
L 236.716956 88.55786 
L 242.928458 80.2912 
L 249.139961 68.729664 
L 255.351464 70.067463 
L 261.562967 107.077971 
L 267.77447 143.312314 
L 273.985972 119.21469 
L 280.197475 81.306937 
L 286.408978 89.746062 
L 292.620481 99.769981 
L 298.831983 95.566165 
L 305.043486 112.199035 
L 311.254989 130.727222 
L 317.466492 133.402727 
L 323.677995 133.056215 
L 329.889497 144.711645 
L 336.101 159.297399 
L 342.312503 157.470982 
L 348.524006 138.307531 
" style="fill:none;stroke:#e24a33;stroke-linecap:square;stroke-opacity:0.3;stroke-width:1.5;"/>
   </g>
   <g id="line2d_31">
    <path clip-path="url(#p626cdcab90)" d="M 44.160369 98.541671 
L 50.371872 129.862555 
L 56.583375 147.431918 
L 62.794878 122.146942 
L 69.00638 96.525295 
L 75.217883 103.453645 
L 81.429386 115.800628 
L 87.640889 117.073968 
L 93.852392 122.597473 
L 100.063894 128.927458 
L 106.275397 136.72777 
L 112.4869 142.289804 
L 118.698403 145.344296 
L 124.909905 153.176437 
L 131.121408 151.883022 
L 137.332911 147.3839 
L 143.544414 158.0948 
L 149.755917 161.346594 
L 155.967419 136.186086 
L 162.178922 104.025033 
L 168.390425 85.244318 
L 174.601928 70.602967 
L 180.813431 70.101745 
L 187.024933 100.055915 
L 193.236436 130.093903 
L 199.447939 142.204757 
L 205.659442 144.333093 
L 211.870944 129.564702 
L 218.082447 96.27614 
L 224.29395 82.405185 
L 230.505453 92.778703 
L 236.716956 89.734801 
L 242.928458 86.160566 
L 249.139961 126.246581 
L 255.351464 176.997583 
L 261.562967 178.000608 
L 267.77447 129.03572 
L 273.985972 85.761368 
L 280.197475 90.473601 
L 286.408978 116.059137 
L 292.620481 120.135917 
L 298.831983 107.255513 
L 305.043486 101.763558 
L 311.254989 108.754592 
L 317.466492 135.413531 
L 323.677995 164.180356 
L 329.889497 177.072356 
L 336.101 177.949495 
L 342.312503 162.076316 
L 348.524006 134.691551 
" style="fill:none;stroke:#348abd;stroke-linecap:square;stroke-opacity:0.3;stroke-width:1.5;"/>
   </g>
   <g id="line2d_32">
    <path clip-path="url(#p626cdcab90)" d="M 44.160369 110.020237 
L 50.371872 107.749195 
L 56.583375 84.817207 
L 62.794878 81.300676 
L 69.00638 98.20043 
L 75.217883 103.24648 
L 81.429386 106.907331 
L 87.640889 115.60677 
L 93.852392 122.551876 
L 100.063894 129.023827 
L 106.275397 134.743873 
L 112.4869 140.225782 
L 118.698403 145.457331 
L 124.909905 147.97804 
L 131.121408 152.316228 
L 137.332911 161.134599 
L 143.544414 171.136167 
L 149.755917 164.333433 
L 155.967419 138.204984 
L 162.178922 121.904215 
L 168.390425 114.519394 
L 174.601928 129.090119 
L 180.813431 158.524377 
L 187.024933 174.773877 
L 193.236436 188.83539 
L 199.447939 186.471047 
L 205.659442 167.544173 
L 211.870944 133.497231 
L 218.082447 96.509049 
L 224.29395 89.993075 
L 230.505453 86.333782 
L 236.716956 76.630654 
L 242.928458 92.815737 
L 249.139961 122.33091 
L 255.351464 137.96838 
L 261.562967 136.255746 
L 267.77447 123.577076 
L 273.985972 126.092426 
L 280.197475 143.99706 
L 286.408978 138.530743 
L 292.620481 139.821092 
L 298.831983 153.607098 
L 305.043486 145.916407 
L 311.254989 128.239436 
L 317.466492 134.60186 
L 323.677995 152.019604 
L 329.889497 149.807734 
L 336.101 144.574447 
L 342.312503 150.174458 
L 348.524006 155.433409 
" style="fill:none;stroke:#988ed5;stroke-linecap:square;stroke-opacity:0.3;stroke-width:1.5;"/>
   </g>
   <g id="line2d_33">
    <path clip-path="url(#p626cdcab90)" d="M 44.160369 44.335433 
L 50.371872 60.334545 
L 56.583375 81.275084 
L 62.794878 90.148181 
L 69.00638 97.828897 
L 75.217883 103.272552 
L 81.429386 106.482265 
L 87.640889 115.135603 
L 93.852392 122.518665 
L 100.063894 129.142913 
L 106.275397 131.629762 
L 112.4869 137.189526 
L 118.698403 145.59413 
L 124.909905 142.205448 
L 131.121408 152.869086 
L 137.332911 184.361761 
L 143.544414 198.759527 
L 149.755917 173.164488 
L 155.967419 131.538045 
L 162.178922 126.867117 
L 168.390425 161.668242 
L 174.601928 195.325045 
L 180.813431 192.125661 
L 187.024933 152.767285 
L 193.236436 122.97276 
L 199.447939 119.928136 
L 205.659442 124.927068 
L 211.870944 116.963583 
L 218.082447 96.681341 
L 224.29395 87.51643 
L 230.505453 90.562019 
L 236.716956 88.783198 
L 242.928458 81.971865 
L 249.139961 87.400735 
L 255.351464 114.865529 
L 261.562967 153.175807 
L 267.77447 171.633759 
L 273.985972 166.345129 
L 280.197475 162.772908 
L 286.408978 168.982803 
L 292.620481 159.572839 
L 298.831983 140.14302 
L 305.043486 130.086347 
L 311.254989 123.941408 
L 317.466492 135.029634 
L 323.677995 175.113118 
L 329.889497 211.903316 
L 336.101 203.687152 
L 342.312503 163.856935 
L 348.524006 140.472298 
" style="fill:none;stroke:#777777;stroke-linecap:square;stroke-opacity:0.3;stroke-width:1.5;"/>
   </g>
   <g id="line2d_34">
    <path clip-path="url(#p626cdcab90)" d="M 44.160369 59.495549 
L 50.371872 51.620909 
L 56.583375 64.524367 
L 62.794878 88.423479 
L 69.00638 97.521325 
L 75.217883 103.350037 
L 81.429386 111.502863 
L 87.640889 116.338645 
L 93.852392 122.572471 
L 100.063894 128.990395 
L 106.275397 135.127007 
L 112.4869 140.404046 
L 118.698403 145.453405 
L 124.909905 147.76362 
L 131.121408 152.388522 
L 137.332911 164.947164 
L 143.544414 173.937697 
L 149.755917 164.128179 
L 155.967419 139.826035 
L 162.178922 136.050847 
L 168.390425 152.536847 
L 174.601928 149.306677 
L 180.813431 119.969659 
L 187.024933 87.602519 
L 193.236436 66.610836 
L 199.447939 88.040926 
L 205.659442 130.800867 
L 211.870944 130.04575 
L 218.082447 96.329897 
L 224.29395 84.113361 
L 230.505453 91.792928 
L 236.716956 88.729021 
L 242.928458 84.875562 
L 249.139961 108.628626 
L 255.351464 146.465714 
L 261.562967 168.849603 
L 267.77447 167.96126 
L 273.985972 155.138923 
L 280.197475 151.818819 
L 286.408978 165.144343 
L 292.620481 162.628631 
L 298.831983 140.92196 
L 305.043486 128.323783 
L 311.254989 127.100372 
L 317.466492 133.845729 
L 323.677995 128.961564 
L 329.889497 117.011606 
L 336.101 134.629713 
L 342.312503 153.83258 
L 348.524006 141.255094 
" style="fill:none;stroke:#fbc15e;stroke-linecap:square;stroke-opacity:0.3;stroke-width:1.5;"/>
   </g>
   <g id="line2d_35">
    <path clip-path="url(#p626cdcab90)" d="M 44.160369 84.061825 
L 50.371872 69.866435 
L 56.583375 74.562545 
L 62.794878 89.284139 
L 69.00638 97.569159 
L 75.217883 103.351675 
L 81.429386 112.298993 
L 87.640889 116.578777 
L 93.852392 122.581549 
L 100.063894 128.973804 
L 106.275397 135.239262 
L 112.4869 140.198385 
L 118.698403 145.473643 
L 124.909905 147.150037 
L 131.121408 152.324144 
L 137.332911 153.23612 
L 143.544414 143.26027 
L 149.755917 147.464172 
L 155.967419 156.915427 
L 162.178922 149.053589 
L 168.390425 142.411911 
L 174.601928 161.843745 
L 180.813431 174.455867 
L 187.024933 146.002047 
L 193.236436 119.131191 
L 199.447939 114.772626 
L 205.659442 100.241906 
L 211.870944 85.250299 
L 218.082447 97.908784 
L 224.29395 105.533269 
L 230.505453 80.212457 
L 236.716956 72.624847 
L 242.928458 89.916412 
L 249.139961 101.319639 
L 255.351464 119.189863 
L 261.562967 124.773869 
L 267.77447 99.13062 
L 273.985972 96.010028 
L 280.197475 116.796919 
L 286.408978 110.001106 
L 292.620481 97.18642 
L 298.831983 115.918132 
L 305.043486 137.478199 
L 311.254989 130.735006 
L 317.466492 134.766095 
L 323.677995 168.344282 
L 329.889497 194.037723 
L 336.101 191.320357 
L 342.312503 164.172325 
L 348.524006 135.715793 
" style="fill:none;stroke:#8eba42;stroke-linecap:square;stroke-opacity:0.3;stroke-width:1.5;"/>
   </g>
   <g id="line2d_36">
    <path clip-path="url(#p626cdcab90)" d="M 44.160369 144.699202 
L 50.371872 133.863373 
L 56.583375 107.623061 
L 62.794878 94.450873 
L 69.00638 97.603176 
L 75.217883 103.330086 
L 81.429386 110.608644 
L 87.640889 116.126941 
L 93.852392 122.559836 
L 100.063894 129.04002 
L 106.275397 133.571925 
L 112.4869 138.48484 
L 118.698403 145.559176 
L 124.909905 143.209754 
L 131.121408 152.712985 
L 137.332911 169.126021 
L 143.544414 159.746358 
L 149.755917 150.802611 
L 155.967419 157.277937 
L 162.178922 159.380324 
L 168.390425 162.207616 
L 174.601928 156.143537 
L 180.813431 120.443078 
L 187.024933 115.228613 
L 193.236436 148.059054 
L 199.447939 147.343318 
L 205.659442 122.526671 
L 211.870944 110.05207 
L 218.082447 96.751525 
L 224.29395 86.415301 
L 230.505453 91.850117 
L 236.716956 90.326673 
L 242.928458 84.331178 
L 249.139961 113.819025 
L 255.351464 149.903106 
L 261.562967 159.38478 
L 267.77447 156.799976 
L 273.985972 135.455913 
L 280.197475 116.514552 
L 286.408978 133.289875 
L 292.620481 173.321866 
L 298.831983 203.980555 
L 305.043486 208.788138 
L 311.254989 172.275313 
L 317.466492 132.212114 
L 323.677995 132.105499 
L 329.889497 141.434716 
L 336.101 140.970673 
L 342.312503 148.769674 
L 348.524006 157.375472 
" style="fill:none;stroke:#ffb5b8;stroke-linecap:square;stroke-opacity:0.3;stroke-width:1.5;"/>
   </g>
   <g id="line2d_37">
    <path clip-path="url(#p626cdcab90)" d="M 44.160369 137.644255 
L 50.371872 147.441278 
L 56.583375 109.302863 
L 62.794878 86.797371 
L 69.00638 98.222801 
L 75.217883 103.225121 
L 81.429386 105.926796 
L 87.640889 115.550383 
L 93.852392 122.555894 
L 100.063894 129.000588 
L 106.275397 135.51547 
L 112.4869 141.304212 
L 118.698403 145.380495 
L 124.909905 152.795334 
L 131.121408 151.705207 
L 137.332911 127.921357 
L 143.544414 118.309154 
L 149.755917 142.953747 
L 155.967419 157.168676 
L 162.178922 151.966377 
L 168.390425 158.965487 
L 174.601928 165.817236 
L 180.813431 164.552069 
L 187.024933 173.864749 
L 193.236436 172.331621 
L 199.447939 134.288816 
L 205.659442 89.572451 
L 211.870944 86.347769 
L 218.082447 97.321579 
L 224.29395 92.305361 
L 230.505453 88.779524 
L 236.716956 86.147197 
L 242.928458 82.439953 
L 249.139961 72.981144 
L 255.351464 69.486202 
L 261.562967 104.177411 
L 267.77447 152.560392 
L 273.985972 163.26147 
L 280.197475 122.449011 
L 286.408978 96.818763 
L 292.620481 115.072506 
L 298.831983 126.218019 
L 305.043486 124.768354 
L 311.254989 122.40201 
L 317.466492 134.641782 
L 323.677995 155.301114 
L 329.889497 172.288394 
L 336.101 170.671803 
L 342.312503 154.665721 
L 348.524006 157.736154 
" style="fill:none;stroke:#e24a33;stroke-linecap:square;stroke-opacity:0.3;stroke-width:1.5;"/>
   </g>
   <g id="line2d_38">
    <path clip-path="url(#p626cdcab90)" d="M 44.160369 153.297463 
L 50.371872 136.976438 
L 56.583375 109.303788 
L 62.794878 97.472628 
L 69.00638 97.455072 
L 75.217883 103.345586 
L 81.429386 111.337449 
L 87.640889 116.335351 
L 93.852392 122.572724 
L 100.063894 128.988043 
L 106.275397 135.300454 
L 112.4869 140.803631 
L 118.698403 145.413479 
L 124.909905 150.983909 
L 131.121408 151.935186 
L 137.332911 142.918824 
L 143.544414 149.620555 
L 149.755917 159.975058 
L 155.967419 135.010129 
L 162.178922 104.847172 
L 168.390425 112.548454 
L 174.601928 128.415835 
L 180.813431 118.297059 
L 187.024933 98.178998 
L 193.236436 83.042349 
L 199.447939 77.010323 
L 205.659442 81.623489 
L 211.870944 88.874345 
L 218.082447 97.428965 
L 224.29395 94.898695 
L 230.505453 87.697251 
L 236.716956 84.365097 
L 242.928458 86.165092 
L 249.139961 104.199277 
L 255.351464 113.548759 
L 261.562967 89.821171 
L 267.77447 72.784849 
L 273.985972 100.101875 
L 280.197475 131.245091 
L 286.408978 121.504419 
L 292.620481 102.869161 
L 298.831983 113.080339 
L 305.043486 134.207661 
L 311.254989 141.38368 
L 317.466492 132.709298 
L 323.677995 120.319344 
L 329.889497 127.909242 
L 336.101 152.637043 
L 342.312503 158.855081 
L 348.524006 129.77032 
" style="fill:none;stroke:#348abd;stroke-linecap:square;stroke-opacity:0.3;stroke-width:1.5;"/>
   </g>
   <g id="line2d_39">
    <path clip-path="url(#p626cdcab90)" d="M 44.160369 107.435022 
L 50.371872 102.764459 
L 56.583375 104.821236 
L 62.794878 101.327619 
L 69.00638 97.326806 
L 75.217883 103.343983 
L 81.429386 110.35335 
L 87.640889 116.066628 
L 93.852392 122.56457 
L 100.063894 128.991966 
L 106.275397 135.829921 
L 112.4869 142.069414 
L 118.698403 145.316684 
L 124.909905 156.328915 
L 131.121408 151.433014 
L 137.332911 126.805465 
L 143.544414 132.915289 
L 149.755917 150.20177 
L 155.967419 151.191731 
L 162.178922 129.823288 
L 168.390425 108.930645 
L 174.601928 129.997068 
L 180.813431 160.365218 
L 187.024933 148.278029 
L 193.236436 109.717346 
L 199.447939 65.934472 
L 205.659442 36.102451 
L 211.870944 50.990545 
L 218.082447 98.604234 
L 224.29395 111.652725 
L 230.505453 77.566063 
L 236.716956 67.927412 
L 242.928458 94.34691 
L 249.139961 118.348238 
L 255.351464 126.003009 
L 261.562967 104.027928 
L 267.77447 78.011648 
L 273.985972 89.657508 
L 280.197475 111.175988 
L 286.408978 103.825071 
L 292.620481 82.677384 
L 298.831983 64.702643 
L 305.043486 75.683949 
L 311.254989 119.040483 
L 317.466492 132.830104 
L 323.677995 112.074528 
L 329.889497 116.890703 
L 336.101 136.292032 
L 342.312503 149.415033 
L 348.524006 154.678467 
" style="fill:none;stroke:#988ed5;stroke-linecap:square;stroke-opacity:0.3;stroke-width:1.5;"/>
   </g>
   <g id="line2d_40">
    <path clip-path="url(#p626cdcab90)" d="M 44.160369 215.514905 
L 50.371872 181.099902 
L 56.583375 134.089086 
L 62.794878 104.317113 
L 69.00638 97.330124 
L 75.217883 103.350739 
L 81.429386 111.38401 
L 87.640889 116.37427 
L 93.852392 122.577012 
L 100.063894 128.970948 
L 106.275397 135.63266 
L 112.4869 140.754384 
L 118.698403 145.449681 
L 124.909905 147.520528 
L 131.121408 152.406468 
L 137.332911 163.482237 
L 143.544414 167.441612 
L 149.755917 161.216872 
L 155.967419 138.51003 
L 162.178922 111.467253 
L 168.390425 98.993425 
L 174.601928 101.061181 
L 180.813431 102.595018 
L 187.024933 98.659308 
L 193.236436 112.09526 
L 199.447939 129.533658 
L 205.659442 117.717002 
L 211.870944 99.229106 
L 218.082447 97.28255 
L 224.29395 94.353431 
L 230.505453 87.267138 
L 236.716956 82.626398 
L 242.928458 88.20641 
L 249.139961 116.126437 
L 255.351464 133.481815 
L 261.562967 101.063552 
L 267.77447 73.284479 
L 273.985972 93.479359 
L 280.197475 111.672547 
L 286.408978 112.259813 
L 292.620481 97.596096 
L 298.831983 77.626497 
L 305.043486 79.819542 
L 311.254989 106.672336 
L 317.466492 134.488821 
L 323.677995 141.11476 
L 329.889497 153.800732 
L 336.101 167.870832 
L 342.312503 160.903962 
L 348.524006 126.90756 
" style="fill:none;stroke:#777777;stroke-linecap:square;stroke-opacity:0.3;stroke-width:1.5;"/>
   </g>
   <g id="line2d_41">
    <path clip-path="url(#p626cdcab90)" d="M 44.160369 133.853845 
L 50.371872 144.220534 
L 56.583375 122.013956 
L 62.794878 101.250708 
L 69.00638 97.410829 
L 75.217883 103.341013 
L 81.429386 110.666231 
L 87.640889 116.149324 
L 93.852392 122.566352 
L 100.063894 128.993244 
L 106.275397 135.59745 
L 112.4869 141.486145 
L 118.698403 145.371452 
L 124.909905 152.584124 
L 131.121408 151.859348 
L 137.332911 142.711422 
L 143.544414 147.730755 
L 149.755917 156.118573 
L 155.967419 141.858134 
L 162.178922 115.491354 
L 168.390425 112.152138 
L 174.601928 121.484544 
L 180.813431 114.3896 
L 187.024933 101.623617 
L 193.236436 99.950514 
L 199.447939 101.378576 
L 205.659442 94.444118 
L 211.870944 90.232735 
L 218.082447 97.519243 
L 224.29395 99.202337 
L 230.505453 82.607216 
L 236.716956 71.388678 
L 242.928458 94.844444 
L 249.139961 115.58581 
L 255.351464 113.741155 
L 261.562967 117.758731 
L 267.77447 119.260634 
L 273.985972 110.668813 
L 280.197475 120.989302 
L 286.408978 151.823231 
L 292.620481 163.103655 
L 298.831983 135.235602 
L 305.043486 112.501576 
L 311.254989 120.014547 
L 317.466492 134.109294 
L 323.677995 136.123036 
L 329.889497 126.746407 
L 336.101 126.850815 
L 342.312503 145.880472 
L 348.524006 157.480328 
" style="fill:none;stroke:#fbc15e;stroke-linecap:square;stroke-opacity:0.3;stroke-width:1.5;"/>
   </g>
   <g id="line2d_42">
    <path clip-path="url(#p626cdcab90)" d="M 44.160369 128.41882 
L 50.371872 130.588957 
L 56.583375 125.603492 
L 62.794878 109.965315 
L 69.00638 97.128944 
L 75.217883 103.346704 
L 81.429386 109.723603 
L 87.640889 115.894777 
L 93.852392 122.557963 
L 100.063894 129.012141 
L 106.275397 135.05776 
L 112.4869 140.6786 
L 118.698403 145.427822 
L 124.909905 149.424096 
L 131.121408 152.178898 
L 137.332911 153.974966 
L 143.544414 155.226493 
L 149.755917 153.344386 
L 155.967419 157.638084 
L 162.178922 175.403653 
L 168.390425 165.568535 
L 174.601928 132.833926 
L 180.813431 120.056926 
L 187.024933 119.790088 
L 193.236436 124.543467 
L 199.447939 130.834121 
L 205.659442 136.389297 
L 211.870944 128.518914 
L 218.082447 96.170396 
L 224.29395 80.143553 
L 230.505453 93.969507 
L 236.716956 92.67421 
L 242.928458 80.024238 
L 249.139961 76.946948 
L 255.351464 78.778944 
L 261.562967 80.408882 
L 267.77447 88.869709 
L 273.985972 95.038723 
L 280.197475 96.092022 
L 286.408978 91.909749 
L 292.620481 94.892194 
L 298.831983 106.797523 
L 305.043486 117.394948 
L 311.254989 128.244146 
L 317.466492 133.670029 
L 323.677995 131.312791 
L 329.889497 123.363143 
L 336.101 134.389337 
L 342.312503 151.328855 
L 348.524006 147.882896 
" style="fill:none;stroke:#8eba42;stroke-linecap:square;stroke-opacity:0.3;stroke-width:1.5;"/>
   </g>
   <g id="line2d_43">
    <path clip-path="url(#p626cdcab90)" d="M 44.160369 171.983139 
L 50.371872 147.529423 
L 56.583375 108.523259 
L 62.794878 92.447511 
L 69.00638 97.814385 
L 75.217883 103.279082 
L 81.429386 107.419798 
L 87.640889 115.540651 
L 93.852392 122.545725 
L 100.063894 129.043678 
L 106.275397 134.303765 
L 112.4869 139.959035 
L 118.698403 145.454271 
L 124.909905 148.765602 
L 131.121408 152.251939 
L 137.332911 162.287389 
L 143.544414 175.834886 
L 149.755917 164.345541 
L 155.967419 139.869546 
L 162.178922 113.909925 
L 168.390425 77.929225 
L 174.601928 63.283823 
L 180.813431 72.499134 
L 187.024933 85.69116 
L 193.236436 102.660529 
L 199.447939 114.914271 
L 205.659442 115.21554 
L 211.870944 105.90931 
L 218.082447 97.062325 
L 224.29395 92.789318 
L 230.505453 87.409503 
L 236.716956 82.635121 
L 242.928458 87.365403 
L 249.139961 108.852282 
L 255.351464 127.159466 
L 261.562967 116.485934 
L 267.77447 100.92478 
L 273.985972 107.515234 
L 280.197475 105.796448 
L 286.408978 97.675354 
L 292.620481 115.748702 
L 298.831983 139.21667 
L 305.043486 151.329024 
L 311.254989 150.492456 
L 317.466492 132.254501 
L 323.677995 114.119593 
L 329.889497 110.802496 
L 336.101 126.804097 
L 342.312503 148.621439 
L 348.524006 153.955207 
" style="fill:none;stroke:#ffb5b8;stroke-linecap:square;stroke-opacity:0.3;stroke-width:1.5;"/>
   </g>
   <g id="line2d_44">
    <path clip-path="url(#p626cdcab90)" d="M 44.160369 88.90194 
L 50.371872 66.775618 
L 56.583375 90.53233 
L 62.794878 104.071983 
L 69.00638 97.023837 
L 75.217883 103.395193 
L 81.429386 113.109891 
L 87.640889 116.606391 
L 93.852392 122.58264 
L 100.063894 128.960347 
L 106.275397 135.956058 
L 112.4869 141.37882 
L 118.698403 145.397969 
L 124.909905 150.414803 
L 131.121408 152.169569 
L 137.332911 158.885242 
L 143.544414 165.7825 
L 149.755917 156.184202 
L 155.967419 155.968917 
L 162.178922 169.090985 
L 168.390425 166.118957 
L 174.601928 148.626157 
L 180.813431 136.27438 
L 187.024933 148.429034 
L 193.236436 177.186266 
L 199.447939 198.571111 
L 205.659442 185.246302 
L 211.870944 136.518202 
L 218.082447 96.53315 
L 224.29395 89.688118 
L 230.505453 87.247425 
L 236.716956 79.232876 
L 242.928458 91.33592 
L 249.139961 125.725883 
L 255.351464 160.92633 
L 261.562967 170.957065 
L 267.77447 147.003943 
L 273.985972 120.825568 
L 280.197475 114.810532 
L 286.408978 124.470649 
L 292.620481 148.824697 
L 298.831983 145.057939 
L 305.043486 108.571875 
L 311.254989 102.34334 
L 317.466492 135.654534 
L 323.677995 156.511528 
L 329.889497 149.018138 
L 336.101 151.248992 
L 342.312503 155.700587 
L 348.524006 143.020714 
" style="fill:none;stroke:#e24a33;stroke-linecap:square;stroke-opacity:0.3;stroke-width:1.5;"/>
   </g>
   <g id="line2d_45">
    <path clip-path="url(#p626cdcab90)" d="M 44.160369 158.202668 
L 50.371872 127.588863 
L 56.583375 103.592301 
L 62.794878 94.79475 
L 69.00638 97.737172 
L 75.217883 103.280796 
L 81.429386 107.436052 
L 87.640889 115.574766 
L 93.852392 122.548204 
L 100.063894 129.033458 
L 106.275397 134.662554 
L 112.4869 140.369936 
L 118.698403 145.440499 
L 124.909905 148.892271 
L 131.121408 152.234905 
L 137.332911 157.207903 
L 143.544414 163.285432 
L 149.755917 161.187867 
L 155.967419 137.409281 
L 162.178922 103.706312 
L 168.390425 78.195854 
L 174.601928 71.065036 
L 180.813431 85.167884 
L 187.024933 108.091774 
L 193.236436 122.564697 
L 199.447939 131.36251 
L 205.659442 126.627924 
L 211.870944 109.164397 
L 218.082447 97.026937 
L 224.29395 92.293012 
L 230.505453 87.582733 
L 236.716956 81.394306 
L 242.928458 90.416347 
L 249.139961 127.827372 
L 255.351464 158.144672 
L 261.562967 151.648692 
L 267.77447 135.232254 
L 273.985972 108.227762 
L 280.197475 75.124032 
L 286.408978 66.206627 
L 292.620481 74.108605 
L 298.831983 84.856211 
L 305.043486 111.918302 
L 311.254989 142.917757 
L 317.466492 131.813368 
L 323.677995 108.369741 
L 329.889497 122.744141 
L 336.101 147.266687 
L 342.312503 153.415443 
L 348.524006 145.513031 
" style="fill:none;stroke:#348abd;stroke-linecap:square;stroke-opacity:0.3;stroke-width:1.5;"/>
   </g>
   <g id="line2d_46">
    <path clip-path="url(#p626cdcab90)" d="M 44.160369 107.864903 
L 50.371872 104.736267 
L 56.583375 94.87724 
L 62.794878 94.726136 
L 69.00638 97.469353 
L 75.217883 103.346306 
L 81.429386 111.283877 
L 87.640889 116.344241 
L 93.852392 122.576447 
L 100.063894 128.965157 
L 106.275397 136.085762 
L 112.4869 141.639382 
L 118.698403 145.381834 
L 124.909905 151.708541 
L 131.121408 151.90151 
L 137.332911 138.840728 
L 143.544414 132.242983 
L 149.755917 146.263352 
L 155.967419 155.011665 
L 162.178922 136.352683 
L 168.390425 110.568961 
L 174.601928 77.962092 
L 180.813431 36.992458 
L 187.024933 26.124777 
L 193.236436 44.815242 
L 199.447939 88.257446 
L 205.659442 125.876898 
L 211.870944 117.51503 
L 218.082447 96.835745 
L 224.29395 90.902415 
L 230.505453 88.464136 
L 236.716956 86.519936 
L 242.928458 80.672358 
L 249.139961 69.282206 
L 255.351464 72.913948 
L 261.562967 88.62213 
L 267.77447 83.54365 
L 273.985972 51.219015 
L 280.197475 22.655675 
L 286.408978 23.927515 
L 292.620481 64.085527 
L 298.831983 99.316131 
L 305.043486 100.869244 
L 311.254989 108.417553 
L 317.466492 134.848883 
L 323.677995 138.703636 
L 329.889497 117.433776 
L 336.101 116.605388 
L 342.312503 144.181662 
L 348.524006 158.951978 
" style="fill:none;stroke:#988ed5;stroke-linecap:square;stroke-opacity:0.3;stroke-width:1.5;"/>
   </g>
   <g id="line2d_47">
    <path clip-path="url(#p626cdcab90)" d="M 44.160369 17.842178 
L 50.371872 44.056345 
L 56.583375 65.635522 
L 62.794878 83.993242 
L 69.00638 97.993199 
L 75.217883 103.265727 
L 81.429386 107.371484 
L 87.640889 115.629335 
L 93.852392 122.550768 
L 100.063894 129.029661 
L 106.275397 134.629783 
L 112.4869 140.213723 
L 118.698403 145.454485 
L 124.909905 147.780323 
L 131.121408 152.429804 
L 137.332911 170.642973 
L 143.544414 185.545164 
L 149.755917 169.019429 
L 155.967419 132.653177 
L 162.178922 111.42868 
L 168.390425 120.493781 
L 174.601928 142.533588 
L 180.813431 145.17216 
L 187.024933 133.516147 
L 193.236436 153.957946 
L 199.447939 177.89057 
L 205.659442 155.831652 
L 211.870944 119.774109 
L 218.082447 96.712651 
L 224.29395 87.369688 
L 230.505453 91.061561 
L 236.716956 89.82212 
L 242.928458 82.270858 
L 249.139961 90.29751 
L 255.351464 96.735714 
L 261.562967 89.95491 
L 267.77447 85.567249 
L 273.985972 81.871585 
L 280.197475 79.412233 
L 286.408978 81.059645 
L 292.620481 87.927866 
L 298.831983 92.914365 
L 305.043486 88.046938 
L 311.254989 97.209425 
L 317.466492 136.0715 
L 323.677995 162.794364 
L 329.889497 146.153792 
L 336.101 133.884299 
L 342.312503 149.333968 
L 348.524006 148.792289 
" style="fill:none;stroke:#777777;stroke-linecap:square;stroke-opacity:0.3;stroke-width:1.5;"/>
   </g>
   <g id="line2d_48">
    <path clip-path="url(#p626cdcab90)" d="M 44.160369 175.08577 
L 50.371872 152.073209 
L 56.583375 128.516865 
L 62.794878 108.037801 
L 69.00638 97.174304 
L 75.217883 103.352977 
L 81.429386 110.259267 
L 87.640889 115.912867 
L 93.852392 122.552171 
L 100.063894 129.044439 
L 106.275397 134.060208 
L 112.4869 139.664891 
L 118.698403 145.468144 
L 124.909905 148.268981 
L 131.121408 152.236185 
L 137.332911 154.089293 
L 143.544414 148.305171 
L 149.755917 146.174159 
L 155.967419 167.665958 
L 162.178922 187.866224 
L 168.390425 177.991432 
L 174.601928 154.363189 
L 180.813431 128.734117 
L 187.024933 97.563637 
L 193.236436 77.602095 
L 199.447939 95.734839 
L 205.659442 127.497079 
L 211.870944 124.830888 
L 218.082447 96.401763 
L 224.29395 83.030394 
L 230.505453 93.406995 
L 236.716956 93.236329 
L 242.928458 80.278402 
L 249.139961 85.806167 
L 255.351464 112.299455 
L 261.562967 153.35721 
L 267.77447 173.225827 
L 273.985972 150.840526 
L 280.197475 122.105488 
L 286.408978 136.513017 
L 292.620481 183.786849 
L 298.831983 198.49556 
L 305.043486 165.697316 
L 311.254989 134.264152 
L 317.466492 134.138621 
L 323.677995 144.62987 
L 329.889497 144.026811 
L 336.101 143.170126 
L 342.312503 152.446624 
L 348.524006 141.453483 
" style="fill:none;stroke:#fbc15e;stroke-linecap:square;stroke-opacity:0.3;stroke-width:1.5;"/>
   </g>
   <g id="line2d_49">
    <path clip-path="url(#p626cdcab90)" d="M 44.160369 122.759739 
L 50.371872 139.610769 
L 56.583375 147.740987 
L 62.794878 119.030674 
L 69.00638 96.783935 
L 75.217883 103.413747 
L 81.429386 114.246841 
L 87.640889 116.898963 
L 93.852392 122.594307 
L 100.063894 128.937612 
L 106.275397 136.098714 
L 112.4869 140.995803 
L 118.698403 145.444056 
L 124.909905 147.380358 
L 131.121408 152.506813 
L 137.332911 172.43644 
L 143.544414 179.348561 
L 149.755917 161.901958 
L 155.967419 141.933142 
L 162.178922 110.78815 
L 168.390425 68.498201 
L 174.601928 48.520152 
L 180.813431 59.022274 
L 187.024933 75.234875 
L 193.236436 105.37911 
L 199.447939 148.065874 
L 205.659442 168.941645 
L 211.870944 147.313831 
L 218.082447 95.834253 
L 224.29395 79.043291 
L 230.505453 93.120516 
L 236.716956 89.181997 
L 242.928458 83.806298 
L 249.139961 92.101878 
L 255.351464 98.173264 
L 261.562967 97.959264 
L 267.77447 108.268276 
L 273.985972 142.466226 
L 280.197475 171.579384 
L 286.408978 175.901137 
L 292.620481 171.795961 
L 298.831983 153.425511 
L 305.043486 124.386759 
L 311.254989 115.222994 
L 317.466492 134.798128 
L 323.677995 147.159077 
L 329.889497 144.22724 
L 336.101 135.889497 
L 342.312503 143.653992 
L 348.524006 170.906178 
" style="fill:none;stroke:#8eba42;stroke-linecap:square;stroke-opacity:0.3;stroke-width:1.5;"/>
   </g>
   <g id="line2d_50">
    <path clip-path="url(#p626cdcab90)" d="M 44.160369 132.023391 
L 50.371872 141.627423 
L 56.583375 133.102293 
L 62.794878 111.937495 
L 69.00638 96.999857 
L 75.217883 103.372948 
L 81.429386 111.005468 
L 87.640889 116.077066 
L 93.852392 122.562931 
L 100.063894 128.998101 
L 106.275397 135.467696 
L 112.4869 141.046317 
L 118.698403 145.42388 
L 124.909905 148.414022 
L 131.121408 152.417855 
L 137.332911 168.869296 
L 143.544414 176.235739 
L 149.755917 162.920215 
L 155.967419 136.957077 
L 162.178922 102.364555 
L 168.390425 93.297713 
L 174.601928 102.556494 
L 180.813431 94.435924 
L 187.024933 82.25834 
L 193.236436 72.360917 
L 199.447939 74.699969 
L 205.659442 97.181431 
L 211.870944 108.795278 
L 218.082447 96.817474 
L 224.29395 89.954447 
L 230.505453 88.353666 
L 236.716956 83.984734 
L 242.928458 84.193888 
L 249.139961 82.08247 
L 255.351464 94.008285 
L 261.562967 138.442764 
L 267.77447 180.212446 
L 273.985972 180.09984 
L 280.197475 138.328053 
L 286.408978 99.968548 
L 292.620481 93.847914 
L 298.831983 99.559055 
L 305.043486 100.445327 
L 311.254989 106.168362 
L 317.466492 135.795009 
L 323.677995 171.004361 
L 329.889497 177.708637 
L 336.101 161.810798 
L 342.312503 151.277294 
L 348.524006 162.74629 
" style="fill:none;stroke:#ffb5b8;stroke-linecap:square;stroke-opacity:0.3;stroke-width:1.5;"/>
   </g>
   <g id="line2d_51">
    <path clip-path="url(#p626cdcab90)" d="M 44.160369 138.982829 
L 50.371872 101.597435 
L 56.583375 92.741577 
L 62.794878 96.033856 
L 69.00638 97.445231 
L 75.217883 103.345408 
L 81.429386 111.347301 
L 87.640889 116.410785 
L 93.852392 122.580616 
L 100.063894 128.953841 
L 106.275397 136.288836 
L 112.4869 141.826344 
L 118.698403 145.365422 
L 124.909905 153.089922 
L 131.121408 151.710917 
L 137.332911 129.911919 
L 143.544414 121.844461 
L 149.755917 142.009162 
L 155.967419 164.464189 
L 162.178922 172.428598 
L 168.390425 169.766033 
L 174.601928 183.384311 
L 180.813431 191.003055 
L 187.024933 167.755554 
L 193.236436 129.850802 
L 199.447939 100.463484 
L 205.659442 77.631712 
L 211.870944 74.11981 
L 218.082447 97.949383 
L 224.29395 100.862838 
L 230.505453 85.371692 
L 236.716956 83.401221 
L 242.928458 83.171131 
L 249.139961 80.256653 
L 255.351464 87.700308 
L 261.562967 121.839871 
L 267.77447 160.069139 
L 273.985972 147.735112 
L 280.197475 124.143126 
L 286.408978 133.198768 
L 292.620481 162.508302 
L 298.831983 199.709161 
L 305.043486 211.509366 
L 311.254989 179.138208 
L 317.466492 131.139725 
L 323.677995 104.191065 
L 329.889497 96.54348 
L 336.101 115.395233 
L 342.312503 147.142326 
L 348.524006 148.750113 
" style="fill:none;stroke:#e24a33;stroke-linecap:square;stroke-opacity:0.3;stroke-width:1.5;"/>
   </g>
   <g id="line2d_52">
    <path clip-path="url(#p626cdcab90)" d="M 44.160369 90.243147 
L 50.371872 84.405866 
L 56.583375 88.459827 
L 62.794878 93.130782 
L 69.00638 97.728776 
L 75.217883 103.280127 
L 81.429386 107.103892 
L 87.640889 115.463663 
L 93.852392 122.543267 
L 100.063894 129.045784 
L 106.275397 134.474976 
L 112.4869 140.363919 
L 118.698403 145.435969 
L 124.909905 148.571969 
L 131.121408 152.38464 
L 137.332911 166.490698 
L 143.544414 167.946666 
L 149.755917 155.5946 
L 155.967419 153.423463 
L 162.178922 157.611956 
L 168.390425 159.074878 
L 174.601928 156.943597 
L 180.813431 150.805761 
L 187.024933 134.014385 
L 193.236436 124.214785 
L 199.447939 129.50747 
L 205.659442 129.142317 
L 211.870944 113.835979 
L 218.082447 96.909889 
L 224.29395 92.150258 
L 230.505453 87.117282 
L 236.716956 82.606404 
L 242.928458 84.244307 
L 249.139961 78.214165 
L 255.351464 72.307222 
L 261.562967 86.802106 
L 267.77447 120.576705 
L 273.985972 163.100647 
L 280.197475 185.368385 
L 286.408978 159.215415 
L 292.620481 115.594656 
L 298.831983 98.868577 
L 305.043486 99.103519 
L 311.254989 111.808093 
L 317.466492 134.721808 
L 323.677995 147.473404 
L 329.889497 155.179712 
L 336.101 169.463104 
L 342.312503 164.613308 
L 348.524006 117.126877 
" style="fill:none;stroke:#348abd;stroke-linecap:square;stroke-opacity:0.3;stroke-width:1.5;"/>
   </g>
   <g id="line2d_53">
    <path clip-path="url(#p626cdcab90)" d="M 44.160369 77.860613 
L 50.371872 89.209447 
L 56.583375 98.794969 
L 62.794878 93.842407 
L 69.00638 97.702228 
L 75.217883 103.309143 
L 81.429386 109.508609 
L 87.640889 115.910109 
L 93.852392 122.551669 
L 100.063894 129.057773 
L 106.275397 133.370674 
L 112.4869 138.619139 
L 118.698403 145.530078 
L 124.909905 145.733126 
L 131.121408 152.384319 
L 137.332911 158.055576 
L 143.544414 163.053155 
L 149.755917 161.336046 
L 155.967419 138.813216 
L 162.178922 108.463419 
L 168.390425 69.938795 
L 174.601928 52.319645 
L 180.813431 88.496204 
L 187.024933 129.708651 
L 193.236436 128.621419 
L 199.447939 100.360196 
L 205.659442 93.016606 
L 211.870944 103.273767 
L 218.082447 96.867445 
L 224.29395 88.80287 
L 230.505453 89.459687 
L 236.716956 85.204013 
L 242.928458 85.133156 
L 249.139961 94.585749 
L 255.351464 107.580634 
L 261.562967 111.78768 
L 267.77447 93.378609 
L 273.985972 73.35191 
L 280.197475 75.005111 
L 286.408978 83.947054 
L 292.620481 94.136736 
L 298.831983 98.7315 
L 305.043486 103.408526 
L 311.254989 116.244665 
L 317.466492 134.603917 
L 323.677995 157.866764 
L 329.889497 196.698329 
L 336.101 208.466582 
L 342.312503 167.667509 
L 348.524006 135.634792 
" style="fill:none;stroke:#988ed5;stroke-linecap:square;stroke-opacity:0.3;stroke-width:1.5;"/>
   </g>
   <g id="line2d_54">
    <path clip-path="url(#p626cdcab90)" d="M 44.160369 89.835722 
L 50.371872 75.713418 
L 56.583375 90.329583 
L 62.794878 101.996521 
L 69.00638 97.095787 
L 75.217883 103.395672 
L 81.429386 113.765992 
L 87.640889 116.855678 
L 93.852392 122.596951 
L 100.063894 128.910588 
L 106.275397 137.295817 
L 112.4869 142.710892 
L 118.698403 145.338188 
L 124.909905 153.26746 
L 131.121408 151.771505 
L 137.332911 133.807252 
L 143.544414 128.898023 
L 149.755917 147.018421 
L 155.967419 153.798825 
L 162.178922 132.609297 
L 168.390425 87.269606 
L 174.601928 55.053988 
L 180.813431 70.068951 
L 187.024933 112.495033 
L 193.236436 133.623588 
L 199.447939 124.733587 
L 205.659442 109.76516 
L 211.870944 97.248292 
L 218.082447 97.535236 
L 224.29395 102.413437 
L 230.505453 80.401278 
L 236.716956 69.549235 
L 242.928458 93.621849 
L 249.139961 103.937033 
L 255.351464 91.100971 
L 261.562967 82.442784 
L 267.77447 85.629591 
L 273.985972 102.743979 
L 280.197475 118.85037 
L 286.408978 123.127144 
L 292.620481 127.743596 
L 298.831983 123.635373 
L 305.043486 110.5188 
L 311.254989 112.506985 
L 317.466492 135.040106 
L 323.677995 158.220943 
L 329.889497 174.699305 
L 336.101 176.67318 
L 342.312503 161.073353 
L 348.524006 133.622394 
" style="fill:none;stroke:#777777;stroke-linecap:square;stroke-opacity:0.3;stroke-width:1.5;"/>
   </g>
   <g id="line2d_55">
    <path clip-path="url(#p626cdcab90)" d="M 44.160369 143.325414 
L 50.371872 109.42748 
L 56.583375 80.424552 
L 62.794878 85.091442 
L 69.00638 97.866718 
L 75.217883 103.300855 
L 81.429386 109.771872 
L 87.640889 116.179509 
L 93.852392 122.571978 
L 100.063894 128.983562 
L 106.275397 135.362645 
L 112.4869 140.77568 
L 118.698403 145.416419 
L 124.909905 150.571141 
L 131.121408 152.07509 
L 137.332911 154.752344 
L 143.544414 166.685773 
L 149.755917 162.633996 
L 155.967419 139.504742 
L 162.178922 119.293911 
L 168.390425 96.742781 
L 174.601928 80.237423 
L 180.813431 90.965831 
L 187.024933 98.031606 
L 193.236436 79.568503 
L 199.447939 62.730948 
L 205.659442 63.513107 
L 211.870944 83.232195 
L 218.082447 97.212415 
L 224.29395 87.469131 
L 230.505453 93.643199 
L 236.716956 97.889933 
L 242.928458 73.864743 
L 249.139961 59.246125 
L 255.351464 76.4995 
L 261.562967 93.970377 
L 267.77447 99.260042 
L 273.985972 97.926797 
L 280.197475 77.045633 
L 286.408978 64.354753 
L 292.620481 65.972036 
L 298.831983 71.5171 
L 305.043486 98.584655 
L 311.254989 125.388616 
L 317.466492 133.854253 
L 323.677995 144.287783 
L 329.889497 155.259631 
L 336.101 150.786377 
L 342.312503 150.725135 
L 348.524006 150.161072 
" style="fill:none;stroke:#fbc15e;stroke-linecap:square;stroke-opacity:0.3;stroke-width:1.5;"/>
   </g>
   <g id="line2d_56">
    <path clip-path="url(#p626cdcab90)" d="M 44.160369 30.362511 
L 50.371872 53.209609 
L 56.583375 83.666542 
L 62.794878 97.881905 
L 69.00638 97.280216 
L 75.217883 103.364253 
L 81.429386 111.51183 
L 87.640889 116.236124 
L 93.852392 122.565866 
L 100.063894 129.011206 
L 106.275397 134.588396 
L 112.4869 139.781894 
L 118.698403 145.487837 
L 124.909905 146.23203 
L 131.121408 152.500049 
L 137.332911 163.783449 
L 143.544414 152.704068 
L 149.755917 145.951813 
L 155.967419 163.82627 
L 162.178922 166.802055 
L 168.390425 152.225715 
L 174.601928 131.427329 
L 180.813431 95.465806 
L 187.024933 77.950809 
L 193.236436 100.655241 
L 199.447939 96.84556 
L 205.659442 57.157497 
L 211.870944 63.656774 
L 218.082447 97.954333 
L 224.29395 99.839852 
L 230.505453 84.440151 
L 236.716956 77.053528 
L 242.928458 90.093844 
L 249.139961 102.381422 
L 255.351464 106.60745 
L 261.562967 112.938389 
L 267.77447 115.879667 
L 273.985972 113.028966 
L 280.197475 99.716325 
L 286.408978 75.251697 
L 292.620481 51.281095 
L 298.831983 48.648254 
L 305.043486 70.569771 
L 311.254989 105.611096 
L 317.466492 134.72205 
L 323.677995 141.849695 
L 329.889497 131.154843 
L 336.101 136.680035 
L 342.312503 153.100049 
L 348.524006 139.080815 
" style="fill:none;stroke:#8eba42;stroke-linecap:square;stroke-opacity:0.3;stroke-width:1.5;"/>
   </g>
   <g id="line2d_57">
    <path clip-path="url(#p626cdcab90)" d="M 44.160369 180.783228 
L 50.371872 172.90411 
L 56.583375 130.535064 
L 62.794878 104.259525 
L 69.00638 97.211466 
L 75.217883 103.374746 
L 81.429386 112.407347 
L 87.640889 116.4897 
L 93.852392 122.578139 
L 100.063894 128.971702 
L 106.275397 135.789543 
L 112.4869 141.421406 
L 118.698403 145.381167 
L 124.909905 152.064637 
L 131.121408 151.897472 
L 137.332911 142.370213 
L 143.544414 142.778515 
L 149.755917 152.415629 
L 155.967419 146.667005 
L 162.178922 120.402386 
L 168.390425 105.180477 
L 174.601928 98.579296 
L 180.813431 80.241982 
L 187.024933 81.518987 
L 193.236436 99.943223 
L 199.447939 100.536664 
L 205.659442 90.056876 
L 211.870944 88.750151 
L 218.082447 97.456355 
L 224.29395 95.907957 
L 230.505453 86.368553 
L 236.716956 81.410525 
L 242.928458 86.668977 
L 249.139961 94.696407 
L 255.351464 99.31834 
L 261.562967 90.779766 
L 267.77447 78.594541 
L 273.985972 98.919227 
L 280.197475 114.915779 
L 286.408978 103.351418 
L 292.620481 117.961966 
L 298.831983 147.621681 
L 305.043486 154.589412 
L 311.254989 145.617483 
L 317.466492 132.945182 
L 323.677995 132.190262 
L 329.889497 147.85369 
L 336.101 165.83261 
L 342.312503 161.135918 
L 348.524006 133.088137 
" style="fill:none;stroke:#ffb5b8;stroke-linecap:square;stroke-opacity:0.3;stroke-width:1.5;"/>
   </g>
   <g id="line2d_58">
    <path clip-path="url(#p626cdcab90)" d="M 44.160369 154.391687 
L 50.371872 154.297823 
L 56.583375 151.650048 
L 62.794878 117.692344 
L 69.00638 97.095854 
L 75.217883 103.328093 
L 81.429386 108.185379 
L 87.640889 115.484468 
L 93.852392 122.538025 
L 100.063894 129.072435 
L 106.275397 133.594627 
L 112.4869 139.261916 
L 118.698403 145.490244 
L 124.909905 147.332232 
L 131.121408 152.266177 
L 137.332911 150.805778 
L 143.544414 140.046815 
L 149.755917 145.000345 
L 155.967419 162.304525 
L 162.178922 159.412983 
L 168.390425 130.253023 
L 174.601928 118.074119 
L 180.813431 144.520027 
L 187.024933 164.95541 
L 193.236436 154.393728 
L 199.447939 139.369852 
L 205.659442 121.928506 
L 211.870944 108.249928 
L 218.082447 96.854485 
L 224.29395 88.567734 
L 230.505453 89.487509 
L 236.716956 85.083745 
L 242.928458 83.886388 
L 249.139961 81.667624 
L 255.351464 94.639731 
L 261.562967 120.700196 
L 267.77447 113.942377 
L 273.985972 75.984008 
L 280.197475 57.451867 
L 286.408978 78.173319 
L 292.620481 95.324166 
L 298.831983 96.812285 
L 305.043486 106.73741 
L 311.254989 128.17006 
L 317.466492 133.147417 
L 323.677995 121.553344 
L 329.889497 118.259811 
L 336.101 131.066667 
L 342.312503 148.598355 
L 348.524006 156.473006 
" style="fill:none;stroke:#e24a33;stroke-linecap:square;stroke-opacity:0.3;stroke-width:1.5;"/>
   </g>
   <g id="line2d_59">
    <path clip-path="url(#p626cdcab90)" d="M 44.160369 111.371783 
L 50.371872 90.259551 
L 56.583375 92.879886 
L 62.794878 101.061445 
L 69.00638 97.120432 
L 75.217883 103.395771 
L 81.429386 113.818901 
L 87.640889 116.833553 
L 93.852392 122.592895 
L 100.063894 128.931588 
L 106.275397 136.715254 
L 112.4869 142.35348 
L 118.698403 145.33325 
L 124.909905 154.132117 
L 131.121408 151.763169 
L 137.332911 142.00994 
L 143.544414 148.912564 
L 149.755917 154.010607 
L 155.967419 150.744364 
L 162.178922 134.221677 
L 168.390425 99.948824 
L 174.601928 88.608111 
L 180.813431 114.259123 
L 187.024933 145.054328 
L 193.236436 152.497064 
L 199.447939 144.164816 
L 205.659442 121.719053 
L 211.870944 97.698911 
L 218.082447 97.448901 
L 224.29395 96.89188 
L 230.505453 86.439056 
L 236.716956 83.493266 
L 242.928458 85.313345 
L 249.139961 98.72995 
L 255.351464 115.852263 
L 261.562967 125.967494 
L 267.77447 121.210641 
L 273.985972 95.51304 
L 280.197475 76.531133 
L 286.408978 87.120703 
L 292.620481 104.066248 
L 298.831983 100.614785 
L 305.043486 108.70432 
L 311.254989 127.162075 
L 317.466492 134.075414 
L 323.677995 156.717923 
L 329.889497 184.138554 
L 336.101 180.071372 
L 342.312503 158.755432 
L 348.524006 141.697668 
" style="fill:none;stroke:#348abd;stroke-linecap:square;stroke-opacity:0.3;stroke-width:1.5;"/>
   </g>
   <g id="line2d_60">
    <path clip-path="url(#p626cdcab90)" d="M 44.160369 114.24615 
L 50.371872 92.363055 
L 56.583375 78.719042 
L 62.794878 87.760951 
L 69.00638 97.759038 
L 75.217883 103.301315 
L 81.429386 108.611095 
L 87.640889 115.691041 
L 93.852392 122.545546 
L 100.063894 129.059499 
L 106.275397 133.764927 
L 112.4869 139.432667 
L 118.698403 145.477241 
L 124.909905 148.019431 
L 131.121408 152.22524 
L 137.332911 152.619721 
L 143.544414 151.864838 
L 149.755917 154.309162 
L 155.967419 148.733381 
L 162.178922 132.348844 
L 168.390425 101.578705 
L 174.601928 80.106304 
L 180.813431 86.803862 
L 187.024933 95.05825 
L 193.236436 96.730569 
L 199.447939 106.903665 
L 205.659442 119.001233 
L 211.870944 117.228474 
L 218.082447 96.467419 
L 224.29395 82.205809 
L 230.505453 93.650657 
L 236.716956 91.782163 
L 242.928458 82.1413 
L 249.139961 91.562267 
L 255.351464 104.975841 
L 261.562967 96.030749 
L 267.77447 85.328657 
L 273.985972 102.497038 
L 280.197475 133.249551 
L 286.408978 146.840667 
L 292.620481 133.865314 
L 298.831983 117.290287 
L 305.043486 107.588496 
L 311.254989 109.085548 
L 317.466492 135.57226 
L 323.677995 171.580192 
L 329.889497 192.840547 
L 336.101 180.220033 
L 342.312503 156.040286 
L 348.524006 153.35905 
" style="fill:none;stroke:#988ed5;stroke-linecap:square;stroke-opacity:0.3;stroke-width:1.5;"/>
   </g>
   <g id="line2d_61">
    <path clip-path="url(#p626cdcab90)" d="M 44.160369 99.982606 
L 50.371872 72.902891 
L 56.583375 76.87493 
L 62.794878 87.924995 
L 69.00638 97.957734 
L 75.217883 103.245284 
L 81.429386 105.243274 
L 87.640889 115.067402 
L 93.852392 122.525556 
L 100.063894 129.105214 
L 106.275397 132.664663 
L 112.4869 138.183474 
L 118.698403 145.545443 
L 124.909905 144.631839 
L 131.121408 152.625163 
L 137.332911 174.629275 
L 143.544414 181.527152 
L 149.755917 161.010558 
L 155.967419 148.526966 
L 162.178922 146.334948 
L 168.390425 141.718895 
L 174.601928 129.789331 
L 180.813431 107.270642 
L 187.024933 82.033602 
L 193.236436 74.920921 
L 199.447939 100.497203 
L 205.659442 130.592022 
L 211.870944 120.666657 
L 218.082447 96.744439 
L 224.29395 89.714126 
L 230.505453 88.631452 
L 236.716956 82.75801 
L 242.928458 88.700299 
L 249.139961 110.431829 
L 255.351464 117.432421 
L 261.562967 107.161815 
L 267.77447 109.33731 
L 273.985972 127.625291 
L 280.197475 151.423854 
L 286.408978 178.395595 
L 292.620481 182.150133 
L 298.831983 151.822477 
L 305.043486 119.606459 
L 311.254989 121.280045 
L 317.466492 134.06946 
L 323.677995 144.968896 
L 329.889497 155.764775 
L 336.101 153.04218 
L 342.312503 151.743189 
L 348.524006 152.534529 
" style="fill:none;stroke:#777777;stroke-linecap:square;stroke-opacity:0.3;stroke-width:1.5;"/>
   </g>
   <g id="line2d_62">
    <path clip-path="url(#p626cdcab90)" d="M 44.160369 60.908058 
L 50.371872 49.113994 
L 56.583375 63.569566 
L 62.794878 90.150636 
L 69.00638 97.359932 
L 75.217883 103.384102 
L 81.429386 113.65496 
L 87.640889 116.839173 
L 93.852392 122.59556 
L 100.063894 128.915513 
L 106.275397 137.220741 
L 112.4869 142.776825 
L 118.698403 145.32567 
L 124.909905 153.836028 
L 131.121408 151.807318 
L 137.332911 141.068264 
L 143.544414 141.969076 
L 149.755917 152.499377 
L 155.967419 145.415737 
L 162.178922 118.746607 
L 168.390425 115.094422 
L 174.601928 137.055862 
L 180.813431 143.413609 
L 187.024933 120.646681 
L 193.236436 94.601549 
L 199.447939 87.707342 
L 205.659442 99.481956 
L 211.870944 106.206868 
L 218.082447 96.915388 
L 224.29395 90.290032 
L 230.505453 89.40347 
L 236.716956 88.889874 
L 242.928458 79.251853 
L 249.139961 69.382485 
L 255.351464 81.884362 
L 261.562967 97.61487 
L 267.77447 98.299531 
L 273.985972 114.971559 
L 280.197475 164.739441 
L 286.408978 193.808099 
L 292.620481 165.168133 
L 298.831983 113.62495 
L 305.043486 91.384733 
L 311.254989 107.381379 
L 317.466492 135.088184 
L 323.677995 155.447788 
L 329.889497 158.400293 
L 336.101 158.131755 
L 342.312503 155.625645 
L 348.524006 142.63891 
" style="fill:none;stroke:#fbc15e;stroke-linecap:square;stroke-opacity:0.3;stroke-width:1.5;"/>
   </g>
   <g id="line2d_63">
    <path clip-path="url(#p626cdcab90)" d="M 44.160369 121.732847 
L 50.371872 149.386606 
L 56.583375 144.549645 
L 62.794878 111.696856 
L 69.00638 97.237155 
L 75.217883 103.329289 
L 81.429386 109.099679 
L 87.640889 115.8184 
L 93.852392 122.557035 
L 100.063894 129.005941 
L 106.275397 135.474883 
L 112.4869 141.358002 
L 118.698403 145.383926 
L 124.909905 151.786438 
L 131.121408 151.945346 
L 137.332911 147.781956 
L 143.544414 160.331298 
L 149.755917 164.04014 
L 155.967419 131.561223 
L 162.178922 87.806428 
L 168.390425 56.326176 
L 174.601928 58.586307 
L 180.813431 88.486127 
L 187.024933 123.077362 
L 193.236436 150.346637 
L 199.447939 147.165931 
L 205.659442 124.756836 
L 211.870944 108.001801 
L 218.082447 96.975851 
L 224.29395 91.352617 
L 230.505453 87.916096 
L 236.716956 81.957332 
L 242.928458 89.371461 
L 249.139961 120.362307 
L 255.351464 151.25893 
L 261.562967 168.532431 
L 267.77447 173.305796 
L 273.985972 155.293066 
L 280.197475 126.92207 
L 286.408978 107.972233 
L 292.620481 123.997365 
L 298.831983 152.479778 
L 305.043486 153.699951 
L 311.254989 140.556089 
L 317.466492 133.47097 
L 323.677995 138.784345 
L 329.889497 145.972006 
L 336.101 146.589081 
L 342.312503 147.876285 
L 348.524006 168.310308 
" style="fill:none;stroke:#8eba42;stroke-linecap:square;stroke-opacity:0.3;stroke-width:1.5;"/>
   </g>
   <g id="line2d_64">
    <path clip-path="url(#p626cdcab90)" d="M 44.160369 113.375434 
L 50.371872 105.236731 
L 56.583375 97.261813 
L 62.794878 98.224484 
L 69.00638 97.291509 
L 75.217883 103.373988 
L 81.429386 113.018851 
L 87.640889 116.779316 
L 93.852392 122.595922 
L 100.063894 128.912048 
L 106.275397 137.266491 
L 112.4869 142.717827 
L 118.698403 145.341827 
L 124.909905 151.898875 
L 131.121408 152.148242 
L 137.332911 160.715649 
L 143.544414 167.303104 
L 149.755917 158.05435 
L 155.967419 145.800057 
L 162.178922 120.527675 
L 168.390425 92.072023 
L 174.601928 89.830895 
L 180.813431 106.208513 
L 187.024933 116.042018 
L 193.236436 106.03187 
L 199.447939 105.88931 
L 205.659442 116.557253 
L 211.870944 104.344272 
L 218.082447 97.281223 
L 224.29395 95.76852 
L 230.505453 86.880281 
L 236.716956 85.365765 
L 242.928458 81.861525 
L 249.139961 81.111962 
L 255.351464 98.542603 
L 261.562967 120.715355 
L 267.77447 139.849851 
L 273.985972 142.900234 
L 280.197475 124.872006 
L 286.408978 94.546687 
L 292.620481 72.463986 
L 298.831983 79.398239 
L 305.043486 97.868177 
L 311.254989 119.415934 
L 317.466492 133.578712 
L 323.677995 123.176454 
L 329.889497 129.42787 
L 336.101 155.211366 
L 342.312503 155.67534 
L 348.524006 150.664308 
" style="fill:none;stroke:#ffb5b8;stroke-linecap:square;stroke-opacity:0.3;stroke-width:1.5;"/>
   </g>
   <g id="line2d_65">
    <path clip-path="url(#p626cdcab90)" d="M 44.160369 138.716177 
L 50.371872 151.697019 
L 56.583375 145.198658 
L 62.794878 112.514164 
L 69.00638 97.192187 
L 75.217883 103.344616 
L 81.429386 110.331482 
L 87.640889 116.071745 
L 93.852392 122.563077 
L 100.063894 129.008867 
L 106.275397 134.863094 
L 112.4869 140.210174 
L 118.698403 145.463154 
L 124.909905 147.661894 
L 131.121408 152.281074 
L 137.332911 151.713184 
L 143.544414 147.144057 
L 149.755917 156.166227 
L 155.967419 137.121021 
L 162.178922 107.369954 
L 168.390425 134.680358 
L 174.601928 185.02132 
L 180.813431 189.250187 
L 187.024933 148.118003 
L 193.236436 103.544731 
L 199.447939 87.684879 
L 205.659442 90.323562 
L 211.870944 96.741174 
L 218.082447 96.995782 
L 224.29395 87.429552 
L 230.505453 91.74502 
L 236.716956 89.046836 
L 242.928458 86.241673 
L 249.139961 119.174453 
L 255.351464 153.707583 
L 261.562967 148.116479 
L 267.77447 106.442491 
L 273.985972 73.287885 
L 280.197475 85.455628 
L 286.408978 118.486873 
L 292.620481 136.982218 
L 298.831983 121.972953 
L 305.043486 103.273433 
L 311.254989 120.201467 
L 317.466492 133.566932 
L 323.677995 131.03135 
L 329.889497 132.843279 
L 336.101 135.514739 
L 342.312503 148.827851 
L 348.524006 153.416989 
" style="fill:none;stroke:#e24a33;stroke-linecap:square;stroke-opacity:0.3;stroke-width:1.5;"/>
   </g>
   <g id="line2d_66">
    <path clip-path="url(#p626cdcab90)" d="M 44.160369 96.394468 
L 50.371872 107.239093 
L 56.583375 108.251605 
L 62.794878 105.593909 
L 69.00638 96.996159 
L 75.217883 103.413639 
L 81.429386 115.19455 
L 87.640889 117.283544 
L 93.852392 122.618908 
L 100.063894 128.8415 
L 106.275397 139.139508 
L 112.4869 144.851738 
L 118.698403 145.215563 
L 124.909905 159.201252 
L 131.121408 151.24421 
L 137.332911 116.090764 
L 143.544414 109.756476 
L 149.755917 137.296998 
L 155.967419 172.352402 
L 162.178922 187.391723 
L 168.390425 157.79125 
L 174.601928 125.934975 
L 180.813431 115.868866 
L 187.024933 123.838361 
L 193.236436 137.574282 
L 199.447939 121.706958 
L 205.659442 90.188397 
L 211.870944 87.124979 
L 218.082447 97.391874 
L 224.29395 94.018356 
L 230.505453 87.739089 
L 236.716956 83.902563 
L 242.928458 85.60801 
L 249.139961 93.926745 
L 255.351464 93.465085 
L 261.562967 77.956066 
L 267.77447 58.679775 
L 273.985972 51.033387 
L 280.197475 79.321626 
L 286.408978 125.1096 
L 292.620481 126.042719 
L 298.831983 87.484044 
L 305.043486 73.274344 
L 311.254989 100.486879 
L 317.466492 135.283532 
L 323.677995 149.583817 
L 329.889497 133.322499 
L 336.101 136.445611 
L 342.312503 153.083789 
L 348.524006 143.874316 
" style="fill:none;stroke:#348abd;stroke-linecap:square;stroke-opacity:0.3;stroke-width:1.5;"/>
   </g>
   <g id="line2d_67">
    <path clip-path="url(#p626cdcab90)" d="M 44.160369 128.839664 
L 50.371872 119.739051 
L 56.583375 115.068675 
L 62.794878 109.189716 
L 69.00638 96.748671 
L 75.217883 103.452833 
L 81.429386 116.529214 
L 87.640889 117.322063 
L 93.852392 122.611704 
L 100.063894 128.876378 
L 106.275397 138.102471 
L 112.4869 143.575166 
L 118.698403 145.295535 
L 124.909905 154.698988 
L 131.121408 151.77294 
L 137.332911 142.577387 
L 143.544414 148.805338 
L 149.755917 156.371876 
L 155.967419 141.593365 
L 162.178922 116.879993 
L 168.390425 118.277342 
L 174.601928 137.14452 
L 180.813431 139.969789 
L 187.024933 113.10379 
L 193.236436 82.053194 
L 199.447939 77.546302 
L 205.659442 103.891855 
L 211.870944 120.041595 
L 218.082447 96.186307 
L 224.29395 77.210221 
L 230.505453 97.906737 
L 236.716956 103.243823 
L 242.928458 72.591123 
L 249.139961 67.862759 
L 255.351464 105.054206 
L 261.562967 135.823941 
L 267.77447 140.147011 
L 273.985972 148.720915 
L 280.197475 165.964835 
L 286.408978 173.904235 
L 292.620481 164.253555 
L 298.831983 143.851681 
L 305.043486 123.572686 
L 311.254989 120.394947 
L 317.466492 134.410478 
L 323.677995 148.619589 
L 329.889497 159.371947 
L 336.101 157.313567 
L 342.312503 152.465331 
L 348.524006 152.967646 
" style="fill:none;stroke:#988ed5;stroke-linecap:square;stroke-opacity:0.3;stroke-width:1.5;"/>
   </g>
   <g id="line2d_68">
    <path clip-path="url(#p626cdcab90)" d="M 44.160369 128.860363 
L 50.371872 106.728219 
L 56.583375 86.003224 
L 62.794878 88.439048 
L 69.00638 97.771785 
L 75.217883 103.303351 
L 81.429386 109.1847 
L 87.640889 115.926268 
L 93.852392 122.559558 
L 100.063894 129.009589 
L 106.275397 135.263838 
L 112.4869 141.329533 
L 118.698403 145.363107 
L 124.909905 153.891493 
L 131.121408 151.627684 
L 137.332911 128.539389 
L 143.544414 128.040455 
L 149.755917 150.367718 
L 155.967419 146.712523 
L 162.178922 125.82137 
L 168.390425 114.753204 
L 174.601928 105.545429 
L 180.813431 92.817544 
L 187.024933 76.78358 
L 193.236436 47.802106 
L 199.447939 30.221936 
L 205.659442 58.676757 
L 211.870944 95.444615 
L 218.082447 96.916964 
L 224.29395 88.510816 
L 230.505453 89.818259 
L 236.716956 85.461457 
L 242.928458 86.434501 
L 249.139961 112.452017 
L 255.351464 163.193535 
L 261.562967 202.881428 
L 267.77447 188.977793 
L 273.985972 144.773182 
L 280.197475 119.711172 
L 286.408978 119.425294 
L 292.620481 128.187161 
L 298.831983 145.13826 
L 305.043486 164.377541 
L 311.254989 153.000452 
L 317.466492 133.172325 
L 323.677995 143.011854 
L 329.889497 153.706514 
L 336.101 156.627959 
L 342.312503 155.736958 
L 348.524006 143.059485 
" style="fill:none;stroke:#777777;stroke-linecap:square;stroke-opacity:0.3;stroke-width:1.5;"/>
   </g>
   <g id="line2d_69">
    <path clip-path="url(#p626cdcab90)" d="M 44.160369 97.999018 
L 50.371872 115.923433 
L 56.583375 119.865429 
L 62.794878 103.209497 
L 69.00638 97.543772 
L 75.217883 103.295138 
L 81.429386 108.024155 
L 87.640889 115.723835 
L 93.852392 122.557324 
L 100.063894 128.996121 
L 106.275397 135.886259 
L 112.4869 141.963487 
L 118.698403 145.343477 
L 124.909905 153.872026 
L 131.121408 151.758499 
L 137.332911 140.284803 
L 143.544414 144.782176 
L 149.755917 150.888703 
L 155.967419 159.801857 
L 162.178922 180.485578 
L 168.390425 188.153596 
L 174.601928 168.911786 
L 180.813431 139.20393 
L 187.024933 140.508846 
L 193.236436 175.365435 
L 199.447939 205.156898 
L 205.659442 203.151639 
L 211.870944 155.757255 
L 218.082447 95.819225 
L 224.29395 79.285659 
L 230.505453 93.117959 
L 236.716956 88.518353 
L 242.928458 85.783214 
L 249.139961 109.775781 
L 255.351464 141.463143 
L 261.562967 160.829785 
L 267.77447 165.097827 
L 273.985972 139.578617 
L 280.197475 100.988532 
L 286.408978 83.441376 
L 292.620481 91.656382 
L 298.831983 118.072928 
L 305.043486 139.685397 
L 311.254989 136.689349 
L 317.466492 133.546154 
L 323.677995 137.066855 
L 329.889497 154.904172 
L 336.101 176.075401 
L 342.312503 163.810476 
L 348.524006 126.712781 
" style="fill:none;stroke:#fbc15e;stroke-linecap:square;stroke-opacity:0.3;stroke-width:1.5;"/>
   </g>
   <g id="line2d_70">
    <path clip-path="url(#p626cdcab90)" d="M 44.160369 80.415569 
L 50.371872 129.983124 
L 56.583375 142.071711 
L 62.794878 114.552212 
L 69.00638 97.036984 
L 75.217883 103.371961 
L 81.429386 112.240219 
L 87.640889 116.609761 
L 93.852392 122.589794 
L 100.063894 128.929124 
L 106.275397 136.77233 
L 112.4869 142.118879 
L 118.698403 145.367528 
L 124.909905 151.865717 
L 131.121408 151.9543 
L 137.332911 145.341856 
L 143.544414 149.024827 
L 149.755917 155.746316 
L 155.967419 147.19001 
L 162.178922 144.30133 
L 168.390425 146.494624 
L 174.601928 142.051302 
L 180.813431 142.854475 
L 187.024933 137.00065 
L 193.236436 122.2241 
L 199.447939 134.06159 
L 205.659442 144.206026 
L 211.870944 118.094168 
L 218.082447 96.920442 
L 224.29395 90.829998 
L 230.505453 89.89908 
L 236.716956 89.887514 
L 242.928458 81.328179 
L 249.139961 94.349633 
L 255.351464 143.443922 
L 261.562967 198.449793 
L 267.77447 209.478013 
L 273.985972 177.428224 
L 280.197475 142.452776 
L 286.408978 137.925275 
L 292.620481 144.953606 
L 298.831983 123.699958 
L 305.043486 100.117492 
L 311.254989 108.438181 
L 317.466492 135.227958 
L 323.677995 159.410365 
L 329.889497 165.75233 
L 336.101 168.419477 
L 342.312503 162.069446 
L 348.524006 124.282466 
" style="fill:none;stroke:#8eba42;stroke-linecap:square;stroke-opacity:0.3;stroke-width:1.5;"/>
   </g>
   <g id="line2d_71">
    <path clip-path="url(#p626cdcab90)" d="M 44.160369 196.449805 
L 50.371872 173.495619 
L 56.583375 108.594207 
L 62.794878 84.954994 
L 69.00638 98.121323 
L 75.217883 103.263063 
L 81.429386 108.635356 
L 87.640889 116.240957 
L 93.852392 122.590563 
L 100.063894 128.884161 
L 106.275397 138.701856 
L 112.4869 144.68474 
L 118.698403 145.218165 
L 124.909905 159.322538 
L 131.121408 151.216128 
L 137.332911 115.99299 
L 143.544414 119.337659 
L 149.755917 152.169202 
L 155.967419 136.93079 
L 162.178922 93.241599 
L 168.390425 76.432977 
L 174.601928 93.095594 
L 180.813431 128.371636 
L 187.024933 142.909785 
L 193.236436 116.912787 
L 199.447939 76.366717 
L 205.659442 53.368718 
L 211.870944 64.273749 
L 218.082447 98.208437 
L 224.29395 106.693293 
L 230.505453 79.801757 
L 236.716956 69.875945 
L 242.928458 93.530665 
L 249.139961 106.568141 
L 255.351464 100.691223 
L 261.562967 105.839647 
L 267.77447 116.734258 
L 273.985972 133.956358 
L 280.197475 155.068719 
L 286.408978 164.855819 
L 292.620481 167.80851 
L 298.831983 165.743238 
L 305.043486 158.257947 
L 311.254989 143.940834 
L 317.466492 133.30475 
L 323.677995 140.264525 
L 329.889497 148.264026 
L 336.101 140.280505 
L 342.312503 147.857752 
L 348.524006 153.402578 
" style="fill:none;stroke:#ffb5b8;stroke-linecap:square;stroke-opacity:0.3;stroke-width:1.5;"/>
   </g>
   <g id="line2d_72">
    <path clip-path="url(#p626cdcab90)" d="M 44.160369 104.53612 
L 50.371872 51.897698 
L 56.583375 53.804833 
L 62.794878 79.660648 
L 69.00638 98.043778 
L 75.217883 103.26839 
L 81.429386 107.601463 
L 87.640889 115.676303 
L 93.852392 122.55289 
L 100.063894 129.024242 
L 106.275397 134.681845 
L 112.4869 140.129142 
L 118.698403 145.464399 
L 124.909905 147.479588 
L 131.121408 152.367657 
L 137.332911 160.467545 
L 143.544414 160.961961 
L 149.755917 156.829705 
L 155.967419 147.248003 
L 162.178922 146.066308 
L 168.390425 169.273101 
L 174.601928 188.581176 
L 180.813431 175.662664 
L 187.024933 143.875102 
L 193.236436 119.475311 
L 199.447939 114.782329 
L 205.659442 110.451742 
L 211.870944 104.853514 
L 218.082447 96.94336 
L 224.29395 89.682675 
L 230.505453 89.485454 
L 236.716956 86.226055 
L 242.928458 84.822575 
L 249.139961 99.819843 
L 255.351464 123.720793 
L 261.562967 144.781598 
L 267.77447 158.510526 
L 273.985972 160.84062 
L 280.197475 155.989989 
L 286.408978 141.882215 
L 292.620481 128.446602 
L 298.831983 138.746269 
L 305.043486 158.137443 
L 311.254989 149.613484 
L 317.466492 133.03943 
L 323.677995 132.922441 
L 329.889497 133.36466 
L 336.101 140.794948 
L 342.312503 153.052866 
L 348.524006 143.834886 
" style="fill:none;stroke:#e24a33;stroke-linecap:square;stroke-opacity:0.3;stroke-width:1.5;"/>
   </g>
   <g id="line2d_73">
    <path clip-path="url(#p626cdcab90)" d="M 44.160369 117.444629 
L 50.371872 113.988178 
L 56.583375 106.657438 
L 62.794878 98.77943 
L 69.00638 97.473154 
L 75.217883 103.329615 
L 81.429386 110.111944 
L 87.640889 116.083567 
L 93.852392 122.565418 
L 100.063894 128.997221 
L 106.275397 135.281609 
L 112.4869 140.828001 
L 118.698403 145.420447 
L 124.909905 149.891082 
L 131.121408 152.119161 
L 137.332911 151.039534 
L 143.544414 151.470105 
L 149.755917 153.686743 
L 155.967419 149.805548 
L 162.178922 138.261506 
L 168.390425 126.913974 
L 174.601928 120.922026 
L 180.813431 119.012083 
L 187.024933 118.550124 
L 193.236436 117.994321 
L 199.447939 116.006777 
L 205.659442 111.124214 
L 211.870944 103.762543 
L 218.082447 97.084588 
L 224.29395 92.542204 
L 230.505453 87.699543 
L 236.716956 83.347836 
L 242.928458 85.923871 
L 249.139961 96.857725 
L 255.351464 108.746247 
L 261.562967 115.613158 
L 267.77447 117.99351 
L 273.985972 118.511745 
L 280.197475 118.592421 
L 286.408978 118.678406 
L 292.620481 119.153984 
L 298.831983 120.954678 
L 305.043486 125.13354 
L 311.254989 130.592088 
L 317.466492 133.574775 
L 323.677995 133.234773 
L 329.889497 135.27914 
L 336.101 143.780354 
L 342.312503 151.887099 
L 348.524006 149.366323 
" style="fill:none;stroke:#ff0000;stroke-linecap:square;stroke-width:1.5;"/>
   </g>
   <g id="line2d_74">
    <path clip-path="url(#p626cdcab90)" d="M 44.160369 83.532347 
L 50.371872 85.5028 
L 56.583375 88.58635 
L 62.794878 92.679264 
L 69.00638 97.643851 
L 75.217883 103.313097 
L 81.429386 109.49628 
L 87.640889 115.985391 
L 93.852392 122.562129 
L 100.063894 129.005245 
L 106.275397 135.097983 
L 112.4869 140.635377 
L 118.698403 145.431143 
L 124.909905 149.323945 
L 131.121408 152.182824 
L 137.332911 153.911605 
L 143.544414 154.452129 
L 149.755917 153.786212 
L 155.967419 151.936256 
L 162.178922 148.964496 
L 168.390425 144.970907 
L 174.601928 140.089836 
L 180.813431 134.485489 
L 187.024933 128.346404 
L 193.236436 121.879105 
L 199.447939 115.301162 
L 205.659442 108.833863 
L 211.870944 102.694778 
L 218.082447 97.090431 
L 224.29395 92.20936 
L 230.505453 88.21577 
L 236.716956 85.244011 
L 242.928458 83.394055 
L 249.139961 82.728138 
L 255.351464 83.268662 
L 261.562967 84.997442 
L 267.77447 87.856322 
L 273.985972 91.749124 
L 280.197475 96.544889 
L 286.408978 102.082284 
L 292.620481 108.175022 
L 298.831983 114.618138 
L 305.043486 121.194876 
L 311.254989 127.683987 
L 317.466492 133.86717 
L 323.677995 139.536415 
L 329.889497 144.501002 
L 336.101 148.593917 
L 342.312503 151.677467 
L 348.524006 153.64792 
" style="fill:none;stroke:#000000;stroke-linecap:square;stroke-width:1.5;"/>
   </g>
   <g id="patch_3">
    <path d="M 28.942188 225.398542 
L 28.942188 7.958542 
" style="fill:none;stroke:#ffffff;stroke-linecap:square;stroke-linejoin:miter;"/>
   </g>
   <g id="patch_4">
    <path d="M 363.742188 225.398542 
L 363.742188 7.958542 
" style="fill:none;stroke:#ffffff;stroke-linecap:square;stroke-linejoin:miter;"/>
   </g>
   <g id="patch_5">
    <path d="M 28.942188 225.398542 
L 363.742188 225.398542 
" style="fill:none;stroke:#ffffff;stroke-linecap:square;stroke-linejoin:miter;"/>
   </g>
   <g id="patch_6">
    <path d="M 28.942188 7.958542 
L 363.742188 7.958542 
" style="fill:none;stroke:#ffffff;stroke-linecap:square;stroke-linejoin:miter;"/>
   </g>
  </g>
 </g>
 <defs>
  <clipPath id="p626cdcab90">
   <rect height="217.44" width="334.8" x="28.942188" y="7.958542"/>
  </clipPath>
 </defs>
</svg>
