<?xml version="1.0" encoding="utf-8" standalone="no"?>
<!DOCTYPE svg PUBLIC "-//W3C//DTD SVG 1.1//EN"
  "http://www.w3.org/Graphics/SVG/1.1/DTD/svg11.dtd">
<!-- Created with matplotlib (https://matplotlib.org/) -->
<svg height="424.478125pt" version="1.1" viewBox="0 0 415.2875 424.478125" width="415.2875pt" xmlns="http://www.w3.org/2000/svg" xmlns:xlink="http://www.w3.org/1999/xlink">
 <defs>
  <style type="text/css">
*{stroke-linecap:butt;stroke-linejoin:round;}
  </style>
 </defs>
 <g id="figure_1">
  <g id="patch_1">
   <path d="M 0 424.478125 
L 415.2875 424.478125 
L 415.2875 0 
L 0 0 
z
" style="fill:none;"/>
  </g>
  <g id="axes_1">
   <g id="patch_2">
    <path d="M 20.5625 400.6 
L 341.654643 400.6 
L 341.654643 74.64 
L 20.5625 74.64 
z
" style="fill:#ffffff;"/>
   </g>
   <g id="PathCollection_1">
    <path clip-path="url(#pe93381f8f8)" d="M 38.106102 385.783636 
L 41.054606 385.783636 
L 44.003111 385.783636 
L 46.951616 385.783636 
L 49.90012 385.783636 
L 52.848625 385.783636 
L 55.797129 385.783636 
L 58.745634 385.783636 
L 61.694138 385.783636 
L 64.642643 385.783636 
L 67.591147 385.783636 
L 70.539652 385.783636 
L 73.488156 385.783636 
L 76.436661 385.783636 
L 79.385165 385.783636 
L 82.33367 385.783636 
L 85.282174 385.783636 
L 88.230679 385.783636 
L 91.179183 385.783636 
L 94.127688 385.783636 
L 97.076192 385.783636 
L 100.024697 385.783636 
L 102.973201 385.783636 
L 105.921706 385.783636 
L 108.870211 385.783636 
L 111.818715 385.783636 
L 114.76722 385.783636 
L 117.715724 385.783636 
L 120.664229 385.783636 
L 123.612733 385.783636 
L 126.561238 385.783636 
L 129.509742 385.783636 
L 132.458247 385.783636 
L 135.406751 385.783636 
L 138.355256 385.783636 
L 141.30376 385.783636 
L 144.252265 385.783636 
L 147.200769 385.783636 
L 150.149274 385.783636 
L 153.097778 385.783636 
L 156.046283 385.783636 
L 158.994787 385.783636 
L 161.943292 385.783636 
L 164.891797 385.783636 
L 167.840301 385.783636 
L 170.788806 385.783636 
L 173.73731 385.783636 
L 176.685815 385.783636 
L 179.634319 385.783636 
L 182.582824 385.783636 
L 185.531328 385.783636 
L 188.479833 385.783636 
L 191.428337 385.783636 
L 194.376842 385.783636 
L 197.325346 385.783636 
L 200.273851 385.783636 
L 203.222355 385.783636 
L 206.17086 385.783636 
L 209.119364 385.783636 
L 212.067869 385.783636 
L 215.016373 385.783636 
L 217.964878 385.783636 
L 220.913383 385.783636 
L 223.861887 385.783636 
L 226.810392 385.783636 
L 229.758896 385.783636 
L 232.707401 385.783636 
L 235.655905 385.783636 
L 238.60441 385.783636 
L 241.552914 385.783636 
L 244.501419 385.783636 
L 247.449923 385.783636 
L 250.398428 385.783636 
L 253.346932 385.783636 
L 256.295437 385.783636 
L 259.243941 385.783636 
L 262.192446 385.783636 
L 265.14095 385.783636 
L 268.089455 385.783636 
L 271.037959 385.783636 
L 273.986464 385.783636 
L 276.934969 385.783636 
L 279.883473 385.783636 
L 282.831978 385.783636 
L 285.780482 385.783636 
L 288.728987 385.783636 
L 291.677491 385.783636 
L 294.625996 385.783636 
L 297.5745 385.783636 
L 300.523005 385.783636 
L 303.471509 385.783636 
L 306.420014 385.783636 
L 309.368518 385.783636 
L 312.317023 385.783636 
L 315.265527 385.783636 
L 318.214032 385.783636 
L 321.162536 385.783636 
L 324.111041 385.783636 
L 327.059545 385.783636 
L 327.059545 382.790432 
L 327.059545 379.797227 
L 327.059545 376.804022 
L 327.059545 373.810817 
L 327.059545 370.817612 
L 327.059545 367.824408 
L 327.059545 364.831203 
L 327.059545 361.837998 
L 327.059545 358.844793 
L 327.059545 355.851589 
L 327.059545 352.858384 
L 327.059545 349.865179 
L 327.059545 346.871974 
L 327.059545 343.87877 
L 327.059545 340.885565 
L 327.059545 337.89236 
L 327.059545 334.899155 
L 327.059545 331.90595 
L 327.059545 328.912746 
L 327.059545 325.919541 
L 327.059545 322.926336 
L 327.059545 319.933131 
L 327.059545 316.939927 
L 327.059545 313.946722 
L 327.059545 310.953517 
L 327.059545 307.960312 
L 327.059545 304.967107 
L 327.059545 301.973903 
L 327.059545 298.980698 
L 327.059545 295.987493 
L 327.059545 292.994288 
L 327.059545 290.001084 
L 327.059545 287.007879 
L 327.059545 284.014674 
L 327.059545 281.021469 
L 327.059545 278.028264 
L 327.059545 275.03506 
L 327.059545 272.041855 
L 327.059545 269.04865 
L 327.059545 266.055445 
L 327.059545 263.062241 
L 327.059545 260.069036 
L 327.059545 257.075831 
L 327.059545 254.082626 
L 327.059545 251.089421 
L 327.059545 248.096217 
L 327.059545 245.103012 
L 327.059545 242.109807 
L 327.059545 239.116602 
L 327.059545 236.123398 
L 327.059545 233.130193 
L 327.059545 230.136988 
L 327.059545 227.143783 
L 327.059545 224.150579 
L 327.059545 221.157374 
L 327.059545 218.164169 
L 327.059545 215.170964 
L 327.059545 212.177759 
L 327.059545 209.184555 
L 327.059545 206.19135 
L 327.059545 203.198145 
L 327.059545 200.20494 
L 327.059545 197.211736 
L 327.059545 194.218531 
L 327.059545 191.225326 
L 327.059545 188.232121 
L 327.059545 185.238916 
L 327.059545 182.245712 
L 327.059545 179.252507 
L 327.059545 176.259302 
L 327.059545 173.266097 
L 327.059545 170.272893 
L 327.059545 167.279688 
L 327.059545 164.286483 
L 327.059545 161.293278 
L 327.059545 158.300073 
L 327.059545 155.306869 
L 327.059545 152.313664 
L 327.059545 149.320459 
L 327.059545 146.327254 
L 327.059545 143.33405 
L 327.059545 140.340845 
L 327.059545 137.34764 
L 327.059545 134.354435 
L 327.059545 131.36123 
L 327.059545 128.368026 
L 327.059545 125.374821 
L 327.059545 122.381616 
L 327.059545 119.388411 
L 327.059545 116.395207 
L 327.059545 113.402002 
L 327.059545 110.408797 
L 327.059545 107.415592 
L 327.059545 104.422388 
L 327.059545 101.429183 
L 327.059545 98.435978 
L 327.059545 95.442773 
L 327.059545 92.449568 
L 327.059545 89.456364 
L 324.111041 89.456364 
L 321.162536 89.456364 
L 318.214032 89.456364 
L 315.265527 89.456364 
L 312.317023 89.456364 
L 309.368518 89.456364 
L 306.420014 89.456364 
L 303.471509 89.456364 
L 300.523005 89.456364 
L 297.5745 89.456364 
L 294.625996 89.456364 
L 291.677491 89.456364 
L 288.728987 89.456364 
L 285.780482 89.456364 
L 282.831978 89.456364 
L 279.883473 89.456364 
L 276.934969 89.456364 
L 273.986464 89.456364 
L 271.037959 89.456364 
L 268.089455 89.456364 
L 265.14095 89.456364 
L 262.192446 89.456364 
L 259.243941 89.456364 
L 256.295437 89.456364 
L 253.346932 89.456364 
L 250.398428 89.456364 
L 247.449923 89.456364 
L 244.501419 89.456364 
L 241.552914 89.456364 
L 238.60441 89.456364 
L 235.655905 89.456364 
L 232.707401 89.456364 
L 229.758896 89.456364 
L 226.810392 89.456364 
L 223.861887 89.456364 
L 220.913383 89.456364 
L 217.964878 89.456364 
L 215.016373 89.456364 
L 212.067869 89.456364 
L 209.119364 89.456364 
L 206.17086 89.456364 
L 203.222355 89.456364 
L 200.273851 89.456364 
L 197.325346 89.456364 
L 194.376842 89.456364 
L 191.428337 89.456364 
L 188.479833 89.456364 
L 185.531328 89.456364 
L 182.582824 89.456364 
L 179.634319 89.456364 
L 176.685815 89.456364 
L 173.73731 89.456364 
L 170.788806 89.456364 
L 167.840301 89.456364 
L 164.891797 89.456364 
L 161.943292 89.456364 
L 158.994787 89.456364 
L 156.046283 89.456364 
L 153.097778 89.456364 
L 150.149274 89.456364 
L 147.200769 89.456364 
L 144.252265 89.456364 
L 141.30376 89.456364 
L 138.355256 89.456364 
L 135.406751 89.456364 
L 132.458247 89.456364 
L 129.509742 89.456364 
L 126.561238 89.456364 
L 123.612733 89.456364 
L 120.664229 89.456364 
L 117.715724 89.456364 
L 114.76722 89.456364 
L 111.818715 89.456364 
L 108.870211 89.456364 
L 105.921706 89.456364 
L 102.973201 89.456364 
L 100.024697 89.456364 
L 97.076192 89.456364 
L 94.127688 89.456364 
L 91.179183 89.456364 
L 88.230679 89.456364 
L 85.282174 89.456364 
L 82.33367 89.456364 
L 79.385165 89.456364 
L 76.436661 89.456364 
L 73.488156 89.456364 
L 70.539652 89.456364 
L 67.591147 89.456364 
L 64.642643 89.456364 
L 61.694138 89.456364 
L 58.745634 89.456364 
L 55.797129 89.456364 
L 52.848625 89.456364 
L 49.90012 89.456364 
L 46.951616 89.456364 
L 44.003111 89.456364 
L 41.054606 89.456364 
L 38.106102 89.456364 
L 35.157597 89.456364 
L 35.157597 92.449568 
L 35.157597 95.442773 
L 35.157597 98.435978 
L 35.157597 101.429183 
L 35.157597 104.422388 
L 35.157597 107.415592 
L 35.157597 110.408797 
L 35.157597 113.402002 
L 35.157597 116.395207 
L 35.157597 119.388411 
L 35.157597 122.381616 
L 35.157597 125.374821 
L 35.157597 128.368026 
L 35.157597 131.36123 
L 35.157597 134.354435 
L 35.157597 137.34764 
L 35.157597 140.340845 
L 35.157597 143.33405 
L 35.157597 146.327254 
L 35.157597 149.320459 
L 35.157597 152.313664 
L 35.157597 155.306869 
L 35.157597 158.300073 
L 35.157597 161.293278 
L 35.157597 164.286483 
L 35.157597 167.279688 
L 35.157597 170.272893 
L 35.157597 173.266097 
L 35.157597 176.259302 
L 35.157597 179.252507 
L 35.157597 182.245712 
L 35.157597 185.238916 
L 35.157597 188.232121 
L 35.157597 191.225326 
L 35.157597 194.218531 
L 35.157597 197.211736 
L 35.157597 200.20494 
L 35.157597 203.198145 
L 35.157597 206.19135 
L 35.157597 209.184555 
L 35.157597 212.177759 
L 35.157597 215.170964 
L 35.157597 218.164169 
L 35.157597 221.157374 
L 35.157597 224.150579 
L 35.157597 227.143783 
L 35.157597 230.136988 
L 35.157597 233.130193 
L 35.157597 236.123398 
L 35.157597 239.116602 
L 35.157597 242.109807 
L 35.157597 245.103012 
L 35.157597 248.096217 
L 35.157597 251.089421 
L 35.157597 254.082626 
L 35.157597 257.075831 
L 35.157597 260.069036 
L 35.157597 263.062241 
L 35.157597 266.055445 
L 35.157597 269.04865 
L 35.157597 272.041855 
L 35.157597 275.03506 
L 35.157597 278.028264 
L 35.157597 281.021469 
L 35.157597 284.014674 
L 35.157597 287.007879 
L 35.157597 290.001084 
L 35.157597 292.994288 
L 35.157597 295.987493 
L 35.157597 298.980698 
L 35.157597 301.973903 
L 35.157597 304.967107 
L 35.157597 307.960312 
L 35.157597 310.953517 
L 35.157597 313.946722 
L 35.157597 316.939927 
L 35.157597 319.933131 
L 35.157597 322.926336 
L 35.157597 325.919541 
L 35.157597 328.912746 
L 35.157597 331.90595 
L 35.157597 334.899155 
L 35.157597 337.89236 
L 35.157597 340.885565 
L 35.157597 343.87877 
L 35.157597 346.871974 
L 35.157597 349.865179 
L 35.157597 352.858384 
L 35.157597 355.851589 
L 35.157597 358.844793 
L 35.157597 361.837998 
L 35.157597 364.831203 
L 35.157597 367.824408 
L 35.157597 370.817612 
L 35.157597 373.810817 
L 35.157597 376.804022 
L 35.157597 379.797227 
L 35.157597 382.790432 
L 35.157597 385.783636 
z
M 106.957791 319.933131 
L 105.921706 318.138185 
L 105.44998 316.939927 
L 105.183201 313.946722 
L 105.816316 310.953517 
L 105.921706 310.738816 
L 106.897788 307.960312 
L 108.04621 304.967107 
L 108.870211 302.535842 
L 109.006525 301.973903 
L 109.64147 298.980698 
L 110.338822 295.987493 
L 111.384992 292.994288 
L 111.818715 292.115856 
L 112.712904 290.001084 
L 114.239398 287.007879 
L 114.76722 286.014733 
L 115.629041 284.014674 
L 117.008897 281.021469 
L 117.715724 279.697502 
L 118.535965 278.028264 
L 120.354716 275.03506 
L 120.664229 274.566556 
L 122.036213 272.041855 
L 123.612733 269.414858 
L 123.790598 269.04865 
L 125.331573 266.055445 
L 126.561238 264.119627 
L 127.108905 263.062241 
L 128.888516 260.069036 
L 129.509742 259.116748 
L 130.581418 257.075831 
L 132.458247 254.089531 
L 132.462126 254.082626 
L 134.176468 251.089421 
L 135.406751 249.271136 
L 136.134117 248.096217 
L 138.26012 245.103012 
L 138.355256 244.979164 
L 140.329565 242.109807 
L 141.30376 240.836539 
L 142.489837 239.116602 
L 144.252265 236.638353 
L 144.569797 236.123398 
L 146.480574 233.130193 
L 147.200769 232.155711 
L 148.680645 230.136988 
L 150.149274 228.51814 
L 151.55222 227.143783 
L 153.097778 225.788607 
L 155.089308 224.150579 
L 156.046283 223.363473 
L 158.626974 221.157374 
L 158.994787 220.819526 
L 161.622228 218.164169 
L 161.943292 217.798158 
L 163.853733 215.170964 
L 164.891797 213.647275 
L 165.721601 212.177759 
L 167.592211 209.184555 
L 167.840301 208.817863 
L 169.635947 206.19135 
L 170.788806 204.786887 
L 172.320396 203.198145 
L 173.73731 201.791241 
L 175.648697 200.20494 
L 176.685815 199.261624 
L 179.092825 197.211736 
L 179.634319 196.676443 
L 182.015039 194.218531 
L 182.582824 193.593741 
L 184.645203 191.225326 
L 185.531328 190.269623 
L 187.636376 188.232121 
L 188.479833 187.492414 
L 191.428337 185.447833 
L 191.775223 185.238916 
L 194.376842 183.559414 
L 196.53498 182.245712 
L 197.325346 181.683744 
L 200.273851 179.541892 
L 200.660417 179.252507 
L 203.222355 177.165849 
L 204.385951 176.259302 
L 206.17086 174.773615 
L 208.085253 173.266097 
L 209.119364 172.366859 
L 211.791821 170.272893 
L 212.067869 170.033962 
L 215.016373 167.937953 
L 216.343901 167.279688 
L 217.964878 166.385908 
L 220.913383 165.370337 
L 223.861887 164.822368 
L 226.810392 164.743365 
L 229.758896 165.264957 
L 232.707401 166.579917 
L 233.793483 167.279688 
L 235.655905 168.779993 
L 237.030421 170.272893 
L 238.60441 173.073517 
L 238.680957 173.266097 
L 239.341938 176.259302 
L 239.364571 179.252507 
L 238.898708 182.245712 
L 238.60441 183.18366 
L 238.014448 185.238916 
L 236.707583 188.232121 
L 235.655905 189.996825 
L 234.978467 191.225326 
L 233.175865 194.218531 
L 232.707401 195.071625 
L 231.704924 197.211736 
L 230.481603 200.20494 
L 229.758896 201.877115 
L 229.26838 203.198145 
L 227.985165 206.19135 
L 226.810392 208.505245 
L 226.501622 209.184555 
L 224.951309 212.177759 
L 223.861887 213.909781 
L 223.156608 215.170964 
L 221.186411 218.164169 
L 220.913383 218.552007 
L 219.380949 221.157374 
L 217.964878 223.243725 
L 217.41065 224.150579 
L 215.254641 227.143783 
L 215.016373 227.436979 
L 212.906107 230.136988 
L 212.067869 231.096864 
L 210.523645 233.130193 
L 209.119364 234.914135 
L 208.313771 236.123398 
L 206.200298 239.116602 
L 206.17086 239.158024 
L 204.340082 242.109807 
L 203.222355 243.673708 
L 202.293752 245.103012 
L 200.273851 247.85941 
L 200.117279 248.096217 
L 198.219914 251.089421 
L 197.325346 252.403698 
L 196.291827 254.082626 
L 194.376842 256.623763 
L 194.013712 257.075831 
L 191.428337 259.840952 
L 191.195539 260.069036 
L 188.479833 262.81215 
L 188.254496 263.062241 
L 185.720341 266.055445 
L 185.531328 266.273608 
L 183.237475 269.04865 
L 182.582824 269.735001 
L 180.268109 272.041855 
L 179.634319 272.64401 
L 177.126357 275.03506 
L 176.685815 275.474642 
L 174.199066 278.028264 
L 173.73731 278.507908 
L 171.253461 281.021469 
L 170.788806 281.49121 
L 168.296461 284.014674 
L 167.840301 284.48793 
L 165.487311 287.007879 
L 164.891797 287.658523 
L 162.765094 290.001084 
L 161.943292 290.905781 
L 159.928134 292.994288 
L 158.994787 293.938035 
L 156.733923 295.987493 
L 156.046283 296.615127 
L 153.360543 298.980698 
L 153.097778 299.225289 
L 150.176834 301.973903 
L 150.149274 302.002012 
L 147.200769 304.89466 
L 147.115647 304.967107 
L 144.252265 307.574877 
L 143.676412 307.960312 
L 141.30376 309.602913 
L 138.355256 310.931642 
L 138.296787 310.953517 
L 135.406751 312.29003 
L 132.458247 313.698763 
L 131.927612 313.946722 
L 129.509742 315.40004 
L 126.561238 316.748047 
L 125.970252 316.939927 
L 123.612733 317.82813 
L 120.664229 318.843229 
L 118.230495 319.933131 
L 117.715724 320.173661 
L 114.76722 321.544527 
L 111.818715 322.208306 
L 108.870211 321.481686 
z
" style="fill:#ecf5fc;"/>
   </g>
   <g id="PathCollection_2">
    <path clip-path="url(#pe93381f8f8)" d="M 108.870211 321.481686 
L 111.818715 322.208306 
L 114.76722 321.544527 
L 117.715724 320.173661 
L 118.230495 319.933131 
L 120.664229 318.843229 
L 123.612733 317.82813 
L 125.970252 316.939927 
L 126.561238 316.748047 
L 129.509742 315.40004 
L 131.927612 313.946722 
L 132.458247 313.698763 
L 135.406751 312.29003 
L 138.296787 310.953517 
L 138.355256 310.931642 
L 141.30376 309.602913 
L 143.676412 307.960312 
L 144.252265 307.574877 
L 147.115647 304.967107 
L 147.200769 304.89466 
L 150.149274 302.002012 
L 150.176834 301.973903 
L 153.097778 299.225289 
L 153.360543 298.980698 
L 156.046283 296.615127 
L 156.733923 295.987493 
L 158.994787 293.938035 
L 159.928134 292.994288 
L 161.943292 290.905781 
L 162.765094 290.001084 
L 164.891797 287.658523 
L 165.487311 287.007879 
L 167.840301 284.48793 
L 168.296461 284.014674 
L 170.788806 281.49121 
L 171.253461 281.021469 
L 173.73731 278.507908 
L 174.199066 278.028264 
L 176.685815 275.474642 
L 177.126357 275.03506 
L 179.634319 272.64401 
L 180.268109 272.041855 
L 182.582824 269.735001 
L 183.237475 269.04865 
L 185.531328 266.273608 
L 185.720341 266.055445 
L 188.254496 263.062241 
L 188.479833 262.81215 
L 191.195539 260.069036 
L 191.428337 259.840952 
L 194.013712 257.075831 
L 194.376842 256.623763 
L 196.291827 254.082626 
L 197.325346 252.403698 
L 198.219914 251.089421 
L 200.117279 248.096217 
L 200.273851 247.85941 
L 202.293752 245.103012 
L 203.222355 243.673708 
L 204.340082 242.109807 
L 206.17086 239.158024 
L 206.200298 239.116602 
L 208.313771 236.123398 
L 209.119364 234.914135 
L 210.523645 233.130193 
L 212.067869 231.096864 
L 212.906107 230.136988 
L 215.016373 227.436979 
L 215.254641 227.143783 
L 217.41065 224.150579 
L 217.964878 223.243725 
L 219.380949 221.157374 
L 220.913383 218.552007 
L 221.186411 218.164169 
L 223.156608 215.170964 
L 223.861887 213.909781 
L 224.951309 212.177759 
L 226.501622 209.184555 
L 226.810392 208.505245 
L 227.985165 206.19135 
L 229.26838 203.198145 
L 229.758896 201.877115 
L 230.481603 200.20494 
L 231.704924 197.211736 
L 232.707401 195.071625 
L 233.175865 194.218531 
L 234.978467 191.225326 
L 235.655905 189.996825 
L 236.707583 188.232121 
L 238.014448 185.238916 
L 238.60441 183.18366 
L 238.898708 182.245712 
L 239.364571 179.252507 
L 239.341938 176.259302 
L 238.680957 173.266097 
L 238.60441 173.073517 
L 237.030421 170.272893 
L 235.655905 168.779993 
L 233.793483 167.279688 
L 232.707401 166.579917 
L 229.758896 165.264957 
L 226.810392 164.743365 
L 223.861887 164.822368 
L 220.913383 165.370337 
L 217.964878 166.385908 
L 216.343901 167.279688 
L 215.016373 167.937953 
L 212.067869 170.033962 
L 211.791821 170.272893 
L 209.119364 172.366859 
L 208.085253 173.266097 
L 206.17086 174.773615 
L 204.385951 176.259302 
L 203.222355 177.165849 
L 200.660417 179.252507 
L 200.273851 179.541892 
L 197.325346 181.683744 
L 196.53498 182.245712 
L 194.376842 183.559414 
L 191.775223 185.238916 
L 191.428337 185.447833 
L 188.479833 187.492414 
L 187.636376 188.232121 
L 185.531328 190.269623 
L 184.645203 191.225326 
L 182.582824 193.593741 
L 182.015039 194.218531 
L 179.634319 196.676443 
L 179.092825 197.211736 
L 176.685815 199.261624 
L 175.648697 200.20494 
L 173.73731 201.791241 
L 172.320396 203.198145 
L 170.788806 204.786887 
L 169.635947 206.19135 
L 167.840301 208.817863 
L 167.592211 209.184555 
L 165.721601 212.177759 
L 164.891797 213.647275 
L 163.853733 215.170964 
L 161.943292 217.798158 
L 161.622228 218.164169 
L 158.994787 220.819526 
L 158.626974 221.157374 
L 156.046283 223.363473 
L 155.089308 224.150579 
L 153.097778 225.788607 
L 151.55222 227.143783 
L 150.149274 228.51814 
L 148.680645 230.136988 
L 147.200769 232.155711 
L 146.480574 233.130193 
L 144.569797 236.123398 
L 144.252265 236.638353 
L 142.489837 239.116602 
L 141.30376 240.836539 
L 140.329565 242.109807 
L 138.355256 244.979164 
L 138.26012 245.103012 
L 136.134117 248.096217 
L 135.406751 249.271136 
L 134.176468 251.089421 
L 132.462126 254.082626 
L 132.458247 254.089531 
L 130.581418 257.075831 
L 129.509742 259.116748 
L 128.888516 260.069036 
L 127.108905 263.062241 
L 126.561238 264.119627 
L 125.331573 266.055445 
L 123.790598 269.04865 
L 123.612733 269.414858 
L 122.036213 272.041855 
L 120.664229 274.566556 
L 120.354716 275.03506 
L 118.535965 278.028264 
L 117.715724 279.697502 
L 117.008897 281.021469 
L 115.629041 284.014674 
L 114.76722 286.014733 
L 114.239398 287.007879 
L 112.712904 290.001084 
L 111.818715 292.115856 
L 111.384992 292.994288 
L 110.338822 295.987493 
L 109.64147 298.980698 
L 109.006525 301.973903 
L 108.870211 302.535842 
L 108.04621 304.967107 
L 106.897788 307.960312 
L 105.921706 310.738816 
L 105.816316 310.953517 
L 105.183201 313.946722 
L 105.44998 316.939927 
L 105.921706 318.138185 
L 106.957791 319.933131 
z
M 118.158618 304.967107 
L 117.715724 304.265196 
L 117.030076 301.973903 
L 117.029735 298.980698 
L 117.623546 295.987493 
L 117.715724 295.721825 
L 118.617933 292.994288 
L 119.701803 290.001084 
L 120.664229 287.453343 
L 120.814342 287.007879 
L 121.953059 284.014674 
L 123.311345 281.021469 
L 123.612733 280.453798 
L 124.729351 278.028264 
L 126.213504 275.03506 
L 126.561238 274.374465 
L 127.583285 272.041855 
L 129.038226 269.04865 
L 129.509742 268.173911 
L 130.450578 266.055445 
L 131.953277 263.062241 
L 132.458247 262.170536 
L 133.453439 260.069036 
L 135.215509 257.075831 
L 135.406751 256.781864 
L 137.069666 254.082626 
L 138.355256 252.247319 
L 139.138252 251.089421 
L 141.279751 248.096217 
L 141.30376 248.0631 
L 143.431724 245.103012 
L 144.252265 244.023408 
L 145.631756 242.109807 
L 147.200769 239.86625 
L 147.655381 239.116602 
L 149.495182 236.123398 
L 150.149274 235.183472 
L 151.559528 233.130193 
L 153.097778 231.357614 
L 154.160116 230.136988 
L 156.046283 228.298029 
L 157.149718 227.143783 
L 158.994787 225.399974 
L 160.239434 224.150579 
L 161.943292 222.495178 
L 163.25529 221.157374 
L 164.891797 219.356627 
L 165.859431 218.164169 
L 167.840301 215.430336 
L 168.013247 215.170964 
L 169.906471 212.177759 
L 170.788806 210.94681 
L 172.217843 209.184555 
L 173.73731 207.523966 
L 175.254999 206.19135 
L 176.685815 204.939803 
L 179.073912 203.198145 
L 179.634319 202.745076 
L 182.582824 200.395187 
L 182.804823 200.20494 
L 185.531328 197.529483 
L 185.855995 197.211736 
L 188.479833 194.480542 
L 188.768188 194.218531 
L 191.428337 191.817714 
L 192.224236 191.225326 
L 194.376842 189.661421 
L 196.612583 188.232121 
L 197.325346 187.763175 
L 200.273851 185.864232 
L 201.279856 185.238916 
L 203.222355 183.866434 
L 205.688904 182.245712 
L 206.17086 181.88348 
L 209.119364 179.974458 
L 210.506968 179.252507 
L 212.067869 178.287586 
L 215.016373 176.814197 
L 216.564135 176.259302 
L 217.964878 175.722706 
L 220.913383 175.318281 
L 223.861887 175.84077 
L 224.608838 176.259302 
L 226.810392 178.237384 
L 227.487323 179.252507 
L 228.404232 182.245712 
L 228.345766 185.238916 
L 227.600849 188.232121 
L 226.810392 190.399698 
L 226.556344 191.225326 
L 225.578593 194.218531 
L 224.675872 197.211736 
L 223.861887 199.672351 
L 223.705573 200.20494 
L 222.659626 203.198145 
L 221.43402 206.19135 
L 220.913383 207.301274 
L 220.178864 209.184555 
L 218.844459 212.177759 
L 217.964878 213.837447 
L 217.381947 215.170964 
L 215.805291 218.164169 
L 215.016373 219.425004 
L 213.992959 221.157374 
L 212.067869 223.869224 
L 211.872342 224.150579 
L 209.629146 227.143783 
L 209.119364 227.781783 
L 207.439511 230.136988 
L 206.17086 231.856296 
L 205.345947 233.130193 
L 203.342661 236.123398 
L 203.222355 236.301734 
L 201.569766 239.116602 
L 200.273851 241.011871 
L 199.586379 242.109807 
L 197.437971 245.103012 
L 197.325346 245.257966 
L 195.441115 248.096217 
L 194.376842 249.638414 
L 193.413742 251.089421 
L 191.428337 253.675793 
L 191.083153 254.082626 
L 188.479833 256.770324 
L 188.159894 257.075831 
L 185.531328 259.705773 
L 185.204571 260.069036 
L 182.737282 263.062241 
L 182.582824 263.250762 
L 180.348592 266.055445 
L 179.634319 266.836784 
L 177.502829 269.04865 
L 176.685815 269.84611 
L 174.431677 272.041855 
L 173.73731 272.734089 
L 171.420027 275.03506 
L 170.788806 275.672214 
L 168.360454 278.028264 
L 167.840301 278.546023 
L 165.397142 281.021469 
L 164.891797 281.544501 
L 162.570823 284.014674 
L 161.943292 284.680594 
L 159.693696 287.007879 
L 158.994787 287.731301 
L 156.573854 290.001084 
L 156.046283 290.50039 
L 153.097778 292.976547 
L 153.074931 292.994288 
L 150.149274 295.460828 
L 149.443 295.987493 
L 147.200769 297.836814 
L 145.502236 298.980698 
L 144.252265 299.957515 
L 141.30376 301.781805 
L 140.895082 301.973903 
L 138.355256 303.273715 
L 135.406751 304.370881 
L 133.580327 304.967107 
L 132.458247 305.362693 
L 129.509742 306.274498 
L 126.561238 306.873607 
L 123.612733 307.008831 
L 120.664229 306.54764 
z
" style="fill:#c5e1f5;"/>
   </g>
   <g id="PathCollection_3">
    <path clip-path="url(#pe93381f8f8)" d="M 120.664229 306.54764 
L 123.612733 307.008831 
L 126.561238 306.873607 
L 129.509742 306.274498 
L 132.458247 305.362693 
L 133.580327 304.967107 
L 135.406751 304.370881 
L 138.355256 303.273715 
L 140.895082 301.973903 
L 141.30376 301.781805 
L 144.252265 299.957515 
L 145.502236 298.980698 
L 147.200769 297.836814 
L 149.443 295.987493 
L 150.149274 295.460828 
L 153.074931 292.994288 
L 153.097778 292.976547 
L 156.046283 290.50039 
L 156.573854 290.001084 
L 158.994787 287.731301 
L 159.693696 287.007879 
L 161.943292 284.680594 
L 162.570823 284.014674 
L 164.891797 281.544501 
L 165.397142 281.021469 
L 167.840301 278.546023 
L 168.360454 278.028264 
L 170.788806 275.672214 
L 171.420027 275.03506 
L 173.73731 272.734089 
L 174.431677 272.041855 
L 176.685815 269.84611 
L 177.502829 269.04865 
L 179.634319 266.836784 
L 180.348592 266.055445 
L 182.582824 263.250762 
L 182.737282 263.062241 
L 185.204571 260.069036 
L 185.531328 259.705773 
L 188.159894 257.075831 
L 188.479833 256.770324 
L 191.083153 254.082626 
L 191.428337 253.675793 
L 193.413742 251.089421 
L 194.376842 249.638414 
L 195.441115 248.096217 
L 197.325346 245.257966 
L 197.437971 245.103012 
L 199.586379 242.109807 
L 200.273851 241.011871 
L 201.569766 239.116602 
L 203.222355 236.301734 
L 203.342661 236.123398 
L 205.345947 233.130193 
L 206.17086 231.856296 
L 207.439511 230.136988 
L 209.119364 227.781783 
L 209.629146 227.143783 
L 211.872342 224.150579 
L 212.067869 223.869224 
L 213.992959 221.157374 
L 215.016373 219.425004 
L 215.805291 218.164169 
L 217.381947 215.170964 
L 217.964878 213.837447 
L 218.844459 212.177759 
L 220.178864 209.184555 
L 220.913383 207.301274 
L 221.43402 206.19135 
L 222.659626 203.198145 
L 223.705573 200.20494 
L 223.861887 199.672351 
L 224.675872 197.211736 
L 225.578593 194.218531 
L 226.556344 191.225326 
L 226.810392 190.399698 
L 227.600849 188.232121 
L 228.345766 185.238916 
L 228.404232 182.245712 
L 227.487323 179.252507 
L 226.810392 178.237384 
L 224.608838 176.259302 
L 223.861887 175.84077 
L 220.913383 175.318281 
L 217.964878 175.722706 
L 216.564135 176.259302 
L 215.016373 176.814197 
L 212.067869 178.287586 
L 210.506968 179.252507 
L 209.119364 179.974458 
L 206.17086 181.88348 
L 205.688904 182.245712 
L 203.222355 183.866434 
L 201.279856 185.238916 
L 200.273851 185.864232 
L 197.325346 187.763175 
L 196.612583 188.232121 
L 194.376842 189.661421 
L 192.224236 191.225326 
L 191.428337 191.817714 
L 188.768188 194.218531 
L 188.479833 194.480542 
L 185.855995 197.211736 
L 185.531328 197.529483 
L 182.804823 200.20494 
L 182.582824 200.395187 
L 179.634319 202.745076 
L 179.073912 203.198145 
L 176.685815 204.939803 
L 175.254999 206.19135 
L 173.73731 207.523966 
L 172.217843 209.184555 
L 170.788806 210.94681 
L 169.906471 212.177759 
L 168.013247 215.170964 
L 167.840301 215.430336 
L 165.859431 218.164169 
L 164.891797 219.356627 
L 163.25529 221.157374 
L 161.943292 222.495178 
L 160.239434 224.150579 
L 158.994787 225.399974 
L 157.149718 227.143783 
L 156.046283 228.298029 
L 154.160116 230.136988 
L 153.097778 231.357614 
L 151.559528 233.130193 
L 150.149274 235.183472 
L 149.495182 236.123398 
L 147.655381 239.116602 
L 147.200769 239.86625 
L 145.631756 242.109807 
L 144.252265 244.023408 
L 143.431724 245.103012 
L 141.30376 248.0631 
L 141.279751 248.096217 
L 139.138252 251.089421 
L 138.355256 252.247319 
L 137.069666 254.082626 
L 135.406751 256.781864 
L 135.215509 257.075831 
L 133.453439 260.069036 
L 132.458247 262.170536 
L 131.953277 263.062241 
L 130.450578 266.055445 
L 129.509742 268.173911 
L 129.038226 269.04865 
L 127.583285 272.041855 
L 126.561238 274.374465 
L 126.213504 275.03506 
L 124.729351 278.028264 
L 123.612733 280.453798 
L 123.311345 281.021469 
L 121.953059 284.014674 
L 120.814342 287.007879 
L 120.664229 287.453343 
L 119.701803 290.001084 
L 118.617933 292.994288 
L 117.715724 295.721825 
L 117.623546 295.987493 
L 117.029735 298.980698 
L 117.030076 301.973903 
L 117.715724 304.265196 
L 118.158618 304.967107 
z
M 125.740479 295.987493 
L 125.282638 292.994288 
L 125.547982 290.001084 
L 126.19818 287.007879 
L 126.561238 285.873567 
L 127.092334 284.014674 
L 128.055582 281.021469 
L 129.097578 278.028264 
L 129.509742 277.006579 
L 130.176497 275.03506 
L 131.34117 272.041855 
L 132.458247 269.47994 
L 132.620679 269.04865 
L 133.809299 266.055445 
L 135.151561 263.062241 
L 135.406751 262.576941 
L 136.609401 260.069036 
L 138.355256 257.220366 
L 138.443375 257.075831 
L 140.462658 254.082626 
L 141.30376 252.920687 
L 142.644696 251.089421 
L 144.252265 248.980895 
L 144.945805 248.096217 
L 147.200769 245.256135 
L 147.312554 245.103012 
L 149.308674 242.109807 
L 150.149274 240.809545 
L 151.112576 239.116602 
L 153.073495 236.123398 
L 153.097778 236.090708 
L 155.268944 233.130193 
L 156.046283 232.260037 
L 157.82368 230.136988 
L 158.994787 228.919221 
L 160.589897 227.143783 
L 161.943292 225.782145 
L 163.531845 224.150579 
L 164.891797 222.764986 
L 166.382533 221.157374 
L 167.840301 219.410374 
L 168.791184 218.164169 
L 170.788806 215.353263 
L 170.923279 215.170964 
L 173.202782 212.177759 
L 173.73731 211.548877 
L 176.227364 209.184555 
L 176.685815 208.769237 
L 179.634319 206.545321 
L 180.150051 206.19135 
L 182.582824 204.371472 
L 184.118977 203.198145 
L 185.531328 201.963533 
L 187.517065 200.20494 
L 188.479833 199.257937 
L 190.814668 197.211736 
L 191.428337 196.644781 
L 194.376842 194.370933 
L 194.604695 194.218531 
L 197.325346 192.329465 
L 199.082751 191.225326 
L 200.273851 190.464945 
L 203.222355 188.758632 
L 204.291805 188.232121 
L 206.17086 187.202655 
L 209.119364 186.022806 
L 212.067869 185.496757 
L 215.016373 185.99616 
L 217.73831 188.232121 
L 217.964878 188.620503 
L 218.965496 191.225326 
L 219.25882 194.218531 
L 219.060269 197.211736 
L 218.515883 200.20494 
L 217.964878 202.197611 
L 217.732039 203.198145 
L 216.86616 206.19135 
L 215.894963 209.184555 
L 215.016373 211.503637 
L 214.789884 212.177759 
L 213.543266 215.170964 
L 212.067869 217.904177 
L 211.930491 218.164169 
L 210.043774 221.157374 
L 209.119364 222.429923 
L 207.941331 224.150579 
L 206.17086 226.56671 
L 205.794933 227.143783 
L 203.792944 230.136988 
L 203.222355 230.970528 
L 201.941156 233.130193 
L 200.273851 235.797249 
L 200.094577 236.123398 
L 198.341439 239.116602 
L 197.325346 240.60244 
L 196.316605 242.109807 
L 194.376842 244.76492 
L 194.133625 245.103012 
L 192.068281 248.096217 
L 191.428337 248.991543 
L 189.852829 251.089421 
L 188.479833 252.657076 
L 187.069439 254.082626 
L 185.531328 255.565838 
L 184.017307 257.075831 
L 182.582824 258.655199 
L 181.456375 260.069036 
L 179.634319 262.370074 
L 179.097045 263.062241 
L 176.685815 265.79171 
L 176.440707 266.055445 
L 173.73731 268.759698 
L 173.440623 269.04865 
L 170.788806 271.649762 
L 170.363376 272.041855 
L 167.840301 274.453701 
L 167.198318 275.03506 
L 164.891797 277.283484 
L 164.157942 278.028264 
L 161.943292 280.35995 
L 161.315113 281.021469 
L 158.994787 283.424022 
L 158.364629 284.014674 
L 156.046283 286.204144 
L 155.050774 287.007879 
L 153.097778 288.646744 
L 151.263078 290.001084 
L 150.149274 290.882748 
L 147.200769 292.959643 
L 147.140067 292.994288 
L 144.252265 294.780419 
L 141.552488 295.987493 
L 141.30376 296.117944 
L 138.355256 297.230445 
L 135.406751 298.081193 
L 132.458247 298.694516 
L 129.509742 298.776414 
L 126.561238 297.270135 
z
" style="fill:#9cccee;"/>
   </g>
   <g id="PathCollection_4">
    <path clip-path="url(#pe93381f8f8)" d="M 126.561238 297.270135 
L 129.509742 298.776414 
L 132.458247 298.694516 
L 135.406751 298.081193 
L 138.355256 297.230445 
L 141.30376 296.117944 
L 141.552488 295.987493 
L 144.252265 294.780419 
L 147.140067 292.994288 
L 147.200769 292.959643 
L 150.149274 290.882748 
L 151.263078 290.001084 
L 153.097778 288.646744 
L 155.050774 287.007879 
L 156.046283 286.204144 
L 158.364629 284.014674 
L 158.994787 283.424022 
L 161.315113 281.021469 
L 161.943292 280.35995 
L 164.157942 278.028264 
L 164.891797 277.283484 
L 167.198318 275.03506 
L 167.840301 274.453701 
L 170.363376 272.041855 
L 170.788806 271.649762 
L 173.440623 269.04865 
L 173.73731 268.759698 
L 176.440707 266.055445 
L 176.685815 265.79171 
L 179.097045 263.062241 
L 179.634319 262.370074 
L 181.456375 260.069036 
L 182.582824 258.655199 
L 184.017307 257.075831 
L 185.531328 255.565838 
L 187.069439 254.082626 
L 188.479833 252.657076 
L 189.852829 251.089421 
L 191.428337 248.991543 
L 192.068281 248.096217 
L 194.133625 245.103012 
L 194.376842 244.76492 
L 196.316605 242.109807 
L 197.325346 240.60244 
L 198.341439 239.116602 
L 200.094577 236.123398 
L 200.273851 235.797249 
L 201.941156 233.130193 
L 203.222355 230.970528 
L 203.792944 230.136988 
L 205.794933 227.143783 
L 206.17086 226.56671 
L 207.941331 224.150579 
L 209.119364 222.429923 
L 210.043774 221.157374 
L 211.930491 218.164169 
L 212.067869 217.904177 
L 213.543266 215.170964 
L 214.789884 212.177759 
L 215.016373 211.503637 
L 215.894963 209.184555 
L 216.86616 206.19135 
L 217.732039 203.198145 
L 217.964878 202.197611 
L 218.515883 200.20494 
L 219.060269 197.211736 
L 219.25882 194.218531 
L 218.965496 191.225326 
L 217.964878 188.620503 
L 217.73831 188.232121 
L 215.016373 185.99616 
L 212.067869 185.496757 
L 209.119364 186.022806 
L 206.17086 187.202655 
L 204.291805 188.232121 
L 203.222355 188.758632 
L 200.273851 190.464945 
L 199.082751 191.225326 
L 197.325346 192.329465 
L 194.604695 194.218531 
L 194.376842 194.370933 
L 191.428337 196.644781 
L 190.814668 197.211736 
L 188.479833 199.257937 
L 187.517065 200.20494 
L 185.531328 201.963533 
L 184.118977 203.198145 
L 182.582824 204.371472 
L 180.150051 206.19135 
L 179.634319 206.545321 
L 176.685815 208.769237 
L 176.227364 209.184555 
L 173.73731 211.548877 
L 173.202782 212.177759 
L 170.923279 215.170964 
L 170.788806 215.353263 
L 168.791184 218.164169 
L 167.840301 219.410374 
L 166.382533 221.157374 
L 164.891797 222.764986 
L 163.531845 224.150579 
L 161.943292 225.782145 
L 160.589897 227.143783 
L 158.994787 228.919221 
L 157.82368 230.136988 
L 156.046283 232.260037 
L 155.268944 233.130193 
L 153.097778 236.090708 
L 153.073495 236.123398 
L 151.112576 239.116602 
L 150.149274 240.809545 
L 149.308674 242.109807 
L 147.312554 245.103012 
L 147.200769 245.256135 
L 144.945805 248.096217 
L 144.252265 248.980895 
L 142.644696 251.089421 
L 141.30376 252.920687 
L 140.462658 254.082626 
L 138.443375 257.075831 
L 138.355256 257.220366 
L 136.609401 260.069036 
L 135.406751 262.576941 
L 135.151561 263.062241 
L 133.809299 266.055445 
L 132.620679 269.04865 
L 132.458247 269.47994 
L 131.34117 272.041855 
L 130.176497 275.03506 
L 129.509742 277.006579 
L 129.097578 278.028264 
L 128.055582 281.021469 
L 127.092334 284.014674 
L 126.561238 285.873567 
L 126.19818 287.007879 
L 125.547982 290.001084 
L 125.282638 292.994288 
L 125.740479 295.987493 
z
M 132.557118 290.001084 
L 132.458247 289.81569 
L 131.676447 287.007879 
L 131.670347 284.014674 
L 132.031036 281.021469 
L 132.458247 279.077541 
L 132.6607 278.028264 
L 133.506825 275.03506 
L 134.504099 272.041855 
L 135.406751 269.52106 
L 135.562269 269.04865 
L 136.611747 266.055445 
L 137.817628 263.062241 
L 138.355256 262.009504 
L 139.336081 260.069036 
L 141.230701 257.075831 
L 141.30376 256.972571 
L 143.379395 254.082626 
L 144.252265 252.935715 
L 145.685715 251.089421 
L 147.200769 249.214984 
L 148.062493 248.096217 
L 150.149274 245.323864 
L 150.293132 245.103012 
L 152.083905 242.109807 
L 153.097778 240.466312 
L 153.885351 239.116602 
L 155.915089 236.123398 
L 156.046283 235.954182 
L 158.158604 233.130193 
L 158.994787 232.155843 
L 160.622767 230.136988 
L 161.943292 228.686352 
L 163.326984 227.143783 
L 164.891797 225.539086 
L 166.232039 224.150579 
L 167.840301 222.425956 
L 168.939049 221.157374 
L 170.788806 218.785758 
L 171.268006 218.164169 
L 173.541509 215.170964 
L 173.73731 214.924205 
L 176.388221 212.177759 
L 176.685815 211.891605 
L 179.634319 209.573057 
L 180.199272 209.184555 
L 182.582824 207.482872 
L 184.409521 206.19135 
L 185.531328 205.31454 
L 188.182805 203.198145 
L 188.479833 202.931722 
L 191.428337 200.524775 
L 191.915279 200.20494 
L 194.376842 198.393126 
L 196.357637 197.211736 
L 197.325346 196.567355 
L 200.273851 194.848135 
L 201.459654 194.218531 
L 203.222355 193.273799 
L 206.17086 192.053207 
L 209.119364 191.518784 
L 212.067869 192.583072 
L 213.314586 194.218531 
L 214.142596 197.211736 
L 214.123877 200.20494 
L 213.677376 203.198145 
L 213.039252 206.19135 
L 212.294647 209.184555 
L 212.067869 209.893343 
L 211.371119 212.177759 
L 210.149979 215.170964 
L 209.119364 217.064896 
L 208.534291 218.164169 
L 206.636681 221.157374 
L 206.17086 221.822471 
L 204.703676 224.150579 
L 203.222355 226.377887 
L 202.777298 227.143783 
L 200.975016 230.136988 
L 200.273851 231.264249 
L 199.260635 233.130193 
L 197.527222 236.123398 
L 197.325346 236.445084 
L 195.684687 239.116602 
L 194.376842 240.96348 
L 193.539627 242.109807 
L 191.428337 244.958734 
L 191.321945 245.103012 
L 189.162955 248.096217 
L 188.479833 248.965799 
L 186.619645 251.089421 
L 185.531328 252.190193 
L 183.562047 254.082626 
L 182.582824 255.06069 
L 180.801327 257.075831 
L 179.634319 258.514008 
L 178.472598 260.069036 
L 176.685815 262.290718 
L 176.043168 263.062241 
L 173.73731 265.521577 
L 173.210846 266.055445 
L 170.788806 268.426588 
L 170.104646 269.04865 
L 167.840301 271.158295 
L 166.782417 272.041855 
L 164.891797 273.766385 
L 163.500849 275.03506 
L 161.943292 276.615818 
L 160.581917 278.028264 
L 158.994787 279.696554 
L 157.60226 281.021469 
L 156.046283 282.485436 
L 154.1168 284.014674 
L 153.097778 284.843367 
L 150.149274 286.922418 
L 150.016664 287.007879 
L 147.200769 288.880769 
L 145.16536 290.001084 
L 144.252265 290.523279 
L 141.30376 291.59382 
L 138.355256 292.05873 
L 135.406751 291.821939 
z
" style="fill:#75b8e7;"/>
   </g>
   <g id="PathCollection_5">
    <path clip-path="url(#pe93381f8f8)" d="M 135.406751 291.821939 
L 138.355256 292.05873 
L 141.30376 291.59382 
L 144.252265 290.523279 
L 145.16536 290.001084 
L 147.200769 288.880769 
L 150.016664 287.007879 
L 150.149274 286.922418 
L 153.097778 284.843367 
L 154.1168 284.014674 
L 156.046283 282.485436 
L 157.60226 281.021469 
L 158.994787 279.696554 
L 160.581917 278.028264 
L 161.943292 276.615818 
L 163.500849 275.03506 
L 164.891797 273.766385 
L 166.782417 272.041855 
L 167.840301 271.158295 
L 170.104646 269.04865 
L 170.788806 268.426588 
L 173.210846 266.055445 
L 173.73731 265.521577 
L 176.043168 263.062241 
L 176.685815 262.290718 
L 178.472598 260.069036 
L 179.634319 258.514008 
L 180.801327 257.075831 
L 182.582824 255.06069 
L 183.562047 254.082626 
L 185.531328 252.190193 
L 186.619645 251.089421 
L 188.479833 248.965799 
L 189.162955 248.096217 
L 191.321945 245.103012 
L 191.428337 244.958734 
L 193.539627 242.109807 
L 194.376842 240.96348 
L 195.684687 239.116602 
L 197.325346 236.445084 
L 197.527222 236.123398 
L 199.260635 233.130193 
L 200.273851 231.264249 
L 200.975016 230.136988 
L 202.777298 227.143783 
L 203.222355 226.377887 
L 204.703676 224.150579 
L 206.17086 221.822471 
L 206.636681 221.157374 
L 208.534291 218.164169 
L 209.119364 217.064896 
L 210.149979 215.170964 
L 211.371119 212.177759 
L 212.067869 209.893343 
L 212.294647 209.184555 
L 213.039252 206.19135 
L 213.677376 203.198145 
L 214.123877 200.20494 
L 214.142596 197.211736 
L 213.314586 194.218531 
L 212.067869 192.583072 
L 209.119364 191.518784 
L 206.17086 192.053207 
L 203.222355 193.273799 
L 201.459654 194.218531 
L 200.273851 194.848135 
L 197.325346 196.567355 
L 196.357637 197.211736 
L 194.376842 198.393126 
L 191.915279 200.20494 
L 191.428337 200.524775 
L 188.479833 202.931722 
L 188.182805 203.198145 
L 185.531328 205.31454 
L 184.409521 206.19135 
L 182.582824 207.482872 
L 180.199272 209.184555 
L 179.634319 209.573057 
L 176.685815 211.891605 
L 176.388221 212.177759 
L 173.73731 214.924205 
L 173.541509 215.170964 
L 171.268006 218.164169 
L 170.788806 218.785758 
L 168.939049 221.157374 
L 167.840301 222.425956 
L 166.232039 224.150579 
L 164.891797 225.539086 
L 163.326984 227.143783 
L 161.943292 228.686352 
L 160.622767 230.136988 
L 158.994787 232.155843 
L 158.158604 233.130193 
L 156.046283 235.954182 
L 155.915089 236.123398 
L 153.885351 239.116602 
L 153.097778 240.466312 
L 152.083905 242.109807 
L 150.293132 245.103012 
L 150.149274 245.323864 
L 148.062493 248.096217 
L 147.200769 249.214984 
L 145.685715 251.089421 
L 144.252265 252.935715 
L 143.379395 254.082626 
L 141.30376 256.972571 
L 141.230701 257.075831 
L 139.336081 260.069036 
L 138.355256 262.009504 
L 137.817628 263.062241 
L 136.611747 266.055445 
L 135.562269 269.04865 
L 135.406751 269.52106 
L 134.504099 272.041855 
L 133.506825 275.03506 
L 132.6607 278.028264 
L 132.458247 279.077541 
L 132.031036 281.021469 
L 131.670347 284.014674 
L 131.676447 287.007879 
L 132.458247 289.81569 
L 132.557118 290.001084 
z
M 140.193348 287.007879 
L 138.355256 286.613297 
L 136.311682 284.014674 
L 135.790455 281.021469 
L 136.078083 278.028264 
L 136.759178 275.03506 
L 137.55667 272.041855 
L 138.355256 269.056538 
L 138.357391 269.04865 
L 139.288537 266.055445 
L 140.416161 263.062241 
L 141.30376 261.313647 
L 141.95732 260.069036 
L 143.897217 257.075831 
L 144.252265 256.59205 
L 146.095766 254.082626 
L 147.200769 252.688018 
L 148.411381 251.089421 
L 150.149274 248.878566 
L 150.695407 248.096217 
L 152.673496 245.103012 
L 153.097778 244.424829 
L 154.437362 242.109807 
L 156.046283 239.531809 
L 156.314137 239.116602 
L 158.388523 236.123398 
L 158.994787 235.338463 
L 160.649506 233.130193 
L 161.943292 231.55155 
L 163.085553 230.136988 
L 164.891797 228.137831 
L 165.805181 227.143783 
L 167.840301 225.037468 
L 168.662469 224.150579 
L 170.788806 221.701277 
L 171.23964 221.157374 
L 173.571123 218.164169 
L 173.73731 217.947618 
L 176.238372 215.170964 
L 176.685815 214.708834 
L 179.634319 212.284833 
L 179.787778 212.177759 
L 182.582824 210.215169 
L 184.10529 209.184555 
L 185.531328 208.164389 
L 188.229049 206.19135 
L 188.479833 205.989469 
L 191.428337 203.81695 
L 192.496417 203.198145 
L 194.376842 201.982545 
L 197.325346 200.609598 
L 198.584159 200.20494 
L 200.273851 199.53554 
L 203.222355 198.690282 
L 206.17086 198.366449 
L 208.547776 200.20494 
L 209.119364 202.823941 
L 209.152165 203.198145 
L 209.119364 204.044537 
L 209.033384 206.19135 
L 208.657687 209.184555 
L 207.968724 212.177759 
L 206.854871 215.170964 
L 206.17086 216.472464 
L 205.331647 218.164169 
L 203.611697 221.157374 
L 203.222355 221.775381 
L 201.910182 224.150579 
L 200.273851 226.974831 
L 200.187832 227.143783 
L 198.587807 230.136988 
L 197.325346 232.394986 
L 196.938017 233.130193 
L 195.233903 236.123398 
L 194.376842 237.442088 
L 193.21859 239.116602 
L 191.428337 241.511294 
L 190.971977 242.109807 
L 188.743559 245.103012 
L 188.479833 245.458339 
L 186.400502 248.096217 
L 185.531328 249.072093 
L 183.541413 251.089421 
L 182.582824 252.01503 
L 180.570615 254.082626 
L 179.634319 255.137965 
L 178.117744 257.075831 
L 176.685815 258.949746 
L 175.83707 260.069036 
L 173.73731 262.539993 
L 173.265885 263.062241 
L 170.788806 265.574435 
L 170.271195 266.055445 
L 167.840301 268.28653 
L 166.870358 269.04865 
L 164.891797 270.714924 
L 163.18217 272.041855 
L 161.943292 273.167888 
L 159.946992 275.03506 
L 158.994787 276.023588 
L 156.893166 278.028264 
L 156.046283 278.833402 
L 153.236604 281.021469 
L 153.097778 281.130515 
L 150.149274 283.018109 
L 148.516212 284.014674 
L 147.200769 284.823393 
L 144.252265 286.34077 
L 141.845809 287.007879 
L 141.30376 287.155206 
z
" style="fill:#4ea4e0;"/>
   </g>
   <g id="PathCollection_6">
    <path clip-path="url(#pe93381f8f8)" d="M 141.30376 287.155206 
L 141.845809 287.007879 
L 144.252265 286.34077 
L 147.200769 284.823393 
L 148.516212 284.014674 
L 150.149274 283.018109 
L 153.097778 281.130515 
L 153.236604 281.021469 
L 156.046283 278.833402 
L 156.893166 278.028264 
L 158.994787 276.023588 
L 159.946992 275.03506 
L 161.943292 273.167888 
L 163.18217 272.041855 
L 164.891797 270.714924 
L 166.870358 269.04865 
L 167.840301 268.28653 
L 170.271195 266.055445 
L 170.788806 265.574435 
L 173.265885 263.062241 
L 173.73731 262.539993 
L 175.83707 260.069036 
L 176.685815 258.949746 
L 178.117744 257.075831 
L 179.634319 255.137965 
L 180.570615 254.082626 
L 182.582824 252.01503 
L 183.541413 251.089421 
L 185.531328 249.072093 
L 186.400502 248.096217 
L 188.479833 245.458339 
L 188.743559 245.103012 
L 190.971977 242.109807 
L 191.428337 241.511294 
L 193.21859 239.116602 
L 194.376842 237.442088 
L 195.233903 236.123398 
L 196.938017 233.130193 
L 197.325346 232.394986 
L 198.587807 230.136988 
L 200.187832 227.143783 
L 200.273851 226.974831 
L 201.910182 224.150579 
L 203.222355 221.775381 
L 203.611697 221.157374 
L 205.331647 218.164169 
L 206.17086 216.472464 
L 206.854871 215.170964 
L 207.968724 212.177759 
L 208.657687 209.184555 
L 209.033384 206.19135 
L 209.119364 204.044537 
L 209.152165 203.198145 
L 209.119364 202.823941 
L 208.547776 200.20494 
L 206.17086 198.366449 
L 203.222355 198.690282 
L 200.273851 199.53554 
L 198.584159 200.20494 
L 197.325346 200.609598 
L 194.376842 201.982545 
L 192.496417 203.198145 
L 191.428337 203.81695 
L 188.479833 205.989469 
L 188.229049 206.19135 
L 185.531328 208.164389 
L 184.10529 209.184555 
L 182.582824 210.215169 
L 179.787778 212.177759 
L 179.634319 212.284833 
L 176.685815 214.708834 
L 176.238372 215.170964 
L 173.73731 217.947618 
L 173.571123 218.164169 
L 171.23964 221.157374 
L 170.788806 221.701277 
L 168.662469 224.150579 
L 167.840301 225.037468 
L 165.805181 227.143783 
L 164.891797 228.137831 
L 163.085553 230.136988 
L 161.943292 231.55155 
L 160.649506 233.130193 
L 158.994787 235.338463 
L 158.388523 236.123398 
L 156.314137 239.116602 
L 156.046283 239.531809 
L 154.437362 242.109807 
L 153.097778 244.424829 
L 152.673496 245.103012 
L 150.695407 248.096217 
L 150.149274 248.878566 
L 148.411381 251.089421 
L 147.200769 252.688018 
L 146.095766 254.082626 
L 144.252265 256.59205 
L 143.897217 257.075831 
L 141.95732 260.069036 
L 141.30376 261.313647 
L 140.416161 263.062241 
L 139.288537 266.055445 
L 138.357391 269.04865 
L 138.355256 269.056538 
L 137.55667 272.041855 
L 136.759178 275.03506 
L 136.078083 278.028264 
L 135.790455 281.021469 
L 136.311682 284.014674 
L 138.355256 286.613297 
L 140.193348 287.007879 
z
M 143.928999 281.021469 
L 141.30376 280.229873 
L 140.625496 278.028264 
L 140.718893 275.03506 
L 141.053091 272.041855 
L 141.30376 270.277688 
L 141.493899 269.04865 
L 142.179594 266.055445 
L 143.194172 263.062241 
L 144.252265 260.909565 
L 144.670157 260.069036 
L 146.563691 257.075831 
L 147.200769 256.208506 
L 148.660236 254.082626 
L 150.149274 252.129133 
L 150.861791 251.089421 
L 152.958146 248.096217 
L 153.097778 247.887144 
L 154.803774 245.103012 
L 156.046283 243.03849 
L 156.632943 242.109807 
L 158.589929 239.116602 
L 158.994787 238.54467 
L 160.753411 236.123398 
L 161.943292 234.54535 
L 163.00465 233.130193 
L 164.891797 230.798604 
L 165.439815 230.136988 
L 167.840301 227.525333 
L 168.189262 227.143783 
L 170.788806 224.333877 
L 170.949304 224.150579 
L 173.426641 221.157374 
L 173.73731 220.759958 
L 176.003856 218.164169 
L 176.685815 217.413831 
L 179.268146 215.170964 
L 179.634319 214.865587 
L 182.582824 212.813339 
L 183.560979 212.177759 
L 185.531328 210.862994 
L 188.001824 209.184555 
L 188.479833 208.839557 
L 191.428337 206.912005 
L 192.875245 206.19135 
L 194.376842 205.384165 
L 197.325346 204.554283 
L 200.273851 204.551995 
L 203.222355 206.079542 
L 203.311209 206.19135 
L 204.395793 209.184555 
L 204.308939 212.177759 
L 203.50624 215.170964 
L 203.222355 215.795122 
L 202.241 218.164169 
L 200.826034 221.157374 
L 200.273851 222.202236 
L 199.365104 224.150579 
L 197.892629 227.143783 
L 197.325346 228.212178 
L 196.373661 230.136988 
L 194.793537 233.130193 
L 194.376842 233.842306 
L 192.949738 236.123398 
L 191.428337 238.276438 
L 190.797246 239.116602 
L 188.508053 242.109807 
L 188.479833 242.147515 
L 186.244918 245.103012 
L 185.531328 245.988204 
L 183.655413 248.096217 
L 182.582824 249.183721 
L 180.657298 251.089421 
L 179.634319 252.140403 
L 177.955374 254.082626 
L 176.685815 255.702597 
L 175.66959 257.075831 
L 173.73731 259.583859 
L 173.345084 260.069036 
L 170.788806 262.884163 
L 170.610335 263.062241 
L 167.840301 265.64834 
L 167.314998 266.055445 
L 164.891797 267.97024 
L 163.252982 269.04865 
L 161.943292 270.046588 
L 159.312613 272.041855 
L 158.994787 272.336445 
L 156.046283 274.92416 
L 155.883011 275.03506 
L 153.097778 277.038652 
L 151.186222 278.028264 
L 150.149274 278.595392 
L 147.200769 279.869761 
L 144.333536 281.021469 
L 144.252265 281.053112 
z
" style="fill:#2d8ed1;"/>
   </g>
   <g id="PathCollection_7">
    <path clip-path="url(#pe93381f8f8)" d="M 144.252265 281.053112 
L 144.333536 281.021469 
L 147.200769 279.869761 
L 150.149274 278.595392 
L 151.186222 278.028264 
L 153.097778 277.038652 
L 155.883011 275.03506 
L 156.046283 274.92416 
L 158.994787 272.336445 
L 159.312613 272.041855 
L 161.943292 270.046588 
L 163.252982 269.04865 
L 164.891797 267.97024 
L 167.314998 266.055445 
L 167.840301 265.64834 
L 170.610335 263.062241 
L 170.788806 262.884163 
L 173.345084 260.069036 
L 173.73731 259.583859 
L 175.66959 257.075831 
L 176.685815 255.702597 
L 177.955374 254.082626 
L 179.634319 252.140403 
L 180.657298 251.089421 
L 182.582824 249.183721 
L 183.655413 248.096217 
L 185.531328 245.988204 
L 186.244918 245.103012 
L 188.479833 242.147515 
L 188.508053 242.109807 
L 190.797246 239.116602 
L 191.428337 238.276438 
L 192.949738 236.123398 
L 194.376842 233.842306 
L 194.793537 233.130193 
L 196.373661 230.136988 
L 197.325346 228.212178 
L 197.892629 227.143783 
L 199.365104 224.150579 
L 200.273851 222.202236 
L 200.826034 221.157374 
L 202.241 218.164169 
L 203.222355 215.795122 
L 203.50624 215.170964 
L 204.308939 212.177759 
L 204.395793 209.184555 
L 203.311209 206.19135 
L 203.222355 206.079542 
L 200.273851 204.551995 
L 197.325346 204.554283 
L 194.376842 205.384165 
L 192.875245 206.19135 
L 191.428337 206.912005 
L 188.479833 208.839557 
L 188.001824 209.184555 
L 185.531328 210.862994 
L 183.560979 212.177759 
L 182.582824 212.813339 
L 179.634319 214.865587 
L 179.268146 215.170964 
L 176.685815 217.413831 
L 176.003856 218.164169 
L 173.73731 220.759958 
L 173.426641 221.157374 
L 170.949304 224.150579 
L 170.788806 224.333877 
L 168.189262 227.143783 
L 167.840301 227.525333 
L 165.439815 230.136988 
L 164.891797 230.798604 
L 163.00465 233.130193 
L 161.943292 234.54535 
L 160.753411 236.123398 
L 158.994787 238.54467 
L 158.589929 239.116602 
L 156.632943 242.109807 
L 156.046283 243.03849 
L 154.803774 245.103012 
L 153.097778 247.887144 
L 152.958146 248.096217 
L 150.861791 251.089421 
L 150.149274 252.129133 
L 148.660236 254.082626 
L 147.200769 256.208506 
L 146.563691 257.075831 
L 144.670157 260.069036 
L 144.252265 260.909565 
L 143.194172 263.062241 
L 142.179594 266.055445 
L 141.493899 269.04865 
L 141.30376 270.277688 
L 141.053091 272.041855 
L 140.718893 275.03506 
L 140.625496 278.028264 
L 141.30376 280.229873 
L 143.928999 281.021469 
z
M 147.558554 272.041855 
L 147.200769 271.803166 
L 145.970368 269.04865 
L 145.807679 266.055445 
L 146.408189 263.062241 
L 147.200769 261.142858 
L 147.614637 260.069036 
L 149.234198 257.075831 
L 150.149274 255.699964 
L 151.10428 254.082626 
L 153.097778 251.097447 
L 153.102741 251.089421 
L 155.036754 248.096217 
L 156.046283 246.453281 
L 156.920867 245.103012 
L 158.812022 242.109807 
L 158.994787 241.832704 
L 160.956305 239.116602 
L 161.943292 237.747087 
L 163.142534 236.123398 
L 164.891797 233.751771 
L 165.357473 233.130193 
L 167.816724 230.136988 
L 167.840301 230.111337 
L 170.554388 227.143783 
L 170.788806 226.890396 
L 173.187816 224.150579 
L 173.73731 223.484694 
L 175.775258 221.157374 
L 176.685815 220.118224 
L 178.843104 218.164169 
L 179.634319 217.473685 
L 182.582824 215.43184 
L 183.017517 215.170964 
L 185.531328 213.626082 
L 187.874882 212.177759 
L 188.479833 211.789086 
L 191.428337 210.165433 
L 193.981295 209.184555 
L 194.376842 209.02625 
L 197.325346 209.06306 
L 197.579423 209.184555 
L 199.934814 212.177759 
L 199.875499 215.170964 
L 199.104339 218.164169 
L 198.090523 221.157374 
L 197.325346 223.055811 
L 196.914035 224.150579 
L 195.625177 227.143783 
L 194.376842 229.818956 
L 194.223006 230.136988 
L 192.561253 233.130193 
L 191.428337 234.923376 
L 190.594937 236.123398 
L 188.479833 238.953613 
L 188.358307 239.116602 
L 186.1018 242.109807 
L 185.531328 242.856587 
L 183.7095 245.103012 
L 182.582824 246.359582 
L 180.883729 248.096217 
L 179.634319 249.333079 
L 177.959498 251.089421 
L 176.685815 252.573623 
L 175.498173 254.082626 
L 173.73731 256.479437 
L 173.290941 257.075831 
L 170.867621 260.069036 
L 170.788806 260.155832 
L 167.875985 263.062241 
L 167.840301 263.095555 
L 164.891797 265.374199 
L 163.724548 266.055445 
L 161.943292 267.181504 
L 158.994787 268.846818 
L 158.591402 269.04865 
L 156.046283 270.695254 
L 153.51589 272.041855 
L 153.097778 272.300885 
L 150.149274 272.912009 
z
" style="fill:#1f75b1;"/>
   </g>
   <g id="PathCollection_8">
    <path clip-path="url(#pe93381f8f8)" d="M 150.149274 272.912009 
L 153.097778 272.300885 
L 153.51589 272.041855 
L 156.046283 270.695254 
L 158.591402 269.04865 
L 158.994787 268.846818 
L 161.943292 267.181504 
L 163.724548 266.055445 
L 164.891797 265.374199 
L 167.840301 263.095555 
L 167.875985 263.062241 
L 170.788806 260.155832 
L 170.867621 260.069036 
L 173.290941 257.075831 
L 173.73731 256.479437 
L 175.498173 254.082626 
L 176.685815 252.573623 
L 177.959498 251.089421 
L 179.634319 249.333079 
L 180.883729 248.096217 
L 182.582824 246.359582 
L 183.7095 245.103012 
L 185.531328 242.856587 
L 186.1018 242.109807 
L 188.358307 239.116602 
L 188.479833 238.953613 
L 190.594937 236.123398 
L 191.428337 234.923376 
L 192.561253 233.130193 
L 194.223006 230.136988 
L 194.376842 229.818956 
L 195.625177 227.143783 
L 196.914035 224.150579 
L 197.325346 223.055811 
L 198.090523 221.157374 
L 199.104339 218.164169 
L 199.875499 215.170964 
L 199.934814 212.177759 
L 197.579423 209.184555 
L 197.325346 209.06306 
L 194.376842 209.02625 
L 193.981295 209.184555 
L 191.428337 210.165433 
L 188.479833 211.789086 
L 187.874882 212.177759 
L 185.531328 213.626082 
L 183.017517 215.170964 
L 182.582824 215.43184 
L 179.634319 217.473685 
L 178.843104 218.164169 
L 176.685815 220.118224 
L 175.775258 221.157374 
L 173.73731 223.484694 
L 173.187816 224.150579 
L 170.788806 226.890396 
L 170.554388 227.143783 
L 167.840301 230.111337 
L 167.816724 230.136988 
L 165.357473 233.130193 
L 164.891797 233.751771 
L 163.142534 236.123398 
L 161.943292 237.747087 
L 160.956305 239.116602 
L 158.994787 241.832704 
L 158.812022 242.109807 
L 156.920867 245.103012 
L 156.046283 246.453281 
L 155.036754 248.096217 
L 153.102741 251.089421 
L 153.097778 251.097447 
L 151.10428 254.082626 
L 150.149274 255.699964 
L 149.234198 257.075831 
L 147.614637 260.069036 
L 147.200769 261.142858 
L 146.408189 263.062241 
L 145.807679 266.055445 
L 145.970368 269.04865 
L 147.200769 271.803166 
L 147.558554 272.041855 
z
M 152.100135 266.055445 
L 150.502839 263.062241 
L 150.89785 260.069036 
L 151.970588 257.075831 
L 153.097778 254.925662 
L 153.503638 254.082626 
L 155.299156 251.089421 
L 156.046283 249.893886 
L 157.229213 248.096217 
L 158.994787 245.279797 
L 159.128434 245.103012 
L 161.306752 242.109807 
L 161.943292 241.209487 
L 163.540152 239.116602 
L 164.891797 237.214353 
L 165.672776 236.123398 
L 167.840301 233.131578 
L 167.841329 233.130193 
L 170.348305 230.136988 
L 170.788806 229.652699 
L 172.990329 227.143783 
L 173.73731 226.280795 
L 175.625327 224.150579 
L 176.685815 222.931374 
L 178.599618 221.157374 
L 179.634319 220.223869 
L 182.582824 218.224159 
L 182.699603 218.164169 
L 185.531328 216.666095 
L 188.440062 215.170964 
L 188.479833 215.149532 
L 191.428337 214.185996 
L 194.376842 214.597476 
L 194.864254 215.170964 
L 195.453525 218.164169 
L 195.101776 221.157374 
L 194.376842 224.112181 
L 194.367099 224.150579 
L 193.207226 227.143783 
L 191.882031 230.136988 
L 191.428337 230.976421 
L 190.129623 233.130193 
L 188.479833 235.561038 
L 188.086649 236.123398 
L 185.886939 239.116602 
L 185.531328 239.591596 
L 183.609902 242.109807 
L 182.582824 243.372531 
L 181.011466 245.103012 
L 179.634319 246.510673 
L 178.035659 248.096217 
L 176.685815 249.516528 
L 175.297711 251.089421 
L 173.73731 253.13132 
L 173.020024 254.082626 
L 170.833051 257.075831 
L 170.788806 257.130467 
L 168.158991 260.069036 
L 167.840301 260.38706 
L 164.891797 262.767329 
L 164.360602 263.062241 
L 161.943292 264.378348 
L 158.994787 265.536773 
L 157.111727 266.055445 
L 156.046283 266.425999 
L 153.097778 266.603362 
z
" style="fill:#185b8a;"/>
   </g>
   <g id="PathCollection_9">
    <path clip-path="url(#pe93381f8f8)" d="M 153.097778 266.603362 
L 156.046283 266.425999 
L 157.111727 266.055445 
L 158.994787 265.536773 
L 161.943292 264.378348 
L 164.360602 263.062241 
L 164.891797 262.767329 
L 167.840301 260.38706 
L 168.158991 260.069036 
L 170.788806 257.130467 
L 170.833051 257.075831 
L 173.020024 254.082626 
L 173.73731 253.13132 
L 175.297711 251.089421 
L 176.685815 249.516528 
L 178.035659 248.096217 
L 179.634319 246.510673 
L 181.011466 245.103012 
L 182.582824 243.372531 
L 183.609902 242.109807 
L 185.531328 239.591596 
L 185.886939 239.116602 
L 188.086649 236.123398 
L 188.479833 235.561038 
L 190.129623 233.130193 
L 191.428337 230.976421 
L 191.882031 230.136988 
L 193.207226 227.143783 
L 194.367099 224.150579 
L 194.376842 224.112181 
L 195.101776 221.157374 
L 195.453525 218.164169 
L 194.864254 215.170964 
L 194.376842 214.597476 
L 191.428337 214.185996 
L 188.479833 215.149532 
L 188.440062 215.170964 
L 185.531328 216.666095 
L 182.699603 218.164169 
L 182.582824 218.224159 
L 179.634319 220.223869 
L 178.599618 221.157374 
L 176.685815 222.931374 
L 175.625327 224.150579 
L 173.73731 226.280795 
L 172.990329 227.143783 
L 170.788806 229.652699 
L 170.348305 230.136988 
L 167.841329 233.130193 
L 167.840301 233.131578 
L 165.672776 236.123398 
L 164.891797 237.214353 
L 163.540152 239.116602 
L 161.943292 241.209487 
L 161.306752 242.109807 
L 159.128434 245.103012 
L 158.994787 245.279797 
L 157.229213 248.096217 
L 156.046283 249.893886 
L 155.299156 251.089421 
L 153.503638 254.082626 
L 153.097778 254.925662 
L 151.970588 257.075831 
L 150.89785 260.069036 
L 150.502839 263.062241 
L 152.100135 266.055445 
z
M 155.132203 260.069036 
L 155.05823 257.075831 
L 156.046283 254.087696 
L 156.048029 254.082626 
L 157.806946 251.089421 
L 158.994787 249.134967 
L 159.779356 248.096217 
L 161.917483 245.103012 
L 161.943292 245.066424 
L 164.346729 242.109807 
L 164.891797 241.355892 
L 166.52951 239.116602 
L 167.840301 237.14866 
L 168.531143 236.123398 
L 170.651757 233.130193 
L 170.788806 232.963354 
L 173.110518 230.136988 
L 173.73731 229.40929 
L 175.727543 227.143783 
L 176.685815 226.044759 
L 178.706168 224.150579 
L 179.634319 223.299827 
L 182.582824 221.449125 
L 183.354369 221.157374 
L 185.531328 220.323396 
L 188.479833 219.87886 
L 190.537537 221.157374 
L 191.018645 224.150579 
L 190.275817 227.143783 
L 189.067965 230.136988 
L 188.479833 231.193328 
L 187.329741 233.130193 
L 185.531328 235.883125 
L 185.372682 236.123398 
L 183.226232 239.116602 
L 182.582824 239.977131 
L 180.800199 242.109807 
L 179.634319 243.401472 
L 177.908011 245.103012 
L 176.685815 246.310525 
L 174.903945 248.096217 
L 173.73731 249.456006 
L 172.376142 251.089421 
L 170.788806 253.346991 
L 170.239144 254.082626 
L 167.946408 257.075831 
L 167.840301 257.195184 
L 164.891797 259.848141 
L 164.505231 260.069036 
L 161.943292 261.333427 
L 158.994787 261.952081 
L 156.046283 261.2572 
z
" style="fill:#114163;"/>
   </g>
   <g id="PathCollection_10">
    <path clip-path="url(#pe93381f8f8)" d="M 156.046283 261.2572 
L 158.994787 261.952081 
L 161.943292 261.333427 
L 164.505231 260.069036 
L 164.891797 259.848141 
L 167.840301 257.195184 
L 167.946408 257.075831 
L 170.239144 254.082626 
L 170.788806 253.346991 
L 172.376142 251.089421 
L 173.73731 249.456006 
L 174.903945 248.096217 
L 176.685815 246.310525 
L 177.908011 245.103012 
L 179.634319 243.401472 
L 180.800199 242.109807 
L 182.582824 239.977131 
L 183.226232 239.116602 
L 185.372682 236.123398 
L 185.531328 235.883125 
L 187.329741 233.130193 
L 188.479833 231.193328 
L 189.067965 230.136988 
L 190.275817 227.143783 
L 191.018645 224.150579 
L 190.537537 221.157374 
L 188.479833 219.87886 
L 185.531328 220.323396 
L 183.354369 221.157374 
L 182.582824 221.449125 
L 179.634319 223.299827 
L 178.706168 224.150579 
L 176.685815 226.044759 
L 175.727543 227.143783 
L 173.73731 229.40929 
L 173.110518 230.136988 
L 170.788806 232.963354 
L 170.651757 233.130193 
L 168.531143 236.123398 
L 167.840301 237.14866 
L 166.52951 239.116602 
L 164.891797 241.355892 
L 164.346729 242.109807 
L 161.943292 245.066424 
L 161.917483 245.103012 
L 159.779356 248.096217 
L 158.994787 249.134967 
L 157.806946 251.089421 
L 156.048029 254.082626 
L 156.046283 254.087696 
L 155.05823 257.075831 
L 155.132203 260.069036 
z
M 161.552195 257.075831 
L 160.04133 254.082626 
L 161.460304 251.089421 
L 161.943292 250.376173 
L 164.136474 248.096217 
L 164.891797 247.194575 
L 166.862057 245.103012 
L 167.840301 243.635949 
L 168.832396 242.109807 
L 170.381805 239.116602 
L 170.788806 238.417436 
L 172.209094 236.123398 
L 173.73731 233.740386 
L 174.182512 233.130193 
L 176.536179 230.136988 
L 176.685815 229.961181 
L 179.634319 227.185984 
L 179.730516 227.143783 
L 182.582824 225.999015 
L 185.531328 227.115379 
L 185.545701 227.143783 
L 185.531328 227.270657 
L 185.17272 230.136988 
L 183.776274 233.130193 
L 182.582824 235.264672 
L 182.01781 236.123398 
L 179.874958 239.116602 
L 179.634319 239.414167 
L 176.954432 242.109807 
L 176.685815 242.372335 
L 173.73731 244.890507 
L 173.427199 245.103012 
L 170.788806 247.70335 
L 170.377076 248.096217 
L 168.25593 251.089421 
L 167.840301 251.736852 
L 166.043061 254.082626 
L 164.891797 255.352989 
L 162.156787 257.075831 
L 161.943292 257.173285 
z
" style="fill:#0a263a;"/>
   </g>
   <g id="PathCollection_11">
    <path clip-path="url(#pe93381f8f8)" d="M 161.943292 257.173285 
L 162.156787 257.075831 
L 164.891797 255.352989 
L 166.043061 254.082626 
L 167.840301 251.736852 
L 168.25593 251.089421 
L 170.377076 248.096217 
L 170.788806 247.70335 
L 173.427199 245.103012 
L 173.73731 244.890507 
L 176.685815 242.372335 
L 176.954432 242.109807 
L 179.634319 239.414167 
L 179.874958 239.116602 
L 182.01781 236.123398 
L 182.582824 235.264672 
L 183.776274 233.130193 
L 185.17272 230.136988 
L 185.531328 227.270657 
L 185.545701 227.143783 
L 185.531328 227.115379 
L 182.582824 225.999015 
L 179.730516 227.143783 
L 179.634319 227.185984 
L 176.685815 229.961181 
L 176.536179 230.136988 
L 174.182512 233.130193 
L 173.73731 233.740386 
L 172.209094 236.123398 
L 170.788806 238.417436 
L 170.381805 239.116602 
L 168.832396 242.109807 
L 167.840301 243.635949 
L 166.862057 245.103012 
L 164.891797 247.194575 
L 164.136474 248.096217 
L 161.943292 250.376173 
L 161.460304 251.089421 
L 160.04133 254.082626 
L 161.552195 257.075831 
z
" style="fill:#030c13;"/>
   </g>
   <g id="matplotlib.axis_1">
    <g id="xtick_1">
     <g id="line2d_1">
      <defs>
       <path d="M 0 0 
L 0 3.5 
" id="m7aefdeabad" style="stroke:#000000;stroke-width:0.8;"/>
      </defs>
      <g>
       <use style="stroke:#000000;stroke-width:0.8;" x="23.028708" xlink:href="#m7aefdeabad" y="400.6"/>
      </g>
     </g>
     <g id="text_1">
      <!-- 0 -->
      <defs>
       <path d="M 31.78125 66.40625 
Q 24.171875 66.40625 20.328125 58.90625 
Q 16.5 51.421875 16.5 36.375 
Q 16.5 21.390625 20.328125 13.890625 
Q 24.171875 6.390625 31.78125 6.390625 
Q 39.453125 6.390625 43.28125 13.890625 
Q 47.125 21.390625 47.125 36.375 
Q 47.125 51.421875 43.28125 58.90625 
Q 39.453125 66.40625 31.78125 66.40625 
z
M 31.78125 74.21875 
Q 44.046875 74.21875 50.515625 64.515625 
Q 56.984375 54.828125 56.984375 36.375 
Q 56.984375 17.96875 50.515625 8.265625 
Q 44.046875 -1.421875 31.78125 -1.421875 
Q 19.53125 -1.421875 13.0625 8.265625 
Q 6.59375 17.96875 6.59375 36.375 
Q 6.59375 54.828125 13.0625 64.515625 
Q 19.53125 74.21875 31.78125 74.21875 
z
" id="DejaVuSans-48"/>
      </defs>
      <g transform="translate(19.847458 415.198437)scale(0.1 -0.1)">
       <use xlink:href="#DejaVuSans-48"/>
      </g>
     </g>
    </g>
    <g id="xtick_2">
     <g id="line2d_2">
      <g>
       <use style="stroke:#000000;stroke-width:0.8;" x="83.18255" xlink:href="#m7aefdeabad" y="400.6"/>
      </g>
     </g>
     <g id="text_2">
      <!-- 2 -->
      <defs>
       <path d="M 19.1875 8.296875 
L 53.609375 8.296875 
L 53.609375 0 
L 7.328125 0 
L 7.328125 8.296875 
Q 12.9375 14.109375 22.625 23.890625 
Q 32.328125 33.6875 34.8125 36.53125 
Q 39.546875 41.84375 41.421875 45.53125 
Q 43.3125 49.21875 43.3125 52.78125 
Q 43.3125 58.59375 39.234375 62.25 
Q 35.15625 65.921875 28.609375 65.921875 
Q 23.96875 65.921875 18.8125 64.3125 
Q 13.671875 62.703125 7.8125 59.421875 
L 7.8125 69.390625 
Q 13.765625 71.78125 18.9375 73 
Q 24.125 74.21875 28.421875 74.21875 
Q 39.75 74.21875 46.484375 68.546875 
Q 53.21875 62.890625 53.21875 53.421875 
Q 53.21875 48.921875 51.53125 44.890625 
Q 49.859375 40.875 45.40625 35.40625 
Q 44.1875 33.984375 37.640625 27.21875 
Q 31.109375 20.453125 19.1875 8.296875 
z
" id="DejaVuSans-50"/>
      </defs>
      <g transform="translate(80.0013 415.198437)scale(0.1 -0.1)">
       <use xlink:href="#DejaVuSans-50"/>
      </g>
     </g>
    </g>
    <g id="xtick_3">
     <g id="line2d_3">
      <g>
       <use style="stroke:#000000;stroke-width:0.8;" x="143.336392" xlink:href="#m7aefdeabad" y="400.6"/>
      </g>
     </g>
     <g id="text_3">
      <!-- 4 -->
      <defs>
       <path d="M 37.796875 64.3125 
L 12.890625 25.390625 
L 37.796875 25.390625 
z
M 35.203125 72.90625 
L 47.609375 72.90625 
L 47.609375 25.390625 
L 58.015625 25.390625 
L 58.015625 17.1875 
L 47.609375 17.1875 
L 47.609375 0 
L 37.796875 0 
L 37.796875 17.1875 
L 4.890625 17.1875 
L 4.890625 26.703125 
z
" id="DejaVuSans-52"/>
      </defs>
      <g transform="translate(140.155142 415.198437)scale(0.1 -0.1)">
       <use xlink:href="#DejaVuSans-52"/>
      </g>
     </g>
    </g>
    <g id="xtick_4">
     <g id="line2d_4">
      <g>
       <use style="stroke:#000000;stroke-width:0.8;" x="203.490234" xlink:href="#m7aefdeabad" y="400.6"/>
      </g>
     </g>
     <g id="text_4">
      <!-- 6 -->
      <defs>
       <path d="M 33.015625 40.375 
Q 26.375 40.375 22.484375 35.828125 
Q 18.609375 31.296875 18.609375 23.390625 
Q 18.609375 15.53125 22.484375 10.953125 
Q 26.375 6.390625 33.015625 6.390625 
Q 39.65625 6.390625 43.53125 10.953125 
Q 47.40625 15.53125 47.40625 23.390625 
Q 47.40625 31.296875 43.53125 35.828125 
Q 39.65625 40.375 33.015625 40.375 
z
M 52.59375 71.296875 
L 52.59375 62.3125 
Q 48.875 64.0625 45.09375 64.984375 
Q 41.3125 65.921875 37.59375 65.921875 
Q 27.828125 65.921875 22.671875 59.328125 
Q 17.53125 52.734375 16.796875 39.40625 
Q 19.671875 43.65625 24.015625 45.921875 
Q 28.375 48.1875 33.59375 48.1875 
Q 44.578125 48.1875 50.953125 41.515625 
Q 57.328125 34.859375 57.328125 23.390625 
Q 57.328125 12.15625 50.6875 5.359375 
Q 44.046875 -1.421875 33.015625 -1.421875 
Q 20.359375 -1.421875 13.671875 8.265625 
Q 6.984375 17.96875 6.984375 36.375 
Q 6.984375 53.65625 15.1875 63.9375 
Q 23.390625 74.21875 37.203125 74.21875 
Q 40.921875 74.21875 44.703125 73.484375 
Q 48.484375 72.75 52.59375 71.296875 
z
" id="DejaVuSans-54"/>
      </defs>
      <g transform="translate(200.308984 415.198437)scale(0.1 -0.1)">
       <use xlink:href="#DejaVuSans-54"/>
      </g>
     </g>
    </g>
    <g id="xtick_5">
     <g id="line2d_5">
      <g>
       <use style="stroke:#000000;stroke-width:0.8;" x="263.644076" xlink:href="#m7aefdeabad" y="400.6"/>
      </g>
     </g>
     <g id="text_5">
      <!-- 8 -->
      <defs>
       <path d="M 31.78125 34.625 
Q 24.75 34.625 20.71875 30.859375 
Q 16.703125 27.09375 16.703125 20.515625 
Q 16.703125 13.921875 20.71875 10.15625 
Q 24.75 6.390625 31.78125 6.390625 
Q 38.8125 6.390625 42.859375 10.171875 
Q 46.921875 13.96875 46.921875 20.515625 
Q 46.921875 27.09375 42.890625 30.859375 
Q 38.875 34.625 31.78125 34.625 
z
M 21.921875 38.8125 
Q 15.578125 40.375 12.03125 44.71875 
Q 8.5 49.078125 8.5 55.328125 
Q 8.5 64.0625 14.71875 69.140625 
Q 20.953125 74.21875 31.78125 74.21875 
Q 42.671875 74.21875 48.875 69.140625 
Q 55.078125 64.0625 55.078125 55.328125 
Q 55.078125 49.078125 51.53125 44.71875 
Q 48 40.375 41.703125 38.8125 
Q 48.828125 37.15625 52.796875 32.3125 
Q 56.78125 27.484375 56.78125 20.515625 
Q 56.78125 9.90625 50.3125 4.234375 
Q 43.84375 -1.421875 31.78125 -1.421875 
Q 19.734375 -1.421875 13.25 4.234375 
Q 6.78125 9.90625 6.78125 20.515625 
Q 6.78125 27.484375 10.78125 32.3125 
Q 14.796875 37.15625 21.921875 38.8125 
z
M 18.3125 54.390625 
Q 18.3125 48.734375 21.84375 45.5625 
Q 25.390625 42.390625 31.78125 42.390625 
Q 38.140625 42.390625 41.71875 45.5625 
Q 45.3125 48.734375 45.3125 54.390625 
Q 45.3125 60.0625 41.71875 63.234375 
Q 38.140625 66.40625 31.78125 66.40625 
Q 25.390625 66.40625 21.84375 63.234375 
Q 18.3125 60.0625 18.3125 54.390625 
z
" id="DejaVuSans-56"/>
      </defs>
      <g transform="translate(260.462826 415.198437)scale(0.1 -0.1)">
       <use xlink:href="#DejaVuSans-56"/>
      </g>
     </g>
    </g>
    <g id="xtick_6">
     <g id="line2d_6">
      <g>
       <use style="stroke:#000000;stroke-width:0.8;" x="323.797917" xlink:href="#m7aefdeabad" y="400.6"/>
      </g>
     </g>
     <g id="text_6">
      <!-- 10 -->
      <defs>
       <path d="M 12.40625 8.296875 
L 28.515625 8.296875 
L 28.515625 63.921875 
L 10.984375 60.40625 
L 10.984375 69.390625 
L 28.421875 72.90625 
L 38.28125 72.90625 
L 38.28125 8.296875 
L 54.390625 8.296875 
L 54.390625 0 
L 12.40625 0 
z
" id="DejaVuSans-49"/>
      </defs>
      <g transform="translate(317.435417 415.198437)scale(0.1 -0.1)">
       <use xlink:href="#DejaVuSans-49"/>
       <use x="63.623047" xlink:href="#DejaVuSans-48"/>
      </g>
     </g>
    </g>
   </g>
   <g id="matplotlib.axis_2">
    <g id="ytick_1">
     <g id="line2d_7">
      <defs>
       <path d="M 0 0 
L -3.5 0 
" id="mc791d8031c" style="stroke:#000000;stroke-width:0.8;"/>
      </defs>
      <g>
       <use style="stroke:#000000;stroke-width:0.8;" x="20.5625" xlink:href="#mc791d8031c" y="347.787401"/>
      </g>
     </g>
     <g id="text_7">
      <!-- 2 -->
      <g transform="translate(7.2 351.58662)scale(0.1 -0.1)">
       <use xlink:href="#DejaVuSans-50"/>
      </g>
     </g>
    </g>
    <g id="ytick_2">
     <g id="line2d_8">
      <g>
       <use style="stroke:#000000;stroke-width:0.8;" x="20.5625" xlink:href="#mc791d8031c" y="276.609897"/>
      </g>
     </g>
     <g id="text_8">
      <!-- 4 -->
      <g transform="translate(7.2 280.409116)scale(0.1 -0.1)">
       <use xlink:href="#DejaVuSans-52"/>
      </g>
     </g>
    </g>
    <g id="ytick_3">
     <g id="line2d_9">
      <g>
       <use style="stroke:#000000;stroke-width:0.8;" x="20.5625" xlink:href="#mc791d8031c" y="205.432392"/>
      </g>
     </g>
     <g id="text_9">
      <!-- 6 -->
      <g transform="translate(7.2 209.231611)scale(0.1 -0.1)">
       <use xlink:href="#DejaVuSans-54"/>
      </g>
     </g>
    </g>
    <g id="ytick_4">
     <g id="line2d_10">
      <g>
       <use style="stroke:#000000;stroke-width:0.8;" x="20.5625" xlink:href="#mc791d8031c" y="134.254888"/>
      </g>
     </g>
     <g id="text_10">
      <!-- 8 -->
      <g transform="translate(7.2 138.054107)scale(0.1 -0.1)">
       <use xlink:href="#DejaVuSans-56"/>
      </g>
     </g>
    </g>
   </g>
   <g id="patch_3">
    <path d="M 20.5625 400.6 
L 20.5625 74.64 
" style="fill:none;stroke:#000000;stroke-linecap:square;stroke-linejoin:miter;stroke-width:0.8;"/>
   </g>
   <g id="patch_4">
    <path d="M 20.5625 400.6 
L 341.654643 400.6 
" style="fill:none;stroke:#000000;stroke-linecap:square;stroke-linejoin:miter;stroke-width:0.8;"/>
   </g>
  </g>
  <g id="axes_2">
   <g id="patch_5">
    <path d="M 20.5625 63.4 
L 341.654643 63.4 
L 341.654643 7.2 
L 20.5625 7.2 
z
" style="fill:#ffffff;"/>
   </g>
   <g id="PolyCollection_1">
    <path clip-path="url(#pb8a73b3171)" d="M 35.157597 63.399497 
L 35.157597 63.4 
L 37.456038 63.4 
L 39.754478 63.4 
L 42.052919 63.4 
L 44.35136 63.4 
L 46.6498 63.4 
L 48.948241 63.4 
L 51.246681 63.4 
L 53.545122 63.4 
L 55.843562 63.4 
L 58.142003 63.4 
L 60.440443 63.4 
L 62.738884 63.4 
L 65.037324 63.4 
L 67.335765 63.4 
L 69.634205 63.4 
L 71.932646 63.4 
L 74.231087 63.4 
L 76.529527 63.4 
L 78.827968 63.4 
L 81.126408 63.4 
L 83.424849 63.4 
L 85.723289 63.4 
L 88.02173 63.4 
L 90.32017 63.4 
L 92.618611 63.4 
L 94.917051 63.4 
L 97.215492 63.4 
L 99.513932 63.4 
L 101.812373 63.4 
L 104.110813 63.4 
L 106.409254 63.4 
L 108.707695 63.4 
L 111.006135 63.4 
L 113.304576 63.4 
L 115.603016 63.4 
L 117.901457 63.4 
L 120.199897 63.4 
L 122.498338 63.4 
L 124.796778 63.4 
L 127.095219 63.4 
L 129.393659 63.4 
L 131.6921 63.4 
L 133.99054 63.4 
L 136.288981 63.4 
L 138.587422 63.4 
L 140.885862 63.4 
L 143.184303 63.4 
L 145.482743 63.4 
L 147.781184 63.4 
L 150.079624 63.4 
L 152.378065 63.4 
L 154.676505 63.4 
L 156.974946 63.4 
L 159.273386 63.4 
L 161.571827 63.4 
L 163.870267 63.4 
L 166.168708 63.4 
L 168.467148 63.4 
L 170.765589 63.4 
L 173.06403 63.4 
L 175.36247 63.4 
L 177.660911 63.4 
L 179.959351 63.4 
L 182.257792 63.4 
L 184.556232 63.4 
L 186.854673 63.4 
L 189.153113 63.4 
L 191.451554 63.4 
L 193.749994 63.4 
L 196.048435 63.4 
L 198.346875 63.4 
L 200.645316 63.4 
L 202.943757 63.4 
L 205.242197 63.4 
L 207.540638 63.4 
L 209.839078 63.4 
L 212.137519 63.4 
L 214.435959 63.4 
L 216.7344 63.4 
L 219.03284 63.4 
L 221.331281 63.4 
L 223.629721 63.4 
L 225.928162 63.4 
L 228.226602 63.4 
L 230.525043 63.4 
L 232.823483 63.4 
L 235.121924 63.4 
L 237.420365 63.4 
L 239.718805 63.4 
L 242.017246 63.4 
L 244.315686 63.4 
L 246.614127 63.4 
L 248.912567 63.4 
L 251.211008 63.4 
L 253.509448 63.4 
L 255.807889 63.4 
L 258.106329 63.4 
L 260.40477 63.4 
L 262.70321 63.4 
L 265.001651 63.4 
L 267.300092 63.4 
L 269.598532 63.4 
L 271.896973 63.4 
L 274.195413 63.4 
L 276.493854 63.4 
L 278.792294 63.4 
L 281.090735 63.4 
L 283.389175 63.4 
L 285.687616 63.4 
L 287.986056 63.4 
L 290.284497 63.4 
L 292.582937 63.4 
L 294.881378 63.4 
L 297.179818 63.4 
L 299.478259 63.4 
L 301.7767 63.4 
L 304.07514 63.4 
L 306.373581 63.4 
L 308.672021 63.4 
L 310.970462 63.4 
L 313.268902 63.4 
L 315.567343 63.4 
L 317.865783 63.4 
L 320.164224 63.4 
L 322.462664 63.4 
L 324.761105 63.4 
L 327.059545 63.4 
L 327.059545 63.399497 
L 327.059545 63.399497 
L 324.761105 63.398568 
L 322.462664 63.39602 
L 320.164224 63.390914 
L 317.865783 63.383145 
L 315.567343 63.374597 
L 313.268902 63.36889 
L 310.970462 63.369033 
L 308.672021 63.374944 
L 306.373581 63.38352 
L 304.07514 63.391188 
L 301.7767 63.396159 
L 299.478259 63.398569 
L 297.179818 63.399216 
L 294.881378 63.398308 
L 292.582937 63.39468 
L 290.284497 63.385579 
L 287.986056 63.36759 
L 285.687616 63.339044 
L 283.389175 63.302086 
L 281.090735 63.261334 
L 278.792294 63.219549 
L 276.493854 63.17526 
L 274.195413 63.125213 
L 271.896973 63.068026 
L 269.598532 63.00439 
L 267.300092 62.933435 
L 265.001651 62.847552 
L 262.70321 62.729437 
L 260.40477 62.556314 
L 258.106329 62.311665 
L 255.807889 61.995207 
L 253.509448 61.620984 
L 251.211008 61.205769 
L 248.912567 60.759809 
L 246.614127 60.284358 
L 244.315686 59.768741 
L 242.017246 59.187499 
L 239.718805 58.510076 
L 237.420365 57.718124 
L 235.121924 56.805937 
L 232.823483 55.765946 
L 230.525043 54.591615 
L 228.226602 53.299702 
L 225.928162 51.930557 
L 223.629721 50.507057 
L 221.331281 48.991732 
L 219.03284 47.297984 
L 216.7344 45.362471 
L 214.435959 43.216722 
L 212.137519 40.981427 
L 209.839078 38.779224 
L 207.540638 36.646221 
L 205.242197 34.513151 
L 202.943757 32.24828 
L 200.645316 29.725539 
L 198.346875 26.910065 
L 196.048435 23.934678 
L 193.749994 21.08194 
L 191.451554 18.62747 
L 189.153113 16.654722 
L 186.854673 15.024518 
L 184.556232 13.540998 
L 182.257792 12.147613 
L 179.959351 10.967053 
L 177.660911 10.179239 
L 175.36247 9.87619 
L 173.06403 10.009905 
L 170.765589 10.448732 
L 168.467148 11.077439 
L 166.168708 11.855809 
L 163.870267 12.809404 
L 161.571827 13.992567 
L 159.273386 15.453384 
L 156.974946 17.198605 
L 154.676505 19.170747 
L 152.378065 21.2589 
L 150.079624 23.342485 
L 147.781184 25.357746 
L 145.482743 27.359385 
L 143.184303 29.508172 
L 140.885862 31.952416 
L 138.587422 34.697724 
L 136.288981 37.590537 
L 133.99054 40.416758 
L 131.6921 43.016358 
L 129.393659 45.336983 
L 127.095219 47.408932 
L 124.796778 49.271527 
L 122.498338 50.923714 
L 120.199897 52.350761 
L 117.901457 53.583697 
L 115.603016 54.704042 
L 113.304576 55.780222 
L 111.006135 56.809604 
L 108.707695 57.731189 
L 106.409254 58.494312 
L 104.110813 59.115698 
L 101.812373 59.673544 
L 99.513932 60.244554 
L 97.215492 60.840934 
L 94.917051 61.406053 
L 92.618611 61.870118 
L 90.32017 62.208032 
L 88.02173 62.447877 
L 85.723289 62.635534 
L 83.424849 62.797822 
L 81.126408 62.934131 
L 78.827968 63.033507 
L 76.529527 63.094293 
L 74.231087 63.129095 
L 71.932646 63.15666 
L 69.634205 63.191403 
L 67.335765 63.237261 
L 65.037324 63.287859 
L 62.738884 63.332351 
L 60.440443 63.362643 
L 58.142003 63.376852 
L 55.843562 63.378366 
L 53.545122 63.373393 
L 51.246681 63.368644 
L 48.948241 63.368809 
L 46.6498 63.374583 
L 44.35136 63.383143 
L 42.052919 63.390914 
L 39.754478 63.39602 
L 37.456038 63.398568 
L 35.157597 63.399497 
z
" style="fill:#1f77b4;fill-opacity:0.25;"/>
   </g>
   <g id="matplotlib.axis_3">
    <g id="xtick_7">
     <g id="line2d_11">
      <g>
       <use style="stroke:#000000;stroke-width:0.8;" x="23.028708" xlink:href="#m7aefdeabad" y="63.4"/>
      </g>
     </g>
    </g>
    <g id="xtick_8">
     <g id="line2d_12">
      <g>
       <use style="stroke:#000000;stroke-width:0.8;" x="83.18255" xlink:href="#m7aefdeabad" y="63.4"/>
      </g>
     </g>
    </g>
    <g id="xtick_9">
     <g id="line2d_13">
      <g>
       <use style="stroke:#000000;stroke-width:0.8;" x="143.336392" xlink:href="#m7aefdeabad" y="63.4"/>
      </g>
     </g>
    </g>
    <g id="xtick_10">
     <g id="line2d_14">
      <g>
       <use style="stroke:#000000;stroke-width:0.8;" x="203.490234" xlink:href="#m7aefdeabad" y="63.4"/>
      </g>
     </g>
    </g>
    <g id="xtick_11">
     <g id="line2d_15">
      <g>
       <use style="stroke:#000000;stroke-width:0.8;" x="263.644076" xlink:href="#m7aefdeabad" y="63.4"/>
      </g>
     </g>
    </g>
    <g id="xtick_12">
     <g id="line2d_16">
      <g>
       <use style="stroke:#000000;stroke-width:0.8;" x="323.797917" xlink:href="#m7aefdeabad" y="63.4"/>
      </g>
     </g>
    </g>
   </g>
   <g id="matplotlib.axis_4">
    <g id="ytick_5"/>
    <g id="ytick_6"/>
   </g>
   <g id="line2d_17">
    <path clip-path="url(#pb8a73b3171)" d="M 35.157597 63.399497 
L 65.037324 63.287859 
L 83.424849 62.797822 
L 90.32017 62.208032 
L 92.618611 61.870118 
L 97.215492 60.840934 
L 106.409254 58.494312 
L 108.707695 57.731189 
L 113.304576 55.780222 
L 117.901457 53.583697 
L 120.199897 52.350761 
L 122.498338 50.923714 
L 124.796778 49.271527 
L 127.095219 47.408932 
L 129.393659 45.336983 
L 131.6921 43.016358 
L 133.99054 40.416758 
L 140.885862 31.952416 
L 143.184303 29.508172 
L 147.781184 25.357746 
L 156.974946 17.198605 
L 159.273386 15.453384 
L 161.571827 13.992567 
L 163.870267 12.809404 
L 166.168708 11.855809 
L 168.467148 11.077439 
L 170.765589 10.448732 
L 173.06403 10.009905 
L 175.36247 9.87619 
L 177.660911 10.179239 
L 179.959351 10.967053 
L 182.257792 12.147613 
L 186.854673 15.024518 
L 189.153113 16.654722 
L 191.451554 18.62747 
L 193.749994 21.08194 
L 200.645316 29.725539 
L 202.943757 32.24828 
L 207.540638 36.646221 
L 212.137519 40.981427 
L 216.7344 45.362471 
L 219.03284 47.297984 
L 221.331281 48.991732 
L 225.928162 51.930557 
L 230.525043 54.591615 
L 232.823483 55.765946 
L 235.121924 56.805937 
L 237.420365 57.718124 
L 242.017246 59.187499 
L 246.614127 60.284358 
L 253.509448 61.620984 
L 258.106329 62.311665 
L 262.70321 62.729437 
L 269.598532 63.00439 
L 285.687616 63.339044 
L 297.179818 63.399216 
L 327.059545 63.399497 
L 327.059545 63.399497 
" style="fill:none;stroke:#1f77b4;stroke-linecap:square;stroke-width:1.5;"/>
   </g>
   <g id="patch_6">
    <path d="M 20.5625 63.4 
L 341.654643 63.4 
" style="fill:none;stroke:#000000;stroke-linecap:square;stroke-linejoin:miter;stroke-width:0.8;"/>
   </g>
  </g>
  <g id="axes_3">
   <g id="patch_7">
    <path d="M 352.726786 400.6 
L 408.0875 400.6 
L 408.0875 74.64 
L 352.726786 74.64 
z
" style="fill:#ffffff;"/>
   </g>
   <g id="PolyCollection_2">
    <path clip-path="url(#p2096fbf383)" d="M 352.727309 385.783636 
L 352.726786 385.783636 
L 352.726786 383.450351 
L 352.726786 381.117065 
L 352.726786 378.78378 
L 352.726786 376.450494 
L 352.726786 374.117208 
L 352.726786 371.783923 
L 352.726786 369.450637 
L 352.726786 367.117351 
L 352.726786 364.784066 
L 352.726786 362.45078 
L 352.726786 360.117495 
L 352.726786 357.784209 
L 352.726786 355.450923 
L 352.726786 353.117638 
L 352.726786 350.784352 
L 352.726786 348.451067 
L 352.726786 346.117781 
L 352.726786 343.784495 
L 352.726786 341.45121 
L 352.726786 339.117924 
L 352.726786 336.784639 
L 352.726786 334.451353 
L 352.726786 332.118067 
L 352.726786 329.784782 
L 352.726786 327.451496 
L 352.726786 325.11821 
L 352.726786 322.784925 
L 352.726786 320.451639 
L 352.726786 318.118354 
L 352.726786 315.785068 
L 352.726786 313.451782 
L 352.726786 311.118497 
L 352.726786 308.785211 
L 352.726786 306.451926 
L 352.726786 304.11864 
L 352.726786 301.785354 
L 352.726786 299.452069 
L 352.726786 297.118783 
L 352.726786 294.785497 
L 352.726786 292.452212 
L 352.726786 290.118926 
L 352.726786 287.785641 
L 352.726786 285.452355 
L 352.726786 283.119069 
L 352.726786 280.785784 
L 352.726786 278.452498 
L 352.726786 276.119213 
L 352.726786 273.785927 
L 352.726786 271.452641 
L 352.726786 269.119356 
L 352.726786 266.78607 
L 352.726786 264.452785 
L 352.726786 262.119499 
L 352.726786 259.786213 
L 352.726786 257.452928 
L 352.726786 255.119642 
L 352.726786 252.786356 
L 352.726786 250.453071 
L 352.726786 248.119785 
L 352.726786 245.7865 
L 352.726786 243.453214 
L 352.726786 241.119928 
L 352.726786 238.786643 
L 352.726786 236.453357 
L 352.726786 234.120072 
L 352.726786 231.786786 
L 352.726786 229.4535 
L 352.726786 227.120215 
L 352.726786 224.786929 
L 352.726786 222.453644 
L 352.726786 220.120358 
L 352.726786 217.787072 
L 352.726786 215.453787 
L 352.726786 213.120501 
L 352.726786 210.787215 
L 352.726786 208.45393 
L 352.726786 206.120644 
L 352.726786 203.787359 
L 352.726786 201.454073 
L 352.726786 199.120787 
L 352.726786 196.787502 
L 352.726786 194.454216 
L 352.726786 192.120931 
L 352.726786 189.787645 
L 352.726786 187.454359 
L 352.726786 185.121074 
L 352.726786 182.787788 
L 352.726786 180.454503 
L 352.726786 178.121217 
L 352.726786 175.787931 
L 352.726786 173.454646 
L 352.726786 171.12136 
L 352.726786 168.788074 
L 352.726786 166.454789 
L 352.726786 164.121503 
L 352.726786 161.788218 
L 352.726786 159.454932 
L 352.726786 157.121646 
L 352.726786 154.788361 
L 352.726786 152.455075 
L 352.726786 150.12179 
L 352.726786 147.788504 
L 352.726786 145.455218 
L 352.726786 143.121933 
L 352.726786 140.788647 
L 352.726786 138.455361 
L 352.726786 136.122076 
L 352.726786 133.78879 
L 352.726786 131.455505 
L 352.726786 129.122219 
L 352.726786 126.788933 
L 352.726786 124.455648 
L 352.726786 122.122362 
L 352.726786 119.789077 
L 352.726786 117.455791 
L 352.726786 115.122505 
L 352.726786 112.78922 
L 352.726786 110.455934 
L 352.726786 108.122649 
L 352.726786 105.789363 
L 352.726786 103.456077 
L 352.726786 101.122792 
L 352.726786 98.789506 
L 352.726786 96.45622 
L 352.726786 94.122935 
L 352.726786 91.789649 
L 352.726786 89.456364 
L 352.727307 89.456364 
L 352.727307 89.456364 
L 352.727998 91.789649 
L 352.72979 94.122935 
L 352.733364 96.45622 
L 352.739324 98.789506 
L 352.747689 101.122792 
L 352.757581 103.456077 
L 352.76751 105.789363 
L 352.776248 108.122649 
L 352.783793 110.455934 
L 352.791949 112.78922 
L 352.8045 115.122505 
L 352.826884 117.455791 
L 352.864959 119.789077 
L 352.922851 122.122362 
L 353.001318 124.455648 
L 353.098713 126.788933 
L 353.214777 129.122219 
L 353.353916 131.455505 
L 353.523176 133.78879 
L 353.724706 136.122076 
L 353.949961 138.455361 
L 354.183648 140.788647 
L 354.415356 143.121933 
L 354.647242 145.455218 
L 354.890536 147.788504 
L 355.157129 150.12179 
L 355.456774 152.455075 
L 355.800318 154.788361 
L 356.200789 157.121646 
L 356.669615 159.454932 
L 357.215048 161.788218 
L 357.847389 164.121503 
L 358.583601 166.454789 
L 359.440398 168.788074 
L 360.417642 171.12136 
L 361.48957 173.454646 
L 362.619724 175.787931 
L 363.792593 178.121217 
L 365.032134 180.454503 
L 366.383863 182.787788 
L 367.873532 185.121074 
L 369.482199 187.454359 
L 371.160346 189.787645 
L 372.863046 192.120931 
L 374.574805 194.454216 
L 376.315718 196.787502 
L 378.138185 199.120787 
L 380.112587 201.454073 
L 382.291162 203.787359 
L 384.660291 206.120644 
L 387.118913 208.45393 
L 389.512891 210.787215 
L 391.71199 213.120501 
L 393.678694 215.453787 
L 395.47954 217.787072 
L 397.228293 220.120358 
L 398.998003 222.453644 
L 400.761385 224.786929 
L 402.39774 227.120215 
L 403.755776 229.4535 
L 404.725544 231.786786 
L 405.276493 234.120072 
L 405.451276 236.453357 
L 405.334595 238.786643 
L 405.023314 241.119928 
L 404.610556 243.453214 
L 404.176804 245.7865 
L 403.773067 248.119785 
L 403.394358 250.453071 
L 402.96243 252.786356 
L 402.339711 255.119642 
L 401.376843 257.452928 
L 399.973088 259.786213 
L 398.120693 262.119499 
L 395.913773 264.452785 
L 393.520826 266.78607 
L 391.133927 269.119356 
L 388.909834 271.452641 
L 386.918779 273.785927 
L 385.124071 276.119213 
L 383.413288 278.452498 
L 381.670823 280.785784 
L 379.843144 283.119069 
L 377.950221 285.452355 
L 376.046458 287.785641 
L 374.177838 290.118926 
L 372.370753 292.452212 
L 370.643861 294.785497 
L 369.015037 297.118783 
L 367.494975 299.452069 
L 366.081053 301.785354 
L 364.762494 304.11864 
L 363.532178 306.451926 
L 362.393284 308.785211 
L 361.355139 311.118497 
L 360.422929 313.451782 
L 359.590123 315.785068 
L 358.837915 318.118354 
L 358.139917 320.451639 
L 357.469898 322.784925 
L 356.812272 325.11821 
L 356.171924 327.451496 
L 355.575171 329.784782 
L 355.056944 332.118067 
L 354.640555 334.451353 
L 354.32387 336.784639 
L 354.081212 339.117924 
L 353.878693 341.45121 
L 353.691903 343.784495 
L 353.51483 346.117781 
L 353.356027 348.451067 
L 353.226745 350.784352 
L 353.130228 353.117638 
L 353.059146 355.450923 
L 353.001322 357.784209 
L 352.947819 360.117495 
L 352.896765 362.45078 
L 352.851135 364.784066 
L 352.814027 367.117351 
L 352.785963 369.450637 
L 352.765418 371.783923 
L 352.75058 374.117208 
L 352.740249 376.450494 
L 352.733621 378.78378 
L 352.729851 381.117065 
L 352.728011 383.450351 
L 352.727309 385.783636 
z
" style="fill:#1f77b4;fill-opacity:0.25;"/>
   </g>
   <g id="matplotlib.axis_5">
    <g id="xtick_13"/>
    <g id="xtick_14"/>
   </g>
   <g id="matplotlib.axis_6">
    <g id="ytick_7">
     <g id="line2d_18">
      <g>
       <use style="stroke:#000000;stroke-width:0.8;" x="352.726786" xlink:href="#mc791d8031c" y="347.787401"/>
      </g>
     </g>
    </g>
    <g id="ytick_8">
     <g id="line2d_19">
      <g>
       <use style="stroke:#000000;stroke-width:0.8;" x="352.726786" xlink:href="#mc791d8031c" y="276.609897"/>
      </g>
     </g>
    </g>
    <g id="ytick_9">
     <g id="line2d_20">
      <g>
       <use style="stroke:#000000;stroke-width:0.8;" x="352.726786" xlink:href="#mc791d8031c" y="205.432392"/>
      </g>
     </g>
    </g>
    <g id="ytick_10">
     <g id="line2d_21">
      <g>
       <use style="stroke:#000000;stroke-width:0.8;" x="352.726786" xlink:href="#mc791d8031c" y="134.254888"/>
      </g>
     </g>
    </g>
   </g>
   <g id="line2d_22">
    <path clip-path="url(#p2096fbf383)" d="M 352.727309 385.783636 
L 352.814027 367.117351 
L 353.130228 353.117638 
L 353.51483 346.117781 
L 354.32387 336.784639 
L 355.056944 332.118067 
L 356.171924 327.451496 
L 358.837915 318.118354 
L 360.422929 313.451782 
L 362.393284 308.785211 
L 364.762494 304.11864 
L 367.494975 299.452069 
L 370.643861 294.785497 
L 374.177838 290.118926 
L 383.413288 278.452498 
L 386.918779 273.785927 
L 388.909834 271.452641 
L 391.133927 269.119356 
L 395.913773 264.452785 
L 398.120693 262.119499 
L 399.973088 259.786213 
L 401.376843 257.452928 
L 402.339711 255.119642 
L 402.96243 252.786356 
L 405.023314 241.119928 
L 405.334595 238.786643 
L 405.451276 236.453357 
L 405.276493 234.120072 
L 404.725544 231.786786 
L 403.755776 229.4535 
L 402.39774 227.120215 
L 398.998003 222.453644 
L 393.678694 215.453787 
L 391.71199 213.120501 
L 389.512891 210.787215 
L 382.291162 203.787359 
L 380.112587 201.454073 
L 378.138185 199.120787 
L 374.574805 194.454216 
L 369.482199 187.454359 
L 366.383863 182.787788 
L 363.792593 178.121217 
L 361.48957 173.454646 
L 359.440398 168.788074 
L 358.583601 166.454789 
L 357.215048 161.788218 
L 356.200789 157.121646 
L 355.456774 152.455075 
L 354.647242 145.455218 
L 353.353916 131.455505 
L 353.001318 124.455648 
L 352.826884 117.455791 
L 352.733364 96.45622 
L 352.727307 89.456364 
L 352.727307 89.456364 
" style="fill:none;stroke:#1f77b4;stroke-linecap:square;stroke-width:1.5;"/>
   </g>
   <g id="patch_8">
    <path d="M 352.726786 400.6 
L 352.726786 74.64 
" style="fill:none;stroke:#000000;stroke-linecap:square;stroke-linejoin:miter;stroke-width:0.8;"/>
   </g>
  </g>
 </g>
 <defs>
  <clipPath id="pe93381f8f8">
   <rect height="325.96" width="321.092143" x="20.5625" y="74.64"/>
  </clipPath>
  <clipPath id="pb8a73b3171">
   <rect height="56.2" width="321.092143" x="20.5625" y="7.2"/>
  </clipPath>
  <clipPath id="p2096fbf383">
   <rect height="325.96" width="55.360714" x="352.726786" y="74.64"/>
  </clipPath>
 </defs>
</svg>
