<?xml version="1.0" encoding="utf-8" standalone="no"?>
<!DOCTYPE svg PUBLIC "-//W3C//DTD SVG 1.1//EN"
  "http://www.w3.org/Graphics/SVG/1.1/DTD/svg11.dtd">
<!-- Created with matplotlib (https://matplotlib.org/) -->
<svg height="329.525312pt" version="1.1" viewBox="0 0 490.04375 329.525312" width="490.04375pt" xmlns="http://www.w3.org/2000/svg" xmlns:xlink="http://www.w3.org/1999/xlink">
 <defs>
  <style type="text/css">
*{stroke-linecap:butt;stroke-linejoin:round;}
  </style>
 </defs>
 <g id="figure_1">
  <g id="patch_1">
   <path d="M 0 329.525312 
L 490.04375 329.525312 
L 490.04375 0 
L 0 0 
z
" style="fill:#ffffff;"/>
  </g>
  <g id="axes_1">
   <g id="patch_2">
    <path d="M 36.44375 306.18 
L 482.84375 306.18 
L 482.84375 7.2 
L 36.44375 7.2 
z
" style="fill:#eaeaf2;"/>
   </g>
   <g id="matplotlib.axis_1">
    <g id="xtick_1">
     <g id="line2d_1">
      <path clip-path="url(#p30d965d52a)" d="M 46.236991 306.18 
L 46.236991 7.2 
" style="fill:none;stroke:#ffffff;stroke-linecap:round;"/>
     </g>
     <g id="line2d_2"/>
     <g id="text_1">
      <!-- 0 -->
      <defs>
       <path d="M 4.15625 35.296875 
Q 4.15625 48 6.765625 55.734375 
Q 9.375 63.484375 14.515625 67.671875 
Q 19.671875 71.875 27.484375 71.875 
Q 33.25 71.875 37.59375 69.546875 
Q 41.9375 67.234375 44.765625 62.859375 
Q 47.609375 58.5 49.21875 52.21875 
Q 50.828125 45.953125 50.828125 35.296875 
Q 50.828125 22.703125 48.234375 14.96875 
Q 45.65625 7.234375 40.5 3 
Q 35.359375 -1.21875 27.484375 -1.21875 
Q 17.140625 -1.21875 11.234375 6.203125 
Q 4.15625 15.140625 4.15625 35.296875 
z
M 13.1875 35.296875 
Q 13.1875 17.671875 17.3125 11.828125 
Q 21.4375 6 27.484375 6 
Q 33.546875 6 37.671875 11.859375 
Q 41.796875 17.71875 41.796875 35.296875 
Q 41.796875 52.984375 37.671875 58.78125 
Q 33.546875 64.59375 27.390625 64.59375 
Q 21.34375 64.59375 17.71875 59.46875 
Q 13.1875 52.9375 13.1875 35.296875 
z
" id="ArialMT-48"/>
      </defs>
      <g style="fill:#262626;" transform="translate(43.456522 320.337812)scale(0.1 -0.1)">
       <use xlink:href="#ArialMT-48"/>
      </g>
     </g>
    </g>
    <g id="xtick_2">
     <g id="line2d_3">
      <path clip-path="url(#p30d965d52a)" d="M 129.744156 306.18 
L 129.744156 7.2 
" style="fill:none;stroke:#ffffff;stroke-linecap:round;"/>
     </g>
     <g id="line2d_4"/>
     <g id="text_2">
      <!-- 200 -->
      <defs>
       <path d="M 50.34375 8.453125 
L 50.34375 0 
L 3.03125 0 
Q 2.9375 3.171875 4.046875 6.109375 
Q 5.859375 10.9375 9.828125 15.625 
Q 13.8125 20.3125 21.34375 26.46875 
Q 33.015625 36.03125 37.109375 41.625 
Q 41.21875 47.21875 41.21875 52.203125 
Q 41.21875 57.421875 37.46875 61 
Q 33.734375 64.59375 27.734375 64.59375 
Q 21.390625 64.59375 17.578125 60.78125 
Q 13.765625 56.984375 13.71875 50.25 
L 4.6875 51.171875 
Q 5.609375 61.28125 11.65625 66.578125 
Q 17.71875 71.875 27.9375 71.875 
Q 38.234375 71.875 44.234375 66.15625 
Q 50.25 60.453125 50.25 52 
Q 50.25 47.703125 48.484375 43.546875 
Q 46.734375 39.40625 42.65625 34.8125 
Q 38.578125 30.21875 29.109375 22.21875 
Q 21.1875 15.578125 18.9375 13.203125 
Q 16.703125 10.84375 15.234375 8.453125 
z
" id="ArialMT-50"/>
      </defs>
      <g style="fill:#262626;" transform="translate(121.402749 320.337812)scale(0.1 -0.1)">
       <use xlink:href="#ArialMT-50"/>
       <use x="55.615234" xlink:href="#ArialMT-48"/>
       <use x="111.230469" xlink:href="#ArialMT-48"/>
      </g>
     </g>
    </g>
    <g id="xtick_3">
     <g id="line2d_5">
      <path clip-path="url(#p30d965d52a)" d="M 213.25132 306.18 
L 213.25132 7.2 
" style="fill:none;stroke:#ffffff;stroke-linecap:round;"/>
     </g>
     <g id="line2d_6"/>
     <g id="text_3">
      <!-- 400 -->
      <defs>
       <path d="M 32.328125 0 
L 32.328125 17.140625 
L 1.265625 17.140625 
L 1.265625 25.203125 
L 33.9375 71.578125 
L 41.109375 71.578125 
L 41.109375 25.203125 
L 50.78125 25.203125 
L 50.78125 17.140625 
L 41.109375 17.140625 
L 41.109375 0 
z
M 32.328125 25.203125 
L 32.328125 57.46875 
L 9.90625 25.203125 
z
" id="ArialMT-52"/>
      </defs>
      <g style="fill:#262626;" transform="translate(204.909914 320.337812)scale(0.1 -0.1)">
       <use xlink:href="#ArialMT-52"/>
       <use x="55.615234" xlink:href="#ArialMT-48"/>
       <use x="111.230469" xlink:href="#ArialMT-48"/>
      </g>
     </g>
    </g>
    <g id="xtick_4">
     <g id="line2d_7">
      <path clip-path="url(#p30d965d52a)" d="M 296.758485 306.18 
L 296.758485 7.2 
" style="fill:none;stroke:#ffffff;stroke-linecap:round;"/>
     </g>
     <g id="line2d_8"/>
     <g id="text_4">
      <!-- 600 -->
      <defs>
       <path d="M 49.75 54.046875 
L 41.015625 53.375 
Q 39.84375 58.546875 37.703125 60.890625 
Q 34.125 64.65625 28.90625 64.65625 
Q 24.703125 64.65625 21.53125 62.3125 
Q 17.390625 59.28125 14.984375 53.46875 
Q 12.59375 47.65625 12.5 36.921875 
Q 15.671875 41.75 20.265625 44.09375 
Q 24.859375 46.4375 29.890625 46.4375 
Q 38.671875 46.4375 44.84375 39.96875 
Q 51.03125 33.5 51.03125 23.25 
Q 51.03125 16.5 48.125 10.71875 
Q 45.21875 4.9375 40.140625 1.859375 
Q 35.0625 -1.21875 28.609375 -1.21875 
Q 17.625 -1.21875 10.6875 6.859375 
Q 3.765625 14.9375 3.765625 33.5 
Q 3.765625 54.25 11.421875 63.671875 
Q 18.109375 71.875 29.4375 71.875 
Q 37.890625 71.875 43.28125 67.140625 
Q 48.6875 62.40625 49.75 54.046875 
z
M 13.875 23.1875 
Q 13.875 18.65625 15.796875 14.5 
Q 17.71875 10.359375 21.1875 8.171875 
Q 24.65625 6 28.46875 6 
Q 34.03125 6 38.03125 10.484375 
Q 42.046875 14.984375 42.046875 22.703125 
Q 42.046875 30.125 38.078125 34.390625 
Q 34.125 38.671875 28.125 38.671875 
Q 22.171875 38.671875 18.015625 34.390625 
Q 13.875 30.125 13.875 23.1875 
z
" id="ArialMT-54"/>
      </defs>
      <g style="fill:#262626;" transform="translate(288.417079 320.337812)scale(0.1 -0.1)">
       <use xlink:href="#ArialMT-54"/>
       <use x="55.615234" xlink:href="#ArialMT-48"/>
       <use x="111.230469" xlink:href="#ArialMT-48"/>
      </g>
     </g>
    </g>
    <g id="xtick_5">
     <g id="line2d_9">
      <path clip-path="url(#p30d965d52a)" d="M 380.26565 306.18 
L 380.26565 7.2 
" style="fill:none;stroke:#ffffff;stroke-linecap:round;"/>
     </g>
     <g id="line2d_10"/>
     <g id="text_5">
      <!-- 800 -->
      <defs>
       <path d="M 17.671875 38.8125 
Q 12.203125 40.828125 9.5625 44.53125 
Q 6.9375 48.25 6.9375 53.421875 
Q 6.9375 61.234375 12.546875 66.546875 
Q 18.171875 71.875 27.484375 71.875 
Q 36.859375 71.875 42.578125 66.421875 
Q 48.296875 60.984375 48.296875 53.171875 
Q 48.296875 48.1875 45.671875 44.5 
Q 43.0625 40.828125 37.75 38.8125 
Q 44.34375 36.671875 47.78125 31.875 
Q 51.21875 27.09375 51.21875 20.453125 
Q 51.21875 11.28125 44.71875 5.03125 
Q 38.234375 -1.21875 27.640625 -1.21875 
Q 17.046875 -1.21875 10.546875 5.046875 
Q 4.046875 11.328125 4.046875 20.703125 
Q 4.046875 27.6875 7.59375 32.390625 
Q 11.140625 37.109375 17.671875 38.8125 
z
M 15.921875 53.71875 
Q 15.921875 48.640625 19.1875 45.40625 
Q 22.46875 42.1875 27.6875 42.1875 
Q 32.765625 42.1875 36.015625 45.375 
Q 39.265625 48.578125 39.265625 53.21875 
Q 39.265625 58.0625 35.90625 61.359375 
Q 32.5625 64.65625 27.59375 64.65625 
Q 22.5625 64.65625 19.234375 61.421875 
Q 15.921875 58.203125 15.921875 53.71875 
z
M 13.09375 20.65625 
Q 13.09375 16.890625 14.875 13.375 
Q 16.65625 9.859375 20.171875 7.921875 
Q 23.6875 6 27.734375 6 
Q 34.03125 6 38.125 10.046875 
Q 42.234375 14.109375 42.234375 20.359375 
Q 42.234375 26.703125 38.015625 30.859375 
Q 33.796875 35.015625 27.4375 35.015625 
Q 21.234375 35.015625 17.15625 30.90625 
Q 13.09375 26.8125 13.09375 20.65625 
z
" id="ArialMT-56"/>
      </defs>
      <g style="fill:#262626;" transform="translate(371.924244 320.337812)scale(0.1 -0.1)">
       <use xlink:href="#ArialMT-56"/>
       <use x="55.615234" xlink:href="#ArialMT-48"/>
       <use x="111.230469" xlink:href="#ArialMT-48"/>
      </g>
     </g>
    </g>
    <g id="xtick_6">
     <g id="line2d_11">
      <path clip-path="url(#p30d965d52a)" d="M 463.772815 306.18 
L 463.772815 7.2 
" style="fill:none;stroke:#ffffff;stroke-linecap:round;"/>
     </g>
     <g id="line2d_12"/>
     <g id="text_6">
      <!-- 1000 -->
      <defs>
       <path d="M 37.25 0 
L 28.46875 0 
L 28.46875 56 
Q 25.296875 52.984375 20.140625 49.953125 
Q 14.984375 46.921875 10.890625 45.40625 
L 10.890625 53.90625 
Q 18.265625 57.375 23.78125 62.296875 
Q 29.296875 67.234375 31.59375 71.875 
L 37.25 71.875 
z
" id="ArialMT-49"/>
      </defs>
      <g style="fill:#262626;" transform="translate(452.65094 320.337812)scale(0.1 -0.1)">
       <use xlink:href="#ArialMT-49"/>
       <use x="55.615234" xlink:href="#ArialMT-48"/>
       <use x="111.230469" xlink:href="#ArialMT-48"/>
       <use x="166.845703" xlink:href="#ArialMT-48"/>
      </g>
     </g>
    </g>
   </g>
   <g id="matplotlib.axis_2">
    <g id="ytick_1">
     <g id="line2d_13">
      <path clip-path="url(#p30d965d52a)" d="M 36.44375 292.641643 
L 482.84375 292.641643 
" style="fill:none;stroke:#ffffff;stroke-linecap:round;"/>
     </g>
     <g id="line2d_14"/>
     <g id="text_7">
      <!-- 0 -->
      <g style="fill:#262626;" transform="translate(23.882813 296.220549)scale(0.1 -0.1)">
       <use xlink:href="#ArialMT-48"/>
      </g>
     </g>
    </g>
    <g id="ytick_2">
     <g id="line2d_15">
      <path clip-path="url(#p30d965d52a)" d="M 36.44375 237.81862 
L 482.84375 237.81862 
" style="fill:none;stroke:#ffffff;stroke-linecap:round;"/>
     </g>
     <g id="line2d_16"/>
     <g id="text_8">
      <!-- 200 -->
      <g style="fill:#262626;" transform="translate(12.760938 241.397526)scale(0.1 -0.1)">
       <use xlink:href="#ArialMT-50"/>
       <use x="55.615234" xlink:href="#ArialMT-48"/>
       <use x="111.230469" xlink:href="#ArialMT-48"/>
      </g>
     </g>
    </g>
    <g id="ytick_3">
     <g id="line2d_17">
      <path clip-path="url(#p30d965d52a)" d="M 36.44375 182.995597 
L 482.84375 182.995597 
" style="fill:none;stroke:#ffffff;stroke-linecap:round;"/>
     </g>
     <g id="line2d_18"/>
     <g id="text_9">
      <!-- 400 -->
      <g style="fill:#262626;" transform="translate(12.760938 186.574503)scale(0.1 -0.1)">
       <use xlink:href="#ArialMT-52"/>
       <use x="55.615234" xlink:href="#ArialMT-48"/>
       <use x="111.230469" xlink:href="#ArialMT-48"/>
      </g>
     </g>
    </g>
    <g id="ytick_4">
     <g id="line2d_19">
      <path clip-path="url(#p30d965d52a)" d="M 36.44375 128.172573 
L 482.84375 128.172573 
" style="fill:none;stroke:#ffffff;stroke-linecap:round;"/>
     </g>
     <g id="line2d_20"/>
     <g id="text_10">
      <!-- 600 -->
      <g style="fill:#262626;" transform="translate(12.760938 131.751479)scale(0.1 -0.1)">
       <use xlink:href="#ArialMT-54"/>
       <use x="55.615234" xlink:href="#ArialMT-48"/>
       <use x="111.230469" xlink:href="#ArialMT-48"/>
      </g>
     </g>
    </g>
    <g id="ytick_5">
     <g id="line2d_21">
      <path clip-path="url(#p30d965d52a)" d="M 36.44375 73.34955 
L 482.84375 73.34955 
" style="fill:none;stroke:#ffffff;stroke-linecap:round;"/>
     </g>
     <g id="line2d_22"/>
     <g id="text_11">
      <!-- 800 -->
      <g style="fill:#262626;" transform="translate(12.760938 76.928456)scale(0.1 -0.1)">
       <use xlink:href="#ArialMT-56"/>
       <use x="55.615234" xlink:href="#ArialMT-48"/>
       <use x="111.230469" xlink:href="#ArialMT-48"/>
      </g>
     </g>
    </g>
    <g id="ytick_6">
     <g id="line2d_23">
      <path clip-path="url(#p30d965d52a)" d="M 36.44375 18.526527 
L 482.84375 18.526527 
" style="fill:none;stroke:#ffffff;stroke-linecap:round;"/>
     </g>
     <g id="line2d_24"/>
     <g id="text_12">
      <!-- 1000 -->
      <g style="fill:#262626;" transform="translate(7.2 22.105433)scale(0.1 -0.1)">
       <use xlink:href="#ArialMT-49"/>
       <use x="55.615234" xlink:href="#ArialMT-48"/>
       <use x="111.230469" xlink:href="#ArialMT-48"/>
       <use x="166.845703" xlink:href="#ArialMT-48"/>
      </g>
     </g>
    </g>
   </g>
   <g id="line2d_25">
    <path clip-path="url(#p30d965d52a)" d="M 270.456855 58.510055 
L 243.688485 22.956141 
L 287.259433 90.325739 
L 354.197114 148.665486 
L 308.548908 146.62713 
L 313.295226 107.222952 
L 176.993342 73.735155 
L 164.745535 66.624188 
L 188.539755 247.460708 
L 177.727201 291.595309 
L 152.280599 284.112387 
L 155.913482 218.20054 
L 74.840452 83.449242 
L 66.9037 64.216837 
L 152.425529 68.071435 
L 138.188944 158.770775 
L 136.228432 193.856635 
L 101.223719 228.448146 
L 77.235215 230.595277 
L 74.77178 220.462806 
L 60.175841 192.94786 
L 137.444845 259.680061 
L 240.154505 254.944298 
L 452.690324 200.30857 
L 423.525637 228.837746 
L 355.076257 240.214271 
L 321.320059 223.480412 
L 413.594159 148.611991 
L 412.525204 202.071815 
L 387.231056 214.638815 
L 396.195554 214.439249 
L 425.100716 227.167422 
L 398.605749 214.544048 
L 225.436099 219.240009 
L 318.331692 206.552832 
L 352.138447 67.763767 
L 450.309739 57.759544 
L 462.552841 24.06846 
L 351.140918 128.499237 
L 349.027936 204.099391 
L 387.867587 146.922194 
L 375.739915 135.47792 
L 391.137887 100.948728 
L 221.65161 44.468816 
L 179.709345 21.701879 
L 188.368625 21.534019 
L 116.834395 185.802703 
L 64.770476 216.486413 
L 133.816361 188.744578 
L 137.472675 183.873629 
L 216.719516 84.520088 
L 218.579549 72.704193 
L 232.143193 76.419019 
L 341.722219 25.988948 
L 319.840872 20.79 
L 458.789762 45.582782 
L 421.537976 114.256147 
L 413.611179 135.085879 
L 311.409444 169.333094 
L 248.891754 259.080661 
L 205.573647 257.322263 
L 204.693048 230.491418 
L 158.536986 181.084491 
L 80.561385 43.011426 
L 73.164407 52.177047 
L 73.246086 30.635703 
L 117.46105 32.75082 
L 170.032096 40.94695 
L 188.357873 55.152003 
L 242.37184 169.983861 
L 383.353758 276.443115 
L 449.67823 257.704586 
L 354.919027 263.49122 
L 320.196449 257.054251 
L 62.840706 127.056465 
L 58.497579 67.056293 
L 56.734659 102.282275 
L 82.637542 95.531645 
L 243.719472 121.999584 
L 305.670578 139.360635 
L 307.687975 146.999753 
L 95.35757 89.870377 
L 92.478434 84.428622 
L 59.867731 54.558546 
L 65.495231 137.171559 
L 302.511051 173.263015 
L 239.494263 172.431614 
L 242.329256 169.162294 
L 244.269397 130.675946 
L 374.73344 26.539951 
L 396.741994 23.51578 
L 382.852652 61.360488 
L 330.85842 246.828232 
L 333.026064 267.140581 
L 411.257967 292.59 
L 418.461834 291.840944 
L 222.204976 285.19256 
L 76.579683 271.513395 
L 148.257669 261.682202 
L 246.265904 287.707547 
" style="fill:none;stroke:#87ceeb;stroke-linecap:round;stroke-width:1.75;"/>
    <defs>
     <path d="M 0 3.5 
C 0.928211 3.5 1.81853 3.131218 2.474874 2.474874 
C 3.131218 1.81853 3.5 0.928211 3.5 0 
C 3.5 -0.928211 3.131218 -1.81853 2.474874 -2.474874 
C 1.81853 -3.131218 0.928211 -3.5 0 -3.5 
C -0.928211 -3.5 -1.81853 -3.131218 -2.474874 -2.474874 
C -3.131218 -1.81853 -3.5 -0.928211 -3.5 0 
C -3.5 0.928211 -3.131218 1.81853 -2.474874 2.474874 
C -1.81853 3.131218 -0.928211 3.5 0 3.5 
z
" id="mf8fe257165"/>
    </defs>
    <g clip-path="url(#p30d965d52a)">
     <use style="fill:#87ceeb;" x="270.456855" xlink:href="#mf8fe257165" y="58.510055"/>
     <use style="fill:#87ceeb;" x="243.688485" xlink:href="#mf8fe257165" y="22.956141"/>
     <use style="fill:#87ceeb;" x="287.259433" xlink:href="#mf8fe257165" y="90.325739"/>
     <use style="fill:#87ceeb;" x="354.197114" xlink:href="#mf8fe257165" y="148.665486"/>
     <use style="fill:#87ceeb;" x="308.548908" xlink:href="#mf8fe257165" y="146.62713"/>
     <use style="fill:#87ceeb;" x="313.295226" xlink:href="#mf8fe257165" y="107.222952"/>
     <use style="fill:#87ceeb;" x="176.993342" xlink:href="#mf8fe257165" y="73.735155"/>
     <use style="fill:#87ceeb;" x="164.745535" xlink:href="#mf8fe257165" y="66.624188"/>
     <use style="fill:#87ceeb;" x="188.539755" xlink:href="#mf8fe257165" y="247.460708"/>
     <use style="fill:#87ceeb;" x="177.727201" xlink:href="#mf8fe257165" y="291.595309"/>
     <use style="fill:#87ceeb;" x="152.280599" xlink:href="#mf8fe257165" y="284.112387"/>
     <use style="fill:#87ceeb;" x="155.913482" xlink:href="#mf8fe257165" y="218.20054"/>
     <use style="fill:#87ceeb;" x="74.840452" xlink:href="#mf8fe257165" y="83.449242"/>
     <use style="fill:#87ceeb;" x="66.9037" xlink:href="#mf8fe257165" y="64.216837"/>
     <use style="fill:#87ceeb;" x="152.425529" xlink:href="#mf8fe257165" y="68.071435"/>
     <use style="fill:#87ceeb;" x="138.188944" xlink:href="#mf8fe257165" y="158.770775"/>
     <use style="fill:#87ceeb;" x="136.228432" xlink:href="#mf8fe257165" y="193.856635"/>
     <use style="fill:#87ceeb;" x="101.223719" xlink:href="#mf8fe257165" y="228.448146"/>
     <use style="fill:#87ceeb;" x="77.235215" xlink:href="#mf8fe257165" y="230.595277"/>
     <use style="fill:#87ceeb;" x="74.77178" xlink:href="#mf8fe257165" y="220.462806"/>
     <use style="fill:#87ceeb;" x="60.175841" xlink:href="#mf8fe257165" y="192.94786"/>
     <use style="fill:#87ceeb;" x="137.444845" xlink:href="#mf8fe257165" y="259.680061"/>
     <use style="fill:#87ceeb;" x="240.154505" xlink:href="#mf8fe257165" y="254.944298"/>
     <use style="fill:#87ceeb;" x="452.690324" xlink:href="#mf8fe257165" y="200.30857"/>
     <use style="fill:#87ceeb;" x="423.525637" xlink:href="#mf8fe257165" y="228.837746"/>
     <use style="fill:#87ceeb;" x="355.076257" xlink:href="#mf8fe257165" y="240.214271"/>
     <use style="fill:#87ceeb;" x="321.320059" xlink:href="#mf8fe257165" y="223.480412"/>
     <use style="fill:#87ceeb;" x="413.594159" xlink:href="#mf8fe257165" y="148.611991"/>
     <use style="fill:#87ceeb;" x="412.525204" xlink:href="#mf8fe257165" y="202.071815"/>
     <use style="fill:#87ceeb;" x="387.231056" xlink:href="#mf8fe257165" y="214.638815"/>
     <use style="fill:#87ceeb;" x="396.195554" xlink:href="#mf8fe257165" y="214.439249"/>
     <use style="fill:#87ceeb;" x="425.100716" xlink:href="#mf8fe257165" y="227.167422"/>
     <use style="fill:#87ceeb;" x="398.605749" xlink:href="#mf8fe257165" y="214.544048"/>
     <use style="fill:#87ceeb;" x="225.436099" xlink:href="#mf8fe257165" y="219.240009"/>
     <use style="fill:#87ceeb;" x="318.331692" xlink:href="#mf8fe257165" y="206.552832"/>
     <use style="fill:#87ceeb;" x="352.138447" xlink:href="#mf8fe257165" y="67.763767"/>
     <use style="fill:#87ceeb;" x="450.309739" xlink:href="#mf8fe257165" y="57.759544"/>
     <use style="fill:#87ceeb;" x="462.552841" xlink:href="#mf8fe257165" y="24.06846"/>
     <use style="fill:#87ceeb;" x="351.140918" xlink:href="#mf8fe257165" y="128.499237"/>
     <use style="fill:#87ceeb;" x="349.027936" xlink:href="#mf8fe257165" y="204.099391"/>
     <use style="fill:#87ceeb;" x="387.867587" xlink:href="#mf8fe257165" y="146.922194"/>
     <use style="fill:#87ceeb;" x="375.739915" xlink:href="#mf8fe257165" y="135.47792"/>
     <use style="fill:#87ceeb;" x="391.137887" xlink:href="#mf8fe257165" y="100.948728"/>
     <use style="fill:#87ceeb;" x="221.65161" xlink:href="#mf8fe257165" y="44.468816"/>
     <use style="fill:#87ceeb;" x="179.709345" xlink:href="#mf8fe257165" y="21.701879"/>
     <use style="fill:#87ceeb;" x="188.368625" xlink:href="#mf8fe257165" y="21.534019"/>
     <use style="fill:#87ceeb;" x="116.834395" xlink:href="#mf8fe257165" y="185.802703"/>
     <use style="fill:#87ceeb;" x="64.770476" xlink:href="#mf8fe257165" y="216.486413"/>
     <use style="fill:#87ceeb;" x="133.816361" xlink:href="#mf8fe257165" y="188.744578"/>
     <use style="fill:#87ceeb;" x="137.472675" xlink:href="#mf8fe257165" y="183.873629"/>
     <use style="fill:#87ceeb;" x="216.719516" xlink:href="#mf8fe257165" y="84.520088"/>
     <use style="fill:#87ceeb;" x="218.579549" xlink:href="#mf8fe257165" y="72.704193"/>
     <use style="fill:#87ceeb;" x="232.143193" xlink:href="#mf8fe257165" y="76.419019"/>
     <use style="fill:#87ceeb;" x="341.722219" xlink:href="#mf8fe257165" y="25.988948"/>
     <use style="fill:#87ceeb;" x="319.840872" xlink:href="#mf8fe257165" y="20.79"/>
     <use style="fill:#87ceeb;" x="458.789762" xlink:href="#mf8fe257165" y="45.582782"/>
     <use style="fill:#87ceeb;" x="421.537976" xlink:href="#mf8fe257165" y="114.256147"/>
     <use style="fill:#87ceeb;" x="413.611179" xlink:href="#mf8fe257165" y="135.085879"/>
     <use style="fill:#87ceeb;" x="311.409444" xlink:href="#mf8fe257165" y="169.333094"/>
     <use style="fill:#87ceeb;" x="248.891754" xlink:href="#mf8fe257165" y="259.080661"/>
     <use style="fill:#87ceeb;" x="205.573647" xlink:href="#mf8fe257165" y="257.322263"/>
     <use style="fill:#87ceeb;" x="204.693048" xlink:href="#mf8fe257165" y="230.491418"/>
     <use style="fill:#87ceeb;" x="158.536986" xlink:href="#mf8fe257165" y="181.084491"/>
     <use style="fill:#87ceeb;" x="80.561385" xlink:href="#mf8fe257165" y="43.011426"/>
     <use style="fill:#87ceeb;" x="73.164407" xlink:href="#mf8fe257165" y="52.177047"/>
     <use style="fill:#87ceeb;" x="73.246086" xlink:href="#mf8fe257165" y="30.635703"/>
     <use style="fill:#87ceeb;" x="117.46105" xlink:href="#mf8fe257165" y="32.75082"/>
     <use style="fill:#87ceeb;" x="170.032096" xlink:href="#mf8fe257165" y="40.94695"/>
     <use style="fill:#87ceeb;" x="188.357873" xlink:href="#mf8fe257165" y="55.152003"/>
     <use style="fill:#87ceeb;" x="242.37184" xlink:href="#mf8fe257165" y="169.983861"/>
     <use style="fill:#87ceeb;" x="383.353758" xlink:href="#mf8fe257165" y="276.443115"/>
     <use style="fill:#87ceeb;" x="449.67823" xlink:href="#mf8fe257165" y="257.704586"/>
     <use style="fill:#87ceeb;" x="354.919027" xlink:href="#mf8fe257165" y="263.49122"/>
     <use style="fill:#87ceeb;" x="320.196449" xlink:href="#mf8fe257165" y="257.054251"/>
     <use style="fill:#87ceeb;" x="62.840706" xlink:href="#mf8fe257165" y="127.056465"/>
     <use style="fill:#87ceeb;" x="58.497579" xlink:href="#mf8fe257165" y="67.056293"/>
     <use style="fill:#87ceeb;" x="56.734659" xlink:href="#mf8fe257165" y="102.282275"/>
     <use style="fill:#87ceeb;" x="82.637542" xlink:href="#mf8fe257165" y="95.531645"/>
     <use style="fill:#87ceeb;" x="243.719472" xlink:href="#mf8fe257165" y="121.999584"/>
     <use style="fill:#87ceeb;" x="305.670578" xlink:href="#mf8fe257165" y="139.360635"/>
     <use style="fill:#87ceeb;" x="307.687975" xlink:href="#mf8fe257165" y="146.999753"/>
     <use style="fill:#87ceeb;" x="95.35757" xlink:href="#mf8fe257165" y="89.870377"/>
     <use style="fill:#87ceeb;" x="92.478434" xlink:href="#mf8fe257165" y="84.428622"/>
     <use style="fill:#87ceeb;" x="59.867731" xlink:href="#mf8fe257165" y="54.558546"/>
     <use style="fill:#87ceeb;" x="65.495231" xlink:href="#mf8fe257165" y="137.171559"/>
     <use style="fill:#87ceeb;" x="302.511051" xlink:href="#mf8fe257165" y="173.263015"/>
     <use style="fill:#87ceeb;" x="239.494263" xlink:href="#mf8fe257165" y="172.431614"/>
     <use style="fill:#87ceeb;" x="242.329256" xlink:href="#mf8fe257165" y="169.162294"/>
     <use style="fill:#87ceeb;" x="244.269397" xlink:href="#mf8fe257165" y="130.675946"/>
     <use style="fill:#87ceeb;" x="374.73344" xlink:href="#mf8fe257165" y="26.539951"/>
     <use style="fill:#87ceeb;" x="396.741994" xlink:href="#mf8fe257165" y="23.51578"/>
     <use style="fill:#87ceeb;" x="382.852652" xlink:href="#mf8fe257165" y="61.360488"/>
     <use style="fill:#87ceeb;" x="330.85842" xlink:href="#mf8fe257165" y="246.828232"/>
     <use style="fill:#87ceeb;" x="333.026064" xlink:href="#mf8fe257165" y="267.140581"/>
     <use style="fill:#87ceeb;" x="411.257967" xlink:href="#mf8fe257165" y="292.59"/>
     <use style="fill:#87ceeb;" x="418.461834" xlink:href="#mf8fe257165" y="291.840944"/>
     <use style="fill:#87ceeb;" x="222.204976" xlink:href="#mf8fe257165" y="285.19256"/>
     <use style="fill:#87ceeb;" x="76.579683" xlink:href="#mf8fe257165" y="271.513395"/>
     <use style="fill:#87ceeb;" x="148.257669" xlink:href="#mf8fe257165" y="261.682202"/>
     <use style="fill:#87ceeb;" x="246.265904" xlink:href="#mf8fe257165" y="287.707547"/>
    </g>
   </g>
   <g id="patch_3">
    <path d="M 36.44375 306.18 
L 36.44375 7.2 
" style="fill:none;"/>
   </g>
   <g id="patch_4">
    <path d="M 482.84375 306.18 
L 482.84375 7.2 
" style="fill:none;"/>
   </g>
   <g id="patch_5">
    <path d="M 36.44375 306.18 
L 482.84375 306.18 
" style="fill:none;"/>
   </g>
   <g id="patch_6">
    <path d="M 36.44375 7.2 
L 482.84375 7.2 
" style="fill:none;"/>
   </g>
  </g>
 </g>
 <defs>
  <clipPath id="p30d965d52a">
   <rect height="298.98" width="446.4" x="36.44375" y="7.2"/>
  </clipPath>
 </defs>
</svg>
