<?xml version="1.0" encoding="utf-8" standalone="no"?>
<!DOCTYPE svg PUBLIC "-//W3C//DTD SVG 1.1//EN"
  "http://www.w3.org/Graphics/SVG/1.1/DTD/svg11.dtd">
<!-- Created with matplotlib (https://matplotlib.org/) -->
<svg height="329.525312pt" version="1.1" viewBox="0 0 495.604687 329.525312" width="495.604687pt" xmlns="http://www.w3.org/2000/svg" xmlns:xlink="http://www.w3.org/1999/xlink">
 <defs>
  <style type="text/css">
*{stroke-linecap:butt;stroke-linejoin:round;}
  </style>
 </defs>
 <g id="figure_1">
  <g id="patch_1">
   <path d="M 0 329.525312 
L 495.604687 329.525312 
L 495.604687 0 
L 0 0 
z
" style="fill:#ffffff;"/>
  </g>
  <g id="axes_1">
   <g id="patch_2">
    <path d="M 42.004688 306.18 
L 488.404687 306.18 
L 488.404687 7.2 
L 42.004688 7.2 
z
" style="fill:#eaeaf2;"/>
   </g>
   <g id="matplotlib.axis_1">
    <g id="xtick_1">
     <g id="line2d_1">
      <path clip-path="url(#p49b64519d2)" d="M 62.295597 306.18 
L 62.295597 7.2 
" style="fill:none;stroke:#ffffff;stroke-linecap:round;"/>
     </g>
     <g id="line2d_2"/>
     <g id="text_1">
      <!-- 0 -->
      <defs>
       <path d="M 4.15625 35.296875 
Q 4.15625 48 6.765625 55.734375 
Q 9.375 63.484375 14.515625 67.671875 
Q 19.671875 71.875 27.484375 71.875 
Q 33.25 71.875 37.59375 69.546875 
Q 41.9375 67.234375 44.765625 62.859375 
Q 47.609375 58.5 49.21875 52.21875 
Q 50.828125 45.953125 50.828125 35.296875 
Q 50.828125 22.703125 48.234375 14.96875 
Q 45.65625 7.234375 40.5 3 
Q 35.359375 -1.21875 27.484375 -1.21875 
Q 17.140625 -1.21875 11.234375 6.203125 
Q 4.15625 15.140625 4.15625 35.296875 
z
M 13.1875 35.296875 
Q 13.1875 17.671875 17.3125 11.828125 
Q 21.4375 6 27.484375 6 
Q 33.546875 6 37.671875 11.859375 
Q 41.796875 17.71875 41.796875 35.296875 
Q 41.796875 52.984375 37.671875 58.78125 
Q 33.546875 64.59375 27.390625 64.59375 
Q 21.34375 64.59375 17.71875 59.46875 
Q 13.1875 52.9375 13.1875 35.296875 
z
" id="ArialMT-48"/>
      </defs>
      <g style="fill:#262626;" transform="translate(59.515128 320.337812)scale(0.1 -0.1)">
       <use xlink:href="#ArialMT-48"/>
      </g>
     </g>
    </g>
    <g id="xtick_2">
     <g id="line2d_3">
      <path clip-path="url(#p49b64519d2)" d="M 143.540478 306.18 
L 143.540478 7.2 
" style="fill:none;stroke:#ffffff;stroke-linecap:round;"/>
     </g>
     <g id="line2d_4"/>
     <g id="text_2">
      <!-- 200 -->
      <defs>
       <path d="M 50.34375 8.453125 
L 50.34375 0 
L 3.03125 0 
Q 2.9375 3.171875 4.046875 6.109375 
Q 5.859375 10.9375 9.828125 15.625 
Q 13.8125 20.3125 21.34375 26.46875 
Q 33.015625 36.03125 37.109375 41.625 
Q 41.21875 47.21875 41.21875 52.203125 
Q 41.21875 57.421875 37.46875 61 
Q 33.734375 64.59375 27.734375 64.59375 
Q 21.390625 64.59375 17.578125 60.78125 
Q 13.765625 56.984375 13.71875 50.25 
L 4.6875 51.171875 
Q 5.609375 61.28125 11.65625 66.578125 
Q 17.71875 71.875 27.9375 71.875 
Q 38.234375 71.875 44.234375 66.15625 
Q 50.25 60.453125 50.25 52 
Q 50.25 47.703125 48.484375 43.546875 
Q 46.734375 39.40625 42.65625 34.8125 
Q 38.578125 30.21875 29.109375 22.21875 
Q 21.1875 15.578125 18.9375 13.203125 
Q 16.703125 10.84375 15.234375 8.453125 
z
" id="ArialMT-50"/>
      </defs>
      <g style="fill:#262626;" transform="translate(135.199072 320.337812)scale(0.1 -0.1)">
       <use xlink:href="#ArialMT-50"/>
       <use x="55.615234" xlink:href="#ArialMT-48"/>
       <use x="111.230469" xlink:href="#ArialMT-48"/>
      </g>
     </g>
    </g>
    <g id="xtick_3">
     <g id="line2d_5">
      <path clip-path="url(#p49b64519d2)" d="M 224.785359 306.18 
L 224.785359 7.2 
" style="fill:none;stroke:#ffffff;stroke-linecap:round;"/>
     </g>
     <g id="line2d_6"/>
     <g id="text_3">
      <!-- 400 -->
      <defs>
       <path d="M 32.328125 0 
L 32.328125 17.140625 
L 1.265625 17.140625 
L 1.265625 25.203125 
L 33.9375 71.578125 
L 41.109375 71.578125 
L 41.109375 25.203125 
L 50.78125 25.203125 
L 50.78125 17.140625 
L 41.109375 17.140625 
L 41.109375 0 
z
M 32.328125 25.203125 
L 32.328125 57.46875 
L 9.90625 25.203125 
z
" id="ArialMT-52"/>
      </defs>
      <g style="fill:#262626;" transform="translate(216.443953 320.337812)scale(0.1 -0.1)">
       <use xlink:href="#ArialMT-52"/>
       <use x="55.615234" xlink:href="#ArialMT-48"/>
       <use x="111.230469" xlink:href="#ArialMT-48"/>
      </g>
     </g>
    </g>
    <g id="xtick_4">
     <g id="line2d_7">
      <path clip-path="url(#p49b64519d2)" d="M 306.03024 306.18 
L 306.03024 7.2 
" style="fill:none;stroke:#ffffff;stroke-linecap:round;"/>
     </g>
     <g id="line2d_8"/>
     <g id="text_4">
      <!-- 600 -->
      <defs>
       <path d="M 49.75 54.046875 
L 41.015625 53.375 
Q 39.84375 58.546875 37.703125 60.890625 
Q 34.125 64.65625 28.90625 64.65625 
Q 24.703125 64.65625 21.53125 62.3125 
Q 17.390625 59.28125 14.984375 53.46875 
Q 12.59375 47.65625 12.5 36.921875 
Q 15.671875 41.75 20.265625 44.09375 
Q 24.859375 46.4375 29.890625 46.4375 
Q 38.671875 46.4375 44.84375 39.96875 
Q 51.03125 33.5 51.03125 23.25 
Q 51.03125 16.5 48.125 10.71875 
Q 45.21875 4.9375 40.140625 1.859375 
Q 35.0625 -1.21875 28.609375 -1.21875 
Q 17.625 -1.21875 10.6875 6.859375 
Q 3.765625 14.9375 3.765625 33.5 
Q 3.765625 54.25 11.421875 63.671875 
Q 18.109375 71.875 29.4375 71.875 
Q 37.890625 71.875 43.28125 67.140625 
Q 48.6875 62.40625 49.75 54.046875 
z
M 13.875 23.1875 
Q 13.875 18.65625 15.796875 14.5 
Q 17.71875 10.359375 21.1875 8.171875 
Q 24.65625 6 28.46875 6 
Q 34.03125 6 38.03125 10.484375 
Q 42.046875 14.984375 42.046875 22.703125 
Q 42.046875 30.125 38.078125 34.390625 
Q 34.125 38.671875 28.125 38.671875 
Q 22.171875 38.671875 18.015625 34.390625 
Q 13.875 30.125 13.875 23.1875 
z
" id="ArialMT-54"/>
      </defs>
      <g style="fill:#262626;" transform="translate(297.688834 320.337812)scale(0.1 -0.1)">
       <use xlink:href="#ArialMT-54"/>
       <use x="55.615234" xlink:href="#ArialMT-48"/>
       <use x="111.230469" xlink:href="#ArialMT-48"/>
      </g>
     </g>
    </g>
    <g id="xtick_5">
     <g id="line2d_9">
      <path clip-path="url(#p49b64519d2)" d="M 387.275122 306.18 
L 387.275122 7.2 
" style="fill:none;stroke:#ffffff;stroke-linecap:round;"/>
     </g>
     <g id="line2d_10"/>
     <g id="text_5">
      <!-- 800 -->
      <defs>
       <path d="M 17.671875 38.8125 
Q 12.203125 40.828125 9.5625 44.53125 
Q 6.9375 48.25 6.9375 53.421875 
Q 6.9375 61.234375 12.546875 66.546875 
Q 18.171875 71.875 27.484375 71.875 
Q 36.859375 71.875 42.578125 66.421875 
Q 48.296875 60.984375 48.296875 53.171875 
Q 48.296875 48.1875 45.671875 44.5 
Q 43.0625 40.828125 37.75 38.8125 
Q 44.34375 36.671875 47.78125 31.875 
Q 51.21875 27.09375 51.21875 20.453125 
Q 51.21875 11.28125 44.71875 5.03125 
Q 38.234375 -1.21875 27.640625 -1.21875 
Q 17.046875 -1.21875 10.546875 5.046875 
Q 4.046875 11.328125 4.046875 20.703125 
Q 4.046875 27.6875 7.59375 32.390625 
Q 11.140625 37.109375 17.671875 38.8125 
z
M 15.921875 53.71875 
Q 15.921875 48.640625 19.1875 45.40625 
Q 22.46875 42.1875 27.6875 42.1875 
Q 32.765625 42.1875 36.015625 45.375 
Q 39.265625 48.578125 39.265625 53.21875 
Q 39.265625 58.0625 35.90625 61.359375 
Q 32.5625 64.65625 27.59375 64.65625 
Q 22.5625 64.65625 19.234375 61.421875 
Q 15.921875 58.203125 15.921875 53.71875 
z
M 13.09375 20.65625 
Q 13.09375 16.890625 14.875 13.375 
Q 16.65625 9.859375 20.171875 7.921875 
Q 23.6875 6 27.734375 6 
Q 34.03125 6 38.125 10.046875 
Q 42.234375 14.109375 42.234375 20.359375 
Q 42.234375 26.703125 38.015625 30.859375 
Q 33.796875 35.015625 27.4375 35.015625 
Q 21.234375 35.015625 17.15625 30.90625 
Q 13.09375 26.8125 13.09375 20.65625 
z
" id="ArialMT-56"/>
      </defs>
      <g style="fill:#262626;" transform="translate(378.933715 320.337812)scale(0.1 -0.1)">
       <use xlink:href="#ArialMT-56"/>
       <use x="55.615234" xlink:href="#ArialMT-48"/>
       <use x="111.230469" xlink:href="#ArialMT-48"/>
      </g>
     </g>
    </g>
    <g id="xtick_6">
     <g id="line2d_11">
      <path clip-path="url(#p49b64519d2)" d="M 468.520003 306.18 
L 468.520003 7.2 
" style="fill:none;stroke:#ffffff;stroke-linecap:round;"/>
     </g>
     <g id="line2d_12"/>
     <g id="text_6">
      <!-- 1000 -->
      <defs>
       <path d="M 37.25 0 
L 28.46875 0 
L 28.46875 56 
Q 25.296875 52.984375 20.140625 49.953125 
Q 14.984375 46.921875 10.890625 45.40625 
L 10.890625 53.90625 
Q 18.265625 57.375 23.78125 62.296875 
Q 29.296875 67.234375 31.59375 71.875 
L 37.25 71.875 
z
" id="ArialMT-49"/>
      </defs>
      <g style="fill:#262626;" transform="translate(457.398128 320.337812)scale(0.1 -0.1)">
       <use xlink:href="#ArialMT-49"/>
       <use x="55.615234" xlink:href="#ArialMT-48"/>
       <use x="111.230469" xlink:href="#ArialMT-48"/>
       <use x="166.845703" xlink:href="#ArialMT-48"/>
      </g>
     </g>
    </g>
   </g>
   <g id="matplotlib.axis_2">
    <g id="ytick_1">
     <g id="line2d_13">
      <path clip-path="url(#p49b64519d2)" d="M 42.004688 266.246947 
L 488.404687 266.246947 
" style="fill:none;stroke:#ffffff;stroke-linecap:round;"/>
     </g>
     <g id="line2d_14"/>
     <g id="text_7">
      <!-- 25000 -->
      <defs>
       <path d="M 4.15625 18.75 
L 13.375 19.53125 
Q 14.40625 12.796875 18.140625 9.390625 
Q 21.875 6 27.15625 6 
Q 33.5 6 37.890625 10.78125 
Q 42.28125 15.578125 42.28125 23.484375 
Q 42.28125 31 38.0625 35.34375 
Q 33.84375 39.703125 27 39.703125 
Q 22.75 39.703125 19.328125 37.765625 
Q 15.921875 35.84375 13.96875 32.765625 
L 5.71875 33.84375 
L 12.640625 70.609375 
L 48.25 70.609375 
L 48.25 62.203125 
L 19.671875 62.203125 
L 15.828125 42.96875 
Q 22.265625 47.46875 29.34375 47.46875 
Q 38.71875 47.46875 45.15625 40.96875 
Q 51.609375 34.46875 51.609375 24.265625 
Q 51.609375 14.546875 45.953125 7.46875 
Q 39.0625 -1.21875 27.15625 -1.21875 
Q 17.390625 -1.21875 11.203125 4.25 
Q 5.03125 9.71875 4.15625 18.75 
z
" id="ArialMT-53"/>
      </defs>
      <g style="fill:#262626;" transform="translate(7.2 269.825853)scale(0.1 -0.1)">
       <use xlink:href="#ArialMT-50"/>
       <use x="55.615234" xlink:href="#ArialMT-53"/>
       <use x="111.230469" xlink:href="#ArialMT-48"/>
       <use x="166.845703" xlink:href="#ArialMT-48"/>
       <use x="222.460938" xlink:href="#ArialMT-48"/>
      </g>
     </g>
    </g>
    <g id="ytick_2">
     <g id="line2d_15">
      <path clip-path="url(#p49b64519d2)" d="M 42.004688 218.257791 
L 488.404687 218.257791 
" style="fill:none;stroke:#ffffff;stroke-linecap:round;"/>
     </g>
     <g id="line2d_16"/>
     <g id="text_8">
      <!-- 30000 -->
      <defs>
       <path d="M 4.203125 18.890625 
L 12.984375 20.0625 
Q 14.5 12.59375 18.140625 9.296875 
Q 21.78125 6 27 6 
Q 33.203125 6 37.46875 10.296875 
Q 41.75 14.59375 41.75 20.953125 
Q 41.75 27 37.796875 30.921875 
Q 33.84375 34.859375 27.734375 34.859375 
Q 25.25 34.859375 21.53125 33.890625 
L 22.515625 41.609375 
Q 23.390625 41.5 23.921875 41.5 
Q 29.546875 41.5 34.03125 44.421875 
Q 38.53125 47.359375 38.53125 53.46875 
Q 38.53125 58.296875 35.25 61.46875 
Q 31.984375 64.65625 26.8125 64.65625 
Q 21.6875 64.65625 18.265625 61.421875 
Q 14.84375 58.203125 13.875 51.765625 
L 5.078125 53.328125 
Q 6.6875 62.15625 12.390625 67.015625 
Q 18.109375 71.875 26.609375 71.875 
Q 32.46875 71.875 37.390625 69.359375 
Q 42.328125 66.84375 44.9375 62.5 
Q 47.5625 58.15625 47.5625 53.265625 
Q 47.5625 48.640625 45.0625 44.828125 
Q 42.578125 41.015625 37.703125 38.765625 
Q 44.046875 37.3125 47.5625 32.6875 
Q 51.078125 28.078125 51.078125 21.140625 
Q 51.078125 11.765625 44.234375 5.25 
Q 37.40625 -1.265625 26.953125 -1.265625 
Q 17.53125 -1.265625 11.296875 4.34375 
Q 5.078125 9.96875 4.203125 18.890625 
z
" id="ArialMT-51"/>
      </defs>
      <g style="fill:#262626;" transform="translate(7.2 221.836697)scale(0.1 -0.1)">
       <use xlink:href="#ArialMT-51"/>
       <use x="55.615234" xlink:href="#ArialMT-48"/>
       <use x="111.230469" xlink:href="#ArialMT-48"/>
       <use x="166.845703" xlink:href="#ArialMT-48"/>
       <use x="222.460938" xlink:href="#ArialMT-48"/>
      </g>
     </g>
    </g>
    <g id="ytick_3">
     <g id="line2d_17">
      <path clip-path="url(#p49b64519d2)" d="M 42.004688 170.268635 
L 488.404687 170.268635 
" style="fill:none;stroke:#ffffff;stroke-linecap:round;"/>
     </g>
     <g id="line2d_18"/>
     <g id="text_9">
      <!-- 35000 -->
      <g style="fill:#262626;" transform="translate(7.2 173.847541)scale(0.1 -0.1)">
       <use xlink:href="#ArialMT-51"/>
       <use x="55.615234" xlink:href="#ArialMT-53"/>
       <use x="111.230469" xlink:href="#ArialMT-48"/>
       <use x="166.845703" xlink:href="#ArialMT-48"/>
       <use x="222.460938" xlink:href="#ArialMT-48"/>
      </g>
     </g>
    </g>
    <g id="ytick_4">
     <g id="line2d_19">
      <path clip-path="url(#p49b64519d2)" d="M 42.004688 122.279478 
L 488.404687 122.279478 
" style="fill:none;stroke:#ffffff;stroke-linecap:round;"/>
     </g>
     <g id="line2d_20"/>
     <g id="text_10">
      <!-- 40000 -->
      <g style="fill:#262626;" transform="translate(7.2 125.858385)scale(0.1 -0.1)">
       <use xlink:href="#ArialMT-52"/>
       <use x="55.615234" xlink:href="#ArialMT-48"/>
       <use x="111.230469" xlink:href="#ArialMT-48"/>
       <use x="166.845703" xlink:href="#ArialMT-48"/>
       <use x="222.460938" xlink:href="#ArialMT-48"/>
      </g>
     </g>
    </g>
    <g id="ytick_5">
     <g id="line2d_21">
      <path clip-path="url(#p49b64519d2)" d="M 42.004688 74.290322 
L 488.404687 74.290322 
" style="fill:none;stroke:#ffffff;stroke-linecap:round;"/>
     </g>
     <g id="line2d_22"/>
     <g id="text_11">
      <!-- 45000 -->
      <g style="fill:#262626;" transform="translate(7.2 77.869228)scale(0.1 -0.1)">
       <use xlink:href="#ArialMT-52"/>
       <use x="55.615234" xlink:href="#ArialMT-53"/>
       <use x="111.230469" xlink:href="#ArialMT-48"/>
       <use x="166.845703" xlink:href="#ArialMT-48"/>
       <use x="222.460938" xlink:href="#ArialMT-48"/>
      </g>
     </g>
    </g>
    <g id="ytick_6">
     <g id="line2d_23">
      <path clip-path="url(#p49b64519d2)" d="M 42.004688 26.301166 
L 488.404687 26.301166 
" style="fill:none;stroke:#ffffff;stroke-linecap:round;"/>
     </g>
     <g id="line2d_24"/>
     <g id="text_12">
      <!-- 50000 -->
      <g style="fill:#262626;" transform="translate(7.2 29.880072)scale(0.1 -0.1)">
       <use xlink:href="#ArialMT-53"/>
       <use x="55.615234" xlink:href="#ArialMT-48"/>
       <use x="111.230469" xlink:href="#ArialMT-48"/>
       <use x="166.845703" xlink:href="#ArialMT-48"/>
       <use x="222.460938" xlink:href="#ArialMT-48"/>
      </g>
     </g>
    </g>
   </g>
   <g id="line2d_25">
    <path clip-path="url(#p49b64519d2)" d="M 62.295597 20.79 
L 62.701821 25.581316 
L 63.108045 27.003352 
L 63.51427 27.003352 
L 63.920494 33.165254 
L 64.732943 33.165254 
L 65.139167 34.962498 
L 65.545392 37.79841 
L 65.951616 39.187462 
L 66.357841 39.187462 
L 66.764065 40.127128 
L 67.170289 40.356839 
L 67.576514 49.592426 
L 68.795187 49.592426 
L 69.201411 53.802491 
L 69.607636 53.802491 
L 70.01386 64.136555 
L 70.826309 64.136555 
L 71.232534 68.554697 
L 71.638758 68.554697 
L 72.044982 70.595062 
L 72.451207 76.418887 
L 72.857431 76.418887 
L 73.263656 80.732313 
L 74.076104 80.732313 
L 74.482329 82.788741 
L 74.888553 87.080181 
L 75.294778 87.080181 
L 75.701002 88.508387 
L 76.107226 99.528617 
L 76.513451 100.673526 
L 77.732124 100.673526 
L 78.138348 103.518313 
L 78.950797 103.518313 
L 79.357022 105.162871 
L 80.981919 105.162871 
L 81.388144 105.372659 
L 81.794368 110.195579 
L 82.200592 110.195579 
L 82.606817 112.032942 
L 83.419266 112.032942 
L 83.82549 116.119628 
L 84.637939 116.119628 
L 85.450388 123.122085 
L 85.856612 123.122085 
L 86.262837 123.891554 
L 86.669061 123.891554 
L 87.075285 128.643389 
L 88.700183 128.643389 
L 89.106407 133.026571 
L 89.512632 133.786091 
L 89.918856 138.319145 
L 90.325081 138.438123 
L 90.731305 139.850522 
L 92.356203 139.850522 
L 92.762427 142.262858 
L 93.168651 142.571936 
L 94.793549 142.571936 
L 95.199773 145.054292 
L 99.262018 145.054292 
L 99.668242 149.28359 
L 100.074466 150.912297 
L 103.730486 150.912297 
L 104.13671 156.709741 
L 105.761608 156.788989 
L 106.167832 162.563792 
L 108.198954 162.563792 
L 108.605179 166.521643 
L 111.44875 166.521643 
L 111.854974 167.423197 
L 112.261199 167.558525 
L 112.667423 169.640161 
L 113.886096 169.640161 
L 114.292321 169.99177 
L 116.323443 169.99177 
L 116.729667 179.500558 
L 117.135891 179.501727 
L 117.542116 180.959293 
L 117.94834 180.959293 
L 118.354565 187.287332 
L 121.60436 187.287332 
L 122.010584 188.271088 
L 123.635482 188.271088 
L 124.041706 188.464379 
L 124.447931 189.404426 
L 124.854155 189.507164 
L 125.26038 194.514436 
L 126.885277 194.514436 
L 127.291502 198.418064 
L 129.322624 198.418064 
L 129.728848 199.44248 
L 130.541297 199.44248 
L 130.947521 200.172377 
L 132.978643 200.172377 
L 133.384868 201.898917 
L 133.791092 201.898917 
L 134.197316 202.857898 
L 134.603541 203.056341 
L 135.009765 207.134885 
L 135.41599 207.529397 
L 135.822214 207.529397 
L 136.228439 212.890206 
L 136.634663 212.890206 
L 137.040887 215.924421 
L 137.447112 216.794881 
L 138.259561 216.794881 
L 139.072009 218.262976 
L 139.478234 218.262976 
L 139.884458 221.520426 
L 141.91558 221.520426 
L 142.321805 223.422163 
L 146.384049 223.422163 
L 146.790273 225.246328 
L 150.040068 225.246328 
L 150.446293 225.787208 
L 151.258742 225.787208 
L 151.664966 227.367488 
L 152.07119 234.309731 
L 152.883639 234.309731 
L 153.289864 235.813342 
L 158.164556 235.813342 
L 158.570781 239.461042 
L 160.195678 239.497108 
L 160.601903 242.103723 
L 162.633025 242.103723 
L 163.039249 242.446878 
L 174.413533 242.446878 
L 174.819757 243.427417 
L 187.412714 243.427417 
L 187.818938 243.722598 
L 188.225163 243.722598 
L 188.631387 245.150472 
L 189.443836 245.736534 
L 191.881182 245.736534 
L 192.287407 246.519842 
L 193.912304 246.519842 
L 194.318529 247.408319 
L 197.162099 247.408319 
L 197.568324 249.991301 
L 201.224344 249.991301 
L 201.630568 252.648888 
L 202.036792 252.648888 
L 202.443017 253.611824 
L 204.880363 253.611824 
L 205.286588 257.16817 
L 205.692812 257.725869 
L 221.941788 257.725869 
L 222.348013 258.252352 
L 227.222706 258.252352 
L 227.62893 258.555679 
L 231.28495 258.555679 
L 231.691174 259.304879 
L 235.753418 259.304879 
L 236.159642 259.702643 
L 236.565867 259.702643 
L 236.972091 263.838496 
L 241.846784 263.838496 
L 242.253009 264.146085 
L 249.971272 264.146085 
L 250.377497 265.066484 
L 250.783721 265.196805 
L 254.845965 265.196805 
L 255.25219 266.249959 
L 255.658414 266.414649 
L 266.220249 266.414649 
L 267.032697 270.757147 
L 274.344737 270.757147 
L 274.750961 271.146884 
L 276.375859 271.146884 
L 276.782083 273.123011 
L 281.656776 273.123011 
L 282.063 274.140881 
L 297.905752 274.140881 
L 298.311977 274.779441 
L 299.936874 274.779441 
L 300.343099 275.881454 
L 306.03024 275.881454 
L 306.436465 276.38423 
L 308.873811 276.38423 
L 309.280036 276.591593 
L 315.779626 276.591593 
L 316.18585 277.561212 
L 334.465949 277.561212 
L 334.872173 278.141429 
L 338.934417 278.141429 
L 339.340642 278.268033 
L 348.277579 278.268033 
L 348.683803 279.885776 
L 358.026964 279.885776 
L 358.433189 281.685724 
L 364.12033 281.685724 
L 364.526555 282.136153 
L 366.557677 282.136153 
L 366.963901 284.263816 
L 370.213697 284.263816 
L 370.619921 284.7758 
L 372.651043 284.7758 
L 373.057267 285.436747 
L 375.088389 285.436747 
L 375.494614 285.667998 
L 382.400429 285.667998 
L 382.806653 286.498903 
L 383.212878 286.632191 
L 394.587161 286.632191 
L 394.993385 286.863429 
L 395.39961 286.863429 
L 395.805834 287.449038 
L 398.243181 287.449038 
L 398.649405 287.920905 
L 409.617464 287.920905 
L 410.023688 288.18318 
L 415.304606 288.18318 
L 415.71083 288.340768 
L 419.773074 288.340768 
L 420.179298 289.420825 
L 433.990928 289.420825 
L 434.397153 290.417499 
L 457.551944 290.417499 
L 457.958168 291.270975 
L 464.457759 291.270975 
L 464.863983 292.59 
L 468.113778 292.59 
L 468.113778 292.59 
" style="fill:none;stroke:#87ceeb;stroke-linecap:round;stroke-width:1.75;"/>
   </g>
   <g id="patch_3">
    <path d="M 42.004688 306.18 
L 42.004688 7.2 
" style="fill:none;"/>
   </g>
   <g id="patch_4">
    <path d="M 488.404687 306.18 
L 488.404687 7.2 
" style="fill:none;"/>
   </g>
   <g id="patch_5">
    <path d="M 42.004688 306.18 
L 488.404687 306.18 
" style="fill:none;"/>
   </g>
   <g id="patch_6">
    <path d="M 42.004688 7.2 
L 488.404687 7.2 
" style="fill:none;"/>
   </g>
  </g>
 </g>
 <defs>
  <clipPath id="p49b64519d2">
   <rect height="298.98" width="446.4" x="42.004688" y="7.2"/>
  </clipPath>
 </defs>
</svg>
