<?xml version="1.0" encoding="utf-8" standalone="no"?>
<!DOCTYPE svg PUBLIC "-//W3C//DTD SVG 1.1//EN"
  "http://www.w3.org/Graphics/SVG/1.1/DTD/svg11.dtd">
<!-- Created with matplotlib (https://matplotlib.org/) -->
<svg height="329.525312pt" version="1.1" viewBox="0 0 490.04375 329.525312" width="490.04375pt" xmlns="http://www.w3.org/2000/svg" xmlns:xlink="http://www.w3.org/1999/xlink">
 <defs>
  <style type="text/css">
*{stroke-linecap:butt;stroke-linejoin:round;}
  </style>
 </defs>
 <g id="figure_1">
  <g id="patch_1">
   <path d="M 0 329.525312 
L 490.04375 329.525312 
L 490.04375 0 
L 0 0 
z
" style="fill:#ffffff;"/>
  </g>
  <g id="axes_1">
   <g id="patch_2">
    <path d="M 36.44375 306.18 
L 482.84375 306.18 
L 482.84375 7.2 
L 36.44375 7.2 
z
" style="fill:#eaeaf2;"/>
   </g>
   <g id="matplotlib.axis_1">
    <g id="xtick_1">
     <g id="line2d_1">
      <path clip-path="url(#pd8f65a06e3)" d="M 56.734659 306.18 
L 56.734659 7.2 
" style="fill:none;stroke:#ffffff;stroke-linecap:round;"/>
     </g>
     <g id="line2d_2"/>
     <g id="text_1">
      <!-- 0 -->
      <defs>
       <path d="M 4.15625 35.296875 
Q 4.15625 48 6.765625 55.734375 
Q 9.375 63.484375 14.515625 67.671875 
Q 19.671875 71.875 27.484375 71.875 
Q 33.25 71.875 37.59375 69.546875 
Q 41.9375 67.234375 44.765625 62.859375 
Q 47.609375 58.5 49.21875 52.21875 
Q 50.828125 45.953125 50.828125 35.296875 
Q 50.828125 22.703125 48.234375 14.96875 
Q 45.65625 7.234375 40.5 3 
Q 35.359375 -1.21875 27.484375 -1.21875 
Q 17.140625 -1.21875 11.234375 6.203125 
Q 4.15625 15.140625 4.15625 35.296875 
z
M 13.1875 35.296875 
Q 13.1875 17.671875 17.3125 11.828125 
Q 21.4375 6 27.484375 6 
Q 33.546875 6 37.671875 11.859375 
Q 41.796875 17.71875 41.796875 35.296875 
Q 41.796875 52.984375 37.671875 58.78125 
Q 33.546875 64.59375 27.390625 64.59375 
Q 21.34375 64.59375 17.71875 59.46875 
Q 13.1875 52.9375 13.1875 35.296875 
z
" id="ArialMT-48"/>
      </defs>
      <g style="fill:#262626;" transform="translate(53.95419 320.337812)scale(0.1 -0.1)">
       <use xlink:href="#ArialMT-48"/>
      </g>
     </g>
    </g>
    <g id="xtick_2">
     <g id="line2d_3">
      <path clip-path="url(#pd8f65a06e3)" d="M 124.382297 306.18 
L 124.382297 7.2 
" style="fill:none;stroke:#ffffff;stroke-linecap:round;"/>
     </g>
     <g id="line2d_4"/>
     <g id="text_2">
      <!-- 1000 -->
      <defs>
       <path d="M 37.25 0 
L 28.46875 0 
L 28.46875 56 
Q 25.296875 52.984375 20.140625 49.953125 
Q 14.984375 46.921875 10.890625 45.40625 
L 10.890625 53.90625 
Q 18.265625 57.375 23.78125 62.296875 
Q 29.296875 67.234375 31.59375 71.875 
L 37.25 71.875 
z
" id="ArialMT-49"/>
      </defs>
      <g style="fill:#262626;" transform="translate(113.260422 320.337812)scale(0.1 -0.1)">
       <use xlink:href="#ArialMT-49"/>
       <use x="55.615234" xlink:href="#ArialMT-48"/>
       <use x="111.230469" xlink:href="#ArialMT-48"/>
       <use x="166.845703" xlink:href="#ArialMT-48"/>
      </g>
     </g>
    </g>
    <g id="xtick_3">
     <g id="line2d_5">
      <path clip-path="url(#pd8f65a06e3)" d="M 192.029936 306.18 
L 192.029936 7.2 
" style="fill:none;stroke:#ffffff;stroke-linecap:round;"/>
     </g>
     <g id="line2d_6"/>
     <g id="text_3">
      <!-- 2000 -->
      <defs>
       <path d="M 50.34375 8.453125 
L 50.34375 0 
L 3.03125 0 
Q 2.9375 3.171875 4.046875 6.109375 
Q 5.859375 10.9375 9.828125 15.625 
Q 13.8125 20.3125 21.34375 26.46875 
Q 33.015625 36.03125 37.109375 41.625 
Q 41.21875 47.21875 41.21875 52.203125 
Q 41.21875 57.421875 37.46875 61 
Q 33.734375 64.59375 27.734375 64.59375 
Q 21.390625 64.59375 17.578125 60.78125 
Q 13.765625 56.984375 13.71875 50.25 
L 4.6875 51.171875 
Q 5.609375 61.28125 11.65625 66.578125 
Q 17.71875 71.875 27.9375 71.875 
Q 38.234375 71.875 44.234375 66.15625 
Q 50.25 60.453125 50.25 52 
Q 50.25 47.703125 48.484375 43.546875 
Q 46.734375 39.40625 42.65625 34.8125 
Q 38.578125 30.21875 29.109375 22.21875 
Q 21.1875 15.578125 18.9375 13.203125 
Q 16.703125 10.84375 15.234375 8.453125 
z
" id="ArialMT-50"/>
      </defs>
      <g style="fill:#262626;" transform="translate(180.908061 320.337812)scale(0.1 -0.1)">
       <use xlink:href="#ArialMT-50"/>
       <use x="55.615234" xlink:href="#ArialMT-48"/>
       <use x="111.230469" xlink:href="#ArialMT-48"/>
       <use x="166.845703" xlink:href="#ArialMT-48"/>
      </g>
     </g>
    </g>
    <g id="xtick_4">
     <g id="line2d_7">
      <path clip-path="url(#pd8f65a06e3)" d="M 259.677574 306.18 
L 259.677574 7.2 
" style="fill:none;stroke:#ffffff;stroke-linecap:round;"/>
     </g>
     <g id="line2d_8"/>
     <g id="text_4">
      <!-- 3000 -->
      <defs>
       <path d="M 4.203125 18.890625 
L 12.984375 20.0625 
Q 14.5 12.59375 18.140625 9.296875 
Q 21.78125 6 27 6 
Q 33.203125 6 37.46875 10.296875 
Q 41.75 14.59375 41.75 20.953125 
Q 41.75 27 37.796875 30.921875 
Q 33.84375 34.859375 27.734375 34.859375 
Q 25.25 34.859375 21.53125 33.890625 
L 22.515625 41.609375 
Q 23.390625 41.5 23.921875 41.5 
Q 29.546875 41.5 34.03125 44.421875 
Q 38.53125 47.359375 38.53125 53.46875 
Q 38.53125 58.296875 35.25 61.46875 
Q 31.984375 64.65625 26.8125 64.65625 
Q 21.6875 64.65625 18.265625 61.421875 
Q 14.84375 58.203125 13.875 51.765625 
L 5.078125 53.328125 
Q 6.6875 62.15625 12.390625 67.015625 
Q 18.109375 71.875 26.609375 71.875 
Q 32.46875 71.875 37.390625 69.359375 
Q 42.328125 66.84375 44.9375 62.5 
Q 47.5625 58.15625 47.5625 53.265625 
Q 47.5625 48.640625 45.0625 44.828125 
Q 42.578125 41.015625 37.703125 38.765625 
Q 44.046875 37.3125 47.5625 32.6875 
Q 51.078125 28.078125 51.078125 21.140625 
Q 51.078125 11.765625 44.234375 5.25 
Q 37.40625 -1.265625 26.953125 -1.265625 
Q 17.53125 -1.265625 11.296875 4.34375 
Q 5.078125 9.96875 4.203125 18.890625 
z
" id="ArialMT-51"/>
      </defs>
      <g style="fill:#262626;" transform="translate(248.555699 320.337812)scale(0.1 -0.1)">
       <use xlink:href="#ArialMT-51"/>
       <use x="55.615234" xlink:href="#ArialMT-48"/>
       <use x="111.230469" xlink:href="#ArialMT-48"/>
       <use x="166.845703" xlink:href="#ArialMT-48"/>
      </g>
     </g>
    </g>
    <g id="xtick_5">
     <g id="line2d_9">
      <path clip-path="url(#pd8f65a06e3)" d="M 327.325212 306.18 
L 327.325212 7.2 
" style="fill:none;stroke:#ffffff;stroke-linecap:round;"/>
     </g>
     <g id="line2d_10"/>
     <g id="text_5">
      <!-- 4000 -->
      <defs>
       <path d="M 32.328125 0 
L 32.328125 17.140625 
L 1.265625 17.140625 
L 1.265625 25.203125 
L 33.9375 71.578125 
L 41.109375 71.578125 
L 41.109375 25.203125 
L 50.78125 25.203125 
L 50.78125 17.140625 
L 41.109375 17.140625 
L 41.109375 0 
z
M 32.328125 25.203125 
L 32.328125 57.46875 
L 9.90625 25.203125 
z
" id="ArialMT-52"/>
      </defs>
      <g style="fill:#262626;" transform="translate(316.203337 320.337812)scale(0.1 -0.1)">
       <use xlink:href="#ArialMT-52"/>
       <use x="55.615234" xlink:href="#ArialMT-48"/>
       <use x="111.230469" xlink:href="#ArialMT-48"/>
       <use x="166.845703" xlink:href="#ArialMT-48"/>
      </g>
     </g>
    </g>
    <g id="xtick_6">
     <g id="line2d_11">
      <path clip-path="url(#pd8f65a06e3)" d="M 394.97285 306.18 
L 394.97285 7.2 
" style="fill:none;stroke:#ffffff;stroke-linecap:round;"/>
     </g>
     <g id="line2d_12"/>
     <g id="text_6">
      <!-- 5000 -->
      <defs>
       <path d="M 4.15625 18.75 
L 13.375 19.53125 
Q 14.40625 12.796875 18.140625 9.390625 
Q 21.875 6 27.15625 6 
Q 33.5 6 37.890625 10.78125 
Q 42.28125 15.578125 42.28125 23.484375 
Q 42.28125 31 38.0625 35.34375 
Q 33.84375 39.703125 27 39.703125 
Q 22.75 39.703125 19.328125 37.765625 
Q 15.921875 35.84375 13.96875 32.765625 
L 5.71875 33.84375 
L 12.640625 70.609375 
L 48.25 70.609375 
L 48.25 62.203125 
L 19.671875 62.203125 
L 15.828125 42.96875 
Q 22.265625 47.46875 29.34375 47.46875 
Q 38.71875 47.46875 45.15625 40.96875 
Q 51.609375 34.46875 51.609375 24.265625 
Q 51.609375 14.546875 45.953125 7.46875 
Q 39.0625 -1.21875 27.15625 -1.21875 
Q 17.390625 -1.21875 11.203125 4.25 
Q 5.03125 9.71875 4.15625 18.75 
z
" id="ArialMT-53"/>
      </defs>
      <g style="fill:#262626;" transform="translate(383.850975 320.337812)scale(0.1 -0.1)">
       <use xlink:href="#ArialMT-53"/>
       <use x="55.615234" xlink:href="#ArialMT-48"/>
       <use x="111.230469" xlink:href="#ArialMT-48"/>
       <use x="166.845703" xlink:href="#ArialMT-48"/>
      </g>
     </g>
    </g>
    <g id="xtick_7">
     <g id="line2d_13">
      <path clip-path="url(#pd8f65a06e3)" d="M 462.620489 306.18 
L 462.620489 7.2 
" style="fill:none;stroke:#ffffff;stroke-linecap:round;"/>
     </g>
     <g id="line2d_14"/>
     <g id="text_7">
      <!-- 6000 -->
      <defs>
       <path d="M 49.75 54.046875 
L 41.015625 53.375 
Q 39.84375 58.546875 37.703125 60.890625 
Q 34.125 64.65625 28.90625 64.65625 
Q 24.703125 64.65625 21.53125 62.3125 
Q 17.390625 59.28125 14.984375 53.46875 
Q 12.59375 47.65625 12.5 36.921875 
Q 15.671875 41.75 20.265625 44.09375 
Q 24.859375 46.4375 29.890625 46.4375 
Q 38.671875 46.4375 44.84375 39.96875 
Q 51.03125 33.5 51.03125 23.25 
Q 51.03125 16.5 48.125 10.71875 
Q 45.21875 4.9375 40.140625 1.859375 
Q 35.0625 -1.21875 28.609375 -1.21875 
Q 17.625 -1.21875 10.6875 6.859375 
Q 3.765625 14.9375 3.765625 33.5 
Q 3.765625 54.25 11.421875 63.671875 
Q 18.109375 71.875 29.4375 71.875 
Q 37.890625 71.875 43.28125 67.140625 
Q 48.6875 62.40625 49.75 54.046875 
z
M 13.875 23.1875 
Q 13.875 18.65625 15.796875 14.5 
Q 17.71875 10.359375 21.1875 8.171875 
Q 24.65625 6 28.46875 6 
Q 34.03125 6 38.03125 10.484375 
Q 42.046875 14.984375 42.046875 22.703125 
Q 42.046875 30.125 38.078125 34.390625 
Q 34.125 38.671875 28.125 38.671875 
Q 22.171875 38.671875 18.015625 34.390625 
Q 13.875 30.125 13.875 23.1875 
z
" id="ArialMT-54"/>
      </defs>
      <g style="fill:#262626;" transform="translate(451.498614 320.337812)scale(0.1 -0.1)">
       <use xlink:href="#ArialMT-54"/>
       <use x="55.615234" xlink:href="#ArialMT-48"/>
       <use x="111.230469" xlink:href="#ArialMT-48"/>
       <use x="166.845703" xlink:href="#ArialMT-48"/>
      </g>
     </g>
    </g>
   </g>
   <g id="matplotlib.axis_2">
    <g id="ytick_1">
     <g id="line2d_15">
      <path clip-path="url(#pd8f65a06e3)" d="M 36.44375 282.761838 
L 482.84375 282.761838 
" style="fill:none;stroke:#ffffff;stroke-linecap:round;"/>
     </g>
     <g id="line2d_16"/>
     <g id="text_8">
      <!-- 500 -->
      <g style="fill:#262626;" transform="translate(12.760938 286.340744)scale(0.1 -0.1)">
       <use xlink:href="#ArialMT-53"/>
       <use x="55.615234" xlink:href="#ArialMT-48"/>
       <use x="111.230469" xlink:href="#ArialMT-48"/>
      </g>
     </g>
    </g>
    <g id="ytick_2">
     <g id="line2d_17">
      <path clip-path="url(#pd8f65a06e3)" d="M 36.44375 229.612533 
L 482.84375 229.612533 
" style="fill:none;stroke:#ffffff;stroke-linecap:round;"/>
     </g>
     <g id="line2d_18"/>
     <g id="text_9">
      <!-- 1000 -->
      <g style="fill:#262626;" transform="translate(7.2 233.191439)scale(0.1 -0.1)">
       <use xlink:href="#ArialMT-49"/>
       <use x="55.615234" xlink:href="#ArialMT-48"/>
       <use x="111.230469" xlink:href="#ArialMT-48"/>
       <use x="166.845703" xlink:href="#ArialMT-48"/>
      </g>
     </g>
    </g>
    <g id="ytick_3">
     <g id="line2d_19">
      <path clip-path="url(#pd8f65a06e3)" d="M 36.44375 176.463227 
L 482.84375 176.463227 
" style="fill:none;stroke:#ffffff;stroke-linecap:round;"/>
     </g>
     <g id="line2d_20"/>
     <g id="text_10">
      <!-- 1500 -->
      <g style="fill:#262626;" transform="translate(7.2 180.042134)scale(0.1 -0.1)">
       <use xlink:href="#ArialMT-49"/>
       <use x="55.615234" xlink:href="#ArialMT-53"/>
       <use x="111.230469" xlink:href="#ArialMT-48"/>
       <use x="166.845703" xlink:href="#ArialMT-48"/>
      </g>
     </g>
    </g>
    <g id="ytick_4">
     <g id="line2d_21">
      <path clip-path="url(#pd8f65a06e3)" d="M 36.44375 123.313922 
L 482.84375 123.313922 
" style="fill:none;stroke:#ffffff;stroke-linecap:round;"/>
     </g>
     <g id="line2d_22"/>
     <g id="text_11">
      <!-- 2000 -->
      <g style="fill:#262626;" transform="translate(7.2 126.892828)scale(0.1 -0.1)">
       <use xlink:href="#ArialMT-50"/>
       <use x="55.615234" xlink:href="#ArialMT-48"/>
       <use x="111.230469" xlink:href="#ArialMT-48"/>
       <use x="166.845703" xlink:href="#ArialMT-48"/>
      </g>
     </g>
    </g>
    <g id="ytick_5">
     <g id="line2d_23">
      <path clip-path="url(#pd8f65a06e3)" d="M 36.44375 70.164617 
L 482.84375 70.164617 
" style="fill:none;stroke:#ffffff;stroke-linecap:round;"/>
     </g>
     <g id="line2d_24"/>
     <g id="text_12">
      <!-- 2500 -->
      <g style="fill:#262626;" transform="translate(7.2 73.743523)scale(0.1 -0.1)">
       <use xlink:href="#ArialMT-50"/>
       <use x="55.615234" xlink:href="#ArialMT-53"/>
       <use x="111.230469" xlink:href="#ArialMT-48"/>
       <use x="166.845703" xlink:href="#ArialMT-48"/>
      </g>
     </g>
    </g>
    <g id="ytick_6">
     <g id="line2d_25">
      <path clip-path="url(#pd8f65a06e3)" d="M 36.44375 17.015312 
L 482.84375 17.015312 
" style="fill:none;stroke:#ffffff;stroke-linecap:round;"/>
     </g>
     <g id="line2d_26"/>
     <g id="text_13">
      <!-- 3000 -->
      <g style="fill:#262626;" transform="translate(7.2 20.594218)scale(0.1 -0.1)">
       <use xlink:href="#ArialMT-51"/>
       <use x="55.615234" xlink:href="#ArialMT-48"/>
       <use x="111.230469" xlink:href="#ArialMT-48"/>
       <use x="166.845703" xlink:href="#ArialMT-48"/>
      </g>
     </g>
    </g>
   </g>
   <g id="line2d_27">
    <path clip-path="url(#pd8f65a06e3)" d="M 56.734659 20.79 
L 57.00525 42.634633 
L 57.27584 59.627386 
L 57.614078 72.688113 
L 57.884669 98.920701 
L 58.087612 101.451346 
L 58.155259 101.451346 
L 58.290555 103.738303 
L 58.358202 103.738303 
L 58.493498 106.662127 
L 58.628793 109.040366 
L 58.764088 116.262379 
L 58.831736 117.495174 
L 58.967031 122.500095 
L 59.034679 123.036329 
L 59.237622 128.647713 
L 59.305269 129.766284 
L 59.440565 133.962885 
L 59.508212 133.962885 
L 59.711155 149.072726 
L 60.252336 149.167805 
L 60.455279 160.267381 
L 60.522927 160.267381 
L 60.793517 162.197915 
L 60.928813 162.678845 
L 61.334698 168.476191 
L 61.740584 173.645422 
L 61.943527 173.7189 
L 62.281765 176.512886 
L 62.484708 176.604041 
L 62.620004 177.008196 
L 62.687651 177.008456 
L 62.822947 179.557576 
L 63.29648 180.378433 
L 63.364128 180.378433 
L 63.567071 180.747341 
L 63.770013 185.00841 
L 63.972956 186.579333 
L 64.108252 186.692607 
L 64.243547 187.142486 
L 64.581785 187.191015 
L 64.71708 189.540963 
L 64.852376 189.541654 
L 64.987671 191.619166 
L 65.393557 191.678509 
L 65.528852 194.749786 
L 66.070033 196.84659 
L 66.408271 196.905933 
L 66.543567 197.666192 
L 66.611214 197.68038 
L 67.0171 199.137569 
L 67.355338 199.214377 
L 67.490634 200.536558 
L 67.625929 200.536558 
L 67.761224 200.961539 
L 67.828872 200.961539 
L 67.964167 202.74598 
L 68.031815 202.74598 
L 68.302405 204.018158 
L 68.437701 204.018158 
L 68.505348 204.199605 
L 68.640643 207.971501 
L 68.775939 208.026461 
L 68.978882 209.773622 
L 69.114177 210.195136 
L 69.249472 210.195136 
L 69.384767 210.547618 
L 69.655358 210.633246 
L 69.925949 211.837975 
L 69.993596 211.940843 
L 70.196539 213.786721 
L 70.331834 213.816485 
L 70.46713 214.083916 
L 70.805368 214.083916 
L 71.143606 214.76529 
L 71.684787 214.773182 
L 71.955378 216.095906 
L 72.023025 216.095906 
L 72.158321 217.172191 
L 72.225968 217.172191 
L 72.496559 217.856383 
L 72.699502 219.335378 
L 74.120102 219.364804 
L 74.323045 219.780447 
L 74.45834 219.957272 
L 74.728931 219.958151 
L 74.864226 220.155577 
L 74.999521 221.497233 
L 75.202464 221.501535 
L 75.33776 225.1775 
L 75.540703 225.23604 
L 78.652494 225.318867 
L 78.787789 225.431546 
L 79.32897 225.431546 
L 79.464266 225.987284 
L 79.802504 225.987992 
L 79.937799 226.501637 
L 80.343685 226.51711 
L 80.749571 229.085049 
L 81.967228 229.1112 
L 82.034876 229.228079 
L 82.170171 229.95501 
L 82.508409 229.959442 
L 82.643705 230.880523 
L 82.846647 230.893558 
L 82.981943 231.112088 
L 83.996657 231.221811 
L 84.064305 231.226836 
L 84.1996 231.36399 
L 87.108449 231.373479 
L 87.514334 234.231285 
L 87.581982 234.231285 
L 87.717277 235.519383 
L 87.92022 235.519383 
L 88.055516 235.831325 
L 88.326106 235.841696 
L 88.393754 236.3225 
L 88.596697 241.044975 
L 88.867287 241.044975 
L 89.002583 241.645235 
L 89.205525 241.655966 
L 89.340821 243.239231 
L 91.843783 243.261147 
L 91.979079 243.51077 
L 92.249669 243.520774 
L 92.587907 244.844495 
L 92.858498 244.844495 
L 92.993793 245.334654 
L 93.264384 245.339278 
L 93.399679 245.730112 
L 93.737917 245.837326 
L 94.008508 245.860578 
L 94.211451 246.704408 
L 94.346746 247.351177 
L 94.549689 247.772659 
L 94.617337 247.772659 
L 95.09087 248.87326 
L 95.226165 248.875161 
L 95.361461 249.137727 
L 95.564403 249.137727 
L 95.699699 249.329723 
L 99.623262 249.381013 
L 99.758557 249.603799 
L 100.976215 249.603799 
L 101.11151 250.029391 
L 101.246805 250.065187 
L 101.449748 252.253829 
L 101.585043 252.253829 
L 101.720339 253.665961 
L 101.923281 253.982029 
L 102.058577 254.106098 
L 102.735053 254.115311 
L 102.870348 254.438146 
L 103.073291 254.438146 
L 103.208587 254.646956 
L 103.479177 254.650398 
L 103.614472 254.859885 
L 103.952711 254.863069 
L 104.155653 255.288218 
L 104.358596 255.291822 
L 104.493892 255.515508 
L 105.373311 255.557082 
L 105.508606 255.756681 
L 105.846844 255.789542 
L 105.98214 255.998697 
L 106.117435 255.998697 
L 106.455673 256.630105 
L 107.470388 256.737658 
L 107.673331 256.829415 
L 108.214512 256.846342 
L 108.282159 257.221445 
L 108.485102 260.584224 
L 112.138075 260.661851 
L 112.27337 260.86875 
L 112.543961 261.053743 
L 112.746904 261.656327 
L 112.882199 262.04822 
L 114.505742 262.051075 
L 114.641037 262.275675 
L 116.670467 262.27588 
L 116.805762 262.465662 
L 120.391087 262.49345 
L 120.526382 262.719055 
L 121.541097 262.731554 
L 124.720536 262.735503 
L 124.855831 262.932651 
L 127.155851 262.997917 
L 127.291146 263.307595 
L 130.808823 263.412948 
L 131.485299 263.573646 
L 133.379433 263.640323 
L 133.514728 263.784527 
L 135.47651 263.793638 
L 135.611805 264.467973 
L 136.491225 264.467973 
L 136.62652 264.686508 
L 136.964758 264.686508 
L 137.100053 264.90205 
L 137.77653 264.91501 
L 137.911825 268.506143 
L 138.858892 268.527206 
L 139.061835 268.877566 
L 142.105979 268.943763 
L 142.241274 269.246045 
L 151.847238 269.27245 
L 151.982534 269.804811 
L 153.606077 269.804811 
L 153.741372 270.868811 
L 153.876668 270.868811 
L 154.011963 271.641753 
L 154.553144 271.733128 
L 155.094325 271.854753 
L 156.853164 271.857008 
L 156.988459 272.079448 
L 161.25026 272.089705 
L 161.385555 272.31089 
L 162.062032 272.310955 
L 162.197327 272.522792 
L 162.806156 272.522792 
L 162.941451 272.746033 
L 165.782652 272.75051 
L 166.053242 273.201968 
L 167.541491 273.201968 
L 167.676786 275.569491 
L 168.488557 275.569491 
L 168.623853 277.160084 
L 169.773863 277.211355 
L 170.112101 277.827201 
L 174.847435 277.857755 
L 174.982731 278.064701 
L 175.523912 278.064975 
L 175.659207 278.273851 
L 176.673922 278.285992 
L 177.688636 278.293843 
L 177.823932 278.727151 
L 185.197524 278.787386 
L 185.332819 278.981682 
L 185.941648 278.999487 
L 186.076943 279.193783 
L 189.594621 279.212943 
L 189.729916 279.421989 
L 193.653479 279.434533 
L 193.788774 279.620988 
L 195.818203 279.650513 
L 195.953499 280.288113 
L 197.577042 280.288113 
L 197.712337 280.504422 
L 201.906491 280.527384 
L 202.041786 280.742979 
L 204.950634 280.742979 
L 205.08593 281.409686 
L 205.153577 281.409686 
L 205.288873 281.626206 
L 208.603607 281.628259 
L 208.738902 281.874429 
L 214.421304 281.874429 
L 214.556599 282.05543 
L 217.3978 282.05543 
L 217.533095 282.260752 
L 218.412514 282.269736 
L 223.012554 282.2765 
L 223.147849 282.443009 
L 227.071412 282.443153 
L 227.206707 289.305519 
L 229.980261 289.305663 
L 230.115556 289.598706 
L 232.077337 289.598706 
L 232.212633 291.42905 
L 266.104099 291.462084 
L 266.239395 291.735704 
L 305.204434 291.798552 
L 305.407377 291.865482 
L 316.163352 291.87236 
L 316.298647 292.102842 
L 370.552053 292.129627 
L 370.687348 292.357066 
L 381.375675 292.357066 
L 381.51097 292.581742 
L 462.552841 292.59 
L 462.552841 292.59 
" style="fill:none;stroke:#87ceeb;stroke-linecap:round;stroke-width:1.75;"/>
   </g>
   <g id="patch_3">
    <path d="M 36.44375 306.18 
L 36.44375 7.2 
" style="fill:none;"/>
   </g>
   <g id="patch_4">
    <path d="M 482.84375 306.18 
L 482.84375 7.2 
" style="fill:none;"/>
   </g>
   <g id="patch_5">
    <path d="M 36.44375 306.18 
L 482.84375 306.18 
" style="fill:none;"/>
   </g>
   <g id="patch_6">
    <path d="M 36.44375 7.2 
L 482.84375 7.2 
" style="fill:none;"/>
   </g>
  </g>
 </g>
 <defs>
  <clipPath id="pd8f65a06e3">
   <rect height="298.98" width="446.4" x="36.44375" y="7.2"/>
  </clipPath>
 </defs>
</svg>
