<?xml version="1.0" encoding="utf-8" standalone="no"?>
<!DOCTYPE svg PUBLIC "-//W3C//DTD SVG 1.1//EN"
  "http://www.w3.org/Graphics/SVG/1.1/DTD/svg11.dtd">
<!-- Created with matplotlib (https://matplotlib.org/) -->
<svg height="425.005156pt" version="1.1" viewBox="0 0 422.386406 425.005156" width="422.386406pt" xmlns="http://www.w3.org/2000/svg" xmlns:xlink="http://www.w3.org/1999/xlink">
 <defs>
  <style type="text/css">
*{stroke-linecap:butt;stroke-linejoin:round;}
  </style>
 </defs>
 <g id="figure_1">
  <g id="patch_1">
   <path d="M 0 425.005156 
L 422.386406 425.005156 
L 422.386406 0 
L 0 0 
z
" style="fill:#ffffff;"/>
  </g>
  <g id="axes_1">
   <g id="patch_2">
    <path d="M 39.661406 387.6 
L 350.810692 387.6 
L 350.810692 72.411429 
L 39.661406 72.411429 
z
" style="fill:#eaeaf2;"/>
   </g>
   <g id="matplotlib.axis_1">
    <g id="xtick_1">
     <g id="line2d_1">
      <path clip-path="url(#pe59dc5f5c6)" d="M 73.548935 387.6 
L 73.548935 72.411429 
" style="fill:none;stroke:#ffffff;stroke-linecap:round;"/>
     </g>
     <g id="line2d_2"/>
     <g id="text_1">
      <!-- −1 -->
      <defs>
       <path d="M 52.828125 31.203125 
L 5.5625 31.203125 
L 5.5625 39.40625 
L 52.828125 39.40625 
z
" id="ArialMT-8722"/>
       <path d="M 37.25 0 
L 28.46875 0 
L 28.46875 56 
Q 25.296875 52.984375 20.140625 49.953125 
Q 14.984375 46.921875 10.890625 45.40625 
L 10.890625 53.90625 
Q 18.265625 57.375 23.78125 62.296875 
Q 29.296875 67.234375 31.59375 71.875 
L 37.25 71.875 
z
" id="ArialMT-49"/>
      </defs>
      <g style="fill:#262626;" transform="translate(67.848154 401.757812)scale(0.1 -0.1)">
       <use xlink:href="#ArialMT-8722"/>
       <use x="58.398438" xlink:href="#ArialMT-49"/>
      </g>
     </g>
    </g>
    <g id="xtick_2">
     <g id="line2d_3">
      <path clip-path="url(#pe59dc5f5c6)" d="M 110.86024 387.6 
L 110.86024 72.411429 
" style="fill:none;stroke:#ffffff;stroke-linecap:round;"/>
     </g>
     <g id="line2d_4"/>
     <g id="text_2">
      <!-- 0 -->
      <defs>
       <path d="M 4.15625 35.296875 
Q 4.15625 48 6.765625 55.734375 
Q 9.375 63.484375 14.515625 67.671875 
Q 19.671875 71.875 27.484375 71.875 
Q 33.25 71.875 37.59375 69.546875 
Q 41.9375 67.234375 44.765625 62.859375 
Q 47.609375 58.5 49.21875 52.21875 
Q 50.828125 45.953125 50.828125 35.296875 
Q 50.828125 22.703125 48.234375 14.96875 
Q 45.65625 7.234375 40.5 3 
Q 35.359375 -1.21875 27.484375 -1.21875 
Q 17.140625 -1.21875 11.234375 6.203125 
Q 4.15625 15.140625 4.15625 35.296875 
z
M 13.1875 35.296875 
Q 13.1875 17.671875 17.3125 11.828125 
Q 21.4375 6 27.484375 6 
Q 33.546875 6 37.671875 11.859375 
Q 41.796875 17.71875 41.796875 35.296875 
Q 41.796875 52.984375 37.671875 58.78125 
Q 33.546875 64.59375 27.390625 64.59375 
Q 21.34375 64.59375 17.71875 59.46875 
Q 13.1875 52.9375 13.1875 35.296875 
z
" id="ArialMT-48"/>
      </defs>
      <g style="fill:#262626;" transform="translate(108.079771 401.757812)scale(0.1 -0.1)">
       <use xlink:href="#ArialMT-48"/>
      </g>
     </g>
    </g>
    <g id="xtick_3">
     <g id="line2d_5">
      <path clip-path="url(#pe59dc5f5c6)" d="M 148.171544 387.6 
L 148.171544 72.411429 
" style="fill:none;stroke:#ffffff;stroke-linecap:round;"/>
     </g>
     <g id="line2d_6"/>
     <g id="text_3">
      <!-- 1 -->
      <g style="fill:#262626;" transform="translate(145.391075 401.757812)scale(0.1 -0.1)">
       <use xlink:href="#ArialMT-49"/>
      </g>
     </g>
    </g>
    <g id="xtick_4">
     <g id="line2d_7">
      <path clip-path="url(#pe59dc5f5c6)" d="M 185.482848 387.6 
L 185.482848 72.411429 
" style="fill:none;stroke:#ffffff;stroke-linecap:round;"/>
     </g>
     <g id="line2d_8"/>
     <g id="text_4">
      <!-- 2 -->
      <defs>
       <path d="M 50.34375 8.453125 
L 50.34375 0 
L 3.03125 0 
Q 2.9375 3.171875 4.046875 6.109375 
Q 5.859375 10.9375 9.828125 15.625 
Q 13.8125 20.3125 21.34375 26.46875 
Q 33.015625 36.03125 37.109375 41.625 
Q 41.21875 47.21875 41.21875 52.203125 
Q 41.21875 57.421875 37.46875 61 
Q 33.734375 64.59375 27.734375 64.59375 
Q 21.390625 64.59375 17.578125 60.78125 
Q 13.765625 56.984375 13.71875 50.25 
L 4.6875 51.171875 
Q 5.609375 61.28125 11.65625 66.578125 
Q 17.71875 71.875 27.9375 71.875 
Q 38.234375 71.875 44.234375 66.15625 
Q 50.25 60.453125 50.25 52 
Q 50.25 47.703125 48.484375 43.546875 
Q 46.734375 39.40625 42.65625 34.8125 
Q 38.578125 30.21875 29.109375 22.21875 
Q 21.1875 15.578125 18.9375 13.203125 
Q 16.703125 10.84375 15.234375 8.453125 
z
" id="ArialMT-50"/>
      </defs>
      <g style="fill:#262626;" transform="translate(182.702379 401.757812)scale(0.1 -0.1)">
       <use xlink:href="#ArialMT-50"/>
      </g>
     </g>
    </g>
    <g id="xtick_5">
     <g id="line2d_9">
      <path clip-path="url(#pe59dc5f5c6)" d="M 222.794152 387.6 
L 222.794152 72.411429 
" style="fill:none;stroke:#ffffff;stroke-linecap:round;"/>
     </g>
     <g id="line2d_10"/>
     <g id="text_5">
      <!-- 3 -->
      <defs>
       <path d="M 4.203125 18.890625 
L 12.984375 20.0625 
Q 14.5 12.59375 18.140625 9.296875 
Q 21.78125 6 27 6 
Q 33.203125 6 37.46875 10.296875 
Q 41.75 14.59375 41.75 20.953125 
Q 41.75 27 37.796875 30.921875 
Q 33.84375 34.859375 27.734375 34.859375 
Q 25.25 34.859375 21.53125 33.890625 
L 22.515625 41.609375 
Q 23.390625 41.5 23.921875 41.5 
Q 29.546875 41.5 34.03125 44.421875 
Q 38.53125 47.359375 38.53125 53.46875 
Q 38.53125 58.296875 35.25 61.46875 
Q 31.984375 64.65625 26.8125 64.65625 
Q 21.6875 64.65625 18.265625 61.421875 
Q 14.84375 58.203125 13.875 51.765625 
L 5.078125 53.328125 
Q 6.6875 62.15625 12.390625 67.015625 
Q 18.109375 71.875 26.609375 71.875 
Q 32.46875 71.875 37.390625 69.359375 
Q 42.328125 66.84375 44.9375 62.5 
Q 47.5625 58.15625 47.5625 53.265625 
Q 47.5625 48.640625 45.0625 44.828125 
Q 42.578125 41.015625 37.703125 38.765625 
Q 44.046875 37.3125 47.5625 32.6875 
Q 51.078125 28.078125 51.078125 21.140625 
Q 51.078125 11.765625 44.234375 5.25 
Q 37.40625 -1.265625 26.953125 -1.265625 
Q 17.53125 -1.265625 11.296875 4.34375 
Q 5.078125 9.96875 4.203125 18.890625 
z
" id="ArialMT-51"/>
      </defs>
      <g style="fill:#262626;" transform="translate(220.013684 401.757812)scale(0.1 -0.1)">
       <use xlink:href="#ArialMT-51"/>
      </g>
     </g>
    </g>
    <g id="xtick_6">
     <g id="line2d_11">
      <path clip-path="url(#pe59dc5f5c6)" d="M 260.105457 387.6 
L 260.105457 72.411429 
" style="fill:none;stroke:#ffffff;stroke-linecap:round;"/>
     </g>
     <g id="line2d_12"/>
     <g id="text_6">
      <!-- 4 -->
      <defs>
       <path d="M 32.328125 0 
L 32.328125 17.140625 
L 1.265625 17.140625 
L 1.265625 25.203125 
L 33.9375 71.578125 
L 41.109375 71.578125 
L 41.109375 25.203125 
L 50.78125 25.203125 
L 50.78125 17.140625 
L 41.109375 17.140625 
L 41.109375 0 
z
M 32.328125 25.203125 
L 32.328125 57.46875 
L 9.90625 25.203125 
z
" id="ArialMT-52"/>
      </defs>
      <g style="fill:#262626;" transform="translate(257.324988 401.757812)scale(0.1 -0.1)">
       <use xlink:href="#ArialMT-52"/>
      </g>
     </g>
    </g>
    <g id="xtick_7">
     <g id="line2d_13">
      <path clip-path="url(#pe59dc5f5c6)" d="M 297.416761 387.6 
L 297.416761 72.411429 
" style="fill:none;stroke:#ffffff;stroke-linecap:round;"/>
     </g>
     <g id="line2d_14"/>
     <g id="text_7">
      <!-- 5 -->
      <defs>
       <path d="M 4.15625 18.75 
L 13.375 19.53125 
Q 14.40625 12.796875 18.140625 9.390625 
Q 21.875 6 27.15625 6 
Q 33.5 6 37.890625 10.78125 
Q 42.28125 15.578125 42.28125 23.484375 
Q 42.28125 31 38.0625 35.34375 
Q 33.84375 39.703125 27 39.703125 
Q 22.75 39.703125 19.328125 37.765625 
Q 15.921875 35.84375 13.96875 32.765625 
L 5.71875 33.84375 
L 12.640625 70.609375 
L 48.25 70.609375 
L 48.25 62.203125 
L 19.671875 62.203125 
L 15.828125 42.96875 
Q 22.265625 47.46875 29.34375 47.46875 
Q 38.71875 47.46875 45.15625 40.96875 
Q 51.609375 34.46875 51.609375 24.265625 
Q 51.609375 14.546875 45.953125 7.46875 
Q 39.0625 -1.21875 27.15625 -1.21875 
Q 17.390625 -1.21875 11.203125 4.25 
Q 5.03125 9.71875 4.15625 18.75 
z
" id="ArialMT-53"/>
      </defs>
      <g style="fill:#262626;" transform="translate(294.636292 401.757812)scale(0.1 -0.1)">
       <use xlink:href="#ArialMT-53"/>
      </g>
     </g>
    </g>
    <g id="xtick_8">
     <g id="line2d_15">
      <path clip-path="url(#pe59dc5f5c6)" d="M 334.728065 387.6 
L 334.728065 72.411429 
" style="fill:none;stroke:#ffffff;stroke-linecap:round;"/>
     </g>
     <g id="line2d_16"/>
     <g id="text_8">
      <!-- 6 -->
      <defs>
       <path d="M 49.75 54.046875 
L 41.015625 53.375 
Q 39.84375 58.546875 37.703125 60.890625 
Q 34.125 64.65625 28.90625 64.65625 
Q 24.703125 64.65625 21.53125 62.3125 
Q 17.390625 59.28125 14.984375 53.46875 
Q 12.59375 47.65625 12.5 36.921875 
Q 15.671875 41.75 20.265625 44.09375 
Q 24.859375 46.4375 29.890625 46.4375 
Q 38.671875 46.4375 44.84375 39.96875 
Q 51.03125 33.5 51.03125 23.25 
Q 51.03125 16.5 48.125 10.71875 
Q 45.21875 4.9375 40.140625 1.859375 
Q 35.0625 -1.21875 28.609375 -1.21875 
Q 17.625 -1.21875 10.6875 6.859375 
Q 3.765625 14.9375 3.765625 33.5 
Q 3.765625 54.25 11.421875 63.671875 
Q 18.109375 71.875 29.4375 71.875 
Q 37.890625 71.875 43.28125 67.140625 
Q 48.6875 62.40625 49.75 54.046875 
z
M 13.875 23.1875 
Q 13.875 18.65625 15.796875 14.5 
Q 17.71875 10.359375 21.1875 8.171875 
Q 24.65625 6 28.46875 6 
Q 34.03125 6 38.03125 10.484375 
Q 42.046875 14.984375 42.046875 22.703125 
Q 42.046875 30.125 38.078125 34.390625 
Q 34.125 38.671875 28.125 38.671875 
Q 22.171875 38.671875 18.015625 34.390625 
Q 13.875 30.125 13.875 23.1875 
z
" id="ArialMT-54"/>
      </defs>
      <g style="fill:#262626;" transform="translate(331.947597 401.757812)scale(0.1 -0.1)">
       <use xlink:href="#ArialMT-54"/>
      </g>
     </g>
    </g>
    <g id="text_9">
     <!-- x1 -->
     <defs>
      <path d="M 0.734375 0 
L 19.671875 26.953125 
L 2.15625 51.859375 
L 13.140625 51.859375 
L 21.09375 39.703125 
Q 23.34375 36.234375 24.703125 33.890625 
Q 26.859375 37.109375 28.65625 39.59375 
L 37.40625 51.859375 
L 47.90625 51.859375 
L 29.984375 27.4375 
L 49.265625 0 
L 38.484375 0 
L 27.828125 16.109375 
L 25 20.453125 
L 11.375 0 
z
" id="ArialMT-120"/>
     </defs>
     <g style="fill:#262626;" transform="translate(189.427533 415.618906)scale(0.11 -0.11)">
      <use xlink:href="#ArialMT-120"/>
      <use x="50" xlink:href="#ArialMT-49"/>
     </g>
    </g>
   </g>
   <g id="matplotlib.axis_2">
    <g id="ytick_1">
     <g id="line2d_17">
      <path clip-path="url(#pe59dc5f5c6)" d="M 39.661406 378.410151 
L 350.810692 378.410151 
" style="fill:none;stroke:#ffffff;stroke-linecap:round;"/>
     </g>
     <g id="line2d_18"/>
     <g id="text_10">
      <!-- −2 -->
      <g style="fill:#262626;" transform="translate(21.259844 381.989057)scale(0.1 -0.1)">
       <use xlink:href="#ArialMT-8722"/>
       <use x="58.398438" xlink:href="#ArialMT-50"/>
      </g>
     </g>
    </g>
    <g id="ytick_2">
     <g id="line2d_19">
      <path clip-path="url(#pe59dc5f5c6)" d="M 39.661406 313.059639 
L 350.810692 313.059639 
" style="fill:none;stroke:#ffffff;stroke-linecap:round;"/>
     </g>
     <g id="line2d_20"/>
     <g id="text_11">
      <!-- 0 -->
      <g style="fill:#262626;" transform="translate(27.100469 316.638545)scale(0.1 -0.1)">
       <use xlink:href="#ArialMT-48"/>
      </g>
     </g>
    </g>
    <g id="ytick_3">
     <g id="line2d_21">
      <path clip-path="url(#pe59dc5f5c6)" d="M 39.661406 247.709128 
L 350.810692 247.709128 
" style="fill:none;stroke:#ffffff;stroke-linecap:round;"/>
     </g>
     <g id="line2d_22"/>
     <g id="text_12">
      <!-- 2 -->
      <g style="fill:#262626;" transform="translate(27.100469 251.288034)scale(0.1 -0.1)">
       <use xlink:href="#ArialMT-50"/>
      </g>
     </g>
    </g>
    <g id="ytick_4">
     <g id="line2d_23">
      <path clip-path="url(#pe59dc5f5c6)" d="M 39.661406 182.358616 
L 350.810692 182.358616 
" style="fill:none;stroke:#ffffff;stroke-linecap:round;"/>
     </g>
     <g id="line2d_24"/>
     <g id="text_13">
      <!-- 4 -->
      <g style="fill:#262626;" transform="translate(27.100469 185.937522)scale(0.1 -0.1)">
       <use xlink:href="#ArialMT-52"/>
      </g>
     </g>
    </g>
    <g id="ytick_5">
     <g id="line2d_25">
      <path clip-path="url(#pe59dc5f5c6)" d="M 39.661406 117.008104 
L 350.810692 117.008104 
" style="fill:none;stroke:#ffffff;stroke-linecap:round;"/>
     </g>
     <g id="line2d_26"/>
     <g id="text_14">
      <!-- 6 -->
      <g style="fill:#262626;" transform="translate(27.100469 120.587011)scale(0.1 -0.1)">
       <use xlink:href="#ArialMT-54"/>
      </g>
     </g>
    </g>
    <g id="text_15">
     <!-- x2 -->
     <g style="fill:#262626;" transform="translate(15.073594 235.81423)rotate(-90)scale(0.11 -0.11)">
      <use xlink:href="#ArialMT-120"/>
      <use x="50" xlink:href="#ArialMT-50"/>
     </g>
    </g>
   </g>
   <g id="PathCollection_1">
    <path clip-path="url(#pe59dc5f5c6)" d="M 56.661757 373.273247 
L 59.518959 373.273247 
L 62.376161 373.273247 
L 65.233363 373.273247 
L 68.090565 373.273247 
L 70.947767 373.273247 
L 73.804969 373.273247 
L 76.662171 373.273247 
L 79.519373 373.273247 
L 82.376574 373.273247 
L 85.233776 373.273247 
L 88.090978 373.273247 
L 90.94818 373.273247 
L 93.805382 373.273247 
L 96.662584 373.273247 
L 99.519786 373.273247 
L 102.376988 373.273247 
L 105.23419 373.273247 
L 108.091391 373.273247 
L 110.948593 373.273247 
L 113.805795 373.273247 
L 116.662997 373.273247 
L 119.520199 373.273247 
L 122.377401 373.273247 
L 125.234603 373.273247 
L 128.091805 373.273247 
L 130.949007 373.273247 
L 133.806208 373.273247 
L 136.66341 373.273247 
L 139.520612 373.273247 
L 142.377814 373.273247 
L 145.235016 373.273247 
L 148.092218 373.273247 
L 150.94942 373.273247 
L 153.806622 373.273247 
L 156.663824 373.273247 
L 159.521025 373.273247 
L 162.378227 373.273247 
L 165.235429 373.273247 
L 168.092631 373.273247 
L 170.949833 373.273247 
L 173.807035 373.273247 
L 176.664237 373.273247 
L 179.521439 373.273247 
L 182.378641 373.273247 
L 185.235842 373.273247 
L 188.093044 373.273247 
L 190.950246 373.273247 
L 193.807448 373.273247 
L 196.66465 373.273247 
L 199.521852 373.273247 
L 202.379054 373.273247 
L 205.236256 373.273247 
L 208.093458 373.273247 
L 210.950659 373.273247 
L 213.807861 373.273247 
L 216.665063 373.273247 
L 219.522265 373.273247 
L 222.379467 373.273247 
L 225.236669 373.273247 
L 228.093871 373.273247 
L 230.951073 373.273247 
L 233.808275 373.273247 
L 236.665476 373.273247 
L 239.522678 373.273247 
L 242.37988 373.273247 
L 245.237082 373.273247 
L 248.094284 373.273247 
L 250.951486 373.273247 
L 253.808688 373.273247 
L 256.66589 373.273247 
L 259.523092 373.273247 
L 262.380293 373.273247 
L 265.237495 373.273247 
L 268.094697 373.273247 
L 270.951899 373.273247 
L 273.809101 373.273247 
L 276.666303 373.273247 
L 279.523505 373.273247 
L 282.380707 373.273247 
L 285.237909 373.273247 
L 288.095111 373.273247 
L 290.952312 373.273247 
L 293.809514 373.273247 
L 296.666716 373.273247 
L 299.523918 373.273247 
L 302.38112 373.273247 
L 305.238322 373.273247 
L 308.095524 373.273247 
L 310.952726 373.273247 
L 313.809928 373.273247 
L 316.667129 373.273247 
L 319.524331 373.273247 
L 322.381533 373.273247 
L 325.238735 373.273247 
L 328.095937 373.273247 
L 330.953139 373.273247 
L 333.810341 373.273247 
L 336.667543 373.273247 
L 336.667543 370.378953 
L 336.667543 367.48466 
L 336.667543 364.590366 
L 336.667543 361.696072 
L 336.667543 358.801779 
L 336.667543 355.907485 
L 336.667543 353.013192 
L 336.667543 350.118898 
L 336.667543 347.224604 
L 336.667543 344.330311 
L 336.667543 341.436017 
L 336.667543 338.541724 
L 336.667543 335.64743 
L 336.667543 332.753137 
L 336.667543 329.858843 
L 336.667543 326.964549 
L 336.667543 324.070256 
L 336.667543 321.175962 
L 336.667543 318.281669 
L 336.667543 315.387375 
L 336.667543 312.493081 
L 336.667543 309.598788 
L 336.667543 306.704494 
L 336.667543 303.810201 
L 336.667543 300.915907 
L 336.667543 298.021614 
L 336.667543 295.12732 
L 336.667543 292.233026 
L 336.667543 289.338733 
L 336.667543 286.444439 
L 336.667543 283.550146 
L 336.667543 280.655852 
L 336.667543 277.761558 
L 336.667543 274.867265 
L 336.667543 271.972971 
L 336.667543 269.078678 
L 336.667543 266.184384 
L 336.667543 263.290091 
L 336.667543 260.395797 
L 336.667543 257.501503 
L 336.667543 254.60721 
L 336.667543 251.712916 
L 336.667543 248.818623 
L 336.667543 245.924329 
L 336.667543 243.030035 
L 336.667543 240.135742 
L 336.667543 237.241448 
L 336.667543 234.347155 
L 336.667543 231.452861 
L 336.667543 228.558567 
L 336.667543 225.664274 
L 336.667543 222.76998 
L 336.667543 219.875687 
L 336.667543 216.981393 
L 336.667543 214.0871 
L 336.667543 211.192806 
L 336.667543 208.298512 
L 336.667543 205.404219 
L 336.667543 202.509925 
L 336.667543 199.615632 
L 336.667543 196.721338 
L 336.667543 193.827044 
L 336.667543 190.932751 
L 336.667543 188.038457 
L 336.667543 185.144164 
L 336.667543 182.24987 
L 336.667543 179.355577 
L 336.667543 176.461283 
L 336.667543 173.566989 
L 336.667543 170.672696 
L 336.667543 167.778402 
L 336.667543 164.884109 
L 336.667543 161.989815 
L 336.667543 159.095521 
L 336.667543 156.201228 
L 336.667543 153.306934 
L 336.667543 150.412641 
L 336.667543 147.518347 
L 336.667543 144.624054 
L 336.667543 141.72976 
L 336.667543 138.835466 
L 336.667543 135.941173 
L 336.667543 133.046879 
L 336.667543 130.152586 
L 336.667543 127.258292 
L 336.667543 124.363998 
L 336.667543 121.469705 
L 336.667543 118.575411 
L 336.667543 115.681118 
L 336.667543 112.786824 
L 336.667543 109.89253 
L 336.667543 106.998237 
L 336.667543 104.103943 
L 336.667543 101.20965 
L 336.667543 98.315356 
L 336.667543 95.421063 
L 336.667543 92.526769 
L 336.667543 89.632475 
L 336.667543 86.738182 
L 333.810341 86.738182 
L 330.953139 86.738182 
L 328.095937 86.738182 
L 325.238735 86.738182 
L 322.381533 86.738182 
L 319.524331 86.738182 
L 316.667129 86.738182 
L 313.809928 86.738182 
L 310.952726 86.738182 
L 308.095524 86.738182 
L 305.238322 86.738182 
L 302.38112 86.738182 
L 299.523918 86.738182 
L 296.666716 86.738182 
L 293.809514 86.738182 
L 290.952312 86.738182 
L 288.095111 86.738182 
L 285.237909 86.738182 
L 282.380707 86.738182 
L 279.523505 86.738182 
L 276.666303 86.738182 
L 273.809101 86.738182 
L 270.951899 86.738182 
L 268.094697 86.738182 
L 265.237495 86.738182 
L 262.380293 86.738182 
L 259.523092 86.738182 
L 256.66589 86.738182 
L 253.808688 86.738182 
L 250.951486 86.738182 
L 248.094284 86.738182 
L 245.237082 86.738182 
L 242.37988 86.738182 
L 239.522678 86.738182 
L 236.665476 86.738182 
L 233.808275 86.738182 
L 230.951073 86.738182 
L 228.093871 86.738182 
L 225.236669 86.738182 
L 222.379467 86.738182 
L 219.522265 86.738182 
L 216.665063 86.738182 
L 213.807861 86.738182 
L 210.950659 86.738182 
L 208.093458 86.738182 
L 205.236256 86.738182 
L 202.379054 86.738182 
L 199.521852 86.738182 
L 196.66465 86.738182 
L 193.807448 86.738182 
L 190.950246 86.738182 
L 188.093044 86.738182 
L 185.235842 86.738182 
L 182.378641 86.738182 
L 179.521439 86.738182 
L 176.664237 86.738182 
L 173.807035 86.738182 
L 170.949833 86.738182 
L 168.092631 86.738182 
L 165.235429 86.738182 
L 162.378227 86.738182 
L 159.521025 86.738182 
L 156.663824 86.738182 
L 153.806622 86.738182 
L 150.94942 86.738182 
L 148.092218 86.738182 
L 145.235016 86.738182 
L 142.377814 86.738182 
L 139.520612 86.738182 
L 136.66341 86.738182 
L 133.806208 86.738182 
L 130.949007 86.738182 
L 128.091805 86.738182 
L 125.234603 86.738182 
L 122.377401 86.738182 
L 119.520199 86.738182 
L 116.662997 86.738182 
L 113.805795 86.738182 
L 110.948593 86.738182 
L 108.091391 86.738182 
L 105.23419 86.738182 
L 102.376988 86.738182 
L 99.519786 86.738182 
L 96.662584 86.738182 
L 93.805382 86.738182 
L 90.94818 86.738182 
L 88.090978 86.738182 
L 85.233776 86.738182 
L 82.376574 86.738182 
L 79.519373 86.738182 
L 76.662171 86.738182 
L 73.804969 86.738182 
L 70.947767 86.738182 
L 68.090565 86.738182 
L 65.233363 86.738182 
L 62.376161 86.738182 
L 59.518959 86.738182 
L 56.661757 86.738182 
L 53.804556 86.738182 
L 53.804556 89.632475 
L 53.804556 92.526769 
L 53.804556 95.421063 
L 53.804556 98.315356 
L 53.804556 101.20965 
L 53.804556 104.103943 
L 53.804556 106.998237 
L 53.804556 109.89253 
L 53.804556 112.786824 
L 53.804556 115.681118 
L 53.804556 118.575411 
L 53.804556 121.469705 
L 53.804556 124.363998 
L 53.804556 127.258292 
L 53.804556 130.152586 
L 53.804556 133.046879 
L 53.804556 135.941173 
L 53.804556 138.835466 
L 53.804556 141.72976 
L 53.804556 144.624054 
L 53.804556 147.518347 
L 53.804556 150.412641 
L 53.804556 153.306934 
L 53.804556 156.201228 
L 53.804556 159.095521 
L 53.804556 161.989815 
L 53.804556 164.884109 
L 53.804556 167.778402 
L 53.804556 170.672696 
L 53.804556 173.566989 
L 53.804556 176.461283 
L 53.804556 179.355577 
L 53.804556 182.24987 
L 53.804556 185.144164 
L 53.804556 188.038457 
L 53.804556 190.932751 
L 53.804556 193.827044 
L 53.804556 196.721338 
L 53.804556 199.615632 
L 53.804556 202.509925 
L 53.804556 205.404219 
L 53.804556 208.298512 
L 53.804556 211.192806 
L 53.804556 214.0871 
L 53.804556 216.981393 
L 53.804556 219.875687 
L 53.804556 222.76998 
L 53.804556 225.664274 
L 53.804556 228.558567 
L 53.804556 231.452861 
L 53.804556 234.347155 
L 53.804556 237.241448 
L 53.804556 240.135742 
L 53.804556 243.030035 
L 53.804556 245.924329 
L 53.804556 248.818623 
L 53.804556 251.712916 
L 53.804556 254.60721 
L 53.804556 257.501503 
L 53.804556 260.395797 
L 53.804556 263.290091 
L 53.804556 266.184384 
L 53.804556 269.078678 
L 53.804556 271.972971 
L 53.804556 274.867265 
L 53.804556 277.761558 
L 53.804556 280.655852 
L 53.804556 283.550146 
L 53.804556 286.444439 
L 53.804556 289.338733 
L 53.804556 292.233026 
L 53.804556 295.12732 
L 53.804556 298.021614 
L 53.804556 300.915907 
L 53.804556 303.810201 
L 53.804556 306.704494 
L 53.804556 309.598788 
L 53.804556 312.493081 
L 53.804556 315.387375 
L 53.804556 318.281669 
L 53.804556 321.175962 
L 53.804556 324.070256 
L 53.804556 326.964549 
L 53.804556 329.858843 
L 53.804556 332.753137 
L 53.804556 335.64743 
L 53.804556 338.541724 
L 53.804556 341.436017 
L 53.804556 344.330311 
L 53.804556 347.224604 
L 53.804556 350.118898 
L 53.804556 353.013192 
L 53.804556 355.907485 
L 53.804556 358.801779 
L 53.804556 361.696072 
L 53.804556 364.590366 
L 53.804556 367.48466 
L 53.804556 370.378953 
L 53.804556 373.273247 
z
M 178.570632 283.550146 
L 176.664237 282.682002 
L 173.807035 281.40332 
L 171.478421 280.655852 
L 170.949833 280.51874 
L 168.092631 280.09481 
L 165.235429 279.757036 
L 162.378227 279.223434 
L 159.521025 278.122573 
L 158.947736 277.761558 
L 156.663824 275.992778 
L 155.72892 274.867265 
L 154.09984 271.972971 
L 153.806622 271.273013 
L 152.88491 269.078678 
L 151.756206 266.184384 
L 150.94942 264.469305 
L 150.224954 263.290091 
L 148.092218 261.132169 
L 146.982726 260.395797 
L 145.235016 259.562542 
L 142.377814 258.301178 
L 140.973852 257.501503 
L 139.520612 256.46245 
L 137.744344 254.60721 
L 136.66341 252.621454 
L 136.184233 251.712916 
L 135.262464 248.818623 
L 134.612494 245.924329 
L 133.910912 243.030035 
L 133.806208 242.624662 
L 133.077877 240.135742 
L 132.466821 237.241448 
L 131.854361 234.347155 
L 130.949007 232.089375 
L 130.576982 231.452861 
L 128.091805 228.803248 
L 127.79942 228.558567 
L 125.465977 225.664274 
L 125.237161 222.76998 
L 125.831379 219.875687 
L 126.270083 216.981393 
L 126.290563 214.0871 
L 126.261947 211.192806 
L 127.014432 208.298512 
L 128.091805 206.791265 
L 129.306196 205.404219 
L 130.949007 203.995501 
L 132.461662 202.509925 
L 133.806208 201.180404 
L 135.134181 199.615632 
L 136.66341 197.674471 
L 137.371022 196.721338 
L 139.270568 193.827044 
L 139.520612 193.313347 
L 140.632534 190.932751 
L 141.181329 188.038457 
L 140.864525 185.144164 
L 140.53676 182.24987 
L 141.029722 179.355577 
L 142.377814 177.423911 
L 143.157466 176.461283 
L 145.235016 174.993243 
L 147.984538 173.566989 
L 148.092218 173.51981 
L 150.94942 172.539912 
L 153.806622 171.766472 
L 156.663824 171.030941 
L 157.823593 170.672696 
L 159.521025 169.954238 
L 162.378227 168.331057 
L 163.171696 167.778402 
L 165.235429 165.982386 
L 166.510184 164.884109 
L 168.092631 163.74231 
L 170.82934 161.989815 
L 170.949833 161.918791 
L 173.807035 160.381442 
L 176.664237 159.137242 
L 176.783037 159.095521 
L 179.521439 157.990035 
L 182.378641 156.92089 
L 184.324738 156.201228 
L 185.235842 155.809655 
L 188.093044 154.872468 
L 190.950246 154.395948 
L 193.807448 154.26228 
L 196.66465 154.363241 
L 199.521852 154.706537 
L 202.379054 155.297123 
L 205.236256 156.097363 
L 205.592 156.201228 
L 208.093458 156.87905 
L 210.950659 157.747256 
L 213.807861 158.550359 
L 216.665063 159.007067 
L 217.589763 159.095521 
L 219.522265 159.224692 
L 222.379467 159.597276 
L 225.236669 160.22077 
L 228.093871 160.987537 
L 230.951073 161.886829 
L 231.219134 161.989815 
L 233.808275 163.00493 
L 236.665476 164.459193 
L 237.423879 164.884109 
L 239.522678 165.920184 
L 242.37988 167.528038 
L 242.772801 167.778402 
L 245.237082 169.12764 
L 247.362865 170.672696 
L 248.094284 171.048069 
L 250.951486 172.865576 
L 251.861944 173.566989 
L 253.808688 174.899945 
L 255.679894 176.461283 
L 256.66589 177.630282 
L 258.089231 179.355577 
L 259.26765 182.24987 
L 259.523092 183.120677 
L 260.420295 185.144164 
L 262.380293 187.890539 
L 262.556567 188.038457 
L 265.237495 189.959077 
L 266.686443 190.932751 
L 268.094697 192.446539 
L 269.08262 193.827044 
L 269.844666 196.721338 
L 270.274103 199.615632 
L 270.882273 202.509925 
L 270.951899 202.833381 
L 271.606612 205.404219 
L 272.171832 208.298512 
L 272.641306 211.192806 
L 273.361949 214.0871 
L 273.809101 215.398142 
L 274.367199 216.981393 
L 274.999668 219.875687 
L 274.524434 222.76998 
L 273.809101 224.106379 
L 273.040455 225.664274 
L 271.734321 228.558567 
L 271.170489 231.452861 
L 271.057509 234.347155 
L 270.951899 235.126773 
L 270.668447 237.241448 
L 269.030119 240.135742 
L 268.094697 241.120441 
L 266.79598 243.030035 
L 265.36101 245.924329 
L 265.237495 246.520929 
L 264.880651 248.818623 
L 264.761733 251.712916 
L 264.452427 254.60721 
L 263.285661 257.501503 
L 262.380293 258.588745 
L 260.386516 260.395797 
L 259.523092 261.025433 
L 256.66589 262.759077 
L 255.730755 263.290091 
L 253.808688 264.678062 
L 252.036178 266.184384 
L 250.951486 267.284723 
L 249.487517 269.078678 
L 248.094284 270.678482 
L 246.910686 271.972971 
L 245.237082 273.447285 
L 242.82771 274.867265 
L 242.37988 275.112044 
L 239.522678 276.199267 
L 236.665476 277.212647 
L 235.339967 277.761558 
L 233.808275 278.391124 
L 230.951073 279.695659 
L 228.972177 280.655852 
L 228.093871 281.068675 
L 225.236669 282.443007 
L 222.55741 283.550146 
L 222.379467 283.631782 
L 219.522265 284.541769 
L 216.665063 284.923202 
L 213.807861 284.875649 
L 210.950659 284.641913 
L 208.093458 284.361144 
L 205.236256 284.01912 
L 202.379054 283.705837 
L 199.521852 283.607339 
L 196.66465 283.819153 
L 193.807448 284.28889 
L 190.950246 284.843098 
L 188.093044 285.256207 
L 185.235842 285.339333 
L 182.378641 284.95619 
L 179.521439 284.009323 
z
" style="fill:#eaf7fc;"/>
   </g>
   <g id="PathCollection_2">
    <path clip-path="url(#pe59dc5f5c6)" d="M 179.521439 284.009323 
L 182.378641 284.95619 
L 185.235842 285.339333 
L 188.093044 285.256207 
L 190.950246 284.843098 
L 193.807448 284.28889 
L 196.66465 283.819153 
L 199.521852 283.607339 
L 202.379054 283.705837 
L 205.236256 284.01912 
L 208.093458 284.361144 
L 210.950659 284.641913 
L 213.807861 284.875649 
L 216.665063 284.923202 
L 219.522265 284.541769 
L 222.379467 283.631782 
L 222.55741 283.550146 
L 225.236669 282.443007 
L 228.093871 281.068675 
L 228.972177 280.655852 
L 230.951073 279.695659 
L 233.808275 278.391124 
L 235.339967 277.761558 
L 236.665476 277.212647 
L 239.522678 276.199267 
L 242.37988 275.112044 
L 242.82771 274.867265 
L 245.237082 273.447285 
L 246.910686 271.972971 
L 248.094284 270.678482 
L 249.487517 269.078678 
L 250.951486 267.284723 
L 252.036178 266.184384 
L 253.808688 264.678062 
L 255.730755 263.290091 
L 256.66589 262.759077 
L 259.523092 261.025433 
L 260.386516 260.395797 
L 262.380293 258.588745 
L 263.285661 257.501503 
L 264.452427 254.60721 
L 264.761733 251.712916 
L 264.880651 248.818623 
L 265.237495 246.520929 
L 265.36101 245.924329 
L 266.79598 243.030035 
L 268.094697 241.120441 
L 269.030119 240.135742 
L 270.668447 237.241448 
L 270.951899 235.126773 
L 271.057509 234.347155 
L 271.170489 231.452861 
L 271.734321 228.558567 
L 273.040455 225.664274 
L 273.809101 224.106379 
L 274.524434 222.76998 
L 274.999668 219.875687 
L 274.367199 216.981393 
L 273.809101 215.398142 
L 273.361949 214.0871 
L 272.641306 211.192806 
L 272.171832 208.298512 
L 271.606612 205.404219 
L 270.951899 202.833381 
L 270.882273 202.509925 
L 270.274103 199.615632 
L 269.844666 196.721338 
L 269.08262 193.827044 
L 268.094697 192.446539 
L 266.686443 190.932751 
L 265.237495 189.959077 
L 262.556567 188.038457 
L 262.380293 187.890539 
L 260.420295 185.144164 
L 259.523092 183.120677 
L 259.26765 182.24987 
L 258.089231 179.355577 
L 256.66589 177.630282 
L 255.679894 176.461283 
L 253.808688 174.899945 
L 251.861944 173.566989 
L 250.951486 172.865576 
L 248.094284 171.048069 
L 247.362865 170.672696 
L 245.237082 169.12764 
L 242.772801 167.778402 
L 242.37988 167.528038 
L 239.522678 165.920184 
L 237.423879 164.884109 
L 236.665476 164.459193 
L 233.808275 163.00493 
L 231.219134 161.989815 
L 230.951073 161.886829 
L 228.093871 160.987537 
L 225.236669 160.22077 
L 222.379467 159.597276 
L 219.522265 159.224692 
L 217.589763 159.095521 
L 216.665063 159.007067 
L 213.807861 158.550359 
L 210.950659 157.747256 
L 208.093458 156.87905 
L 205.592 156.201228 
L 205.236256 156.097363 
L 202.379054 155.297123 
L 199.521852 154.706537 
L 196.66465 154.363241 
L 193.807448 154.26228 
L 190.950246 154.395948 
L 188.093044 154.872468 
L 185.235842 155.809655 
L 184.324738 156.201228 
L 182.378641 156.92089 
L 179.521439 157.990035 
L 176.783037 159.095521 
L 176.664237 159.137242 
L 173.807035 160.381442 
L 170.949833 161.918791 
L 170.82934 161.989815 
L 168.092631 163.74231 
L 166.510184 164.884109 
L 165.235429 165.982386 
L 163.171696 167.778402 
L 162.378227 168.331057 
L 159.521025 169.954238 
L 157.823593 170.672696 
L 156.663824 171.030941 
L 153.806622 171.766472 
L 150.94942 172.539912 
L 148.092218 173.51981 
L 147.984538 173.566989 
L 145.235016 174.993243 
L 143.157466 176.461283 
L 142.377814 177.423911 
L 141.029722 179.355577 
L 140.53676 182.24987 
L 140.864525 185.144164 
L 141.181329 188.038457 
L 140.632534 190.932751 
L 139.520612 193.313347 
L 139.270568 193.827044 
L 137.371022 196.721338 
L 136.66341 197.674471 
L 135.134181 199.615632 
L 133.806208 201.180404 
L 132.461662 202.509925 
L 130.949007 203.995501 
L 129.306196 205.404219 
L 128.091805 206.791265 
L 127.014432 208.298512 
L 126.261947 211.192806 
L 126.290563 214.0871 
L 126.270083 216.981393 
L 125.831379 219.875687 
L 125.237161 222.76998 
L 125.465977 225.664274 
L 127.79942 228.558567 
L 128.091805 228.803248 
L 130.576982 231.452861 
L 130.949007 232.089375 
L 131.854361 234.347155 
L 132.466821 237.241448 
L 133.077877 240.135742 
L 133.806208 242.624662 
L 133.910912 243.030035 
L 134.612494 245.924329 
L 135.262464 248.818623 
L 136.184233 251.712916 
L 136.66341 252.621454 
L 137.744344 254.60721 
L 139.520612 256.46245 
L 140.973852 257.501503 
L 142.377814 258.301178 
L 145.235016 259.562542 
L 146.982726 260.395797 
L 148.092218 261.132169 
L 150.224954 263.290091 
L 150.94942 264.469305 
L 151.756206 266.184384 
L 152.88491 269.078678 
L 153.806622 271.273013 
L 154.09984 271.972971 
L 155.72892 274.867265 
L 156.663824 275.992778 
L 158.947736 277.761558 
L 159.521025 278.122573 
L 162.378227 279.223434 
L 165.235429 279.757036 
L 168.092631 280.09481 
L 170.949833 280.51874 
L 171.478421 280.655852 
L 173.807035 281.40332 
L 176.664237 282.682002 
L 178.570632 283.550146 
z
M 167.363654 271.972971 
L 165.235429 271.329072 
L 162.378227 269.235612 
L 162.244712 269.078678 
L 160.839509 266.184384 
L 160.169929 263.290091 
L 159.823243 260.395797 
L 159.521025 258.702608 
L 159.249823 257.501503 
L 157.481105 254.60721 
L 156.663824 253.855282 
L 153.806622 252.364545 
L 151.433098 251.712916 
L 150.94942 251.574256 
L 148.092218 250.618303 
L 145.831668 248.818623 
L 145.235016 247.538233 
L 144.764426 245.924329 
L 144.416906 243.030035 
L 143.837237 240.135742 
L 142.781627 237.241448 
L 142.377814 236.263203 
L 141.606277 234.347155 
L 140.763261 231.452861 
L 140.244383 228.558567 
L 139.907816 225.664274 
L 139.681602 222.76998 
L 139.565895 219.875687 
L 139.662513 216.981393 
L 140.087928 214.0871 
L 140.835067 211.192806 
L 141.848669 208.298512 
L 142.377814 207.11285 
L 143.138675 205.404219 
L 144.742823 202.509925 
L 145.235016 201.761617 
L 146.620283 199.615632 
L 148.092218 197.680416 
L 148.87468 196.721338 
L 150.94942 194.67078 
L 151.886947 193.827044 
L 153.806622 191.92198 
L 154.671023 190.932751 
L 156.080465 188.038457 
L 156.663824 185.828038 
L 156.835874 185.144164 
L 157.801183 182.24987 
L 159.521025 179.968588 
L 160.100796 179.355577 
L 162.378227 177.871642 
L 165.235429 176.512993 
L 165.389892 176.461283 
L 168.092631 175.550458 
L 170.949833 174.685085 
L 173.807035 173.726543 
L 174.223 173.566989 
L 176.664237 172.374661 
L 179.521439 170.945742 
L 180.070646 170.672696 
L 182.378641 169.562605 
L 185.235842 168.401781 
L 187.014219 167.778402 
L 188.093044 167.419947 
L 190.950246 166.452903 
L 193.807448 165.587451 
L 196.66465 165.031908 
L 199.521852 164.95362 
L 202.379054 165.301013 
L 205.236256 165.887817 
L 208.093458 166.565872 
L 210.950659 167.284169 
L 212.832633 167.778402 
L 213.807861 168.019934 
L 216.665063 168.737433 
L 219.522265 169.489761 
L 222.379467 170.343389 
L 223.336849 170.672696 
L 225.236669 171.338928 
L 228.093871 172.430791 
L 230.951073 173.550878 
L 230.99371 173.566989 
L 233.808275 174.616124 
L 236.665476 175.652645 
L 239.109383 176.461283 
L 239.522678 176.583785 
L 242.37988 177.353981 
L 245.237082 178.210909 
L 247.642986 179.355577 
L 248.094284 179.649433 
L 250.428579 182.24987 
L 250.951486 183.502003 
L 251.511586 185.144164 
L 252.141793 188.038457 
L 252.741311 190.932751 
L 253.197635 193.827044 
L 253.501298 196.721338 
L 253.808688 198.315847 
L 254.149115 199.615632 
L 255.732007 202.509925 
L 256.66589 203.850115 
L 257.728323 205.404219 
L 259.262055 208.298512 
L 259.523092 209.077545 
L 260.200482 211.192806 
L 260.573159 214.0871 
L 260.52926 216.981393 
L 260.469668 219.875687 
L 260.706193 222.76998 
L 261.021962 225.664274 
L 261.021822 228.558567 
L 260.401474 231.452861 
L 259.523092 233.236308 
L 258.855009 234.347155 
L 256.66589 237.031367 
L 256.474333 237.241448 
L 254.535296 240.135742 
L 253.808688 242.399994 
L 253.631637 243.030035 
L 253.083143 245.924329 
L 252.028815 248.818623 
L 250.951486 250.361577 
L 249.711287 251.712916 
L 248.094284 252.966496 
L 245.846467 254.60721 
L 245.237082 255.058489 
L 242.647943 257.501503 
L 242.37988 257.778507 
L 240.014227 260.395797 
L 239.522678 260.924032 
L 236.94461 263.290091 
L 236.665476 263.522839 
L 233.808275 265.638776 
L 233.060622 266.184384 
L 230.951073 267.535367 
L 228.456625 269.078678 
L 228.093871 269.28743 
L 225.236669 270.741937 
L 222.379467 271.821677 
L 221.743632 271.972971 
L 219.522265 272.562193 
L 216.665063 272.855588 
L 213.807861 272.759194 
L 210.950659 272.492793 
L 208.093458 272.321334 
L 205.236256 272.432599 
L 202.379054 272.775138 
L 199.521852 273.10711 
L 196.66465 273.239076 
L 193.807448 273.144144 
L 190.950246 272.884711 
L 188.093044 272.467623 
L 185.569453 271.972971 
L 185.235842 271.91505 
L 182.378641 271.692154 
L 179.521439 271.778126 
L 177.04815 271.972971 
L 176.664237 272.001877 
L 173.807035 272.225975 
L 170.949833 272.315451 
L 168.092631 272.142272 
z
" style="fill:#bee4f4;"/>
   </g>
   <g id="PathCollection_3">
    <path clip-path="url(#pe59dc5f5c6)" d="M 168.092631 272.142272 
L 170.949833 272.315451 
L 173.807035 272.225975 
L 176.664237 272.001877 
L 177.04815 271.972971 
L 179.521439 271.778126 
L 182.378641 271.692154 
L 185.235842 271.91505 
L 185.569453 271.972971 
L 188.093044 272.467623 
L 190.950246 272.884711 
L 193.807448 273.144144 
L 196.66465 273.239076 
L 199.521852 273.10711 
L 202.379054 272.775138 
L 205.236256 272.432599 
L 208.093458 272.321334 
L 210.950659 272.492793 
L 213.807861 272.759194 
L 216.665063 272.855588 
L 219.522265 272.562193 
L 221.743632 271.972971 
L 222.379467 271.821677 
L 225.236669 270.741937 
L 228.093871 269.28743 
L 228.456625 269.078678 
L 230.951073 267.535367 
L 233.060622 266.184384 
L 233.808275 265.638776 
L 236.665476 263.522839 
L 236.94461 263.290091 
L 239.522678 260.924032 
L 240.014227 260.395797 
L 242.37988 257.778507 
L 242.647943 257.501503 
L 245.237082 255.058489 
L 245.846467 254.60721 
L 248.094284 252.966496 
L 249.711287 251.712916 
L 250.951486 250.361577 
L 252.028815 248.818623 
L 253.083143 245.924329 
L 253.631637 243.030035 
L 253.808688 242.399994 
L 254.535296 240.135742 
L 256.474333 237.241448 
L 256.66589 237.031367 
L 258.855009 234.347155 
L 259.523092 233.236308 
L 260.401474 231.452861 
L 261.021822 228.558567 
L 261.021962 225.664274 
L 260.706193 222.76998 
L 260.469668 219.875687 
L 260.52926 216.981393 
L 260.573159 214.0871 
L 260.200482 211.192806 
L 259.523092 209.077545 
L 259.262055 208.298512 
L 257.728323 205.404219 
L 256.66589 203.850115 
L 255.732007 202.509925 
L 254.149115 199.615632 
L 253.808688 198.315847 
L 253.501298 196.721338 
L 253.197635 193.827044 
L 252.741311 190.932751 
L 252.141793 188.038457 
L 251.511586 185.144164 
L 250.951486 183.502003 
L 250.428579 182.24987 
L 248.094284 179.649433 
L 247.642986 179.355577 
L 245.237082 178.210909 
L 242.37988 177.353981 
L 239.522678 176.583785 
L 239.109383 176.461283 
L 236.665476 175.652645 
L 233.808275 174.616124 
L 230.99371 173.566989 
L 230.951073 173.550878 
L 228.093871 172.430791 
L 225.236669 171.338928 
L 223.336849 170.672696 
L 222.379467 170.343389 
L 219.522265 169.489761 
L 216.665063 168.737433 
L 213.807861 168.019934 
L 212.832633 167.778402 
L 210.950659 167.284169 
L 208.093458 166.565872 
L 205.236256 165.887817 
L 202.379054 165.301013 
L 199.521852 164.95362 
L 196.66465 165.031908 
L 193.807448 165.587451 
L 190.950246 166.452903 
L 188.093044 167.419947 
L 187.014219 167.778402 
L 185.235842 168.401781 
L 182.378641 169.562605 
L 180.070646 170.672696 
L 179.521439 170.945742 
L 176.664237 172.374661 
L 174.223 173.566989 
L 173.807035 173.726543 
L 170.949833 174.685085 
L 168.092631 175.550458 
L 165.389892 176.461283 
L 165.235429 176.512993 
L 162.378227 177.871642 
L 160.100796 179.355577 
L 159.521025 179.968588 
L 157.801183 182.24987 
L 156.835874 185.144164 
L 156.663824 185.828038 
L 156.080465 188.038457 
L 154.671023 190.932751 
L 153.806622 191.92198 
L 151.886947 193.827044 
L 150.94942 194.67078 
L 148.87468 196.721338 
L 148.092218 197.680416 
L 146.620283 199.615632 
L 145.235016 201.761617 
L 144.742823 202.509925 
L 143.138675 205.404219 
L 142.377814 207.11285 
L 141.848669 208.298512 
L 140.835067 211.192806 
L 140.087928 214.0871 
L 139.662513 216.981393 
L 139.565895 219.875687 
L 139.681602 222.76998 
L 139.907816 225.664274 
L 140.244383 228.558567 
L 140.763261 231.452861 
L 141.606277 234.347155 
L 142.377814 236.263203 
L 142.781627 237.241448 
L 143.837237 240.135742 
L 144.416906 243.030035 
L 144.764426 245.924329 
L 145.235016 247.538233 
L 145.831668 248.818623 
L 148.092218 250.618303 
L 150.94942 251.574256 
L 151.433098 251.712916 
L 153.806622 252.364545 
L 156.663824 253.855282 
L 157.481105 254.60721 
L 159.249823 257.501503 
L 159.521025 258.702608 
L 159.823243 260.395797 
L 160.169929 263.290091 
L 160.839509 266.184384 
L 162.244712 269.078678 
L 162.378227 269.235612 
L 165.235429 271.329072 
L 167.363654 271.972971 
z
M 171.100638 263.290091 
L 170.949833 263.235003 
L 168.092631 260.645748 
L 167.944663 260.395797 
L 166.631856 257.501503 
L 165.476842 254.60721 
L 165.235429 254.111612 
L 163.953852 251.712916 
L 162.378227 249.614977 
L 161.614278 248.818623 
L 159.521025 246.73274 
L 158.517895 245.924329 
L 156.663824 244.10482 
L 155.537264 243.030035 
L 153.806622 240.993339 
L 153.218777 240.135742 
L 151.340512 237.241448 
L 150.94942 236.582803 
L 149.73928 234.347155 
L 148.592275 231.452861 
L 148.188847 228.558567 
L 148.7262 225.664274 
L 150.070685 222.76998 
L 150.94942 220.743839 
L 151.362471 219.875687 
L 151.743209 216.981393 
L 151.654333 214.0871 
L 151.752883 211.192806 
L 152.285545 208.298512 
L 153.263673 205.404219 
L 153.806622 204.272632 
L 154.553505 202.509925 
L 156.483798 199.615632 
L 156.663824 199.421744 
L 159.232551 196.721338 
L 159.521025 196.432268 
L 161.989817 193.827044 
L 162.378227 193.277472 
L 164.121815 190.932751 
L 165.235429 189.143472 
L 166.133269 188.038457 
L 168.092631 185.912043 
L 169.165442 185.144164 
L 170.949833 184.157028 
L 173.807035 182.992161 
L 175.90563 182.24987 
L 176.664237 181.985692 
L 179.521439 180.831495 
L 182.378641 179.391683 
L 182.440971 179.355577 
L 185.235842 177.737403 
L 187.290474 176.461283 
L 188.093044 176.010643 
L 190.950246 174.522143 
L 193.099441 173.566989 
L 193.807448 173.290239 
L 196.66465 172.530917 
L 199.521852 172.242541 
L 202.379054 172.347601 
L 205.236256 172.666367 
L 208.093458 173.116377 
L 210.100059 173.566989 
L 210.950659 173.779584 
L 213.807861 174.845216 
L 216.665063 176.180381 
L 217.286871 176.461283 
L 219.522265 177.534586 
L 222.379467 178.691366 
L 224.033722 179.355577 
L 225.236669 179.832597 
L 228.093871 181.256986 
L 229.788869 182.24987 
L 230.951073 183.026731 
L 233.808275 184.856086 
L 234.44661 185.144164 
L 236.665476 186.317242 
L 239.522678 187.380373 
L 241.031388 188.038457 
L 242.37988 188.683669 
L 244.330875 190.932751 
L 245.237082 192.66064 
L 245.576521 193.827044 
L 245.857069 196.721338 
L 246.082455 199.615632 
L 247.009377 202.509925 
L 248.094284 204.337214 
L 248.77992 205.404219 
L 250.584073 208.298512 
L 250.951486 209.34547 
L 251.670883 211.192806 
L 251.946305 214.0871 
L 251.731082 216.981393 
L 251.491037 219.875687 
L 251.557219 222.76998 
L 251.82128 225.664274 
L 251.545637 228.558567 
L 250.951486 229.719151 
L 250.078748 231.452861 
L 248.145511 234.347155 
L 248.094284 234.430748 
L 246.804849 237.241448 
L 245.841338 240.135742 
L 245.237082 241.938563 
L 244.871053 243.030035 
L 243.309505 245.924329 
L 242.37988 246.974117 
L 240.584288 248.818623 
L 239.522678 249.755224 
L 237.237717 251.712916 
L 236.665476 252.227724 
L 233.808275 254.426749 
L 233.516429 254.60721 
L 230.951073 256.315488 
L 228.808564 257.501503 
L 228.093871 257.980996 
L 225.236669 259.791403 
L 224.281181 260.395797 
L 222.379467 261.7416 
L 220.061613 263.290091 
L 219.522265 263.588191 
L 216.665063 264.82792 
L 213.807861 265.521147 
L 210.950659 265.772632 
L 208.093458 265.827329 
L 205.236256 265.865264 
L 202.379054 265.828969 
L 199.521852 265.498746 
L 196.66465 264.700068 
L 193.807448 263.500664 
L 193.250382 263.290091 
L 190.950246 262.562776 
L 188.093044 262.151919 
L 185.235842 262.325733 
L 182.378641 262.939483 
L 180.983032 263.290091 
L 179.521439 263.649537 
L 176.664237 264.079413 
L 173.807035 264.035833 
z
" style="fill:#91d2ed;"/>
   </g>
   <g id="PathCollection_4">
    <path clip-path="url(#pe59dc5f5c6)" d="M 173.807035 264.035833 
L 176.664237 264.079413 
L 179.521439 263.649537 
L 180.983032 263.290091 
L 182.378641 262.939483 
L 185.235842 262.325733 
L 188.093044 262.151919 
L 190.950246 262.562776 
L 193.250382 263.290091 
L 193.807448 263.500664 
L 196.66465 264.700068 
L 199.521852 265.498746 
L 202.379054 265.828969 
L 205.236256 265.865264 
L 208.093458 265.827329 
L 210.950659 265.772632 
L 213.807861 265.521147 
L 216.665063 264.82792 
L 219.522265 263.588191 
L 220.061613 263.290091 
L 222.379467 261.7416 
L 224.281181 260.395797 
L 225.236669 259.791403 
L 228.093871 257.980996 
L 228.808564 257.501503 
L 230.951073 256.315488 
L 233.516429 254.60721 
L 233.808275 254.426749 
L 236.665476 252.227724 
L 237.237717 251.712916 
L 239.522678 249.755224 
L 240.584288 248.818623 
L 242.37988 246.974117 
L 243.309505 245.924329 
L 244.871053 243.030035 
L 245.237082 241.938563 
L 245.841338 240.135742 
L 246.804849 237.241448 
L 248.094284 234.430748 
L 248.145511 234.347155 
L 250.078748 231.452861 
L 250.951486 229.719151 
L 251.545637 228.558567 
L 251.82128 225.664274 
L 251.557219 222.76998 
L 251.491037 219.875687 
L 251.731082 216.981393 
L 251.946305 214.0871 
L 251.670883 211.192806 
L 250.951486 209.34547 
L 250.584073 208.298512 
L 248.77992 205.404219 
L 248.094284 204.337214 
L 247.009377 202.509925 
L 246.082455 199.615632 
L 245.857069 196.721338 
L 245.576521 193.827044 
L 245.237082 192.66064 
L 244.330875 190.932751 
L 242.37988 188.683669 
L 241.031388 188.038457 
L 239.522678 187.380373 
L 236.665476 186.317242 
L 234.44661 185.144164 
L 233.808275 184.856086 
L 230.951073 183.026731 
L 229.788869 182.24987 
L 228.093871 181.256986 
L 225.236669 179.832597 
L 224.033722 179.355577 
L 222.379467 178.691366 
L 219.522265 177.534586 
L 217.286871 176.461283 
L 216.665063 176.180381 
L 213.807861 174.845216 
L 210.950659 173.779584 
L 210.100059 173.566989 
L 208.093458 173.116377 
L 205.236256 172.666367 
L 202.379054 172.347601 
L 199.521852 172.242541 
L 196.66465 172.530917 
L 193.807448 173.290239 
L 193.099441 173.566989 
L 190.950246 174.522143 
L 188.093044 176.010643 
L 187.290474 176.461283 
L 185.235842 177.737403 
L 182.440971 179.355577 
L 182.378641 179.391683 
L 179.521439 180.831495 
L 176.664237 181.985692 
L 175.90563 182.24987 
L 173.807035 182.992161 
L 170.949833 184.157028 
L 169.165442 185.144164 
L 168.092631 185.912043 
L 166.133269 188.038457 
L 165.235429 189.143472 
L 164.121815 190.932751 
L 162.378227 193.277472 
L 161.989817 193.827044 
L 159.521025 196.432268 
L 159.232551 196.721338 
L 156.663824 199.421744 
L 156.483798 199.615632 
L 154.553505 202.509925 
L 153.806622 204.272632 
L 153.263673 205.404219 
L 152.285545 208.298512 
L 151.752883 211.192806 
L 151.654333 214.0871 
L 151.743209 216.981393 
L 151.362471 219.875687 
L 150.94942 220.743839 
L 150.070685 222.76998 
L 148.7262 225.664274 
L 148.188847 228.558567 
L 148.592275 231.452861 
L 149.73928 234.347155 
L 150.94942 236.582803 
L 151.340512 237.241448 
L 153.218777 240.135742 
L 153.806622 240.993339 
L 155.537264 243.030035 
L 156.663824 244.10482 
L 158.517895 245.924329 
L 159.521025 246.73274 
L 161.614278 248.818623 
L 162.378227 249.614977 
L 163.953852 251.712916 
L 165.235429 254.111612 
L 165.476842 254.60721 
L 166.631856 257.501503 
L 167.944663 260.395797 
L 168.092631 260.645748 
L 170.949833 263.235003 
L 171.100638 263.290091 
z
M 192.309459 257.501503 
L 190.950246 257.141766 
L 188.093044 256.583338 
L 185.235842 256.273678 
L 182.378641 256.240778 
L 179.521439 256.359855 
L 176.664237 256.144589 
L 173.807035 254.712808 
L 173.70766 254.60721 
L 171.605789 251.712916 
L 170.949833 250.4869 
L 170.145266 248.818623 
L 168.475854 245.924329 
L 168.092631 245.416445 
L 166.057339 243.030035 
L 165.235429 242.158375 
L 163.251426 240.135742 
L 162.378227 239.2997 
L 160.168285 237.241448 
L 159.521025 236.585221 
L 157.527926 234.347155 
L 156.663824 232.536373 
L 156.191588 231.452861 
L 156.426472 228.558567 
L 156.663824 228.149725 
L 158.182443 225.664274 
L 159.521025 223.841976 
L 160.105369 222.76998 
L 160.957561 219.875687 
L 160.89054 216.981393 
L 160.24847 214.0871 
L 159.646816 211.192806 
L 159.523905 208.298512 
L 160.125682 205.404219 
L 161.655418 202.509925 
L 162.378227 201.631965 
L 164.197413 199.615632 
L 165.235429 198.575975 
L 167.022707 196.721338 
L 168.092631 195.548433 
L 169.654029 193.827044 
L 170.949833 192.517766 
L 172.847687 190.932751 
L 173.807035 190.216253 
L 176.664237 188.766899 
L 179.521439 188.045987 
L 179.615186 188.038457 
L 182.378641 187.754988 
L 185.235842 187.488699 
L 188.093044 186.581601 
L 190.634384 185.144164 
L 190.950246 184.908231 
L 193.807448 182.543216 
L 194.192021 182.24987 
L 196.66465 180.521131 
L 199.361998 179.355577 
L 199.521852 179.300429 
L 202.379054 178.875349 
L 205.236256 179.039642 
L 206.512195 179.355577 
L 208.093458 179.761509 
L 210.950659 181.020624 
L 213.08295 182.24987 
L 213.807861 182.65676 
L 216.665063 184.214819 
L 218.612979 185.144164 
L 219.522265 185.559293 
L 222.379467 186.7872 
L 224.703424 188.038457 
L 225.236669 188.341619 
L 228.093871 190.504689 
L 228.585843 190.932751 
L 230.951073 192.990352 
L 232.002549 193.827044 
L 233.808275 195.22741 
L 235.816216 196.721338 
L 236.665476 197.450576 
L 238.492685 199.615632 
L 239.522678 201.075225 
L 240.298314 202.509925 
L 242.186151 205.404219 
L 242.37988 205.688542 
L 244.074524 208.298512 
L 245.228832 211.192806 
L 245.237082 211.316785 
L 245.426688 214.0871 
L 245.237082 215.136724 
L 244.910096 216.981393 
L 244.059572 219.875687 
L 243.100041 222.76998 
L 242.37988 224.75743 
L 242.042973 225.664274 
L 240.986954 228.558567 
L 240.238983 231.452861 
L 239.990546 234.347155 
L 239.810784 237.241448 
L 239.522678 238.618217 
L 239.207964 240.135742 
L 237.792179 243.030035 
L 236.665476 244.415692 
L 235.230029 245.924329 
L 233.808275 247.13364 
L 231.347235 248.818623 
L 230.951073 249.076266 
L 228.093871 250.508885 
L 225.236669 251.633261 
L 225.004513 251.712916 
L 222.379467 252.68241 
L 219.522265 253.741131 
L 217.308367 254.60721 
L 216.665063 254.931905 
L 213.807861 256.328282 
L 210.950659 257.380465 
L 210.547967 257.501503 
L 208.093458 258.314651 
L 205.236256 259.105726 
L 202.379054 259.586897 
L 199.521852 259.494144 
L 196.66465 258.848663 
L 193.807448 257.948407 
z
" style="fill:#66c1e6;"/>
   </g>
   <g id="PathCollection_5">
    <path clip-path="url(#pe59dc5f5c6)" d="M 193.807448 257.948407 
L 196.66465 258.848663 
L 199.521852 259.494144 
L 202.379054 259.586897 
L 205.236256 259.105726 
L 208.093458 258.314651 
L 210.547967 257.501503 
L 210.950659 257.380465 
L 213.807861 256.328282 
L 216.665063 254.931905 
L 217.308367 254.60721 
L 219.522265 253.741131 
L 222.379467 252.68241 
L 225.004513 251.712916 
L 225.236669 251.633261 
L 228.093871 250.508885 
L 230.951073 249.076266 
L 231.347235 248.818623 
L 233.808275 247.13364 
L 235.230029 245.924329 
L 236.665476 244.415692 
L 237.792179 243.030035 
L 239.207964 240.135742 
L 239.522678 238.618217 
L 239.810784 237.241448 
L 239.990546 234.347155 
L 240.238983 231.452861 
L 240.986954 228.558567 
L 242.042973 225.664274 
L 242.37988 224.75743 
L 243.100041 222.76998 
L 244.059572 219.875687 
L 244.910096 216.981393 
L 245.237082 215.136724 
L 245.426688 214.0871 
L 245.237082 211.316785 
L 245.228832 211.192806 
L 244.074524 208.298512 
L 242.37988 205.688542 
L 242.186151 205.404219 
L 240.298314 202.509925 
L 239.522678 201.075225 
L 238.492685 199.615632 
L 236.665476 197.450576 
L 235.816216 196.721338 
L 233.808275 195.22741 
L 232.002549 193.827044 
L 230.951073 192.990352 
L 228.585843 190.932751 
L 228.093871 190.504689 
L 225.236669 188.341619 
L 224.703424 188.038457 
L 222.379467 186.7872 
L 219.522265 185.559293 
L 218.612979 185.144164 
L 216.665063 184.214819 
L 213.807861 182.65676 
L 213.08295 182.24987 
L 210.950659 181.020624 
L 208.093458 179.761509 
L 206.512195 179.355577 
L 205.236256 179.039642 
L 202.379054 178.875349 
L 199.521852 179.300429 
L 199.361998 179.355577 
L 196.66465 180.521131 
L 194.192021 182.24987 
L 193.807448 182.543216 
L 190.950246 184.908231 
L 190.634384 185.144164 
L 188.093044 186.581601 
L 185.235842 187.488699 
L 182.378641 187.754988 
L 179.615186 188.038457 
L 179.521439 188.045987 
L 176.664237 188.766899 
L 173.807035 190.216253 
L 172.847687 190.932751 
L 170.949833 192.517766 
L 169.654029 193.827044 
L 168.092631 195.548433 
L 167.022707 196.721338 
L 165.235429 198.575975 
L 164.197413 199.615632 
L 162.378227 201.631965 
L 161.655418 202.509925 
L 160.125682 205.404219 
L 159.523905 208.298512 
L 159.646816 211.192806 
L 160.24847 214.0871 
L 160.89054 216.981393 
L 160.957561 219.875687 
L 160.105369 222.76998 
L 159.521025 223.841976 
L 158.182443 225.664274 
L 156.663824 228.149725 
L 156.426472 228.558567 
L 156.191588 231.452861 
L 156.663824 232.536373 
L 157.527926 234.347155 
L 159.521025 236.585221 
L 160.168285 237.241448 
L 162.378227 239.2997 
L 163.251426 240.135742 
L 165.235429 242.158375 
L 166.057339 243.030035 
L 168.092631 245.416445 
L 168.475854 245.924329 
L 170.145266 248.818623 
L 170.949833 250.4869 
L 171.605789 251.712916 
L 173.70766 254.60721 
L 173.807035 254.712808 
L 176.664237 256.144589 
L 179.521439 256.359855 
L 182.378641 256.240778 
L 185.235842 256.273678 
L 188.093044 256.583338 
L 190.950246 257.141766 
L 192.309459 257.501503 
z
M 187.046446 251.712916 
L 185.235842 251.191765 
L 182.378641 250.364618 
L 179.521439 249.275014 
L 178.788584 248.818623 
L 176.664237 246.828981 
L 176.020401 245.924329 
L 173.861047 243.030035 
L 173.807035 242.971785 
L 171.323002 240.135742 
L 170.949833 239.725348 
L 168.733246 237.241448 
L 168.092631 236.428943 
L 166.298622 234.347155 
L 165.235429 232.531526 
L 164.578642 231.452861 
L 164.218865 228.558567 
L 164.75085 225.664274 
L 165.235429 223.767191 
L 165.409483 222.76998 
L 165.861784 219.875687 
L 166.099905 216.981393 
L 165.986104 214.0871 
L 165.582392 211.192806 
L 165.46881 208.298512 
L 166.431458 205.404219 
L 168.092631 203.20908 
L 168.708858 202.509925 
L 170.949833 200.17832 
L 171.496328 199.615632 
L 173.807035 196.985086 
L 174.079176 196.721338 
L 176.664237 194.695338 
L 178.848926 193.827044 
L 179.521439 193.625431 
L 182.378641 193.529565 
L 185.235842 193.541875 
L 188.093044 192.992663 
L 190.950246 191.753389 
L 192.453315 190.932751 
L 193.807448 190.15215 
L 196.66465 188.620463 
L 197.944104 188.038457 
L 199.521852 187.15256 
L 202.379054 186.035352 
L 205.236256 185.752231 
L 208.093458 186.351808 
L 210.950659 187.488146 
L 212.037355 188.038457 
L 213.807861 188.782 
L 216.665063 190.1629 
L 218.109299 190.932751 
L 219.522265 191.681345 
L 222.379467 193.462664 
L 222.877335 193.827044 
L 225.236669 195.756335 
L 226.302933 196.721338 
L 228.093871 198.43411 
L 229.427879 199.615632 
L 230.951073 200.970432 
L 232.707859 202.509925 
L 233.808275 203.564978 
L 235.500852 205.404219 
L 236.665476 206.818526 
L 237.774985 208.298512 
L 239.337189 211.192806 
L 239.522678 212.435284 
L 239.744276 214.0871 
L 239.522678 215.204243 
L 239.173073 216.981393 
L 238.06929 219.875687 
L 236.687857 222.76998 
L 236.665476 222.815145 
L 235.296323 225.664274 
L 234.230031 228.558567 
L 233.808275 231.055373 
L 233.754041 231.452861 
L 233.645867 234.347155 
L 233.393477 237.241448 
L 232.318321 240.135742 
L 230.951073 241.789747 
L 229.447799 243.030035 
L 228.093871 243.876368 
L 225.236669 245.123785 
L 222.9403 245.924329 
L 222.379467 246.127817 
L 219.522265 247.166509 
L 216.665063 248.305466 
L 215.500365 248.818623 
L 213.807861 249.514736 
L 210.950659 250.636573 
L 208.093458 251.609887 
L 207.757205 251.712916 
L 205.236256 252.478327 
L 202.379054 253.245263 
L 199.521852 253.715738 
L 196.66465 253.705656 
L 193.807448 253.308261 
L 190.950246 252.702765 
L 188.093044 251.980637 
z
" style="fill:#3aaede;"/>
   </g>
   <g id="PathCollection_6">
    <path clip-path="url(#pe59dc5f5c6)" d="M 188.093044 251.980637 
L 190.950246 252.702765 
L 193.807448 253.308261 
L 196.66465 253.705656 
L 199.521852 253.715738 
L 202.379054 253.245263 
L 205.236256 252.478327 
L 207.757205 251.712916 
L 208.093458 251.609887 
L 210.950659 250.636573 
L 213.807861 249.514736 
L 215.500365 248.818623 
L 216.665063 248.305466 
L 219.522265 247.166509 
L 222.379467 246.127817 
L 222.9403 245.924329 
L 225.236669 245.123785 
L 228.093871 243.876368 
L 229.447799 243.030035 
L 230.951073 241.789747 
L 232.318321 240.135742 
L 233.393477 237.241448 
L 233.645867 234.347155 
L 233.754041 231.452861 
L 233.808275 231.055373 
L 234.230031 228.558567 
L 235.296323 225.664274 
L 236.665476 222.815145 
L 236.687857 222.76998 
L 238.06929 219.875687 
L 239.173073 216.981393 
L 239.522678 215.204243 
L 239.744276 214.0871 
L 239.522678 212.435284 
L 239.337189 211.192806 
L 237.774985 208.298512 
L 236.665476 206.818526 
L 235.500852 205.404219 
L 233.808275 203.564978 
L 232.707859 202.509925 
L 230.951073 200.970432 
L 229.427879 199.615632 
L 228.093871 198.43411 
L 226.302933 196.721338 
L 225.236669 195.756335 
L 222.877335 193.827044 
L 222.379467 193.462664 
L 219.522265 191.681345 
L 218.109299 190.932751 
L 216.665063 190.1629 
L 213.807861 188.782 
L 212.037355 188.038457 
L 210.950659 187.488146 
L 208.093458 186.351808 
L 205.236256 185.752231 
L 202.379054 186.035352 
L 199.521852 187.15256 
L 197.944104 188.038457 
L 196.66465 188.620463 
L 193.807448 190.15215 
L 192.453315 190.932751 
L 190.950246 191.753389 
L 188.093044 192.992663 
L 185.235842 193.541875 
L 182.378641 193.529565 
L 179.521439 193.625431 
L 178.848926 193.827044 
L 176.664237 194.695338 
L 174.079176 196.721338 
L 173.807035 196.985086 
L 171.496328 199.615632 
L 170.949833 200.17832 
L 168.708858 202.509925 
L 168.092631 203.20908 
L 166.431458 205.404219 
L 165.46881 208.298512 
L 165.582392 211.192806 
L 165.986104 214.0871 
L 166.099905 216.981393 
L 165.861784 219.875687 
L 165.409483 222.76998 
L 165.235429 223.767191 
L 164.75085 225.664274 
L 164.218865 228.558567 
L 164.578642 231.452861 
L 165.235429 232.531526 
L 166.298622 234.347155 
L 168.092631 236.428943 
L 168.733246 237.241448 
L 170.949833 239.725348 
L 171.323002 240.135742 
L 173.807035 242.971785 
L 173.861047 243.030035 
L 176.020401 245.924329 
L 176.664237 246.828981 
L 178.788584 248.818623 
L 179.521439 249.275014 
L 182.378641 250.364618 
L 185.235842 251.191765 
L 187.046446 251.712916 
z
M 185.406305 245.924329 
L 185.235842 245.812901 
L 182.378641 243.470689 
L 181.912478 243.030035 
L 179.521439 240.648002 
L 179.011133 240.135742 
L 176.664237 237.982699 
L 175.916203 237.241448 
L 173.807035 234.995876 
L 173.271377 234.347155 
L 171.171127 231.452861 
L 170.949833 231.099574 
L 169.647526 228.558567 
L 168.966335 225.664274 
L 168.930873 222.76998 
L 169.307302 219.875687 
L 169.936664 216.981393 
L 170.65089 214.0871 
L 170.949833 212.677274 
L 171.406194 211.192806 
L 172.65277 208.298512 
L 173.807035 206.816834 
L 175.31014 205.404219 
L 176.664237 204.310624 
L 179.521439 202.550334 
L 179.600683 202.509925 
L 182.378641 201.139018 
L 185.235842 200.080858 
L 186.45757 199.615632 
L 188.093044 199.044095 
L 190.950246 197.84041 
L 193.216359 196.721338 
L 193.807448 196.421635 
L 196.66465 195.106029 
L 199.521852 194.028969 
L 200.179542 193.827044 
L 202.379054 193.23181 
L 205.236256 192.608637 
L 208.093458 192.389846 
L 210.950659 192.728137 
L 213.807861 193.613276 
L 214.257715 193.827044 
L 216.665063 195.097566 
L 219.112426 196.721338 
L 219.522265 197.074912 
L 222.26707 199.615632 
L 222.379467 199.741368 
L 224.973874 202.509925 
L 225.236669 202.784984 
L 227.900803 205.404219 
L 228.093871 205.598128 
L 230.662484 208.298512 
L 230.951073 208.671267 
L 232.725905 211.192806 
L 233.710594 214.0871 
L 233.507898 216.981393 
L 232.52342 219.875687 
L 231.180922 222.76998 
L 230.951073 223.304115 
L 230.090609 225.664274 
L 229.518469 228.558567 
L 229.222226 231.452861 
L 228.746724 234.347155 
L 228.093871 236.015513 
L 227.403058 237.241448 
L 225.236669 239.15734 
L 223.069314 240.135742 
L 222.379467 240.413102 
L 219.522265 241.279488 
L 216.665063 242.049339 
L 213.807861 242.844349 
L 213.165296 243.030035 
L 210.950659 243.889236 
L 208.093458 245.074985 
L 206.095105 245.924329 
L 205.236256 246.246395 
L 202.379054 247.285921 
L 199.521852 248.198862 
L 196.66465 248.73792 
L 193.807448 248.750453 
L 190.950246 248.254245 
L 188.093044 247.286897 
z
" style="fill:#2195c5;"/>
   </g>
   <g id="PathCollection_7">
    <path clip-path="url(#pe59dc5f5c6)" d="M 188.093044 247.286897 
L 190.950246 248.254245 
L 193.807448 248.750453 
L 196.66465 248.73792 
L 199.521852 248.198862 
L 202.379054 247.285921 
L 205.236256 246.246395 
L 206.095105 245.924329 
L 208.093458 245.074985 
L 210.950659 243.889236 
L 213.165296 243.030035 
L 213.807861 242.844349 
L 216.665063 242.049339 
L 219.522265 241.279488 
L 222.379467 240.413102 
L 223.069314 240.135742 
L 225.236669 239.15734 
L 227.403058 237.241448 
L 228.093871 236.015513 
L 228.746724 234.347155 
L 229.222226 231.452861 
L 229.518469 228.558567 
L 230.090609 225.664274 
L 230.951073 223.304115 
L 231.180922 222.76998 
L 232.52342 219.875687 
L 233.507898 216.981393 
L 233.710594 214.0871 
L 232.725905 211.192806 
L 230.951073 208.671267 
L 230.662484 208.298512 
L 228.093871 205.598128 
L 227.900803 205.404219 
L 225.236669 202.784984 
L 224.973874 202.509925 
L 222.379467 199.741368 
L 222.26707 199.615632 
L 219.522265 197.074912 
L 219.112426 196.721338 
L 216.665063 195.097566 
L 214.257715 193.827044 
L 213.807861 193.613276 
L 210.950659 192.728137 
L 208.093458 192.389846 
L 205.236256 192.608637 
L 202.379054 193.23181 
L 200.179542 193.827044 
L 199.521852 194.028969 
L 196.66465 195.106029 
L 193.807448 196.421635 
L 193.216359 196.721338 
L 190.950246 197.84041 
L 188.093044 199.044095 
L 186.45757 199.615632 
L 185.235842 200.080858 
L 182.378641 201.139018 
L 179.600683 202.509925 
L 179.521439 202.550334 
L 176.664237 204.310624 
L 175.31014 205.404219 
L 173.807035 206.816834 
L 172.65277 208.298512 
L 171.406194 211.192806 
L 170.949833 212.677274 
L 170.65089 214.0871 
L 169.936664 216.981393 
L 169.307302 219.875687 
L 168.930873 222.76998 
L 168.966335 225.664274 
L 169.647526 228.558567 
L 170.949833 231.099574 
L 171.171127 231.452861 
L 173.271377 234.347155 
L 173.807035 234.995876 
L 175.916203 237.241448 
L 176.664237 237.982699 
L 179.011133 240.135742 
L 179.521439 240.648002 
L 181.912478 243.030035 
L 182.378641 243.470689 
L 185.235842 245.812901 
L 185.406305 245.924329 
z
M 186.656689 240.135742 
L 185.235842 238.882791 
L 183.579123 237.241448 
L 182.378641 236.125055 
L 180.461108 234.347155 
L 179.521439 233.489872 
L 177.451061 231.452861 
L 176.664237 230.711549 
L 174.77433 228.558567 
L 173.807035 227.263187 
L 172.945346 225.664274 
L 172.328506 222.76998 
L 172.688095 219.875687 
L 173.807035 217.063597 
L 173.853735 216.981393 
L 176.041436 214.0871 
L 176.664237 213.289617 
L 178.978732 211.192806 
L 179.521439 210.697125 
L 182.378641 208.47497 
L 182.623559 208.298512 
L 185.235842 206.603566 
L 187.615795 205.404219 
L 188.093044 205.16972 
L 190.950246 204.169822 
L 193.807448 203.564724 
L 196.66465 203.04959 
L 198.597966 202.509925 
L 199.521852 202.178307 
L 202.379054 200.750818 
L 204.568013 199.615632 
L 205.236256 199.292797 
L 208.093458 198.3861 
L 210.950659 198.421435 
L 213.807861 199.58825 
L 213.846593 199.615632 
L 216.522473 202.509925 
L 216.665063 202.685235 
L 218.812316 205.404219 
L 219.522265 206.045296 
L 222.053569 208.298512 
L 222.379467 208.548043 
L 225.236669 211.185673 
L 225.243105 211.192806 
L 227.147838 214.0871 
L 227.727349 216.981393 
L 227.242134 219.875687 
L 226.399129 222.76998 
L 225.798827 225.664274 
L 225.511979 228.558567 
L 225.236669 230.557088 
L 225.090042 231.452861 
L 223.604986 234.347155 
L 222.379467 235.436479 
L 219.522265 236.776113 
L 217.548437 237.241448 
L 216.665063 237.441517 
L 213.807861 237.810251 
L 210.950659 238.097694 
L 208.093458 238.514011 
L 205.236256 239.154644 
L 202.379054 239.974849 
L 201.885527 240.135742 
L 199.521852 241.083923 
L 196.66465 242.203163 
L 193.807448 242.921874 
L 190.950246 242.714618 
L 188.093044 241.327039 
z
" style="fill:#197499;"/>
   </g>
   <g id="PathCollection_8">
    <path clip-path="url(#pe59dc5f5c6)" d="M 188.093044 241.327039 
L 190.950246 242.714618 
L 193.807448 242.921874 
L 196.66465 242.203163 
L 199.521852 241.083923 
L 201.885527 240.135742 
L 202.379054 239.974849 
L 205.236256 239.154644 
L 208.093458 238.514011 
L 210.950659 238.097694 
L 213.807861 237.810251 
L 216.665063 237.441517 
L 217.548437 237.241448 
L 219.522265 236.776113 
L 222.379467 235.436479 
L 223.604986 234.347155 
L 225.090042 231.452861 
L 225.236669 230.557088 
L 225.511979 228.558567 
L 225.798827 225.664274 
L 226.399129 222.76998 
L 227.242134 219.875687 
L 227.727349 216.981393 
L 227.147838 214.0871 
L 225.243105 211.192806 
L 225.236669 211.185673 
L 222.379467 208.548043 
L 222.053569 208.298512 
L 219.522265 206.045296 
L 218.812316 205.404219 
L 216.665063 202.685235 
L 216.522473 202.509925 
L 213.846593 199.615632 
L 213.807861 199.58825 
L 210.950659 198.421435 
L 208.093458 198.3861 
L 205.236256 199.292797 
L 204.568013 199.615632 
L 202.379054 200.750818 
L 199.521852 202.178307 
L 198.597966 202.509925 
L 196.66465 203.04959 
L 193.807448 203.564724 
L 190.950246 204.169822 
L 188.093044 205.16972 
L 187.615795 205.404219 
L 185.235842 206.603566 
L 182.623559 208.298512 
L 182.378641 208.47497 
L 179.521439 210.697125 
L 178.978732 211.192806 
L 176.664237 213.289617 
L 176.041436 214.0871 
L 173.853735 216.981393 
L 173.807035 217.063597 
L 172.688095 219.875687 
L 172.328506 222.76998 
L 172.945346 225.664274 
L 173.807035 227.263187 
L 174.77433 228.558567 
L 176.664237 230.711549 
L 177.451061 231.452861 
L 179.521439 233.489872 
L 180.461108 234.347155 
L 182.378641 236.125055 
L 183.579123 237.241448 
L 185.235842 238.882791 
L 186.656689 240.135742 
z
M 189.413031 234.347155 
L 188.093044 233.685449 
L 185.235842 231.609787 
L 185.052027 231.452861 
L 182.378641 229.302972 
L 181.497636 228.558567 
L 179.521439 226.927921 
L 178.216397 225.664274 
L 176.664237 223.11045 
L 176.524324 222.76998 
L 176.664237 221.796843 
L 177.066433 219.875687 
L 179.521439 217.14371 
L 179.697996 216.981393 
L 182.378641 214.946018 
L 183.389319 214.0871 
L 185.235842 212.579171 
L 187.171292 211.192806 
L 188.093044 210.604962 
L 190.950246 209.480314 
L 193.807448 209.027636 
L 196.66465 208.791813 
L 199.263788 208.298512 
L 199.521852 208.247406 
L 202.379054 207.33892 
L 205.236256 206.544542 
L 208.093458 206.484158 
L 210.950659 207.629639 
L 211.831197 208.298512 
L 213.807861 209.601157 
L 215.969996 211.192806 
L 216.665063 211.734153 
L 219.457569 214.0871 
L 219.522265 214.178637 
L 221.191679 216.981393 
L 221.576965 219.875687 
L 221.38645 222.76998 
L 221.153976 225.664274 
L 220.838491 228.558567 
L 219.612395 231.452861 
L 219.522265 231.538339 
L 216.665063 232.73898 
L 213.807861 232.891791 
L 210.950659 232.6488 
L 208.093458 232.705113 
L 205.236256 233.398052 
L 202.379054 234.346973 
L 202.378399 234.347155 
L 199.521852 235.025591 
L 196.66465 235.527448 
L 193.807448 235.700696 
L 190.950246 235.157915 
z
" style="fill:#12526c;"/>
   </g>
   <g id="PathCollection_9">
    <path clip-path="url(#pe59dc5f5c6)" d="M 190.950246 235.157915 
L 193.807448 235.700696 
L 196.66465 235.527448 
L 199.521852 235.025591 
L 202.378399 234.347155 
L 202.379054 234.346973 
L 205.236256 233.398052 
L 208.093458 232.705113 
L 210.950659 232.6488 
L 213.807861 232.891791 
L 216.665063 232.73898 
L 219.522265 231.538339 
L 219.612395 231.452861 
L 220.838491 228.558567 
L 221.153976 225.664274 
L 221.38645 222.76998 
L 221.576965 219.875687 
L 221.191679 216.981393 
L 219.522265 214.178637 
L 219.457569 214.0871 
L 216.665063 211.734153 
L 215.969996 211.192806 
L 213.807861 209.601157 
L 211.831197 208.298512 
L 210.950659 207.629639 
L 208.093458 206.484158 
L 205.236256 206.544542 
L 202.379054 207.33892 
L 199.521852 208.247406 
L 199.263788 208.298512 
L 196.66465 208.791813 
L 193.807448 209.027636 
L 190.950246 209.480314 
L 188.093044 210.604962 
L 187.171292 211.192806 
L 185.235842 212.579171 
L 183.389319 214.0871 
L 182.378641 214.946018 
L 179.697996 216.981393 
L 179.521439 217.14371 
L 177.066433 219.875687 
L 176.664237 221.796843 
L 176.524324 222.76998 
L 176.664237 223.11045 
L 178.216397 225.664274 
L 179.521439 226.927921 
L 181.497636 228.558567 
L 182.378641 229.302972 
L 185.052027 231.452861 
L 185.235842 231.609787 
L 188.093044 233.685449 
L 189.413031 234.347155 
z
M 193.403694 228.558567 
L 190.950246 227.569524 
L 188.093044 225.696909 
L 188.049867 225.664274 
L 185.556554 222.76998 
L 185.671571 219.875687 
L 187.786178 216.981393 
L 188.093044 216.714006 
L 190.950246 214.929002 
L 193.807448 214.38008 
L 196.66465 214.673374 
L 199.521852 215.00562 
L 202.379054 214.441485 
L 203.180453 214.0871 
L 205.236256 213.551265 
L 208.093458 213.615841 
L 209.211037 214.0871 
L 210.950659 215.145306 
L 212.940134 216.981393 
L 213.807861 218.9699 
L 214.090812 219.875687 
L 213.807861 220.977663 
L 212.322208 222.76998 
L 210.950659 223.255045 
L 208.093458 223.264949 
L 205.236256 223.404296 
L 202.379054 225.043988 
L 201.875679 225.664274 
L 199.521852 227.64291 
L 197.572823 228.558567 
L 196.66465 228.813325 
L 193.807448 228.693676 
z
" style="fill:#0b3141;"/>
   </g>
   <g id="PathCollection_10">
    <path clip-path="url(#pe59dc5f5c6)" d="M 193.807448 228.693676 
L 196.66465 228.813325 
L 197.572823 228.558567 
L 199.521852 227.64291 
L 201.875679 225.664274 
L 202.379054 225.043988 
L 205.236256 223.404296 
L 208.093458 223.264949 
L 210.950659 223.255045 
L 212.322208 222.76998 
L 213.807861 220.977663 
L 214.090812 219.875687 
L 213.807861 218.9699 
L 212.940134 216.981393 
L 210.950659 215.145306 
L 209.211037 214.0871 
L 208.093458 213.615841 
L 205.236256 213.551265 
L 203.180453 214.0871 
L 202.379054 214.441485 
L 199.521852 215.00562 
L 196.66465 214.673374 
L 193.807448 214.38008 
L 190.950246 214.929002 
L 188.093044 216.714006 
L 187.786178 216.981393 
L 185.671571 219.875687 
L 185.556554 222.76998 
L 188.049867 225.664274 
L 188.093044 225.696909 
L 190.950246 227.569524 
L 193.403694 228.558567 
z
" style="fill:#031015;"/>
   </g>
   <g id="patch_3">
    <path d="M 39.661406 387.6 
L 39.661406 72.411429 
" style="fill:none;"/>
   </g>
   <g id="patch_4">
    <path d="M 39.661406 387.6 
L 350.810692 387.6 
" style="fill:none;"/>
   </g>
  </g>
  <g id="axes_2">
   <g id="patch_5">
    <path d="M 39.661406 61.542857 
L 350.810692 61.542857 
L 350.810692 7.2 
L 39.661406 7.2 
z
" style="fill:#eaeaf2;"/>
   </g>
   <g id="matplotlib.axis_3">
    <g id="xtick_9">
     <g id="line2d_27">
      <path clip-path="url(#p3b4e8a5607)" d="M 73.548935 61.542857 
L 73.548935 7.2 
" style="fill:none;stroke:#ffffff;stroke-linecap:round;"/>
     </g>
     <g id="line2d_28"/>
    </g>
    <g id="xtick_10">
     <g id="line2d_29">
      <path clip-path="url(#p3b4e8a5607)" d="M 110.86024 61.542857 
L 110.86024 7.2 
" style="fill:none;stroke:#ffffff;stroke-linecap:round;"/>
     </g>
     <g id="line2d_30"/>
    </g>
    <g id="xtick_11">
     <g id="line2d_31">
      <path clip-path="url(#p3b4e8a5607)" d="M 148.171544 61.542857 
L 148.171544 7.2 
" style="fill:none;stroke:#ffffff;stroke-linecap:round;"/>
     </g>
     <g id="line2d_32"/>
    </g>
    <g id="xtick_12">
     <g id="line2d_33">
      <path clip-path="url(#p3b4e8a5607)" d="M 185.482848 61.542857 
L 185.482848 7.2 
" style="fill:none;stroke:#ffffff;stroke-linecap:round;"/>
     </g>
     <g id="line2d_34"/>
    </g>
    <g id="xtick_13">
     <g id="line2d_35">
      <path clip-path="url(#p3b4e8a5607)" d="M 222.794152 61.542857 
L 222.794152 7.2 
" style="fill:none;stroke:#ffffff;stroke-linecap:round;"/>
     </g>
     <g id="line2d_36"/>
    </g>
    <g id="xtick_14">
     <g id="line2d_37">
      <path clip-path="url(#p3b4e8a5607)" d="M 260.105457 61.542857 
L 260.105457 7.2 
" style="fill:none;stroke:#ffffff;stroke-linecap:round;"/>
     </g>
     <g id="line2d_38"/>
    </g>
    <g id="xtick_15">
     <g id="line2d_39">
      <path clip-path="url(#p3b4e8a5607)" d="M 297.416761 61.542857 
L 297.416761 7.2 
" style="fill:none;stroke:#ffffff;stroke-linecap:round;"/>
     </g>
     <g id="line2d_40"/>
    </g>
    <g id="xtick_16">
     <g id="line2d_41">
      <path clip-path="url(#p3b4e8a5607)" d="M 334.728065 61.542857 
L 334.728065 7.2 
" style="fill:none;stroke:#ffffff;stroke-linecap:round;"/>
     </g>
     <g id="line2d_42"/>
    </g>
   </g>
   <g id="matplotlib.axis_4">
    <g id="ytick_6"/>
    <g id="ytick_7"/>
   </g>
   <g id="PolyCollection_1">
    <path clip-path="url(#p3b4e8a5607)" d="M 53.804556 61.54192 
L 53.804556 61.542857 
L 56.031823 61.542857 
L 58.259091 61.542857 
L 60.486358 61.542857 
L 62.713626 61.542857 
L 64.940894 61.542857 
L 67.168161 61.542857 
L 69.395429 61.542857 
L 71.622697 61.542857 
L 73.849964 61.542857 
L 76.077232 61.542857 
L 78.304499 61.542857 
L 80.531767 61.542857 
L 82.759035 61.542857 
L 84.986302 61.542857 
L 87.21357 61.542857 
L 89.440837 61.542857 
L 91.668105 61.542857 
L 93.895373 61.542857 
L 96.12264 61.542857 
L 98.349908 61.542857 
L 100.577176 61.542857 
L 102.804443 61.542857 
L 105.031711 61.542857 
L 107.258978 61.542857 
L 109.486246 61.542857 
L 111.713514 61.542857 
L 113.940781 61.542857 
L 116.168049 61.542857 
L 118.395316 61.542857 
L 120.622584 61.542857 
L 122.849852 61.542857 
L 125.077119 61.542857 
L 127.304387 61.542857 
L 129.531654 61.542857 
L 131.758922 61.542857 
L 133.98619 61.542857 
L 136.213457 61.542857 
L 138.440725 61.542857 
L 140.667993 61.542857 
L 142.89526 61.542857 
L 145.122528 61.542857 
L 147.349795 61.542857 
L 149.577063 61.542857 
L 151.804331 61.542857 
L 154.031598 61.542857 
L 156.258866 61.542857 
L 158.486133 61.542857 
L 160.713401 61.542857 
L 162.940669 61.542857 
L 165.167936 61.542857 
L 167.395204 61.542857 
L 169.622472 61.542857 
L 171.849739 61.542857 
L 174.077007 61.542857 
L 176.304274 61.542857 
L 178.531542 61.542857 
L 180.75881 61.542857 
L 182.986077 61.542857 
L 185.213345 61.542857 
L 187.440612 61.542857 
L 189.66788 61.542857 
L 191.895148 61.542857 
L 194.122415 61.542857 
L 196.349683 61.542857 
L 198.576951 61.542857 
L 200.804218 61.542857 
L 203.031486 61.542857 
L 205.258753 61.542857 
L 207.486021 61.542857 
L 209.713289 61.542857 
L 211.940556 61.542857 
L 214.167824 61.542857 
L 216.395091 61.542857 
L 218.622359 61.542857 
L 220.849627 61.542857 
L 223.076894 61.542857 
L 225.304162 61.542857 
L 227.53143 61.542857 
L 229.758697 61.542857 
L 231.985965 61.542857 
L 234.213232 61.542857 
L 236.4405 61.542857 
L 238.667768 61.542857 
L 240.895035 61.542857 
L 243.122303 61.542857 
L 245.34957 61.542857 
L 247.576838 61.542857 
L 249.804106 61.542857 
L 252.031373 61.542857 
L 254.258641 61.542857 
L 256.485908 61.542857 
L 258.713176 61.542857 
L 260.940444 61.542857 
L 263.167711 61.542857 
L 265.394979 61.542857 
L 267.622247 61.542857 
L 269.849514 61.542857 
L 272.076782 61.542857 
L 274.304049 61.542857 
L 276.531317 61.542857 
L 278.758585 61.542857 
L 280.985852 61.542857 
L 283.21312 61.542857 
L 285.440387 61.542857 
L 287.667655 61.542857 
L 289.894923 61.542857 
L 292.12219 61.542857 
L 294.349458 61.542857 
L 296.576726 61.542857 
L 298.803993 61.542857 
L 301.031261 61.542857 
L 303.258528 61.542857 
L 305.485796 61.542857 
L 307.713064 61.542857 
L 309.940331 61.542857 
L 312.167599 61.542857 
L 314.394866 61.542857 
L 316.622134 61.542857 
L 318.849402 61.542857 
L 321.076669 61.542857 
L 323.303937 61.542857 
L 325.531205 61.542857 
L 327.758472 61.542857 
L 329.98574 61.542857 
L 332.213007 61.542857 
L 334.440275 61.542857 
L 336.667543 61.542857 
L 336.667543 61.54179 
L 336.667543 61.54179 
L 334.440275 61.540197 
L 332.213007 61.53595 
L 329.98574 61.52683 
L 327.758472 61.509997 
L 325.531205 61.483115 
L 323.303937 61.445995 
L 321.076669 61.401749 
L 318.849402 61.356163 
L 316.622134 61.31474 
L 314.394866 61.278615 
L 312.167599 61.242071 
L 309.940331 61.194107 
L 307.713064 61.123687 
L 305.485796 61.02475 
L 303.258528 60.896624 
L 301.031261 60.739727 
L 298.803993 60.551621 
L 296.576726 60.328331 
L 294.349458 60.069602 
L 292.12219 59.781251 
L 289.894923 59.469874 
L 287.667655 59.13346 
L 285.440387 58.75697 
L 283.21312 58.318817 
L 280.985852 57.804914 
L 278.758585 57.219376 
L 276.531317 56.58152 
L 274.304049 55.908915 
L 272.076782 55.199044 
L 269.849514 54.425534 
L 267.622247 53.552872 
L 265.394979 52.556487 
L 263.167711 51.430771 
L 260.940444 50.180617 
L 258.713176 48.807953 
L 256.485908 47.30735 
L 254.258641 45.674039 
L 252.031373 43.916475 
L 249.804106 42.063187 
L 247.576838 40.158441 
L 245.34957 38.247973 
L 243.122303 36.362128 
L 240.895035 34.505826 
L 238.667768 32.659652 
L 236.4405 30.788686 
L 234.213232 28.854907 
L 231.985965 26.833863 
L 229.758697 24.734121 
L 227.53143 22.606295 
L 225.304162 20.526814 
L 223.076894 18.563745 
L 220.849627 16.755125 
L 218.622359 15.118992 
L 216.395091 13.677538 
L 214.167824 12.463654 
L 211.940556 11.503845 
L 209.713289 10.798888 
L 207.486021 10.319975 
L 205.258753 10.019567 
L 203.031486 9.850295 
L 200.804218 9.787755 
L 198.576951 9.847867 
L 196.349683 10.083962 
L 194.122415 10.558441 
L 191.895148 11.302679 
L 189.66788 12.288371 
L 187.440612 13.429296 
L 185.213345 14.620076 
L 182.986077 15.79828 
L 180.75881 16.993014 
L 178.531542 18.319044 
L 176.304274 19.90925 
L 174.077007 21.829429 
L 171.849739 24.03802 
L 169.622472 26.415967 
L 167.395204 28.834654 
L 165.167936 31.207961 
L 162.940669 33.500355 
L 160.713401 35.701582 
L 158.486133 37.796451 
L 156.258866 39.753003 
L 154.031598 41.536666 
L 151.804331 43.139366 
L 149.577063 44.598434 
L 147.349795 45.983851 
L 145.122528 47.357582 
L 142.89526 48.735159 
L 140.667993 50.080258 
L 138.440725 51.334782 
L 136.213457 52.457801 
L 133.98619 53.444411 
L 131.758922 54.318003 
L 129.531654 55.110801 
L 127.304387 55.849122 
L 125.077119 56.547516 
L 122.849852 57.207641 
L 120.622584 57.819962 
L 118.395316 58.369919 
L 116.168049 58.846986 
L 113.940781 59.250317 
L 111.713514 59.587195 
L 109.486246 59.867875 
L 107.258978 60.102907 
L 105.031711 60.303552 
L 102.804443 60.480901 
L 100.577176 60.641907 
L 98.349908 60.786673 
L 96.12264 60.911332 
L 93.895373 61.014297 
L 91.668105 61.09959 
L 89.440837 61.174542 
L 87.21357 61.244932 
L 84.986302 61.311835 
L 82.759035 61.37171 
L 80.531767 61.419018 
L 78.304499 61.449907 
L 76.077232 61.465162 
L 73.849964 61.470513 
L 71.622697 61.473821 
L 69.395429 61.480935 
L 67.168161 61.493172 
L 64.940894 61.507963 
L 62.713626 61.521587 
L 60.486358 61.531636 
L 58.259091 61.537728 
L 56.031823 61.540777 
L 53.804556 61.54192 
z
" style="fill:#87ceeb;fill-opacity:0.25;"/>
   </g>
   <g id="line2d_43">
    <path clip-path="url(#p3b4e8a5607)" d="M 53.804556 61.54192 
L 80.531767 61.419018 
L 91.668105 61.09959 
L 98.349908 60.786673 
L 107.258978 60.102907 
L 111.713514 59.587195 
L 116.168049 58.846986 
L 120.622584 57.819962 
L 125.077119 56.547516 
L 129.531654 55.110801 
L 133.98619 53.444411 
L 136.213457 52.457801 
L 138.440725 51.334782 
L 142.89526 48.735159 
L 151.804331 43.139366 
L 154.031598 41.536666 
L 156.258866 39.753003 
L 160.713401 35.701582 
L 165.167936 31.207961 
L 174.077007 21.829429 
L 176.304274 19.90925 
L 178.531542 18.319044 
L 180.75881 16.993014 
L 189.66788 12.288371 
L 191.895148 11.302679 
L 194.122415 10.558441 
L 196.349683 10.083962 
L 198.576951 9.847867 
L 200.804218 9.787755 
L 205.258753 10.019567 
L 207.486021 10.319975 
L 209.713289 10.798888 
L 211.940556 11.503845 
L 214.167824 12.463654 
L 216.395091 13.677538 
L 218.622359 15.118992 
L 220.849627 16.755125 
L 223.076894 18.563745 
L 227.53143 22.606295 
L 234.213232 28.854907 
L 238.667768 32.659652 
L 247.576838 40.158441 
L 252.031373 43.916475 
L 256.485908 47.30735 
L 260.940444 50.180617 
L 265.394979 52.556487 
L 267.622247 53.552872 
L 272.076782 55.199044 
L 278.758585 57.219376 
L 283.21312 58.318817 
L 287.667655 59.13346 
L 294.349458 60.069602 
L 301.031261 60.739727 
L 307.713064 61.123687 
L 316.622134 61.31474 
L 334.440275 61.540197 
L 336.667543 61.54179 
L 336.667543 61.54179 
" style="fill:none;stroke:#87ceeb;stroke-linecap:round;stroke-width:1.75;"/>
   </g>
   <g id="patch_6">
    <path d="M 39.661406 61.542857 
L 350.810692 61.542857 
" style="fill:none;"/>
   </g>
  </g>
  <g id="axes_3">
   <g id="patch_7">
    <path d="M 361.539978 387.6 
L 415.186406 387.6 
L 415.186406 72.411429 
L 361.539978 72.411429 
z
" style="fill:#eaeaf2;"/>
   </g>
   <g id="matplotlib.axis_5">
    <g id="xtick_17"/>
    <g id="xtick_18"/>
   </g>
   <g id="matplotlib.axis_6">
    <g id="ytick_8">
     <g id="line2d_44">
      <path clip-path="url(#pc2cc9a4110)" d="M 361.539978 378.410151 
L 415.186406 378.410151 
" style="fill:none;stroke:#ffffff;stroke-linecap:round;"/>
     </g>
     <g id="line2d_45"/>
    </g>
    <g id="ytick_9">
     <g id="line2d_46">
      <path clip-path="url(#pc2cc9a4110)" d="M 361.539978 313.059639 
L 415.186406 313.059639 
" style="fill:none;stroke:#ffffff;stroke-linecap:round;"/>
     </g>
     <g id="line2d_47"/>
    </g>
    <g id="ytick_10">
     <g id="line2d_48">
      <path clip-path="url(#pc2cc9a4110)" d="M 361.539978 247.709128 
L 415.186406 247.709128 
" style="fill:none;stroke:#ffffff;stroke-linecap:round;"/>
     </g>
     <g id="line2d_49"/>
    </g>
    <g id="ytick_11">
     <g id="line2d_50">
      <path clip-path="url(#pc2cc9a4110)" d="M 361.539978 182.358616 
L 415.186406 182.358616 
" style="fill:none;stroke:#ffffff;stroke-linecap:round;"/>
     </g>
     <g id="line2d_51"/>
    </g>
    <g id="ytick_12">
     <g id="line2d_52">
      <path clip-path="url(#pc2cc9a4110)" d="M 361.539978 117.008104 
L 415.186406 117.008104 
" style="fill:none;stroke:#ffffff;stroke-linecap:round;"/>
     </g>
     <g id="line2d_53"/>
    </g>
   </g>
   <g id="PolyCollection_2">
    <path clip-path="url(#pc2cc9a4110)" d="M 361.540448 373.273247 
L 361.539978 373.273247 
L 361.539978 371.017065 
L 361.539978 368.760884 
L 361.539978 366.504702 
L 361.539978 364.24852 
L 361.539978 361.992339 
L 361.539978 359.736157 
L 361.539978 357.479975 
L 361.539978 355.223794 
L 361.539978 352.967612 
L 361.539978 350.711431 
L 361.539978 348.455249 
L 361.539978 346.199067 
L 361.539978 343.942886 
L 361.539978 341.686704 
L 361.539978 339.430523 
L 361.539978 337.174341 
L 361.539978 334.918159 
L 361.539978 332.661978 
L 361.539978 330.405796 
L 361.539978 328.149614 
L 361.539978 325.893433 
L 361.539978 323.637251 
L 361.539978 321.38107 
L 361.539978 319.124888 
L 361.539978 316.868706 
L 361.539978 314.612525 
L 361.539978 312.356343 
L 361.539978 310.100162 
L 361.539978 307.84398 
L 361.539978 305.587798 
L 361.539978 303.331617 
L 361.539978 301.075435 
L 361.539978 298.819254 
L 361.539978 296.563072 
L 361.539978 294.30689 
L 361.539978 292.050709 
L 361.539978 289.794527 
L 361.539978 287.538345 
L 361.539978 285.282164 
L 361.539978 283.025982 
L 361.539978 280.769801 
L 361.539978 278.513619 
L 361.539978 276.257437 
L 361.539978 274.001256 
L 361.539978 271.745074 
L 361.539978 269.488893 
L 361.539978 267.232711 
L 361.539978 264.976529 
L 361.539978 262.720348 
L 361.539978 260.464166 
L 361.539978 258.207984 
L 361.539978 255.951803 
L 361.539978 253.695621 
L 361.539978 251.43944 
L 361.539978 249.183258 
L 361.539978 246.927076 
L 361.539978 244.670895 
L 361.539978 242.414713 
L 361.539978 240.158532 
L 361.539978 237.90235 
L 361.539978 235.646168 
L 361.539978 233.389987 
L 361.539978 231.133805 
L 361.539978 228.877623 
L 361.539978 226.621442 
L 361.539978 224.36526 
L 361.539978 222.109079 
L 361.539978 219.852897 
L 361.539978 217.596715 
L 361.539978 215.340534 
L 361.539978 213.084352 
L 361.539978 210.828171 
L 361.539978 208.571989 
L 361.539978 206.315807 
L 361.539978 204.059626 
L 361.539978 201.803444 
L 361.539978 199.547263 
L 361.539978 197.291081 
L 361.539978 195.034899 
L 361.539978 192.778718 
L 361.539978 190.522536 
L 361.539978 188.266354 
L 361.539978 186.010173 
L 361.539978 183.753991 
L 361.539978 181.49781 
L 361.539978 179.241628 
L 361.539978 176.985446 
L 361.539978 174.729265 
L 361.539978 172.473083 
L 361.539978 170.216902 
L 361.539978 167.96072 
L 361.539978 165.704538 
L 361.539978 163.448357 
L 361.539978 161.192175 
L 361.539978 158.935993 
L 361.539978 156.679812 
L 361.539978 154.42363 
L 361.539978 152.167449 
L 361.539978 149.911267 
L 361.539978 147.655085 
L 361.539978 145.398904 
L 361.539978 143.142722 
L 361.539978 140.886541 
L 361.539978 138.630359 
L 361.539978 136.374177 
L 361.539978 134.117996 
L 361.539978 131.861814 
L 361.539978 129.605632 
L 361.539978 127.349451 
L 361.539978 125.093269 
L 361.539978 122.837088 
L 361.539978 120.580906 
L 361.539978 118.324724 
L 361.539978 116.068543 
L 361.539978 113.812361 
L 361.539978 111.55618 
L 361.539978 109.299998 
L 361.539978 107.043816 
L 361.539978 104.787635 
L 361.539978 102.531453 
L 361.539978 100.275272 
L 361.539978 98.01909 
L 361.539978 95.762908 
L 361.539978 93.506727 
L 361.539978 91.250545 
L 361.539978 88.994363 
L 361.539978 86.738182 
L 361.540448 86.738182 
L 361.540448 86.738182 
L 361.541249 88.994363 
L 361.54342 91.250545 
L 361.547796 93.506727 
L 361.554711 95.762908 
L 361.563136 98.01909 
L 361.570788 100.275272 
L 361.575825 102.531453 
L 361.578808 104.787635 
L 361.582754 107.043816 
L 361.59136 109.299998 
L 361.607564 111.55618 
L 361.633091 113.812361 
L 361.667607 116.068543 
L 361.708414 118.324724 
L 361.754042 120.580906 
L 361.811082 122.837088 
L 361.897468 125.093269 
L 362.036465 127.349451 
L 362.24328 129.605632 
L 362.51353 131.861814 
L 362.823612 134.117996 
L 363.143705 136.374177 
L 363.452499 138.630359 
L 363.744083 140.886541 
L 364.028573 143.142722 
L 364.329954 145.398904 
L 364.678597 147.655085 
L 365.100028 149.911267 
L 365.611429 152.167449 
L 366.23091 154.42363 
L 366.986095 156.679812 
L 367.907493 158.935993 
L 369.0124 161.192175 
L 370.297208 163.448357 
L 371.745878 165.704538 
L 373.345143 167.96072 
L 375.088861 170.216902 
L 376.962804 172.473083 
L 378.922042 174.729265 
L 380.883573 176.985446 
L 382.748001 179.241628 
L 384.450121 181.49781 
L 386.018551 183.753991 
L 387.59323 186.010173 
L 389.350703 188.266354 
L 391.368783 190.522536 
L 393.554485 192.778718 
L 395.720932 195.034899 
L 397.743362 197.291081 
L 399.642344 199.547263 
L 401.530155 201.803444 
L 403.489546 204.059626 
L 405.492886 206.315807 
L 407.414963 208.571989 
L 409.113386 210.828171 
L 410.501981 213.084352 
L 411.558938 215.340534 
L 412.278971 217.596715 
L 412.631814 219.852897 
L 412.576353 222.109079 
L 412.111929 224.36526 
L 411.296184 226.621442 
L 410.196334 228.877623 
L 408.833064 231.133805 
L 407.191702 233.389987 
L 405.288251 235.646168 
L 403.214644 237.90235 
L 401.11508 240.158532 
L 399.103464 242.414713 
L 397.180385 244.670895 
L 395.232488 246.927076 
L 393.141028 249.183258 
L 390.90629 251.43944 
L 388.657425 253.695621 
L 386.536494 255.951803 
L 384.584302 258.207984 
L 382.742147 260.464166 
L 380.942786 262.720348 
L 379.178434 264.976529 
L 377.49086 267.232711 
L 375.923063 269.488893 
L 374.486502 271.745074 
L 373.156262 274.001256 
L 371.884792 276.257437 
L 370.627982 278.513619 
L 369.372342 280.769801 
L 368.144322 283.025982 
L 366.994678 285.282164 
L 365.972144 287.538345 
L 365.105708 289.794527 
L 364.401591 292.050709 
L 363.848392 294.30689 
L 363.42324 296.563072 
L 363.097974 298.819254 
L 362.845725 301.075435 
L 362.644613 303.331617 
L 362.477305 305.587798 
L 362.331938 307.84398 
L 362.206644 310.100162 
L 362.108757 312.356343 
L 362.042676 314.612525 
L 361.998224 316.868706 
L 361.955333 319.124888 
L 361.900912 321.38107 
L 361.83828 323.637251 
L 361.780195 325.893433 
L 361.735627 328.149614 
L 361.703635 330.405796 
L 361.677206 332.661978 
L 361.650966 334.918159 
L 361.625363 337.174341 
L 361.604372 339.430523 
L 361.590207 341.686704 
L 361.581069 343.942886 
L 361.573822 346.199067 
L 361.567649 348.455249 
L 361.564295 350.711431 
L 361.565107 352.967612 
L 361.568528 355.223794 
L 361.570748 357.479975 
L 361.568715 359.736157 
L 361.562444 361.992339 
L 361.554522 364.24852 
L 361.547754 366.504702 
L 361.543413 368.760884 
L 361.541247 371.017065 
L 361.540448 373.273247 
z
" style="fill:#87ceeb;fill-opacity:0.25;"/>
   </g>
   <g id="line2d_54">
    <path clip-path="url(#pc2cc9a4110)" d="M 361.540448 373.273247 
L 361.650966 334.918159 
L 361.900912 321.38107 
L 362.331938 307.84398 
L 362.845725 301.075435 
L 363.42324 296.563072 
L 363.848392 294.30689 
L 364.401591 292.050709 
L 365.105708 289.794527 
L 365.972144 287.538345 
L 366.994678 285.282164 
L 369.372342 280.769801 
L 374.486502 271.745074 
L 377.49086 267.232711 
L 380.942786 262.720348 
L 384.584302 258.207984 
L 386.536494 255.951803 
L 390.90629 251.43944 
L 395.232488 246.927076 
L 401.11508 240.158532 
L 405.288251 235.646168 
L 407.191702 233.389987 
L 408.833064 231.133805 
L 410.196334 228.877623 
L 411.296184 226.621442 
L 412.111929 224.36526 
L 412.576353 222.109079 
L 412.631814 219.852897 
L 412.278971 217.596715 
L 411.558938 215.340534 
L 410.501981 213.084352 
L 409.113386 210.828171 
L 407.414963 208.571989 
L 397.743362 197.291081 
L 393.554485 192.778718 
L 391.368783 190.522536 
L 389.350703 188.266354 
L 387.59323 186.010173 
L 382.748001 179.241628 
L 378.922042 174.729265 
L 375.088861 170.216902 
L 373.345143 167.96072 
L 371.745878 165.704538 
L 370.297208 163.448357 
L 369.0124 161.192175 
L 367.907493 158.935993 
L 366.986095 156.679812 
L 366.23091 154.42363 
L 365.100028 149.911267 
L 364.329954 145.398904 
L 362.24328 129.605632 
L 361.897468 125.093269 
L 361.708414 118.324724 
L 361.582754 107.043816 
L 361.540448 86.738182 
L 361.540448 86.738182 
" style="fill:none;stroke:#87ceeb;stroke-linecap:round;stroke-width:1.75;"/>
   </g>
   <g id="patch_8">
    <path d="M 361.539978 387.6 
L 361.539978 72.411429 
" style="fill:none;"/>
   </g>
  </g>
 </g>
 <defs>
  <clipPath id="pe59dc5f5c6">
   <rect height="315.188571" width="311.149286" x="39.661406" y="72.411429"/>
  </clipPath>
  <clipPath id="p3b4e8a5607">
   <rect height="54.342857" width="311.149286" x="39.661406" y="7.2"/>
  </clipPath>
  <clipPath id="pc2cc9a4110">
   <rect height="315.188571" width="53.646429" x="361.539978" y="72.411429"/>
  </clipPath>
 </defs>
</svg>
