<?xml version="1.0" encoding="utf-8" standalone="no"?>
<!DOCTYPE svg PUBLIC "-//W3C//DTD SVG 1.1//EN"
  "http://www.w3.org/Graphics/SVG/1.1/DTD/svg11.dtd">
<!-- Created with matplotlib (https://matplotlib.org/) -->
<svg height="248.518125pt" version="1.1" viewBox="0 0 386.845312 248.518125" width="386.845312pt" xmlns="http://www.w3.org/2000/svg" xmlns:xlink="http://www.w3.org/1999/xlink">
 <defs>
  <style type="text/css">
*{stroke-linecap:butt;stroke-linejoin:round;}
  </style>
 </defs>
 <g id="figure_1">
  <g id="patch_1">
   <path d="M 0 248.518125 
L 386.845312 248.518125 
L 386.845312 0 
L 0 0 
z
" style="fill:none;"/>
  </g>
  <g id="axes_1">
   <g id="patch_2">
    <path d="M 44.845313 224.64 
L 379.645313 224.64 
L 379.645313 7.2 
L 44.845313 7.2 
z
" style="fill:#e5e5e5;"/>
   </g>
   <g id="matplotlib.axis_1">
    <g id="xtick_1">
     <g id="line2d_1">
      <path clip-path="url(#p7e53b31601)" d="M 90.499858 224.64 
L 90.499858 7.2 
" style="fill:none;stroke:#ffffff;stroke-linecap:square;stroke-width:0.8;"/>
     </g>
     <g id="line2d_2">
      <defs>
       <path d="M 0 0 
L 0 3.5 
" id="m12d93e4cb2" style="stroke:#555555;stroke-width:0.8;"/>
      </defs>
      <g>
       <use style="fill:#555555;stroke:#555555;stroke-width:0.8;" x="90.499858" xlink:href="#m12d93e4cb2" y="224.64"/>
      </g>
     </g>
     <g id="text_1">
      <!-- −4 -->
      <defs>
       <path d="M 10.59375 35.5 
L 73.1875 35.5 
L 73.1875 27.203125 
L 10.59375 27.203125 
z
" id="DejaVuSans-8722"/>
       <path d="M 37.796875 64.3125 
L 12.890625 25.390625 
L 37.796875 25.390625 
z
M 35.203125 72.90625 
L 47.609375 72.90625 
L 47.609375 25.390625 
L 58.015625 25.390625 
L 58.015625 17.1875 
L 47.609375 17.1875 
L 47.609375 0 
L 37.796875 0 
L 37.796875 17.1875 
L 4.890625 17.1875 
L 4.890625 26.703125 
z
" id="DejaVuSans-52"/>
      </defs>
      <g style="fill:#555555;" transform="translate(83.128764 239.238437)scale(0.1 -0.1)">
       <use xlink:href="#DejaVuSans-8722"/>
       <use x="83.789062" xlink:href="#DejaVuSans-52"/>
      </g>
     </g>
    </g>
    <g id="xtick_2">
     <g id="line2d_3">
      <path clip-path="url(#p7e53b31601)" d="M 151.372585 224.64 
L 151.372585 7.2 
" style="fill:none;stroke:#ffffff;stroke-linecap:square;stroke-width:0.8;"/>
     </g>
     <g id="line2d_4">
      <g>
       <use style="fill:#555555;stroke:#555555;stroke-width:0.8;" x="151.372585" xlink:href="#m12d93e4cb2" y="224.64"/>
      </g>
     </g>
     <g id="text_2">
      <!-- −2 -->
      <defs>
       <path d="M 19.1875 8.296875 
L 53.609375 8.296875 
L 53.609375 0 
L 7.328125 0 
L 7.328125 8.296875 
Q 12.9375 14.109375 22.625 23.890625 
Q 32.328125 33.6875 34.8125 36.53125 
Q 39.546875 41.84375 41.421875 45.53125 
Q 43.3125 49.21875 43.3125 52.78125 
Q 43.3125 58.59375 39.234375 62.25 
Q 35.15625 65.921875 28.609375 65.921875 
Q 23.96875 65.921875 18.8125 64.3125 
Q 13.671875 62.703125 7.8125 59.421875 
L 7.8125 69.390625 
Q 13.765625 71.78125 18.9375 73 
Q 24.125 74.21875 28.421875 74.21875 
Q 39.75 74.21875 46.484375 68.546875 
Q 53.21875 62.890625 53.21875 53.421875 
Q 53.21875 48.921875 51.53125 44.890625 
Q 49.859375 40.875 45.40625 35.40625 
Q 44.1875 33.984375 37.640625 27.21875 
Q 31.109375 20.453125 19.1875 8.296875 
z
" id="DejaVuSans-50"/>
      </defs>
      <g style="fill:#555555;" transform="translate(144.001491 239.238437)scale(0.1 -0.1)">
       <use xlink:href="#DejaVuSans-8722"/>
       <use x="83.789062" xlink:href="#DejaVuSans-50"/>
      </g>
     </g>
    </g>
    <g id="xtick_3">
     <g id="line2d_5">
      <path clip-path="url(#p7e53b31601)" d="M 212.245313 224.64 
L 212.245313 7.2 
" style="fill:none;stroke:#ffffff;stroke-linecap:square;stroke-width:0.8;"/>
     </g>
     <g id="line2d_6">
      <g>
       <use style="fill:#555555;stroke:#555555;stroke-width:0.8;" x="212.245313" xlink:href="#m12d93e4cb2" y="224.64"/>
      </g>
     </g>
     <g id="text_3">
      <!-- 0 -->
      <defs>
       <path d="M 31.78125 66.40625 
Q 24.171875 66.40625 20.328125 58.90625 
Q 16.5 51.421875 16.5 36.375 
Q 16.5 21.390625 20.328125 13.890625 
Q 24.171875 6.390625 31.78125 6.390625 
Q 39.453125 6.390625 43.28125 13.890625 
Q 47.125 21.390625 47.125 36.375 
Q 47.125 51.421875 43.28125 58.90625 
Q 39.453125 66.40625 31.78125 66.40625 
z
M 31.78125 74.21875 
Q 44.046875 74.21875 50.515625 64.515625 
Q 56.984375 54.828125 56.984375 36.375 
Q 56.984375 17.96875 50.515625 8.265625 
Q 44.046875 -1.421875 31.78125 -1.421875 
Q 19.53125 -1.421875 13.0625 8.265625 
Q 6.59375 17.96875 6.59375 36.375 
Q 6.59375 54.828125 13.0625 64.515625 
Q 19.53125 74.21875 31.78125 74.21875 
z
" id="DejaVuSans-48"/>
      </defs>
      <g style="fill:#555555;" transform="translate(209.064063 239.238437)scale(0.1 -0.1)">
       <use xlink:href="#DejaVuSans-48"/>
      </g>
     </g>
    </g>
    <g id="xtick_4">
     <g id="line2d_7">
      <path clip-path="url(#p7e53b31601)" d="M 273.11804 224.64 
L 273.11804 7.2 
" style="fill:none;stroke:#ffffff;stroke-linecap:square;stroke-width:0.8;"/>
     </g>
     <g id="line2d_8">
      <g>
       <use style="fill:#555555;stroke:#555555;stroke-width:0.8;" x="273.11804" xlink:href="#m12d93e4cb2" y="224.64"/>
      </g>
     </g>
     <g id="text_4">
      <!-- 2 -->
      <g style="fill:#555555;" transform="translate(269.93679 239.238437)scale(0.1 -0.1)">
       <use xlink:href="#DejaVuSans-50"/>
      </g>
     </g>
    </g>
    <g id="xtick_5">
     <g id="line2d_9">
      <path clip-path="url(#p7e53b31601)" d="M 333.990767 224.64 
L 333.990767 7.2 
" style="fill:none;stroke:#ffffff;stroke-linecap:square;stroke-width:0.8;"/>
     </g>
     <g id="line2d_10">
      <g>
       <use style="fill:#555555;stroke:#555555;stroke-width:0.8;" x="333.990767" xlink:href="#m12d93e4cb2" y="224.64"/>
      </g>
     </g>
     <g id="text_5">
      <!-- 4 -->
      <g style="fill:#555555;" transform="translate(330.809517 239.238437)scale(0.1 -0.1)">
       <use xlink:href="#DejaVuSans-52"/>
      </g>
     </g>
    </g>
   </g>
   <g id="matplotlib.axis_2">
    <g id="ytick_1">
     <g id="line2d_11">
      <path clip-path="url(#p7e53b31601)" d="M 44.845313 214.765338 
L 379.645313 214.765338 
" style="fill:none;stroke:#ffffff;stroke-linecap:square;stroke-width:0.8;"/>
     </g>
     <g id="line2d_12">
      <defs>
       <path d="M 0 0 
L -3.5 0 
" id="mb73d893862" style="stroke:#555555;stroke-width:0.8;"/>
      </defs>
      <g>
       <use style="fill:#555555;stroke:#555555;stroke-width:0.8;" x="44.845313" xlink:href="#mb73d893862" y="214.765338"/>
      </g>
     </g>
     <g id="text_6">
      <!-- −1.00 -->
      <defs>
       <path d="M 12.40625 8.296875 
L 28.515625 8.296875 
L 28.515625 63.921875 
L 10.984375 60.40625 
L 10.984375 69.390625 
L 28.421875 72.90625 
L 38.28125 72.90625 
L 38.28125 8.296875 
L 54.390625 8.296875 
L 54.390625 0 
L 12.40625 0 
z
" id="DejaVuSans-49"/>
       <path d="M 10.6875 12.40625 
L 21 12.40625 
L 21 0 
L 10.6875 0 
z
" id="DejaVuSans-46"/>
      </defs>
      <g style="fill:#555555;" transform="translate(7.2 218.564557)scale(0.1 -0.1)">
       <use xlink:href="#DejaVuSans-8722"/>
       <use x="83.789062" xlink:href="#DejaVuSans-49"/>
       <use x="147.412109" xlink:href="#DejaVuSans-46"/>
       <use x="179.199219" xlink:href="#DejaVuSans-48"/>
       <use x="242.822266" xlink:href="#DejaVuSans-48"/>
      </g>
     </g>
    </g>
    <g id="ytick_2">
     <g id="line2d_13">
      <path clip-path="url(#p7e53b31601)" d="M 44.845313 190.054004 
L 379.645313 190.054004 
" style="fill:none;stroke:#ffffff;stroke-linecap:square;stroke-width:0.8;"/>
     </g>
     <g id="line2d_14">
      <g>
       <use style="fill:#555555;stroke:#555555;stroke-width:0.8;" x="44.845313" xlink:href="#mb73d893862" y="190.054004"/>
      </g>
     </g>
     <g id="text_7">
      <!-- −0.75 -->
      <defs>
       <path d="M 8.203125 72.90625 
L 55.078125 72.90625 
L 55.078125 68.703125 
L 28.609375 0 
L 18.3125 0 
L 43.21875 64.59375 
L 8.203125 64.59375 
z
" id="DejaVuSans-55"/>
       <path d="M 10.796875 72.90625 
L 49.515625 72.90625 
L 49.515625 64.59375 
L 19.828125 64.59375 
L 19.828125 46.734375 
Q 21.96875 47.46875 24.109375 47.828125 
Q 26.265625 48.1875 28.421875 48.1875 
Q 40.625 48.1875 47.75 41.5 
Q 54.890625 34.8125 54.890625 23.390625 
Q 54.890625 11.625 47.5625 5.09375 
Q 40.234375 -1.421875 26.90625 -1.421875 
Q 22.3125 -1.421875 17.546875 -0.640625 
Q 12.796875 0.140625 7.71875 1.703125 
L 7.71875 11.625 
Q 12.109375 9.234375 16.796875 8.0625 
Q 21.484375 6.890625 26.703125 6.890625 
Q 35.15625 6.890625 40.078125 11.328125 
Q 45.015625 15.765625 45.015625 23.390625 
Q 45.015625 31 40.078125 35.4375 
Q 35.15625 39.890625 26.703125 39.890625 
Q 22.75 39.890625 18.8125 39.015625 
Q 14.890625 38.140625 10.796875 36.28125 
z
" id="DejaVuSans-53"/>
      </defs>
      <g style="fill:#555555;" transform="translate(7.2 193.853223)scale(0.1 -0.1)">
       <use xlink:href="#DejaVuSans-8722"/>
       <use x="83.789062" xlink:href="#DejaVuSans-48"/>
       <use x="147.412109" xlink:href="#DejaVuSans-46"/>
       <use x="179.199219" xlink:href="#DejaVuSans-55"/>
       <use x="242.822266" xlink:href="#DejaVuSans-53"/>
      </g>
     </g>
    </g>
    <g id="ytick_3">
     <g id="line2d_15">
      <path clip-path="url(#p7e53b31601)" d="M 44.845313 165.342669 
L 379.645313 165.342669 
" style="fill:none;stroke:#ffffff;stroke-linecap:square;stroke-width:0.8;"/>
     </g>
     <g id="line2d_16">
      <g>
       <use style="fill:#555555;stroke:#555555;stroke-width:0.8;" x="44.845313" xlink:href="#mb73d893862" y="165.342669"/>
      </g>
     </g>
     <g id="text_8">
      <!-- −0.50 -->
      <g style="fill:#555555;" transform="translate(7.2 169.141888)scale(0.1 -0.1)">
       <use xlink:href="#DejaVuSans-8722"/>
       <use x="83.789062" xlink:href="#DejaVuSans-48"/>
       <use x="147.412109" xlink:href="#DejaVuSans-46"/>
       <use x="179.199219" xlink:href="#DejaVuSans-53"/>
       <use x="242.822266" xlink:href="#DejaVuSans-48"/>
      </g>
     </g>
    </g>
    <g id="ytick_4">
     <g id="line2d_17">
      <path clip-path="url(#p7e53b31601)" d="M 44.845313 140.631335 
L 379.645313 140.631335 
" style="fill:none;stroke:#ffffff;stroke-linecap:square;stroke-width:0.8;"/>
     </g>
     <g id="line2d_18">
      <g>
       <use style="fill:#555555;stroke:#555555;stroke-width:0.8;" x="44.845313" xlink:href="#mb73d893862" y="140.631335"/>
      </g>
     </g>
     <g id="text_9">
      <!-- −0.25 -->
      <g style="fill:#555555;" transform="translate(7.2 144.430553)scale(0.1 -0.1)">
       <use xlink:href="#DejaVuSans-8722"/>
       <use x="83.789062" xlink:href="#DejaVuSans-48"/>
       <use x="147.412109" xlink:href="#DejaVuSans-46"/>
       <use x="179.199219" xlink:href="#DejaVuSans-50"/>
       <use x="242.822266" xlink:href="#DejaVuSans-53"/>
      </g>
     </g>
    </g>
    <g id="ytick_5">
     <g id="line2d_19">
      <path clip-path="url(#p7e53b31601)" d="M 44.845313 115.92 
L 379.645313 115.92 
" style="fill:none;stroke:#ffffff;stroke-linecap:square;stroke-width:0.8;"/>
     </g>
     <g id="line2d_20">
      <g>
       <use style="fill:#555555;stroke:#555555;stroke-width:0.8;" x="44.845313" xlink:href="#mb73d893862" y="115.92"/>
      </g>
     </g>
     <g id="text_10">
      <!-- 0.00 -->
      <g style="fill:#555555;" transform="translate(15.579688 119.719219)scale(0.1 -0.1)">
       <use xlink:href="#DejaVuSans-48"/>
       <use x="63.623047" xlink:href="#DejaVuSans-46"/>
       <use x="95.410156" xlink:href="#DejaVuSans-48"/>
       <use x="159.033203" xlink:href="#DejaVuSans-48"/>
      </g>
     </g>
    </g>
    <g id="ytick_6">
     <g id="line2d_21">
      <path clip-path="url(#p7e53b31601)" d="M 44.845313 91.208665 
L 379.645313 91.208665 
" style="fill:none;stroke:#ffffff;stroke-linecap:square;stroke-width:0.8;"/>
     </g>
     <g id="line2d_22">
      <g>
       <use style="fill:#555555;stroke:#555555;stroke-width:0.8;" x="44.845313" xlink:href="#mb73d893862" y="91.208665"/>
      </g>
     </g>
     <g id="text_11">
      <!-- 0.25 -->
      <g style="fill:#555555;" transform="translate(15.579688 95.007884)scale(0.1 -0.1)">
       <use xlink:href="#DejaVuSans-48"/>
       <use x="63.623047" xlink:href="#DejaVuSans-46"/>
       <use x="95.410156" xlink:href="#DejaVuSans-50"/>
       <use x="159.033203" xlink:href="#DejaVuSans-53"/>
      </g>
     </g>
    </g>
    <g id="ytick_7">
     <g id="line2d_23">
      <path clip-path="url(#p7e53b31601)" d="M 44.845313 66.497331 
L 379.645313 66.497331 
" style="fill:none;stroke:#ffffff;stroke-linecap:square;stroke-width:0.8;"/>
     </g>
     <g id="line2d_24">
      <g>
       <use style="fill:#555555;stroke:#555555;stroke-width:0.8;" x="44.845313" xlink:href="#mb73d893862" y="66.497331"/>
      </g>
     </g>
     <g id="text_12">
      <!-- 0.50 -->
      <g style="fill:#555555;" transform="translate(15.579688 70.29655)scale(0.1 -0.1)">
       <use xlink:href="#DejaVuSans-48"/>
       <use x="63.623047" xlink:href="#DejaVuSans-46"/>
       <use x="95.410156" xlink:href="#DejaVuSans-53"/>
       <use x="159.033203" xlink:href="#DejaVuSans-48"/>
      </g>
     </g>
    </g>
    <g id="ytick_8">
     <g id="line2d_25">
      <path clip-path="url(#p7e53b31601)" d="M 44.845313 41.785996 
L 379.645313 41.785996 
" style="fill:none;stroke:#ffffff;stroke-linecap:square;stroke-width:0.8;"/>
     </g>
     <g id="line2d_26">
      <g>
       <use style="fill:#555555;stroke:#555555;stroke-width:0.8;" x="44.845313" xlink:href="#mb73d893862" y="41.785996"/>
      </g>
     </g>
     <g id="text_13">
      <!-- 0.75 -->
      <g style="fill:#555555;" transform="translate(15.579688 45.585215)scale(0.1 -0.1)">
       <use xlink:href="#DejaVuSans-48"/>
       <use x="63.623047" xlink:href="#DejaVuSans-46"/>
       <use x="95.410156" xlink:href="#DejaVuSans-55"/>
       <use x="159.033203" xlink:href="#DejaVuSans-53"/>
      </g>
     </g>
    </g>
    <g id="ytick_9">
     <g id="line2d_27">
      <path clip-path="url(#p7e53b31601)" d="M 44.845313 17.074662 
L 379.645313 17.074662 
" style="fill:none;stroke:#ffffff;stroke-linecap:square;stroke-width:0.8;"/>
     </g>
     <g id="line2d_28">
      <g>
       <use style="fill:#555555;stroke:#555555;stroke-width:0.8;" x="44.845313" xlink:href="#mb73d893862" y="17.074662"/>
      </g>
     </g>
     <g id="text_14">
      <!-- 1.00 -->
      <g style="fill:#555555;" transform="translate(15.579688 20.87388)scale(0.1 -0.1)">
       <use xlink:href="#DejaVuSans-49"/>
       <use x="63.623047" xlink:href="#DejaVuSans-46"/>
       <use x="95.410156" xlink:href="#DejaVuSans-48"/>
       <use x="159.033203" xlink:href="#DejaVuSans-48"/>
      </g>
     </g>
    </g>
   </g>
   <g id="line2d_29">
    <path clip-path="url(#p7e53b31601)" d="M 60.063494 115.258443 
L 63.137874 115.188648 
L 66.212255 115.11155 
L 69.286635 115.026398 
L 72.361015 114.932368 
L 75.435395 114.828554 
L 78.509775 114.713962 
L 81.584155 114.587503 
L 84.658536 114.447984 
L 87.732916 114.2941 
L 90.807296 114.124426 
L 93.881676 113.937406 
L 96.956056 113.731346 
L 100.030436 113.504404 
L 103.104817 113.254579 
L 106.179197 112.979705 
L 109.253577 112.677439 
L 112.327957 112.345258 
L 115.402337 111.98045 
L 118.476717 111.580108 
L 121.551098 111.141132 
L 124.625478 110.660225 
L 127.699858 110.1339 
L 130.774238 109.558488 
L 133.848618 108.930151 
L 136.922998 108.244902 
L 139.997379 107.498634 
L 143.071759 106.687153 
L 146.146139 105.806224 
L 149.220519 104.851624 
L 152.294899 103.819211 
L 155.369279 102.704997 
L 158.44366 101.505238 
L 161.51804 100.21653 
L 164.59242 98.835921 
L 167.6668 97.361028 
L 170.74118 95.790153 
L 173.81556 94.122416 
L 176.889941 92.357867 
L 179.964321 90.497606 
L 183.038701 88.543884 
L 186.113081 86.500179 
L 189.187461 84.371254 
L 192.261841 82.163179 
L 195.336222 79.883318 
L 198.410602 77.540274 
L 201.484982 75.14379 
L 204.559362 72.704616 
L 207.633742 70.234326 
L 210.708122 67.745113 
L 213.782503 65.249549 
L 216.856883 62.760336 
L 219.931263 60.290046 
L 223.005643 57.850871 
L 226.080023 55.454388 
L 229.154403 53.111343 
L 232.228784 50.831482 
L 235.303164 48.623408 
L 238.377544 46.494483 
L 241.451924 44.450777 
L 244.526304 42.497055 
L 247.600684 40.636795 
L 250.675065 38.872246 
L 253.749445 37.204508 
L 256.823825 35.633634 
L 259.898205 34.15874 
L 262.972585 32.778132 
L 266.046965 31.489424 
L 269.121346 30.289664 
L 272.195726 29.17545 
L 275.270106 28.143037 
L 278.344486 27.188438 
L 281.418866 26.307509 
L 284.493246 25.496028 
L 287.567627 24.74976 
L 290.642007 24.064511 
L 293.716387 23.436174 
L 296.790767 22.860762 
L 299.865147 22.334437 
L 302.939527 21.85353 
L 306.013908 21.414553 
L 309.088288 21.014212 
L 312.162668 20.649403 
L 315.237048 20.317223 
L 318.311428 20.014957 
L 321.385808 19.740083 
L 324.460189 19.490258 
L 327.534569 19.263315 
L 330.608949 19.057256 
L 333.683329 18.870236 
L 336.757709 18.700562 
L 339.832089 18.546678 
L 342.90647 18.407159 
L 345.98085 18.2807 
L 349.05523 18.166108 
L 352.12961 18.062294 
L 355.20399 17.968264 
L 358.27837 17.883112 
L 361.352751 17.806014 
L 364.427131 17.736219 
" style="fill:none;stroke:#e24a33;stroke-linecap:square;stroke-width:1.5;"/>
   </g>
   <g id="line2d_30">
    <path clip-path="url(#p7e53b31601)" d="M 60.063494 214.756364 
L 63.137874 214.754355 
L 66.212255 214.751896 
L 69.286635 214.748887 
L 72.361015 214.745204 
L 75.435395 214.740697 
L 78.509775 214.735181 
L 81.584155 214.728431 
L 84.658536 214.72017 
L 87.732916 214.710061 
L 90.807296 214.69769 
L 93.881676 214.682552 
L 96.956056 214.664028 
L 100.030436 214.641362 
L 103.104817 214.613628 
L 106.179197 214.579696 
L 109.253577 214.538183 
L 112.327957 214.487401 
L 115.402337 214.425286 
L 118.476717 214.349317 
L 121.551098 214.256421 
L 124.625478 214.142847 
L 127.699858 214.004025 
L 130.774238 213.834391 
L 133.848618 213.627177 
L 136.922998 213.374166 
L 139.997379 213.065399 
L 143.071759 212.688826 
L 146.146139 212.229914 
L 149.220519 211.671185 
L 152.294899 210.991712 
L 155.369279 210.166552 
L 158.44366 209.166169 
L 161.51804 207.955844 
L 164.59242 206.495158 
L 167.6668 204.737605 
L 170.74118 202.63047 
L 173.81556 200.115128 
L 176.889941 197.127957 
L 179.964321 193.602127 
L 183.038701 189.470479 
L 186.113081 184.669735 
L 189.187461 179.146106 
L 192.261841 172.862163 
L 195.336222 165.804514 
L 198.410602 157.991363 
L 201.484982 149.478698 
L 204.559362 140.363559 
L 207.633742 130.783004 
L 210.708122 120.907949 
L 213.782503 110.932051 
L 216.856883 101.056996 
L 219.931263 91.476441 
L 223.005643 82.361302 
L 226.080023 73.848637 
L 229.154403 66.035486 
L 232.228784 58.977837 
L 235.303164 52.693894 
L 238.377544 47.170265 
L 241.451924 42.369521 
L 244.526304 38.237873 
L 247.600684 34.712043 
L 250.675065 31.724872 
L 253.749445 29.20953 
L 256.823825 27.102395 
L 259.898205 25.344842 
L 262.972585 23.884156 
L 266.046965 22.673831 
L 269.121346 21.673448 
L 272.195726 20.848288 
L 275.270106 20.168815 
L 278.344486 19.610086 
L 281.418866 19.151174 
L 284.493246 18.774601 
L 287.567627 18.465834 
L 290.642007 18.212823 
L 293.716387 18.005609 
L 296.790767 17.835975 
L 299.865147 17.697153 
L 302.939527 17.583579 
L 306.013908 17.490683 
L 309.088288 17.414714 
L 312.162668 17.352599 
L 315.237048 17.301817 
L 318.311428 17.260304 
L 321.385808 17.226372 
L 324.460189 17.198638 
L 327.534569 17.175972 
L 330.608949 17.157448 
L 333.683329 17.14231 
L 336.757709 17.129939 
L 339.832089 17.11983 
L 342.90647 17.111569 
L 345.98085 17.104819 
L 349.05523 17.099303 
L 352.12961 17.094796 
L 355.20399 17.091113 
L 358.27837 17.088104 
L 361.352751 17.085645 
L 364.427131 17.083636 
" style="fill:none;stroke:#348abd;stroke-linecap:square;stroke-width:1.5;"/>
   </g>
   <g id="patch_3">
    <path d="M 44.845313 224.64 
L 44.845313 7.2 
" style="fill:none;stroke:#ffffff;stroke-linecap:square;stroke-linejoin:miter;"/>
   </g>
   <g id="patch_4">
    <path d="M 379.645313 224.64 
L 379.645313 7.2 
" style="fill:none;stroke:#ffffff;stroke-linecap:square;stroke-linejoin:miter;"/>
   </g>
   <g id="patch_5">
    <path d="M 44.845313 224.64 
L 379.645313 224.64 
" style="fill:none;stroke:#ffffff;stroke-linecap:square;stroke-linejoin:miter;"/>
   </g>
   <g id="patch_6">
    <path d="M 44.845313 7.2 
L 379.645313 7.2 
" style="fill:none;stroke:#ffffff;stroke-linecap:square;stroke-linejoin:miter;"/>
   </g>
  </g>
 </g>
 <defs>
  <clipPath id="p7e53b31601">
   <rect height="217.44" width="334.8" x="44.845313" y="7.2"/>
  </clipPath>
 </defs>
</svg>
