<?xml version="1.0" encoding="utf-8" standalone="no"?>
<!DOCTYPE svg PUBLIC "-//W3C//DTD SVG 1.1//EN"
  "http://www.w3.org/Graphics/SVG/1.1/DTD/svg11.dtd">
<!-- Created with matplotlib (https://matplotlib.org/) -->
<svg height="245.018125pt" version="1.1" viewBox="0 0 406.465 245.018125" width="406.465pt" xmlns="http://www.w3.org/2000/svg" xmlns:xlink="http://www.w3.org/1999/xlink">
 <defs>
  <style type="text/css">
*{stroke-linecap:butt;stroke-linejoin:round;}
  </style>
 </defs>
 <g id="figure_1">
  <g id="patch_1">
   <path d="M 0 245.018125 
L 406.465 245.018125 
L 406.465 0 
L 0 0 
z
" style="fill:#ffffff;"/>
  </g>
  <g id="axes_1">
   <g id="patch_2">
    <path d="M 23.425 224.64 
L 399.265 224.64 
L 399.265 7.2 
L 23.425 7.2 
z
" style="fill:#e5e5e5;"/>
   </g>
   <g id="matplotlib.axis_1">
    <g id="xtick_1">
     <g id="line2d_1">
      <path clip-path="url(#pafecb61102)" d="M 40.508636 224.64 
L 40.508636 7.2 
" style="fill:none;stroke:#ffffff;"/>
     </g>
     <g id="line2d_2"/>
     <g id="text_1">
      <!-- 0 -->
      <defs>
       <path d="M 31.78125 66.40625 
Q 24.171875 66.40625 20.328125 58.90625 
Q 16.5 51.421875 16.5 36.375 
Q 16.5 21.390625 20.328125 13.890625 
Q 24.171875 6.390625 31.78125 6.390625 
Q 39.453125 6.390625 43.28125 13.890625 
Q 47.125 21.390625 47.125 36.375 
Q 47.125 51.421875 43.28125 58.90625 
Q 39.453125 66.40625 31.78125 66.40625 
z
M 31.78125 74.21875 
Q 44.046875 74.21875 50.515625 64.515625 
Q 56.984375 54.828125 56.984375 36.375 
Q 56.984375 17.96875 50.515625 8.265625 
Q 44.046875 -1.421875 31.78125 -1.421875 
Q 19.53125 -1.421875 13.0625 8.265625 
Q 6.59375 17.96875 6.59375 36.375 
Q 6.59375 54.828125 13.0625 64.515625 
Q 19.53125 74.21875 31.78125 74.21875 
z
" id="DejaVuSans-48"/>
      </defs>
      <g style="fill:#555555;" transform="translate(37.327386 235.738437)scale(0.1 -0.1)">
       <use xlink:href="#DejaVuSans-48"/>
      </g>
     </g>
    </g>
    <g id="xtick_2">
     <g id="line2d_3">
      <path clip-path="url(#pafecb61102)" d="M 108.843182 224.64 
L 108.843182 7.2 
" style="fill:none;stroke:#ffffff;"/>
     </g>
     <g id="line2d_4"/>
     <g id="text_2">
      <!-- 20 -->
      <defs>
       <path d="M 19.1875 8.296875 
L 53.609375 8.296875 
L 53.609375 0 
L 7.328125 0 
L 7.328125 8.296875 
Q 12.9375 14.109375 22.625 23.890625 
Q 32.328125 33.6875 34.8125 36.53125 
Q 39.546875 41.84375 41.421875 45.53125 
Q 43.3125 49.21875 43.3125 52.78125 
Q 43.3125 58.59375 39.234375 62.25 
Q 35.15625 65.921875 28.609375 65.921875 
Q 23.96875 65.921875 18.8125 64.3125 
Q 13.671875 62.703125 7.8125 59.421875 
L 7.8125 69.390625 
Q 13.765625 71.78125 18.9375 73 
Q 24.125 74.21875 28.421875 74.21875 
Q 39.75 74.21875 46.484375 68.546875 
Q 53.21875 62.890625 53.21875 53.421875 
Q 53.21875 48.921875 51.53125 44.890625 
Q 49.859375 40.875 45.40625 35.40625 
Q 44.1875 33.984375 37.640625 27.21875 
Q 31.109375 20.453125 19.1875 8.296875 
z
" id="DejaVuSans-50"/>
      </defs>
      <g style="fill:#555555;" transform="translate(102.480682 235.738437)scale(0.1 -0.1)">
       <use xlink:href="#DejaVuSans-50"/>
       <use x="63.623047" xlink:href="#DejaVuSans-48"/>
      </g>
     </g>
    </g>
    <g id="xtick_3">
     <g id="line2d_5">
      <path clip-path="url(#pafecb61102)" d="M 177.177727 224.64 
L 177.177727 7.2 
" style="fill:none;stroke:#ffffff;"/>
     </g>
     <g id="line2d_6"/>
     <g id="text_3">
      <!-- 40 -->
      <defs>
       <path d="M 37.796875 64.3125 
L 12.890625 25.390625 
L 37.796875 25.390625 
z
M 35.203125 72.90625 
L 47.609375 72.90625 
L 47.609375 25.390625 
L 58.015625 25.390625 
L 58.015625 17.1875 
L 47.609375 17.1875 
L 47.609375 0 
L 37.796875 0 
L 37.796875 17.1875 
L 4.890625 17.1875 
L 4.890625 26.703125 
z
" id="DejaVuSans-52"/>
      </defs>
      <g style="fill:#555555;" transform="translate(170.815227 235.738437)scale(0.1 -0.1)">
       <use xlink:href="#DejaVuSans-52"/>
       <use x="63.623047" xlink:href="#DejaVuSans-48"/>
      </g>
     </g>
    </g>
    <g id="xtick_4">
     <g id="line2d_7">
      <path clip-path="url(#pafecb61102)" d="M 245.512273 224.64 
L 245.512273 7.2 
" style="fill:none;stroke:#ffffff;"/>
     </g>
     <g id="line2d_8"/>
     <g id="text_4">
      <!-- 60 -->
      <defs>
       <path d="M 33.015625 40.375 
Q 26.375 40.375 22.484375 35.828125 
Q 18.609375 31.296875 18.609375 23.390625 
Q 18.609375 15.53125 22.484375 10.953125 
Q 26.375 6.390625 33.015625 6.390625 
Q 39.65625 6.390625 43.53125 10.953125 
Q 47.40625 15.53125 47.40625 23.390625 
Q 47.40625 31.296875 43.53125 35.828125 
Q 39.65625 40.375 33.015625 40.375 
z
M 52.59375 71.296875 
L 52.59375 62.3125 
Q 48.875 64.0625 45.09375 64.984375 
Q 41.3125 65.921875 37.59375 65.921875 
Q 27.828125 65.921875 22.671875 59.328125 
Q 17.53125 52.734375 16.796875 39.40625 
Q 19.671875 43.65625 24.015625 45.921875 
Q 28.375 48.1875 33.59375 48.1875 
Q 44.578125 48.1875 50.953125 41.515625 
Q 57.328125 34.859375 57.328125 23.390625 
Q 57.328125 12.15625 50.6875 5.359375 
Q 44.046875 -1.421875 33.015625 -1.421875 
Q 20.359375 -1.421875 13.671875 8.265625 
Q 6.984375 17.96875 6.984375 36.375 
Q 6.984375 53.65625 15.1875 63.9375 
Q 23.390625 74.21875 37.203125 74.21875 
Q 40.921875 74.21875 44.703125 73.484375 
Q 48.484375 72.75 52.59375 71.296875 
z
" id="DejaVuSans-54"/>
      </defs>
      <g style="fill:#555555;" transform="translate(239.149773 235.738437)scale(0.1 -0.1)">
       <use xlink:href="#DejaVuSans-54"/>
       <use x="63.623047" xlink:href="#DejaVuSans-48"/>
      </g>
     </g>
    </g>
    <g id="xtick_5">
     <g id="line2d_9">
      <path clip-path="url(#pafecb61102)" d="M 313.846818 224.64 
L 313.846818 7.2 
" style="fill:none;stroke:#ffffff;"/>
     </g>
     <g id="line2d_10"/>
     <g id="text_5">
      <!-- 80 -->
      <defs>
       <path d="M 31.78125 34.625 
Q 24.75 34.625 20.71875 30.859375 
Q 16.703125 27.09375 16.703125 20.515625 
Q 16.703125 13.921875 20.71875 10.15625 
Q 24.75 6.390625 31.78125 6.390625 
Q 38.8125 6.390625 42.859375 10.171875 
Q 46.921875 13.96875 46.921875 20.515625 
Q 46.921875 27.09375 42.890625 30.859375 
Q 38.875 34.625 31.78125 34.625 
z
M 21.921875 38.8125 
Q 15.578125 40.375 12.03125 44.71875 
Q 8.5 49.078125 8.5 55.328125 
Q 8.5 64.0625 14.71875 69.140625 
Q 20.953125 74.21875 31.78125 74.21875 
Q 42.671875 74.21875 48.875 69.140625 
Q 55.078125 64.0625 55.078125 55.328125 
Q 55.078125 49.078125 51.53125 44.71875 
Q 48 40.375 41.703125 38.8125 
Q 48.828125 37.15625 52.796875 32.3125 
Q 56.78125 27.484375 56.78125 20.515625 
Q 56.78125 9.90625 50.3125 4.234375 
Q 43.84375 -1.421875 31.78125 -1.421875 
Q 19.734375 -1.421875 13.25 4.234375 
Q 6.78125 9.90625 6.78125 20.515625 
Q 6.78125 27.484375 10.78125 32.3125 
Q 14.796875 37.15625 21.921875 38.8125 
z
M 18.3125 54.390625 
Q 18.3125 48.734375 21.84375 45.5625 
Q 25.390625 42.390625 31.78125 42.390625 
Q 38.140625 42.390625 41.71875 45.5625 
Q 45.3125 48.734375 45.3125 54.390625 
Q 45.3125 60.0625 41.71875 63.234375 
Q 38.140625 66.40625 31.78125 66.40625 
Q 25.390625 66.40625 21.84375 63.234375 
Q 18.3125 60.0625 18.3125 54.390625 
z
" id="DejaVuSans-56"/>
      </defs>
      <g style="fill:#555555;" transform="translate(307.484318 235.738437)scale(0.1 -0.1)">
       <use xlink:href="#DejaVuSans-56"/>
       <use x="63.623047" xlink:href="#DejaVuSans-48"/>
      </g>
     </g>
    </g>
    <g id="xtick_6">
     <g id="line2d_11">
      <path clip-path="url(#pafecb61102)" d="M 382.181364 224.64 
L 382.181364 7.2 
" style="fill:none;stroke:#ffffff;"/>
     </g>
     <g id="line2d_12"/>
     <g id="text_6">
      <!-- 100 -->
      <defs>
       <path d="M 12.40625 8.296875 
L 28.515625 8.296875 
L 28.515625 63.921875 
L 10.984375 60.40625 
L 10.984375 69.390625 
L 28.421875 72.90625 
L 38.28125 72.90625 
L 38.28125 8.296875 
L 54.390625 8.296875 
L 54.390625 0 
L 12.40625 0 
z
" id="DejaVuSans-49"/>
      </defs>
      <g style="fill:#555555;" transform="translate(372.637614 235.738437)scale(0.1 -0.1)">
       <use xlink:href="#DejaVuSans-49"/>
       <use x="63.623047" xlink:href="#DejaVuSans-48"/>
       <use x="127.246094" xlink:href="#DejaVuSans-48"/>
      </g>
     </g>
    </g>
   </g>
   <g id="matplotlib.axis_2">
    <g id="ytick_1">
     <g id="line2d_13">
      <path clip-path="url(#pafecb61102)" d="M 23.425 214.756364 
L 399.265 214.756364 
" style="fill:none;stroke:#ffffff;"/>
     </g>
     <g id="line2d_14"/>
     <g id="text_7">
      <!-- 0 -->
      <g style="fill:#555555;" transform="translate(13.5625 218.555582)scale(0.1 -0.1)">
       <use xlink:href="#DejaVuSans-48"/>
      </g>
     </g>
    </g>
    <g id="ytick_2">
     <g id="line2d_15">
      <path clip-path="url(#pafecb61102)" d="M 23.425 188.043833 
L 399.265 188.043833 
" style="fill:none;stroke:#ffffff;"/>
     </g>
     <g id="line2d_16"/>
     <g id="text_8">
      <!-- 10 -->
      <g style="fill:#555555;" transform="translate(7.2 191.843052)scale(0.1 -0.1)">
       <use xlink:href="#DejaVuSans-49"/>
       <use x="63.623047" xlink:href="#DejaVuSans-48"/>
      </g>
     </g>
    </g>
    <g id="ytick_3">
     <g id="line2d_17">
      <path clip-path="url(#pafecb61102)" d="M 23.425 161.331302 
L 399.265 161.331302 
" style="fill:none;stroke:#ffffff;"/>
     </g>
     <g id="line2d_18"/>
     <g id="text_9">
      <!-- 20 -->
      <g style="fill:#555555;" transform="translate(7.2 165.130521)scale(0.1 -0.1)">
       <use xlink:href="#DejaVuSans-50"/>
       <use x="63.623047" xlink:href="#DejaVuSans-48"/>
      </g>
     </g>
    </g>
    <g id="ytick_4">
     <g id="line2d_19">
      <path clip-path="url(#pafecb61102)" d="M 23.425 134.618771 
L 399.265 134.618771 
" style="fill:none;stroke:#ffffff;"/>
     </g>
     <g id="line2d_20"/>
     <g id="text_10">
      <!-- 30 -->
      <defs>
       <path d="M 40.578125 39.3125 
Q 47.65625 37.796875 51.625 33 
Q 55.609375 28.21875 55.609375 21.1875 
Q 55.609375 10.40625 48.1875 4.484375 
Q 40.765625 -1.421875 27.09375 -1.421875 
Q 22.515625 -1.421875 17.65625 -0.515625 
Q 12.796875 0.390625 7.625 2.203125 
L 7.625 11.71875 
Q 11.71875 9.328125 16.59375 8.109375 
Q 21.484375 6.890625 26.8125 6.890625 
Q 36.078125 6.890625 40.9375 10.546875 
Q 45.796875 14.203125 45.796875 21.1875 
Q 45.796875 27.640625 41.28125 31.265625 
Q 36.765625 34.90625 28.71875 34.90625 
L 20.21875 34.90625 
L 20.21875 43.015625 
L 29.109375 43.015625 
Q 36.375 43.015625 40.234375 45.921875 
Q 44.09375 48.828125 44.09375 54.296875 
Q 44.09375 59.90625 40.109375 62.90625 
Q 36.140625 65.921875 28.71875 65.921875 
Q 24.65625 65.921875 20.015625 65.03125 
Q 15.375 64.15625 9.8125 62.3125 
L 9.8125 71.09375 
Q 15.4375 72.65625 20.34375 73.4375 
Q 25.25 74.21875 29.59375 74.21875 
Q 40.828125 74.21875 47.359375 69.109375 
Q 53.90625 64.015625 53.90625 55.328125 
Q 53.90625 49.265625 50.4375 45.09375 
Q 46.96875 40.921875 40.578125 39.3125 
z
" id="DejaVuSans-51"/>
      </defs>
      <g style="fill:#555555;" transform="translate(7.2 138.41799)scale(0.1 -0.1)">
       <use xlink:href="#DejaVuSans-51"/>
       <use x="63.623047" xlink:href="#DejaVuSans-48"/>
      </g>
     </g>
    </g>
    <g id="ytick_5">
     <g id="line2d_21">
      <path clip-path="url(#pafecb61102)" d="M 23.425 107.906241 
L 399.265 107.906241 
" style="fill:none;stroke:#ffffff;"/>
     </g>
     <g id="line2d_22"/>
     <g id="text_11">
      <!-- 40 -->
      <g style="fill:#555555;" transform="translate(7.2 111.70546)scale(0.1 -0.1)">
       <use xlink:href="#DejaVuSans-52"/>
       <use x="63.623047" xlink:href="#DejaVuSans-48"/>
      </g>
     </g>
    </g>
    <g id="ytick_6">
     <g id="line2d_23">
      <path clip-path="url(#pafecb61102)" d="M 23.425 81.19371 
L 399.265 81.19371 
" style="fill:none;stroke:#ffffff;"/>
     </g>
     <g id="line2d_24"/>
     <g id="text_12">
      <!-- 50 -->
      <defs>
       <path d="M 10.796875 72.90625 
L 49.515625 72.90625 
L 49.515625 64.59375 
L 19.828125 64.59375 
L 19.828125 46.734375 
Q 21.96875 47.46875 24.109375 47.828125 
Q 26.265625 48.1875 28.421875 48.1875 
Q 40.625 48.1875 47.75 41.5 
Q 54.890625 34.8125 54.890625 23.390625 
Q 54.890625 11.625 47.5625 5.09375 
Q 40.234375 -1.421875 26.90625 -1.421875 
Q 22.3125 -1.421875 17.546875 -0.640625 
Q 12.796875 0.140625 7.71875 1.703125 
L 7.71875 11.625 
Q 12.109375 9.234375 16.796875 8.0625 
Q 21.484375 6.890625 26.703125 6.890625 
Q 35.15625 6.890625 40.078125 11.328125 
Q 45.015625 15.765625 45.015625 23.390625 
Q 45.015625 31 40.078125 35.4375 
Q 35.15625 39.890625 26.703125 39.890625 
Q 22.75 39.890625 18.8125 39.015625 
Q 14.890625 38.140625 10.796875 36.28125 
z
" id="DejaVuSans-53"/>
      </defs>
      <g style="fill:#555555;" transform="translate(7.2 84.992929)scale(0.1 -0.1)">
       <use xlink:href="#DejaVuSans-53"/>
       <use x="63.623047" xlink:href="#DejaVuSans-48"/>
      </g>
     </g>
    </g>
    <g id="ytick_7">
     <g id="line2d_25">
      <path clip-path="url(#pafecb61102)" d="M 23.425 54.481179 
L 399.265 54.481179 
" style="fill:none;stroke:#ffffff;"/>
     </g>
     <g id="line2d_26"/>
     <g id="text_13">
      <!-- 60 -->
      <g style="fill:#555555;" transform="translate(7.2 58.280398)scale(0.1 -0.1)">
       <use xlink:href="#DejaVuSans-54"/>
       <use x="63.623047" xlink:href="#DejaVuSans-48"/>
      </g>
     </g>
    </g>
    <g id="ytick_8">
     <g id="line2d_27">
      <path clip-path="url(#pafecb61102)" d="M 23.425 27.768649 
L 399.265 27.768649 
" style="fill:none;stroke:#ffffff;"/>
     </g>
     <g id="line2d_28"/>
     <g id="text_14">
      <!-- 70 -->
      <defs>
       <path d="M 8.203125 72.90625 
L 55.078125 72.90625 
L 55.078125 68.703125 
L 28.609375 0 
L 18.3125 0 
L 43.21875 64.59375 
L 8.203125 64.59375 
z
" id="DejaVuSans-55"/>
      </defs>
      <g style="fill:#555555;" transform="translate(7.2 31.567867)scale(0.1 -0.1)">
       <use xlink:href="#DejaVuSans-55"/>
       <use x="63.623047" xlink:href="#DejaVuSans-48"/>
      </g>
     </g>
    </g>
   </g>
   <g id="PolyCollection_1">
    <path clip-path="url(#pafecb61102)" d="M 40.508636 17.083636 
L 40.508636 214.756364 
L 43.925364 212.085111 
L 47.342091 212.085111 
L 50.758818 212.085111 
L 54.175545 212.085111 
L 57.592273 209.413857 
L 61.009 206.742604 
L 64.425727 204.071351 
L 67.842455 201.400098 
L 71.259182 201.400098 
L 74.675909 198.728845 
L 78.092636 196.057592 
L 81.509364 196.057592 
L 84.926091 193.386339 
L 88.342818 193.386339 
L 91.759545 190.715086 
L 95.176273 188.043833 
L 98.593 185.37258 
L 102.009727 182.701327 
L 105.426455 180.030074 
L 108.843182 177.358821 
L 112.259909 174.687568 
L 115.676636 172.016314 
L 119.093364 169.345061 
L 122.510091 166.673808 
L 125.926818 164.002555 
L 129.343545 164.002555 
L 132.760273 164.002555 
L 136.177 164.002555 
L 139.593727 164.002555 
L 143.010455 164.002555 
L 146.427182 161.331302 
L 149.843909 158.660049 
L 153.260636 158.660049 
L 156.677364 158.660049 
L 160.094091 158.660049 
L 163.510818 155.988796 
L 166.927545 153.317543 
L 170.344273 153.317543 
L 173.761 150.64629 
L 177.177727 150.64629 
L 180.594455 150.64629 
L 184.011182 147.975037 
L 187.427909 145.303784 
L 190.844636 145.303784 
L 194.261364 142.632531 
L 197.678091 139.961278 
L 201.094818 137.290025 
L 204.511545 134.618771 
L 207.928273 131.947518 
L 211.345 129.276265 
L 214.761727 126.605012 
L 218.178455 123.933759 
L 221.595182 121.262506 
L 225.011909 118.591253 
L 228.428636 115.92 
L 231.845364 115.92 
L 235.262091 113.248747 
L 238.678818 110.577494 
L 242.095545 110.577494 
L 245.512273 107.906241 
L 248.929 107.906241 
L 252.345727 105.234988 
L 255.762455 102.563735 
L 259.179182 102.563735 
L 262.595909 102.563735 
L 266.012636 99.892482 
L 269.429364 97.221229 
L 272.846091 94.549975 
L 276.262818 91.878722 
L 279.679545 89.207469 
L 283.096273 86.536216 
L 286.513 83.864963 
L 289.929727 83.864963 
L 293.346455 81.19371 
L 296.763182 81.19371 
L 300.179909 81.19371 
L 303.596636 81.19371 
L 307.013364 78.522457 
L 310.430091 75.851204 
L 313.846818 73.179951 
L 317.263545 73.179951 
L 320.680273 70.508698 
L 324.097 67.837445 
L 327.513727 65.166192 
L 330.930455 62.494939 
L 334.347182 62.494939 
L 337.763909 59.823686 
L 341.180636 59.823686 
L 344.597364 57.152432 
L 348.014091 54.481179 
L 351.430818 54.481179 
L 354.847545 51.809926 
L 358.264273 51.809926 
L 361.681 49.138673 
L 365.097727 49.138673 
L 368.514455 49.138673 
L 371.931182 46.46742 
L 375.347909 43.796167 
L 378.764636 43.796167 
L 382.181364 41.124914 
L 382.181364 17.083636 
L 382.181364 17.083636 
L 378.764636 17.083636 
L 375.347909 17.083636 
L 371.931182 17.083636 
L 368.514455 17.083636 
L 365.097727 17.083636 
L 361.681 17.083636 
L 358.264273 17.083636 
L 354.847545 17.083636 
L 351.430818 17.083636 
L 348.014091 17.083636 
L 344.597364 17.083636 
L 341.180636 17.083636 
L 337.763909 17.083636 
L 334.347182 17.083636 
L 330.930455 17.083636 
L 327.513727 17.083636 
L 324.097 17.083636 
L 320.680273 17.083636 
L 317.263545 17.083636 
L 313.846818 17.083636 
L 310.430091 17.083636 
L 307.013364 17.083636 
L 303.596636 17.083636 
L 300.179909 17.083636 
L 296.763182 17.083636 
L 293.346455 17.083636 
L 289.929727 17.083636 
L 286.513 17.083636 
L 283.096273 17.083636 
L 279.679545 17.083636 
L 276.262818 17.083636 
L 272.846091 17.083636 
L 269.429364 17.083636 
L 266.012636 17.083636 
L 262.595909 17.083636 
L 259.179182 17.083636 
L 255.762455 17.083636 
L 252.345727 17.083636 
L 248.929 17.083636 
L 245.512273 17.083636 
L 242.095545 17.083636 
L 238.678818 17.083636 
L 235.262091 17.083636 
L 231.845364 17.083636 
L 228.428636 17.083636 
L 225.011909 17.083636 
L 221.595182 17.083636 
L 218.178455 17.083636 
L 214.761727 17.083636 
L 211.345 17.083636 
L 207.928273 17.083636 
L 204.511545 17.083636 
L 201.094818 17.083636 
L 197.678091 17.083636 
L 194.261364 17.083636 
L 190.844636 17.083636 
L 187.427909 17.083636 
L 184.011182 17.083636 
L 180.594455 17.083636 
L 177.177727 17.083636 
L 173.761 17.083636 
L 170.344273 17.083636 
L 166.927545 17.083636 
L 163.510818 17.083636 
L 160.094091 17.083636 
L 156.677364 17.083636 
L 153.260636 17.083636 
L 149.843909 17.083636 
L 146.427182 17.083636 
L 143.010455 17.083636 
L 139.593727 17.083636 
L 136.177 17.083636 
L 132.760273 17.083636 
L 129.343545 17.083636 
L 125.926818 17.083636 
L 122.510091 17.083636 
L 119.093364 17.083636 
L 115.676636 17.083636 
L 112.259909 17.083636 
L 108.843182 17.083636 
L 105.426455 17.083636 
L 102.009727 17.083636 
L 98.593 17.083636 
L 95.176273 17.083636 
L 91.759545 17.083636 
L 88.342818 17.083636 
L 84.926091 17.083636 
L 81.509364 17.083636 
L 78.092636 17.083636 
L 74.675909 17.083636 
L 71.259182 17.083636 
L 67.842455 17.083636 
L 64.425727 17.083636 
L 61.009 17.083636 
L 57.592273 17.083636 
L 54.175545 17.083636 
L 50.758818 17.083636 
L 47.342091 17.083636 
L 43.925364 17.083636 
L 40.508636 17.083636 
z
" style="fill:#e24a33;fill-opacity:0.5;"/>
   </g>
   <g id="line2d_29">
    <path clip-path="url(#pafecb61102)" d="M 40.508636 214.756364 
L 43.925364 212.085111 
L 47.342091 212.085111 
L 50.758818 212.085111 
L 54.175545 212.085111 
L 57.592273 209.413857 
L 61.009 206.742604 
L 64.425727 204.071351 
L 67.842455 201.400098 
L 71.259182 201.400098 
L 74.675909 198.728845 
L 78.092636 196.057592 
L 81.509364 196.057592 
L 84.926091 193.386339 
L 88.342818 193.386339 
L 91.759545 190.715086 
L 95.176273 188.043833 
L 98.593 185.37258 
L 102.009727 182.701327 
L 105.426455 180.030074 
L 108.843182 177.358821 
L 112.259909 174.687568 
L 115.676636 172.016314 
L 119.093364 169.345061 
L 122.510091 166.673808 
L 125.926818 164.002555 
L 129.343545 164.002555 
L 132.760273 164.002555 
L 136.177 164.002555 
L 139.593727 164.002555 
L 143.010455 164.002555 
L 146.427182 161.331302 
L 149.843909 158.660049 
L 153.260636 158.660049 
L 156.677364 158.660049 
L 160.094091 158.660049 
L 163.510818 155.988796 
L 166.927545 153.317543 
L 170.344273 153.317543 
L 173.761 150.64629 
L 177.177727 150.64629 
L 180.594455 150.64629 
L 184.011182 147.975037 
L 187.427909 145.303784 
L 190.844636 145.303784 
L 194.261364 142.632531 
L 197.678091 139.961278 
L 201.094818 137.290025 
L 204.511545 134.618771 
L 207.928273 131.947518 
L 211.345 129.276265 
L 214.761727 126.605012 
L 218.178455 123.933759 
L 221.595182 121.262506 
L 225.011909 118.591253 
L 228.428636 115.92 
L 231.845364 115.92 
L 235.262091 113.248747 
L 238.678818 110.577494 
L 242.095545 110.577494 
L 245.512273 107.906241 
L 248.929 107.906241 
L 252.345727 105.234988 
L 255.762455 102.563735 
L 259.179182 102.563735 
L 262.595909 102.563735 
L 266.012636 99.892482 
L 269.429364 97.221229 
L 272.846091 94.549975 
L 276.262818 91.878722 
L 279.679545 89.207469 
L 283.096273 86.536216 
L 286.513 83.864963 
L 289.929727 83.864963 
L 293.346455 81.19371 
L 296.763182 81.19371 
L 300.179909 81.19371 
L 303.596636 81.19371 
L 307.013364 78.522457 
L 310.430091 75.851204 
L 313.846818 73.179951 
L 317.263545 73.179951 
L 320.680273 70.508698 
L 324.097 67.837445 
L 327.513727 65.166192 
L 330.930455 62.494939 
L 334.347182 62.494939 
L 337.763909 59.823686 
L 341.180636 59.823686 
L 344.597364 57.152432 
L 348.014091 54.481179 
L 351.430818 54.481179 
L 354.847545 51.809926 
L 358.264273 51.809926 
L 361.681 49.138673 
L 365.097727 49.138673 
L 368.514455 49.138673 
L 371.931182 46.46742 
L 375.347909 43.796167 
L 378.764636 43.796167 
L 382.181364 41.124914 
" style="fill:none;stroke:#e24a33;stroke-width:4;"/>
   </g>
   <g id="line2d_30">
    <defs>
     <path d="M 0 1.5 
C 0.397805 1.5 0.77937 1.341951 1.06066 1.06066 
C 1.341951 0.77937 1.5 0.397805 1.5 0 
C 1.5 -0.397805 1.341951 -0.77937 1.06066 -1.06066 
C 0.77937 -1.341951 0.397805 -1.5 0 -1.5 
C -0.397805 -1.5 -0.77937 -1.341951 -1.06066 -1.06066 
C -1.341951 -0.77937 -1.5 -0.397805 -1.5 0 
C -1.5 0.397805 -1.341951 0.77937 -1.06066 1.06066 
C -0.77937 1.341951 -0.397805 1.5 0 1.5 
z
" id="mf167b64cdd" style="stroke:#348abd;"/>
    </defs>
    <g clip-path="url(#pafecb61102)">
     <use style="fill:#348abd;stroke:#348abd;" x="40.508636" xlink:href="#mf167b64cdd" y="17.083636"/>
     <use style="fill:#348abd;stroke:#348abd;" x="43.925364" xlink:href="#mf167b64cdd" y="17.083636"/>
     <use style="fill:#348abd;stroke:#348abd;" x="47.342091" xlink:href="#mf167b64cdd" y="17.083636"/>
     <use style="fill:#348abd;stroke:#348abd;" x="50.758818" xlink:href="#mf167b64cdd" y="17.083636"/>
     <use style="fill:#348abd;stroke:#348abd;" x="54.175545" xlink:href="#mf167b64cdd" y="17.083636"/>
     <use style="fill:#348abd;stroke:#348abd;" x="57.592273" xlink:href="#mf167b64cdd" y="17.083636"/>
     <use style="fill:#348abd;stroke:#348abd;" x="61.009" xlink:href="#mf167b64cdd" y="17.083636"/>
     <use style="fill:#348abd;stroke:#348abd;" x="64.425727" xlink:href="#mf167b64cdd" y="17.083636"/>
     <use style="fill:#348abd;stroke:#348abd;" x="67.842455" xlink:href="#mf167b64cdd" y="17.083636"/>
     <use style="fill:#348abd;stroke:#348abd;" x="71.259182" xlink:href="#mf167b64cdd" y="17.083636"/>
     <use style="fill:#348abd;stroke:#348abd;" x="74.675909" xlink:href="#mf167b64cdd" y="17.083636"/>
     <use style="fill:#348abd;stroke:#348abd;" x="78.092636" xlink:href="#mf167b64cdd" y="17.083636"/>
     <use style="fill:#348abd;stroke:#348abd;" x="81.509364" xlink:href="#mf167b64cdd" y="17.083636"/>
     <use style="fill:#348abd;stroke:#348abd;" x="84.926091" xlink:href="#mf167b64cdd" y="17.083636"/>
     <use style="fill:#348abd;stroke:#348abd;" x="88.342818" xlink:href="#mf167b64cdd" y="17.083636"/>
     <use style="fill:#348abd;stroke:#348abd;" x="91.759545" xlink:href="#mf167b64cdd" y="17.083636"/>
     <use style="fill:#348abd;stroke:#348abd;" x="95.176273" xlink:href="#mf167b64cdd" y="17.083636"/>
     <use style="fill:#348abd;stroke:#348abd;" x="98.593" xlink:href="#mf167b64cdd" y="17.083636"/>
     <use style="fill:#348abd;stroke:#348abd;" x="102.009727" xlink:href="#mf167b64cdd" y="17.083636"/>
     <use style="fill:#348abd;stroke:#348abd;" x="105.426455" xlink:href="#mf167b64cdd" y="17.083636"/>
     <use style="fill:#348abd;stroke:#348abd;" x="108.843182" xlink:href="#mf167b64cdd" y="17.083636"/>
     <use style="fill:#348abd;stroke:#348abd;" x="112.259909" xlink:href="#mf167b64cdd" y="17.083636"/>
     <use style="fill:#348abd;stroke:#348abd;" x="115.676636" xlink:href="#mf167b64cdd" y="17.083636"/>
     <use style="fill:#348abd;stroke:#348abd;" x="119.093364" xlink:href="#mf167b64cdd" y="17.083636"/>
     <use style="fill:#348abd;stroke:#348abd;" x="122.510091" xlink:href="#mf167b64cdd" y="17.083636"/>
     <use style="fill:#348abd;stroke:#348abd;" x="125.926818" xlink:href="#mf167b64cdd" y="17.083636"/>
     <use style="fill:#348abd;stroke:#348abd;" x="129.343545" xlink:href="#mf167b64cdd" y="17.083636"/>
     <use style="fill:#348abd;stroke:#348abd;" x="132.760273" xlink:href="#mf167b64cdd" y="17.083636"/>
     <use style="fill:#348abd;stroke:#348abd;" x="136.177" xlink:href="#mf167b64cdd" y="17.083636"/>
     <use style="fill:#348abd;stroke:#348abd;" x="139.593727" xlink:href="#mf167b64cdd" y="17.083636"/>
     <use style="fill:#348abd;stroke:#348abd;" x="143.010455" xlink:href="#mf167b64cdd" y="17.083636"/>
     <use style="fill:#348abd;stroke:#348abd;" x="146.427182" xlink:href="#mf167b64cdd" y="17.083636"/>
     <use style="fill:#348abd;stroke:#348abd;" x="149.843909" xlink:href="#mf167b64cdd" y="17.083636"/>
     <use style="fill:#348abd;stroke:#348abd;" x="153.260636" xlink:href="#mf167b64cdd" y="17.083636"/>
     <use style="fill:#348abd;stroke:#348abd;" x="156.677364" xlink:href="#mf167b64cdd" y="17.083636"/>
     <use style="fill:#348abd;stroke:#348abd;" x="160.094091" xlink:href="#mf167b64cdd" y="17.083636"/>
     <use style="fill:#348abd;stroke:#348abd;" x="163.510818" xlink:href="#mf167b64cdd" y="17.083636"/>
     <use style="fill:#348abd;stroke:#348abd;" x="166.927545" xlink:href="#mf167b64cdd" y="17.083636"/>
     <use style="fill:#348abd;stroke:#348abd;" x="170.344273" xlink:href="#mf167b64cdd" y="17.083636"/>
     <use style="fill:#348abd;stroke:#348abd;" x="173.761" xlink:href="#mf167b64cdd" y="17.083636"/>
     <use style="fill:#348abd;stroke:#348abd;" x="177.177727" xlink:href="#mf167b64cdd" y="17.083636"/>
     <use style="fill:#348abd;stroke:#348abd;" x="180.594455" xlink:href="#mf167b64cdd" y="17.083636"/>
     <use style="fill:#348abd;stroke:#348abd;" x="184.011182" xlink:href="#mf167b64cdd" y="17.083636"/>
     <use style="fill:#348abd;stroke:#348abd;" x="187.427909" xlink:href="#mf167b64cdd" y="17.083636"/>
     <use style="fill:#348abd;stroke:#348abd;" x="190.844636" xlink:href="#mf167b64cdd" y="17.083636"/>
     <use style="fill:#348abd;stroke:#348abd;" x="194.261364" xlink:href="#mf167b64cdd" y="17.083636"/>
     <use style="fill:#348abd;stroke:#348abd;" x="197.678091" xlink:href="#mf167b64cdd" y="17.083636"/>
     <use style="fill:#348abd;stroke:#348abd;" x="201.094818" xlink:href="#mf167b64cdd" y="17.083636"/>
     <use style="fill:#348abd;stroke:#348abd;" x="204.511545" xlink:href="#mf167b64cdd" y="17.083636"/>
     <use style="fill:#348abd;stroke:#348abd;" x="207.928273" xlink:href="#mf167b64cdd" y="17.083636"/>
     <use style="fill:#348abd;stroke:#348abd;" x="211.345" xlink:href="#mf167b64cdd" y="17.083636"/>
     <use style="fill:#348abd;stroke:#348abd;" x="214.761727" xlink:href="#mf167b64cdd" y="17.083636"/>
     <use style="fill:#348abd;stroke:#348abd;" x="218.178455" xlink:href="#mf167b64cdd" y="17.083636"/>
     <use style="fill:#348abd;stroke:#348abd;" x="221.595182" xlink:href="#mf167b64cdd" y="17.083636"/>
     <use style="fill:#348abd;stroke:#348abd;" x="225.011909" xlink:href="#mf167b64cdd" y="17.083636"/>
     <use style="fill:#348abd;stroke:#348abd;" x="228.428636" xlink:href="#mf167b64cdd" y="17.083636"/>
     <use style="fill:#348abd;stroke:#348abd;" x="231.845364" xlink:href="#mf167b64cdd" y="17.083636"/>
     <use style="fill:#348abd;stroke:#348abd;" x="235.262091" xlink:href="#mf167b64cdd" y="17.083636"/>
     <use style="fill:#348abd;stroke:#348abd;" x="238.678818" xlink:href="#mf167b64cdd" y="17.083636"/>
     <use style="fill:#348abd;stroke:#348abd;" x="242.095545" xlink:href="#mf167b64cdd" y="17.083636"/>
     <use style="fill:#348abd;stroke:#348abd;" x="245.512273" xlink:href="#mf167b64cdd" y="17.083636"/>
     <use style="fill:#348abd;stroke:#348abd;" x="248.929" xlink:href="#mf167b64cdd" y="17.083636"/>
     <use style="fill:#348abd;stroke:#348abd;" x="252.345727" xlink:href="#mf167b64cdd" y="17.083636"/>
     <use style="fill:#348abd;stroke:#348abd;" x="255.762455" xlink:href="#mf167b64cdd" y="17.083636"/>
     <use style="fill:#348abd;stroke:#348abd;" x="259.179182" xlink:href="#mf167b64cdd" y="17.083636"/>
     <use style="fill:#348abd;stroke:#348abd;" x="262.595909" xlink:href="#mf167b64cdd" y="17.083636"/>
     <use style="fill:#348abd;stroke:#348abd;" x="266.012636" xlink:href="#mf167b64cdd" y="17.083636"/>
     <use style="fill:#348abd;stroke:#348abd;" x="269.429364" xlink:href="#mf167b64cdd" y="17.083636"/>
     <use style="fill:#348abd;stroke:#348abd;" x="272.846091" xlink:href="#mf167b64cdd" y="17.083636"/>
     <use style="fill:#348abd;stroke:#348abd;" x="276.262818" xlink:href="#mf167b64cdd" y="17.083636"/>
     <use style="fill:#348abd;stroke:#348abd;" x="279.679545" xlink:href="#mf167b64cdd" y="17.083636"/>
     <use style="fill:#348abd;stroke:#348abd;" x="283.096273" xlink:href="#mf167b64cdd" y="17.083636"/>
     <use style="fill:#348abd;stroke:#348abd;" x="286.513" xlink:href="#mf167b64cdd" y="17.083636"/>
     <use style="fill:#348abd;stroke:#348abd;" x="289.929727" xlink:href="#mf167b64cdd" y="17.083636"/>
     <use style="fill:#348abd;stroke:#348abd;" x="293.346455" xlink:href="#mf167b64cdd" y="17.083636"/>
     <use style="fill:#348abd;stroke:#348abd;" x="296.763182" xlink:href="#mf167b64cdd" y="17.083636"/>
     <use style="fill:#348abd;stroke:#348abd;" x="300.179909" xlink:href="#mf167b64cdd" y="17.083636"/>
     <use style="fill:#348abd;stroke:#348abd;" x="303.596636" xlink:href="#mf167b64cdd" y="17.083636"/>
     <use style="fill:#348abd;stroke:#348abd;" x="307.013364" xlink:href="#mf167b64cdd" y="17.083636"/>
     <use style="fill:#348abd;stroke:#348abd;" x="310.430091" xlink:href="#mf167b64cdd" y="17.083636"/>
     <use style="fill:#348abd;stroke:#348abd;" x="313.846818" xlink:href="#mf167b64cdd" y="17.083636"/>
     <use style="fill:#348abd;stroke:#348abd;" x="317.263545" xlink:href="#mf167b64cdd" y="17.083636"/>
     <use style="fill:#348abd;stroke:#348abd;" x="320.680273" xlink:href="#mf167b64cdd" y="17.083636"/>
     <use style="fill:#348abd;stroke:#348abd;" x="324.097" xlink:href="#mf167b64cdd" y="17.083636"/>
     <use style="fill:#348abd;stroke:#348abd;" x="327.513727" xlink:href="#mf167b64cdd" y="17.083636"/>
     <use style="fill:#348abd;stroke:#348abd;" x="330.930455" xlink:href="#mf167b64cdd" y="17.083636"/>
     <use style="fill:#348abd;stroke:#348abd;" x="334.347182" xlink:href="#mf167b64cdd" y="17.083636"/>
     <use style="fill:#348abd;stroke:#348abd;" x="337.763909" xlink:href="#mf167b64cdd" y="17.083636"/>
     <use style="fill:#348abd;stroke:#348abd;" x="341.180636" xlink:href="#mf167b64cdd" y="17.083636"/>
     <use style="fill:#348abd;stroke:#348abd;" x="344.597364" xlink:href="#mf167b64cdd" y="17.083636"/>
     <use style="fill:#348abd;stroke:#348abd;" x="348.014091" xlink:href="#mf167b64cdd" y="17.083636"/>
     <use style="fill:#348abd;stroke:#348abd;" x="351.430818" xlink:href="#mf167b64cdd" y="17.083636"/>
     <use style="fill:#348abd;stroke:#348abd;" x="354.847545" xlink:href="#mf167b64cdd" y="17.083636"/>
     <use style="fill:#348abd;stroke:#348abd;" x="358.264273" xlink:href="#mf167b64cdd" y="17.083636"/>
     <use style="fill:#348abd;stroke:#348abd;" x="361.681" xlink:href="#mf167b64cdd" y="17.083636"/>
     <use style="fill:#348abd;stroke:#348abd;" x="365.097727" xlink:href="#mf167b64cdd" y="17.083636"/>
     <use style="fill:#348abd;stroke:#348abd;" x="368.514455" xlink:href="#mf167b64cdd" y="17.083636"/>
     <use style="fill:#348abd;stroke:#348abd;" x="371.931182" xlink:href="#mf167b64cdd" y="17.083636"/>
     <use style="fill:#348abd;stroke:#348abd;" x="375.347909" xlink:href="#mf167b64cdd" y="17.083636"/>
     <use style="fill:#348abd;stroke:#348abd;" x="378.764636" xlink:href="#mf167b64cdd" y="17.083636"/>
     <use style="fill:#348abd;stroke:#348abd;" x="382.181364" xlink:href="#mf167b64cdd" y="17.083636"/>
    </g>
   </g>
   <g id="patch_3">
    <path d="M 23.425 224.64 
L 23.425 7.2 
" style="fill:none;stroke:#ffffff;stroke-linecap:square;stroke-linejoin:miter;"/>
   </g>
   <g id="patch_4">
    <path d="M 399.265 224.64 
L 399.265 7.2 
" style="fill:none;stroke:#ffffff;stroke-linecap:square;stroke-linejoin:miter;"/>
   </g>
   <g id="patch_5">
    <path d="M 23.425 224.64 
L 399.265 224.64 
" style="fill:none;stroke:#ffffff;stroke-linecap:square;stroke-linejoin:miter;"/>
   </g>
   <g id="patch_6">
    <path d="M 23.425 7.2 
L 399.265 7.2 
" style="fill:none;stroke:#ffffff;stroke-linecap:square;stroke-linejoin:miter;"/>
   </g>
   <g id="legend_1">
    <g id="patch_7">
     <path d="M 314.750938 219.64 
L 392.265 219.64 
Q 394.265 219.64 394.265 217.64 
L 394.265 189.28375 
Q 394.265 187.28375 392.265 187.28375 
L 314.750938 187.28375 
Q 312.750938 187.28375 312.750938 189.28375 
L 312.750938 217.64 
Q 312.750938 219.64 314.750938 219.64 
z
" style="fill:#e5e5e5;opacity:0.8;stroke:#cccccc;stroke-linejoin:miter;stroke-width:0.5;"/>
    </g>
    <g id="line2d_31">
     <path d="M 316.750938 195.382187 
L 336.750938 195.382187 
" style="fill:none;stroke:#e24a33;stroke-width:4;"/>
    </g>
    <g id="line2d_32"/>
    <g id="text_15">
     <!-- Bayesian -->
     <defs>
      <path d="M 19.671875 34.8125 
L 19.671875 8.109375 
L 35.5 8.109375 
Q 43.453125 8.109375 47.28125 11.40625 
Q 51.125 14.703125 51.125 21.484375 
Q 51.125 28.328125 47.28125 31.5625 
Q 43.453125 34.8125 35.5 34.8125 
z
M 19.671875 64.796875 
L 19.671875 42.828125 
L 34.28125 42.828125 
Q 41.5 42.828125 45.03125 45.53125 
Q 48.578125 48.25 48.578125 53.8125 
Q 48.578125 59.328125 45.03125 62.0625 
Q 41.5 64.796875 34.28125 64.796875 
z
M 9.8125 72.90625 
L 35.015625 72.90625 
Q 46.296875 72.90625 52.390625 68.21875 
Q 58.5 63.53125 58.5 54.890625 
Q 58.5 48.1875 55.375 44.234375 
Q 52.25 40.28125 46.1875 39.3125 
Q 53.46875 37.75 57.5 32.78125 
Q 61.53125 27.828125 61.53125 20.40625 
Q 61.53125 10.640625 54.890625 5.3125 
Q 48.25 0 35.984375 0 
L 9.8125 0 
z
" id="DejaVuSans-66"/>
      <path d="M 34.28125 27.484375 
Q 23.390625 27.484375 19.1875 25 
Q 14.984375 22.515625 14.984375 16.5 
Q 14.984375 11.71875 18.140625 8.90625 
Q 21.296875 6.109375 26.703125 6.109375 
Q 34.1875 6.109375 38.703125 11.40625 
Q 43.21875 16.703125 43.21875 25.484375 
L 43.21875 27.484375 
z
M 52.203125 31.203125 
L 52.203125 0 
L 43.21875 0 
L 43.21875 8.296875 
Q 40.140625 3.328125 35.546875 0.953125 
Q 30.953125 -1.421875 24.3125 -1.421875 
Q 15.921875 -1.421875 10.953125 3.296875 
Q 6 8.015625 6 15.921875 
Q 6 25.140625 12.171875 29.828125 
Q 18.359375 34.515625 30.609375 34.515625 
L 43.21875 34.515625 
L 43.21875 35.40625 
Q 43.21875 41.609375 39.140625 45 
Q 35.0625 48.390625 27.6875 48.390625 
Q 23 48.390625 18.546875 47.265625 
Q 14.109375 46.140625 10.015625 43.890625 
L 10.015625 52.203125 
Q 14.9375 54.109375 19.578125 55.046875 
Q 24.21875 56 28.609375 56 
Q 40.484375 56 46.34375 49.84375 
Q 52.203125 43.703125 52.203125 31.203125 
z
" id="DejaVuSans-97"/>
      <path d="M 32.171875 -5.078125 
Q 28.375 -14.84375 24.75 -17.8125 
Q 21.140625 -20.796875 15.09375 -20.796875 
L 7.90625 -20.796875 
L 7.90625 -13.28125 
L 13.1875 -13.28125 
Q 16.890625 -13.28125 18.9375 -11.515625 
Q 21 -9.765625 23.484375 -3.21875 
L 25.09375 0.875 
L 2.984375 54.6875 
L 12.5 54.6875 
L 29.59375 11.921875 
L 46.6875 54.6875 
L 56.203125 54.6875 
z
" id="DejaVuSans-121"/>
      <path d="M 56.203125 29.59375 
L 56.203125 25.203125 
L 14.890625 25.203125 
Q 15.484375 15.921875 20.484375 11.0625 
Q 25.484375 6.203125 34.421875 6.203125 
Q 39.59375 6.203125 44.453125 7.46875 
Q 49.3125 8.734375 54.109375 11.28125 
L 54.109375 2.78125 
Q 49.265625 0.734375 44.1875 -0.34375 
Q 39.109375 -1.421875 33.890625 -1.421875 
Q 20.796875 -1.421875 13.15625 6.1875 
Q 5.515625 13.8125 5.515625 26.8125 
Q 5.515625 40.234375 12.765625 48.109375 
Q 20.015625 56 32.328125 56 
Q 43.359375 56 49.78125 48.890625 
Q 56.203125 41.796875 56.203125 29.59375 
z
M 47.21875 32.234375 
Q 47.125 39.59375 43.09375 43.984375 
Q 39.0625 48.390625 32.421875 48.390625 
Q 24.90625 48.390625 20.390625 44.140625 
Q 15.875 39.890625 15.1875 32.171875 
z
" id="DejaVuSans-101"/>
      <path d="M 44.28125 53.078125 
L 44.28125 44.578125 
Q 40.484375 46.53125 36.375 47.5 
Q 32.28125 48.484375 27.875 48.484375 
Q 21.1875 48.484375 17.84375 46.4375 
Q 14.5 44.390625 14.5 40.28125 
Q 14.5 37.15625 16.890625 35.375 
Q 19.28125 33.59375 26.515625 31.984375 
L 29.59375 31.296875 
Q 39.15625 29.25 43.1875 25.515625 
Q 47.21875 21.78125 47.21875 15.09375 
Q 47.21875 7.46875 41.1875 3.015625 
Q 35.15625 -1.421875 24.609375 -1.421875 
Q 20.21875 -1.421875 15.453125 -0.5625 
Q 10.6875 0.296875 5.421875 2 
L 5.421875 11.28125 
Q 10.40625 8.6875 15.234375 7.390625 
Q 20.0625 6.109375 24.8125 6.109375 
Q 31.15625 6.109375 34.5625 8.28125 
Q 37.984375 10.453125 37.984375 14.40625 
Q 37.984375 18.0625 35.515625 20.015625 
Q 33.0625 21.96875 24.703125 23.78125 
L 21.578125 24.515625 
Q 13.234375 26.265625 9.515625 29.90625 
Q 5.8125 33.546875 5.8125 39.890625 
Q 5.8125 47.609375 11.28125 51.796875 
Q 16.75 56 26.8125 56 
Q 31.78125 56 36.171875 55.265625 
Q 40.578125 54.546875 44.28125 53.078125 
z
" id="DejaVuSans-115"/>
      <path d="M 9.421875 54.6875 
L 18.40625 54.6875 
L 18.40625 0 
L 9.421875 0 
z
M 9.421875 75.984375 
L 18.40625 75.984375 
L 18.40625 64.59375 
L 9.421875 64.59375 
z
" id="DejaVuSans-105"/>
      <path d="M 54.890625 33.015625 
L 54.890625 0 
L 45.90625 0 
L 45.90625 32.71875 
Q 45.90625 40.484375 42.875 44.328125 
Q 39.84375 48.1875 33.796875 48.1875 
Q 26.515625 48.1875 22.3125 43.546875 
Q 18.109375 38.921875 18.109375 30.90625 
L 18.109375 0 
L 9.078125 0 
L 9.078125 54.6875 
L 18.109375 54.6875 
L 18.109375 46.1875 
Q 21.34375 51.125 25.703125 53.5625 
Q 30.078125 56 35.796875 56 
Q 45.21875 56 50.046875 50.171875 
Q 54.890625 44.34375 54.890625 33.015625 
z
" id="DejaVuSans-110"/>
     </defs>
     <g transform="translate(344.750938 198.882187)scale(0.1 -0.1)">
      <use xlink:href="#DejaVuSans-66"/>
      <use x="68.603516" xlink:href="#DejaVuSans-97"/>
      <use x="129.882812" xlink:href="#DejaVuSans-121"/>
      <use x="189.0625" xlink:href="#DejaVuSans-101"/>
      <use x="250.585938" xlink:href="#DejaVuSans-115"/>
      <use x="302.685547" xlink:href="#DejaVuSans-105"/>
      <use x="330.46875" xlink:href="#DejaVuSans-97"/>
      <use x="391.748047" xlink:href="#DejaVuSans-110"/>
     </g>
    </g>
    <g id="line2d_33"/>
    <g id="line2d_34">
     <g>
      <use style="fill:#348abd;stroke:#348abd;" x="326.750938" xlink:href="#mf167b64cdd" y="210.060312"/>
     </g>
    </g>
    <g id="text_16">
     <!-- Optimal -->
     <defs>
      <path d="M 39.40625 66.21875 
Q 28.65625 66.21875 22.328125 58.203125 
Q 16.015625 50.203125 16.015625 36.375 
Q 16.015625 22.609375 22.328125 14.59375 
Q 28.65625 6.59375 39.40625 6.59375 
Q 50.140625 6.59375 56.421875 14.59375 
Q 62.703125 22.609375 62.703125 36.375 
Q 62.703125 50.203125 56.421875 58.203125 
Q 50.140625 66.21875 39.40625 66.21875 
z
M 39.40625 74.21875 
Q 54.734375 74.21875 63.90625 63.9375 
Q 73.09375 53.65625 73.09375 36.375 
Q 73.09375 19.140625 63.90625 8.859375 
Q 54.734375 -1.421875 39.40625 -1.421875 
Q 24.03125 -1.421875 14.8125 8.828125 
Q 5.609375 19.09375 5.609375 36.375 
Q 5.609375 53.65625 14.8125 63.9375 
Q 24.03125 74.21875 39.40625 74.21875 
z
" id="DejaVuSans-79"/>
      <path d="M 18.109375 8.203125 
L 18.109375 -20.796875 
L 9.078125 -20.796875 
L 9.078125 54.6875 
L 18.109375 54.6875 
L 18.109375 46.390625 
Q 20.953125 51.265625 25.265625 53.625 
Q 29.59375 56 35.59375 56 
Q 45.5625 56 51.78125 48.09375 
Q 58.015625 40.1875 58.015625 27.296875 
Q 58.015625 14.40625 51.78125 6.484375 
Q 45.5625 -1.421875 35.59375 -1.421875 
Q 29.59375 -1.421875 25.265625 0.953125 
Q 20.953125 3.328125 18.109375 8.203125 
z
M 48.6875 27.296875 
Q 48.6875 37.203125 44.609375 42.84375 
Q 40.53125 48.484375 33.40625 48.484375 
Q 26.265625 48.484375 22.1875 42.84375 
Q 18.109375 37.203125 18.109375 27.296875 
Q 18.109375 17.390625 22.1875 11.75 
Q 26.265625 6.109375 33.40625 6.109375 
Q 40.53125 6.109375 44.609375 11.75 
Q 48.6875 17.390625 48.6875 27.296875 
z
" id="DejaVuSans-112"/>
      <path d="M 18.3125 70.21875 
L 18.3125 54.6875 
L 36.8125 54.6875 
L 36.8125 47.703125 
L 18.3125 47.703125 
L 18.3125 18.015625 
Q 18.3125 11.328125 20.140625 9.421875 
Q 21.96875 7.515625 27.59375 7.515625 
L 36.8125 7.515625 
L 36.8125 0 
L 27.59375 0 
Q 17.1875 0 13.234375 3.875 
Q 9.28125 7.765625 9.28125 18.015625 
L 9.28125 47.703125 
L 2.6875 47.703125 
L 2.6875 54.6875 
L 9.28125 54.6875 
L 9.28125 70.21875 
z
" id="DejaVuSans-116"/>
      <path d="M 52 44.1875 
Q 55.375 50.25 60.0625 53.125 
Q 64.75 56 71.09375 56 
Q 79.640625 56 84.28125 50.015625 
Q 88.921875 44.046875 88.921875 33.015625 
L 88.921875 0 
L 79.890625 0 
L 79.890625 32.71875 
Q 79.890625 40.578125 77.09375 44.375 
Q 74.3125 48.1875 68.609375 48.1875 
Q 61.625 48.1875 57.5625 43.546875 
Q 53.515625 38.921875 53.515625 30.90625 
L 53.515625 0 
L 44.484375 0 
L 44.484375 32.71875 
Q 44.484375 40.625 41.703125 44.40625 
Q 38.921875 48.1875 33.109375 48.1875 
Q 26.21875 48.1875 22.15625 43.53125 
Q 18.109375 38.875 18.109375 30.90625 
L 18.109375 0 
L 9.078125 0 
L 9.078125 54.6875 
L 18.109375 54.6875 
L 18.109375 46.1875 
Q 21.1875 51.21875 25.484375 53.609375 
Q 29.78125 56 35.6875 56 
Q 41.65625 56 45.828125 52.96875 
Q 50 49.953125 52 44.1875 
z
" id="DejaVuSans-109"/>
      <path d="M 9.421875 75.984375 
L 18.40625 75.984375 
L 18.40625 0 
L 9.421875 0 
z
" id="DejaVuSans-108"/>
     </defs>
     <g transform="translate(344.750938 213.560312)scale(0.1 -0.1)">
      <use xlink:href="#DejaVuSans-79"/>
      <use x="78.710938" xlink:href="#DejaVuSans-112"/>
      <use x="142.1875" xlink:href="#DejaVuSans-116"/>
      <use x="181.396484" xlink:href="#DejaVuSans-105"/>
      <use x="209.179688" xlink:href="#DejaVuSans-109"/>
      <use x="306.591797" xlink:href="#DejaVuSans-97"/>
      <use x="367.871094" xlink:href="#DejaVuSans-108"/>
     </g>
    </g>
   </g>
  </g>
 </g>
 <defs>
  <clipPath id="pafecb61102">
   <rect height="217.44" width="375.84" x="23.425" y="7.2"/>
  </clipPath>
 </defs>
</svg>
