<?xml version="1.0" encoding="utf-8" standalone="no"?>
<!DOCTYPE svg PUBLIC "-//W3C//DTD SVG 1.1//EN"
  "http://www.w3.org/Graphics/SVG/1.1/DTD/svg11.dtd">
<!-- Created with matplotlib (https://matplotlib.org/) -->
<svg height="245.267226pt" version="1.1" viewBox="0 0 400.1025 245.267226" width="400.1025pt" xmlns="http://www.w3.org/2000/svg" xmlns:xlink="http://www.w3.org/1999/xlink">
 <defs>
  <style type="text/css">
*{stroke-linecap:butt;stroke-linejoin:round;}
  </style>
 </defs>
 <g id="figure_1">
  <g id="patch_1">
   <path d="M 0 245.267226 
L 400.1025 245.267226 
L 400.1025 0 
L 0 0 
z
" style="fill:#ffffff;"/>
  </g>
  <g id="axes_1">
   <g id="patch_2">
    <path d="M 17.0625 224.889101 
L 392.9025 224.889101 
L 392.9025 7.449101 
L 17.0625 7.449101 
z
" style="fill:#e5e5e5;"/>
   </g>
   <g id="matplotlib.axis_1">
    <g id="xtick_1">
     <g id="line2d_1">
      <path clip-path="url(#p8da62f5724)" d="M 34.146136 224.889101 
L 34.146136 7.449101 
" style="fill:none;stroke:#ffffff;"/>
     </g>
     <g id="line2d_2"/>
     <g id="text_1">
      <!-- 0.0 -->
      <defs>
       <path d="M 31.78125 66.40625 
Q 24.171875 66.40625 20.328125 58.90625 
Q 16.5 51.421875 16.5 36.375 
Q 16.5 21.390625 20.328125 13.890625 
Q 24.171875 6.390625 31.78125 6.390625 
Q 39.453125 6.390625 43.28125 13.890625 
Q 47.125 21.390625 47.125 36.375 
Q 47.125 51.421875 43.28125 58.90625 
Q 39.453125 66.40625 31.78125 66.40625 
z
M 31.78125 74.21875 
Q 44.046875 74.21875 50.515625 64.515625 
Q 56.984375 54.828125 56.984375 36.375 
Q 56.984375 17.96875 50.515625 8.265625 
Q 44.046875 -1.421875 31.78125 -1.421875 
Q 19.53125 -1.421875 13.0625 8.265625 
Q 6.59375 17.96875 6.59375 36.375 
Q 6.59375 54.828125 13.0625 64.515625 
Q 19.53125 74.21875 31.78125 74.21875 
z
" id="DejaVuSans-48"/>
       <path d="M 10.6875 12.40625 
L 21 12.40625 
L 21 0 
L 10.6875 0 
z
" id="DejaVuSans-46"/>
      </defs>
      <g style="fill:#555555;" transform="translate(26.194574 235.987538)scale(0.1 -0.1)">
       <use xlink:href="#DejaVuSans-48"/>
       <use x="63.623047" xlink:href="#DejaVuSans-46"/>
       <use x="95.410156" xlink:href="#DejaVuSans-48"/>
      </g>
     </g>
    </g>
    <g id="xtick_2">
     <g id="line2d_3">
      <path clip-path="url(#p8da62f5724)" d="M 102.480682 224.889101 
L 102.480682 7.449101 
" style="fill:none;stroke:#ffffff;"/>
     </g>
     <g id="line2d_4"/>
     <g id="text_2">
      <!-- 0.2 -->
      <defs>
       <path d="M 19.1875 8.296875 
L 53.609375 8.296875 
L 53.609375 0 
L 7.328125 0 
L 7.328125 8.296875 
Q 12.9375 14.109375 22.625 23.890625 
Q 32.328125 33.6875 34.8125 36.53125 
Q 39.546875 41.84375 41.421875 45.53125 
Q 43.3125 49.21875 43.3125 52.78125 
Q 43.3125 58.59375 39.234375 62.25 
Q 35.15625 65.921875 28.609375 65.921875 
Q 23.96875 65.921875 18.8125 64.3125 
Q 13.671875 62.703125 7.8125 59.421875 
L 7.8125 69.390625 
Q 13.765625 71.78125 18.9375 73 
Q 24.125 74.21875 28.421875 74.21875 
Q 39.75 74.21875 46.484375 68.546875 
Q 53.21875 62.890625 53.21875 53.421875 
Q 53.21875 48.921875 51.53125 44.890625 
Q 49.859375 40.875 45.40625 35.40625 
Q 44.1875 33.984375 37.640625 27.21875 
Q 31.109375 20.453125 19.1875 8.296875 
z
" id="DejaVuSans-50"/>
      </defs>
      <g style="fill:#555555;" transform="translate(94.529119 235.987538)scale(0.1 -0.1)">
       <use xlink:href="#DejaVuSans-48"/>
       <use x="63.623047" xlink:href="#DejaVuSans-46"/>
       <use x="95.410156" xlink:href="#DejaVuSans-50"/>
      </g>
     </g>
    </g>
    <g id="xtick_3">
     <g id="line2d_5">
      <path clip-path="url(#p8da62f5724)" d="M 170.815227 224.889101 
L 170.815227 7.449101 
" style="fill:none;stroke:#ffffff;"/>
     </g>
     <g id="line2d_6"/>
     <g id="text_3">
      <!-- 0.4 -->
      <defs>
       <path d="M 37.796875 64.3125 
L 12.890625 25.390625 
L 37.796875 25.390625 
z
M 35.203125 72.90625 
L 47.609375 72.90625 
L 47.609375 25.390625 
L 58.015625 25.390625 
L 58.015625 17.1875 
L 47.609375 17.1875 
L 47.609375 0 
L 37.796875 0 
L 37.796875 17.1875 
L 4.890625 17.1875 
L 4.890625 26.703125 
z
" id="DejaVuSans-52"/>
      </defs>
      <g style="fill:#555555;" transform="translate(162.863665 235.987538)scale(0.1 -0.1)">
       <use xlink:href="#DejaVuSans-48"/>
       <use x="63.623047" xlink:href="#DejaVuSans-46"/>
       <use x="95.410156" xlink:href="#DejaVuSans-52"/>
      </g>
     </g>
    </g>
    <g id="xtick_4">
     <g id="line2d_7">
      <path clip-path="url(#p8da62f5724)" d="M 239.149773 224.889101 
L 239.149773 7.449101 
" style="fill:none;stroke:#ffffff;"/>
     </g>
     <g id="line2d_8"/>
     <g id="text_4">
      <!-- 0.6 -->
      <defs>
       <path d="M 33.015625 40.375 
Q 26.375 40.375 22.484375 35.828125 
Q 18.609375 31.296875 18.609375 23.390625 
Q 18.609375 15.53125 22.484375 10.953125 
Q 26.375 6.390625 33.015625 6.390625 
Q 39.65625 6.390625 43.53125 10.953125 
Q 47.40625 15.53125 47.40625 23.390625 
Q 47.40625 31.296875 43.53125 35.828125 
Q 39.65625 40.375 33.015625 40.375 
z
M 52.59375 71.296875 
L 52.59375 62.3125 
Q 48.875 64.0625 45.09375 64.984375 
Q 41.3125 65.921875 37.59375 65.921875 
Q 27.828125 65.921875 22.671875 59.328125 
Q 17.53125 52.734375 16.796875 39.40625 
Q 19.671875 43.65625 24.015625 45.921875 
Q 28.375 48.1875 33.59375 48.1875 
Q 44.578125 48.1875 50.953125 41.515625 
Q 57.328125 34.859375 57.328125 23.390625 
Q 57.328125 12.15625 50.6875 5.359375 
Q 44.046875 -1.421875 33.015625 -1.421875 
Q 20.359375 -1.421875 13.671875 8.265625 
Q 6.984375 17.96875 6.984375 36.375 
Q 6.984375 53.65625 15.1875 63.9375 
Q 23.390625 74.21875 37.203125 74.21875 
Q 40.921875 74.21875 44.703125 73.484375 
Q 48.484375 72.75 52.59375 71.296875 
z
" id="DejaVuSans-54"/>
      </defs>
      <g style="fill:#555555;" transform="translate(231.19821 235.987538)scale(0.1 -0.1)">
       <use xlink:href="#DejaVuSans-48"/>
       <use x="63.623047" xlink:href="#DejaVuSans-46"/>
       <use x="95.410156" xlink:href="#DejaVuSans-54"/>
      </g>
     </g>
    </g>
    <g id="xtick_5">
     <g id="line2d_9">
      <path clip-path="url(#p8da62f5724)" d="M 307.484318 224.889101 
L 307.484318 7.449101 
" style="fill:none;stroke:#ffffff;"/>
     </g>
     <g id="line2d_10"/>
     <g id="text_5">
      <!-- 0.8 -->
      <defs>
       <path d="M 31.78125 34.625 
Q 24.75 34.625 20.71875 30.859375 
Q 16.703125 27.09375 16.703125 20.515625 
Q 16.703125 13.921875 20.71875 10.15625 
Q 24.75 6.390625 31.78125 6.390625 
Q 38.8125 6.390625 42.859375 10.171875 
Q 46.921875 13.96875 46.921875 20.515625 
Q 46.921875 27.09375 42.890625 30.859375 
Q 38.875 34.625 31.78125 34.625 
z
M 21.921875 38.8125 
Q 15.578125 40.375 12.03125 44.71875 
Q 8.5 49.078125 8.5 55.328125 
Q 8.5 64.0625 14.71875 69.140625 
Q 20.953125 74.21875 31.78125 74.21875 
Q 42.671875 74.21875 48.875 69.140625 
Q 55.078125 64.0625 55.078125 55.328125 
Q 55.078125 49.078125 51.53125 44.71875 
Q 48 40.375 41.703125 38.8125 
Q 48.828125 37.15625 52.796875 32.3125 
Q 56.78125 27.484375 56.78125 20.515625 
Q 56.78125 9.90625 50.3125 4.234375 
Q 43.84375 -1.421875 31.78125 -1.421875 
Q 19.734375 -1.421875 13.25 4.234375 
Q 6.78125 9.90625 6.78125 20.515625 
Q 6.78125 27.484375 10.78125 32.3125 
Q 14.796875 37.15625 21.921875 38.8125 
z
M 18.3125 54.390625 
Q 18.3125 48.734375 21.84375 45.5625 
Q 25.390625 42.390625 31.78125 42.390625 
Q 38.140625 42.390625 41.71875 45.5625 
Q 45.3125 48.734375 45.3125 54.390625 
Q 45.3125 60.0625 41.71875 63.234375 
Q 38.140625 66.40625 31.78125 66.40625 
Q 25.390625 66.40625 21.84375 63.234375 
Q 18.3125 60.0625 18.3125 54.390625 
z
" id="DejaVuSans-56"/>
      </defs>
      <g style="fill:#555555;" transform="translate(299.532756 235.987538)scale(0.1 -0.1)">
       <use xlink:href="#DejaVuSans-48"/>
       <use x="63.623047" xlink:href="#DejaVuSans-46"/>
       <use x="95.410156" xlink:href="#DejaVuSans-56"/>
      </g>
     </g>
    </g>
    <g id="xtick_6">
     <g id="line2d_11">
      <path clip-path="url(#p8da62f5724)" d="M 375.818864 224.889101 
L 375.818864 7.449101 
" style="fill:none;stroke:#ffffff;"/>
     </g>
     <g id="line2d_12"/>
     <g id="text_6">
      <!-- 1.0 -->
      <defs>
       <path d="M 12.40625 8.296875 
L 28.515625 8.296875 
L 28.515625 63.921875 
L 10.984375 60.40625 
L 10.984375 69.390625 
L 28.421875 72.90625 
L 38.28125 72.90625 
L 38.28125 8.296875 
L 54.390625 8.296875 
L 54.390625 0 
L 12.40625 0 
z
" id="DejaVuSans-49"/>
      </defs>
      <g style="fill:#555555;" transform="translate(367.867301 235.987538)scale(0.1 -0.1)">
       <use xlink:href="#DejaVuSans-49"/>
       <use x="63.623047" xlink:href="#DejaVuSans-46"/>
       <use x="95.410156" xlink:href="#DejaVuSans-48"/>
      </g>
     </g>
    </g>
   </g>
   <g id="matplotlib.axis_2">
    <g id="ytick_1">
     <g id="line2d_13">
      <path clip-path="url(#p8da62f5724)" d="M 17.0625 215.005465 
L 392.9025 215.005465 
" style="fill:none;stroke:#ffffff;"/>
     </g>
     <g id="line2d_14"/>
     <g id="text_7">
      <!-- 0 -->
      <g style="fill:#555555;" transform="translate(7.2 218.804683)scale(0.1 -0.1)">
       <use xlink:href="#DejaVuSans-48"/>
      </g>
     </g>
    </g>
    <g id="ytick_2">
     <g id="line2d_15">
      <path clip-path="url(#p8da62f5724)" d="M 17.0625 189.504684 
L 392.9025 189.504684 
" style="fill:none;stroke:#ffffff;"/>
     </g>
     <g id="line2d_16"/>
     <g id="text_8">
      <!-- 1 -->
      <g style="fill:#555555;" transform="translate(7.2 193.303903)scale(0.1 -0.1)">
       <use xlink:href="#DejaVuSans-49"/>
      </g>
     </g>
    </g>
    <g id="ytick_3">
     <g id="line2d_17">
      <path clip-path="url(#p8da62f5724)" d="M 17.0625 164.003903 
L 392.9025 164.003903 
" style="fill:none;stroke:#ffffff;"/>
     </g>
     <g id="line2d_18"/>
     <g id="text_9">
      <!-- 2 -->
      <g style="fill:#555555;" transform="translate(7.2 167.803122)scale(0.1 -0.1)">
       <use xlink:href="#DejaVuSans-50"/>
      </g>
     </g>
    </g>
    <g id="ytick_4">
     <g id="line2d_19">
      <path clip-path="url(#p8da62f5724)" d="M 17.0625 138.503122 
L 392.9025 138.503122 
" style="fill:none;stroke:#ffffff;"/>
     </g>
     <g id="line2d_20"/>
     <g id="text_10">
      <!-- 3 -->
      <defs>
       <path d="M 40.578125 39.3125 
Q 47.65625 37.796875 51.625 33 
Q 55.609375 28.21875 55.609375 21.1875 
Q 55.609375 10.40625 48.1875 4.484375 
Q 40.765625 -1.421875 27.09375 -1.421875 
Q 22.515625 -1.421875 17.65625 -0.515625 
Q 12.796875 0.390625 7.625 2.203125 
L 7.625 11.71875 
Q 11.71875 9.328125 16.59375 8.109375 
Q 21.484375 6.890625 26.8125 6.890625 
Q 36.078125 6.890625 40.9375 10.546875 
Q 45.796875 14.203125 45.796875 21.1875 
Q 45.796875 27.640625 41.28125 31.265625 
Q 36.765625 34.90625 28.71875 34.90625 
L 20.21875 34.90625 
L 20.21875 43.015625 
L 29.109375 43.015625 
Q 36.375 43.015625 40.234375 45.921875 
Q 44.09375 48.828125 44.09375 54.296875 
Q 44.09375 59.90625 40.109375 62.90625 
Q 36.140625 65.921875 28.71875 65.921875 
Q 24.65625 65.921875 20.015625 65.03125 
Q 15.375 64.15625 9.8125 62.3125 
L 9.8125 71.09375 
Q 15.4375 72.65625 20.34375 73.4375 
Q 25.25 74.21875 29.59375 74.21875 
Q 40.828125 74.21875 47.359375 69.109375 
Q 53.90625 64.015625 53.90625 55.328125 
Q 53.90625 49.265625 50.4375 45.09375 
Q 46.96875 40.921875 40.578125 39.3125 
z
" id="DejaVuSans-51"/>
      </defs>
      <g style="fill:#555555;" transform="translate(7.2 142.302341)scale(0.1 -0.1)">
       <use xlink:href="#DejaVuSans-51"/>
      </g>
     </g>
    </g>
    <g id="ytick_5">
     <g id="line2d_21">
      <path clip-path="url(#p8da62f5724)" d="M 17.0625 113.002342 
L 392.9025 113.002342 
" style="fill:none;stroke:#ffffff;"/>
     </g>
     <g id="line2d_22"/>
     <g id="text_11">
      <!-- 4 -->
      <g style="fill:#555555;" transform="translate(7.2 116.80156)scale(0.1 -0.1)">
       <use xlink:href="#DejaVuSans-52"/>
      </g>
     </g>
    </g>
    <g id="ytick_6">
     <g id="line2d_23">
      <path clip-path="url(#p8da62f5724)" d="M 17.0625 87.501561 
L 392.9025 87.501561 
" style="fill:none;stroke:#ffffff;"/>
     </g>
     <g id="line2d_24"/>
     <g id="text_12">
      <!-- 5 -->
      <defs>
       <path d="M 10.796875 72.90625 
L 49.515625 72.90625 
L 49.515625 64.59375 
L 19.828125 64.59375 
L 19.828125 46.734375 
Q 21.96875 47.46875 24.109375 47.828125 
Q 26.265625 48.1875 28.421875 48.1875 
Q 40.625 48.1875 47.75 41.5 
Q 54.890625 34.8125 54.890625 23.390625 
Q 54.890625 11.625 47.5625 5.09375 
Q 40.234375 -1.421875 26.90625 -1.421875 
Q 22.3125 -1.421875 17.546875 -0.640625 
Q 12.796875 0.140625 7.71875 1.703125 
L 7.71875 11.625 
Q 12.109375 9.234375 16.796875 8.0625 
Q 21.484375 6.890625 26.703125 6.890625 
Q 35.15625 6.890625 40.078125 11.328125 
Q 45.015625 15.765625 45.015625 23.390625 
Q 45.015625 31 40.078125 35.4375 
Q 35.15625 39.890625 26.703125 39.890625 
Q 22.75 39.890625 18.8125 39.015625 
Q 14.890625 38.140625 10.796875 36.28125 
z
" id="DejaVuSans-53"/>
      </defs>
      <g style="fill:#555555;" transform="translate(7.2 91.30078)scale(0.1 -0.1)">
       <use xlink:href="#DejaVuSans-53"/>
      </g>
     </g>
    </g>
    <g id="ytick_7">
     <g id="line2d_25">
      <path clip-path="url(#p8da62f5724)" d="M 17.0625 62.00078 
L 392.9025 62.00078 
" style="fill:none;stroke:#ffffff;"/>
     </g>
     <g id="line2d_26"/>
     <g id="text_13">
      <!-- 6 -->
      <g style="fill:#555555;" transform="translate(7.2 65.799999)scale(0.1 -0.1)">
       <use xlink:href="#DejaVuSans-54"/>
      </g>
     </g>
    </g>
    <g id="ytick_8">
     <g id="line2d_27">
      <path clip-path="url(#p8da62f5724)" d="M 17.0625 36.499999 
L 392.9025 36.499999 
" style="fill:none;stroke:#ffffff;"/>
     </g>
     <g id="line2d_28"/>
     <g id="text_14">
      <!-- 7 -->
      <defs>
       <path d="M 8.203125 72.90625 
L 55.078125 72.90625 
L 55.078125 68.703125 
L 28.609375 0 
L 18.3125 0 
L 43.21875 64.59375 
L 8.203125 64.59375 
z
" id="DejaVuSans-55"/>
      </defs>
      <g style="fill:#555555;" transform="translate(7.2 40.299218)scale(0.1 -0.1)">
       <use xlink:href="#DejaVuSans-55"/>
      </g>
     </g>
    </g>
    <g id="ytick_9">
     <g id="line2d_29">
      <path clip-path="url(#p8da62f5724)" d="M 17.0625 10.999219 
L 392.9025 10.999219 
" style="fill:none;stroke:#ffffff;"/>
     </g>
     <g id="line2d_30"/>
     <g id="text_15">
      <!-- 8 -->
      <g style="fill:#555555;" transform="translate(7.2 14.798437)scale(0.1 -0.1)">
       <use xlink:href="#DejaVuSans-56"/>
      </g>
     </g>
    </g>
   </g>
   <g id="line2d_31">
    <path clip-path="url(#p8da62f5724)" d="M 34.146136 215.005465 
L 37.597376 214.992874 
L 41.048616 214.909778 
L 44.499855 214.698829 
L 47.951095 214.315701 
L 51.402335 213.727697 
L 54.853574 212.912456 
L 58.304814 211.856732 
L 61.756054 210.555266 
L 65.207293 209.009728 
L 68.658533 207.227741 
L 72.109773 205.221973 
L 75.561012 203.009299 
L 79.012252 200.61003 
L 82.463492 198.047208 
L 85.914731 195.345956 
L 89.365971 192.532888 
L 92.817211 189.63558 
L 96.26845 186.682085 
L 99.71969 183.700502 
L 103.17093 180.71859 
L 106.622169 177.763434 
L 110.073409 174.861143 
L 113.524649 172.036595 
L 116.975888 169.313219 
L 120.427128 166.71281 
L 123.878368 164.255376 
L 127.329607 161.959026 
L 130.780847 159.839871 
L 134.232087 157.911967 
L 137.683326 156.187272 
L 141.134566 154.675635 
L 144.585806 153.384796 
L 148.037045 152.320418 
L 151.488285 151.486123 
L 154.939525 150.883553 
L 158.390764 150.512446 
L 161.842004 150.370714 
L 165.293244 150.454547 
L 168.744483 150.758512 
L 172.195723 151.275674 
L 175.646963 151.997711 
L 179.098202 152.915043 
L 182.549442 154.016964 
L 186.000682 155.291771 
L 189.451921 156.726907 
L 192.903161 158.309089 
L 196.354401 160.02445 
L 199.80564 161.858673 
L 203.25688 163.797122 
L 206.70812 165.824972 
L 210.15936 167.927338 
L 213.610599 170.089392 
L 217.061839 172.296482 
L 220.513079 174.534244 
L 223.964318 176.788701 
L 227.415558 179.046364 
L 230.866798 181.294322 
L 234.318037 183.520318 
L 237.769277 185.712829 
L 241.220517 187.861127 
L 244.671756 189.955337 
L 248.122996 191.986481 
L 251.574236 193.94652 
L 255.025475 195.828379 
L 258.476715 197.625971 
L 261.927955 199.334203 
L 265.379194 200.948979 
L 268.830434 202.467193 
L 272.281674 203.886714 
L 275.732913 205.206356 
L 279.184153 206.425852 
L 282.635393 207.545809 
L 286.086632 208.56766 
L 289.537872 209.493611 
L 292.989112 210.326579 
L 296.440351 211.070123 
L 299.891591 211.728377 
L 303.342831 212.305968 
L 306.79407 212.80794 
L 310.24531 213.239669 
L 313.69655 213.606779 
L 317.147789 213.915058 
L 320.599029 214.170368 
L 324.050269 214.378567 
L 327.501508 214.545421 
L 330.952748 214.676526 
L 334.403988 214.777238 
L 337.855227 214.852598 
L 341.306467 214.907273 
L 344.757707 214.945507 
L 348.208946 214.971071 
L 351.660186 214.987236 
L 355.111426 214.996753 
L 358.562665 215.001849 
L 362.013905 215.004242 
L 365.465145 215.005165 
L 368.916384 215.005424 
L 372.367624 215.005463 
L 375.818864 215.005465 
" style="fill:none;stroke:#e24a33;stroke-width:4;"/>
   </g>
   <g id="line2d_32">
    <path clip-path="url(#p8da62f5724)" d="M 34.146136 215.005465 
L 37.597376 215.005465 
L 41.048616 215.005464 
L 44.499855 215.005453 
L 47.951095 215.00538 
L 51.402335 215.005088 
L 54.853574 215.0042 
L 58.304814 215.001978 
L 61.756054 214.99715 
L 65.207293 214.987719 
L 68.658533 214.970768 
L 72.109773 214.942284 
L 75.561012 214.896991 
L 79.012252 214.828235 
L 82.463492 214.727908 
L 85.914731 214.586424 
L 89.365971 214.392762 
L 92.817211 214.134567 
L 96.26845 213.798321 
L 99.71969 213.369566 
L 103.17093 212.833195 
L 106.622169 212.173786 
L 110.073409 211.375985 
L 113.524649 210.424914 
L 116.975888 209.30661 
L 120.427128 208.008468 
L 123.878368 206.519683 
L 127.329607 204.831679 
L 130.780847 202.938513 
L 134.232087 200.837238 
L 137.683326 198.52822 
L 141.134566 196.015393 
L 144.585806 193.306454 
L 148.037045 190.412977 
L 151.488285 187.350454 
L 154.939525 184.138251 
L 158.390764 180.799482 
L 161.842004 177.360797 
L 165.293244 173.85209 
L 168.744483 170.306134 
L 172.195723 166.758136 
L 175.646963 163.245231 
L 179.098202 159.805928 
L 182.549442 156.479495 
L 186.000682 153.305326 
L 189.451921 150.322276 
L 192.903161 147.567989 
L 196.354401 145.078233 
L 199.80564 142.886251 
L 203.25688 141.022138 
L 206.70812 139.512275 
L 210.15936 138.3788 
L 213.610599 137.639166 
L 217.061839 137.305764 
L 220.513079 137.385638 
L 223.964318 137.880291 
L 227.415558 138.785597 
L 230.866798 140.091808 
L 234.318037 141.783671 
L 237.769277 143.840654 
L 241.220517 146.237264 
L 244.671756 148.943469 
L 248.122996 151.92521 
L 251.574236 155.144995 
L 255.025475 158.562561 
L 258.476715 162.135592 
L 261.927955 165.82049 
L 265.379194 169.573161 
L 268.830434 173.349824 
L 272.281674 177.107802 
L 275.732913 180.806297 
L 279.184153 184.407122 
L 282.635393 187.875369 
L 286.086632 191.18 
L 289.537872 194.294355 
L 292.989112 197.196545 
L 296.440351 199.869733 
L 299.891591 202.302285 
L 303.342831 204.487802 
L 306.79407 206.424998 
L 310.24531 208.11747 
L 313.69655 209.573319 
L 317.147789 210.804667 
L 320.599029 211.82707 
L 324.050269 212.658839 
L 327.501508 213.320301 
L 330.952748 213.833025 
L 334.403988 214.219028 
L 337.855227 214.500017 
L 341.306467 214.696669 
L 344.757707 214.828007 
L 348.208946 214.910891 
L 351.660186 214.959646 
L 355.111426 214.985866 
L 358.562665 214.998391 
L 362.013905 215.003468 
L 365.465145 215.005082 
L 368.916384 215.005428 
L 372.367624 215.005464 
L 375.818864 215.005465 
" style="fill:none;stroke:#348abd;stroke-width:4;"/>
   </g>
   <g id="line2d_33">
    <path clip-path="url(#p8da62f5724)" d="M 34.146136 215.005465 
L 37.597376 215.005465 
L 41.048616 215.005465 
L 44.499855 215.005465 
L 47.951095 215.005465 
L 51.402335 215.005465 
L 54.853574 215.005465 
L 58.304814 215.005465 
L 61.756054 215.005465 
L 65.207293 215.005465 
L 68.658533 215.005465 
L 72.109773 215.005465 
L 75.561012 215.005465 
L 79.012252 215.005465 
L 82.463492 215.005465 
L 85.914731 215.005465 
L 89.365971 215.005465 
L 92.817211 215.005465 
L 96.26845 215.005465 
L 99.71969 215.005465 
L 103.17093 215.005465 
L 106.622169 215.005465 
L 110.073409 215.005465 
L 113.524649 215.005465 
L 116.975888 215.005465 
L 120.427128 215.005465 
L 123.878368 215.005465 
L 127.329607 215.005465 
L 130.780847 215.005465 
L 134.232087 215.005465 
L 137.683326 215.005465 
L 141.134566 215.005465 
L 144.585806 215.005465 
L 148.037045 215.005465 
L 151.488285 215.005465 
L 154.939525 215.005464 
L 158.390764 215.005464 
L 161.842004 215.005463 
L 165.293244 215.005459 
L 168.744483 215.005449 
L 172.195723 215.005421 
L 175.646963 215.00535 
L 179.098202 215.005172 
L 182.549442 215.004745 
L 186.000682 215.00376 
L 189.451921 215.001561 
L 192.903161 214.996827 
L 196.354401 214.986971 
L 199.80564 214.967122 
L 203.25688 214.928439 
L 206.70812 214.855436 
L 210.15936 214.721978 
L 213.610599 214.485573 
L 217.061839 214.079725 
L 220.513079 213.404421 
L 223.964318 212.315363 
L 227.415558 210.613404 
L 230.866798 208.03672 
L 234.318037 204.259389 
L 237.769277 198.901021 
L 241.220517 191.552296 
L 244.671756 181.820307 
L 248.122996 169.394978 
L 251.574236 154.133201 
L 255.025475 136.151272 
L 258.476715 115.909543 
L 261.927955 94.267869 
L 265.379194 72.488634 
L 268.830434 52.168079 
L 272.281674 35.087506 
L 275.732913 22.993018 
L 279.184153 17.332737 
L 282.635393 18.998673 
L 286.086632 28.130115 
L 289.537872 44.03137 
L 292.989112 65.236591 
L 296.440351 89.721409 
L 299.891591 115.223346 
L 303.342831 139.602052 
L 306.79407 161.157399 
L 310.24531 178.834326 
L 313.69655 192.275912 
L 317.147789 201.729911 
L 320.599029 207.853689 
L 324.050269 211.484391 
L 327.501508 213.438757 
L 330.952748 214.384018 
L 334.403988 214.78943 
L 337.855227 214.941049 
L 341.306467 214.989442 
L 344.757707 215.002259 
L 348.208946 215.004974 
L 351.660186 215.005411 
L 355.111426 215.005461 
L 358.562665 215.005464 
L 362.013905 215.005465 
L 365.465145 215.005465 
L 368.916384 215.005465 
L 372.367624 215.005465 
L 375.818864 215.005465 
" style="fill:none;stroke:#988ed5;stroke-width:4;"/>
   </g>
   <g id="line2d_34">
    <path clip-path="url(#p8da62f5724)" d="M 34.146136 215.005465 
L 37.597376 210.008331 
L 41.048616 205.314034 
L 44.499855 200.913302 
L 47.951095 196.796993 
L 51.402335 192.956091 
L 54.853574 189.381709 
L 58.304814 186.065085 
L 61.756054 182.997588 
L 65.207293 180.170712 
L 68.658533 177.576078 
L 72.109773 175.205435 
L 75.561012 173.05066 
L 79.012252 171.103758 
L 82.463492 169.35686 
L 85.914731 167.802224 
L 89.365971 166.432238 
L 92.817211 165.239414 
L 96.26845 164.216395 
L 99.71969 163.355949 
L 103.17093 162.650971 
L 106.622169 162.094486 
L 110.073409 161.679644 
L 113.524649 161.399723 
L 116.975888 161.24813 
L 120.427128 161.218398 
L 123.878368 161.304186 
L 127.329607 161.499284 
L 130.780847 161.797607 
L 134.232087 162.193197 
L 137.683326 162.680226 
L 141.134566 163.252989 
L 144.585806 163.905914 
L 148.037045 164.633552 
L 151.488285 165.430583 
L 154.939525 166.291816 
L 158.390764 167.212184 
L 161.842004 168.18675 
L 165.293244 169.210704 
L 168.744483 170.279362 
L 172.195723 171.38817 
L 175.646963 172.5327 
L 179.098202 173.70865 
L 182.549442 174.911848 
L 186.000682 176.138248 
L 189.451921 177.383932 
L 192.903161 178.645108 
L 196.354401 179.918113 
L 199.80564 181.199412 
L 203.25688 182.485596 
L 206.70812 183.773382 
L 210.15936 185.059619 
L 213.610599 186.341279 
L 217.061839 187.615463 
L 220.513079 188.8794 
L 223.964318 190.130446 
L 227.415558 191.366084 
L 230.866798 192.583925 
L 234.318037 193.781708 
L 237.769277 194.957297 
L 241.220517 196.108686 
L 244.671756 197.233996 
L 248.122996 198.331474 
L 251.574236 199.399495 
L 255.025475 200.436563 
L 258.476715 201.441308 
L 261.927955 202.412486 
L 265.379194 203.348984 
L 268.830434 204.249814 
L 272.281674 205.114115 
L 275.732913 205.941155 
L 279.184153 206.730329 
L 282.635393 207.481158 
L 286.086632 208.193293 
L 289.537872 208.86651 
L 292.989112 209.500714 
L 296.440351 210.095936 
L 299.891591 210.652336 
L 303.342831 211.170201 
L 306.79407 211.649945 
L 310.24531 212.092109 
L 313.69655 212.497362 
L 317.147789 212.866501 
L 320.599029 213.20045 
L 324.050269 213.500259 
L 327.501508 213.767108 
L 330.952748 214.002302 
L 334.403988 214.207276 
L 337.855227 214.383589 
L 341.306467 214.532931 
L 344.757707 214.657117 
L 348.208946 214.758091 
L 351.660186 214.837922 
L 355.111426 214.89881 
L 358.562665 214.94308 
L 362.013905 214.973184 
L 365.465145 214.991703 
L 368.916384 215.001344 
L 372.367624 215.004944 
L 375.818864 215.005465 
" style="fill:none;stroke:#777777;stroke-width:4;"/>
   </g>
   <g id="line2d_35">
    <path clip-path="url(#p8da62f5724)" d="M 34.146136 189.504684 
L 37.597376 189.504684 
L 41.048616 189.504684 
L 44.499855 189.504684 
L 47.951095 189.504684 
L 51.402335 189.504684 
L 54.853574 189.504684 
L 58.304814 189.504684 
L 61.756054 189.504684 
L 65.207293 189.504684 
L 68.658533 189.504684 
L 72.109773 189.504684 
L 75.561012 189.504684 
L 79.012252 189.504684 
L 82.463492 189.504684 
L 85.914731 189.504684 
L 89.365971 189.504684 
L 92.817211 189.504684 
L 96.26845 189.504684 
L 99.71969 189.504684 
L 103.17093 189.504684 
L 106.622169 189.504684 
L 110.073409 189.504684 
L 113.524649 189.504684 
L 116.975888 189.504684 
L 120.427128 189.504684 
L 123.878368 189.504684 
L 127.329607 189.504684 
L 130.780847 189.504684 
L 134.232087 189.504684 
L 137.683326 189.504684 
L 141.134566 189.504684 
L 144.585806 189.504684 
L 148.037045 189.504684 
L 151.488285 189.504684 
L 154.939525 189.504684 
L 158.390764 189.504684 
L 161.842004 189.504684 
L 165.293244 189.504684 
L 168.744483 189.504684 
L 172.195723 189.504684 
L 175.646963 189.504684 
L 179.098202 189.504684 
L 182.549442 189.504684 
L 186.000682 189.504684 
L 189.451921 189.504684 
L 192.903161 189.504684 
L 196.354401 189.504684 
L 199.80564 189.504684 
L 203.25688 189.504684 
L 206.70812 189.504684 
L 210.15936 189.504684 
L 213.610599 189.504684 
L 217.061839 189.504684 
L 220.513079 189.504684 
L 223.964318 189.504684 
L 227.415558 189.504684 
L 230.866798 189.504684 
L 234.318037 189.504684 
L 237.769277 189.504684 
L 241.220517 189.504684 
L 244.671756 189.504684 
L 248.122996 189.504684 
L 251.574236 189.504684 
L 255.025475 189.504684 
L 258.476715 189.504684 
L 261.927955 189.504684 
L 265.379194 189.504684 
L 268.830434 189.504684 
L 272.281674 189.504684 
L 275.732913 189.504684 
L 279.184153 189.504684 
L 282.635393 189.504684 
L 286.086632 189.504684 
L 289.537872 189.504684 
L 292.989112 189.504684 
L 296.440351 189.504684 
L 299.891591 189.504684 
L 303.342831 189.504684 
L 306.79407 189.504684 
L 310.24531 189.504684 
L 313.69655 189.504684 
L 317.147789 189.504684 
L 320.599029 189.504684 
L 324.050269 189.504684 
L 327.501508 189.504684 
L 330.952748 189.504684 
L 334.403988 189.504684 
L 337.855227 189.504684 
L 341.306467 189.504684 
L 344.757707 189.504684 
L 348.208946 189.504684 
L 351.660186 189.504684 
L 355.111426 189.504684 
L 358.562665 189.504684 
L 362.013905 189.504684 
L 365.465145 189.504684 
L 368.916384 189.504684 
L 372.367624 189.504684 
L 375.818864 189.504684 
" style="fill:none;stroke:#fbc15e;stroke-dasharray:14.8,6.4;stroke-dashoffset:0;stroke-width:4;"/>
   </g>
   <g id="patch_3">
    <path d="M 17.0625 224.889101 
L 17.0625 7.449101 
" style="fill:none;stroke:#ffffff;stroke-linecap:square;stroke-linejoin:miter;"/>
   </g>
   <g id="patch_4">
    <path d="M 392.9025 224.889101 
L 392.9025 7.449101 
" style="fill:none;stroke:#ffffff;stroke-linecap:square;stroke-linejoin:miter;"/>
   </g>
   <g id="patch_5">
    <path d="M 17.0625 224.889101 
L 392.9025 224.889101 
" style="fill:none;stroke:#ffffff;stroke-linecap:square;stroke-linejoin:miter;"/>
   </g>
   <g id="patch_6">
    <path d="M 17.0625 7.449101 
L 392.9025 7.449101 
" style="fill:none;stroke:#ffffff;stroke-linecap:square;stroke-linejoin:miter;"/>
   </g>
   <g id="legend_1">
    <g id="patch_7">
     <path d="M 310.7025 88.839726 
L 385.9025 88.839726 
Q 387.9025 88.839726 387.9025 86.839726 
L 387.9025 14.449101 
Q 387.9025 12.449101 385.9025 12.449101 
L 310.7025 12.449101 
Q 308.7025 12.449101 308.7025 14.449101 
L 308.7025 86.839726 
Q 308.7025 88.839726 310.7025 88.839726 
z
" style="fill:#e5e5e5;opacity:0.8;stroke:#cccccc;stroke-linejoin:miter;stroke-width:0.5;"/>
    </g>
    <g id="line2d_36">
     <path d="M 312.7025 20.547538 
L 332.7025 20.547538 
" style="fill:none;stroke:#e24a33;stroke-width:4;"/>
    </g>
    <g id="line2d_37"/>
    <g id="text_16">
     <!-- $\theta$ = 0.45 -->
     <defs>
      <path d="M 45.515625 34.671875 
L 14.453125 34.671875 
Q 12.359375 20.0625 14.5 13.875 
Q 17.1875 6.25 24.46875 6.25 
Q 31.78125 6.25 37.359375 13.921875 
Q 42.234375 20.65625 45.515625 34.671875 
z
M 47.015625 42.96875 
Q 48.34375 56.84375 46.625 61.71875 
Q 43.953125 69.4375 36.765625 69.4375 
Q 29.296875 69.4375 23.828125 61.8125 
Q 19.53125 55.671875 16.15625 42.96875 
z
M 38.1875 76.765625 
Q 49.90625 76.765625 54.59375 66.40625 
Q 59.28125 56.109375 55.71875 37.84375 
Q 52.203125 19.625 43.453125 9.28125 
Q 34.765625 -1.125 23.046875 -1.125 
Q 11.28125 -1.125 6.640625 9.28125 
Q 2 19.625 5.515625 37.84375 
Q 9.078125 56.109375 17.71875 66.40625 
Q 26.421875 76.765625 38.1875 76.765625 
z
" id="DejaVuSans-Oblique-952"/>
      <path id="DejaVuSans-32"/>
      <path d="M 10.59375 45.40625 
L 73.1875 45.40625 
L 73.1875 37.203125 
L 10.59375 37.203125 
z
M 10.59375 25.484375 
L 73.1875 25.484375 
L 73.1875 17.1875 
L 10.59375 17.1875 
z
" id="DejaVuSans-61"/>
     </defs>
     <g transform="translate(340.7025 24.047538)scale(0.1 -0.1)">
      <use transform="translate(0 0.234375)" xlink:href="#DejaVuSans-Oblique-952"/>
      <use transform="translate(61.181641 0.234375)" xlink:href="#DejaVuSans-32"/>
      <use transform="translate(92.96875 0.234375)" xlink:href="#DejaVuSans-61"/>
      <use transform="translate(176.757812 0.234375)" xlink:href="#DejaVuSans-32"/>
      <use transform="translate(208.544922 0.234375)" xlink:href="#DejaVuSans-48"/>
      <use transform="translate(272.167969 0.234375)" xlink:href="#DejaVuSans-46"/>
      <use transform="translate(303.955078 0.234375)" xlink:href="#DejaVuSans-52"/>
      <use transform="translate(367.578125 0.234375)" xlink:href="#DejaVuSans-53"/>
     </g>
    </g>
    <g id="line2d_38">
     <path d="M 312.7025 35.225663 
L 332.7025 35.225663 
" style="fill:none;stroke:#348abd;stroke-width:4;"/>
    </g>
    <g id="line2d_39"/>
    <g id="text_17">
     <!-- $\theta$ = 0.55 -->
     <g transform="translate(340.7025 38.725663)scale(0.1 -0.1)">
      <use transform="translate(0 0.234375)" xlink:href="#DejaVuSans-Oblique-952"/>
      <use transform="translate(61.181641 0.234375)" xlink:href="#DejaVuSans-32"/>
      <use transform="translate(92.96875 0.234375)" xlink:href="#DejaVuSans-61"/>
      <use transform="translate(176.757812 0.234375)" xlink:href="#DejaVuSans-32"/>
      <use transform="translate(208.544922 0.234375)" xlink:href="#DejaVuSans-48"/>
      <use transform="translate(272.167969 0.234375)" xlink:href="#DejaVuSans-46"/>
      <use transform="translate(303.955078 0.234375)" xlink:href="#DejaVuSans-53"/>
      <use transform="translate(367.578125 0.234375)" xlink:href="#DejaVuSans-53"/>
     </g>
    </g>
    <g id="line2d_40">
     <path d="M 312.7025 49.903788 
L 332.7025 49.903788 
" style="fill:none;stroke:#988ed5;stroke-width:4;"/>
    </g>
    <g id="line2d_41"/>
    <g id="text_18">
     <!-- $\theta$ = 0.7 -->
     <g transform="translate(340.7025 53.403788)scale(0.1 -0.1)">
      <use transform="translate(0 0.234375)" xlink:href="#DejaVuSans-Oblique-952"/>
      <use transform="translate(61.181641 0.234375)" xlink:href="#DejaVuSans-32"/>
      <use transform="translate(92.96875 0.234375)" xlink:href="#DejaVuSans-61"/>
      <use transform="translate(176.757812 0.234375)" xlink:href="#DejaVuSans-32"/>
      <use transform="translate(208.544922 0.234375)" xlink:href="#DejaVuSans-48"/>
      <use transform="translate(272.167969 0.234375)" xlink:href="#DejaVuSans-46"/>
      <use transform="translate(303.845703 0.234375)" xlink:href="#DejaVuSans-55"/>
     </g>
    </g>
    <g id="line2d_42">
     <path d="M 312.7025 64.581913 
L 332.7025 64.581913 
" style="fill:none;stroke:#777777;stroke-width:4;"/>
    </g>
    <g id="line2d_43"/>
    <g id="text_19">
     <!-- $\theta$ = 0.1 -->
     <g transform="translate(340.7025 68.081913)scale(0.1 -0.1)">
      <use transform="translate(0 0.234375)" xlink:href="#DejaVuSans-Oblique-952"/>
      <use transform="translate(61.181641 0.234375)" xlink:href="#DejaVuSans-32"/>
      <use transform="translate(92.96875 0.234375)" xlink:href="#DejaVuSans-61"/>
      <use transform="translate(176.757812 0.234375)" xlink:href="#DejaVuSans-32"/>
      <use transform="translate(208.544922 0.234375)" xlink:href="#DejaVuSans-48"/>
      <use transform="translate(272.167969 0.234375)" xlink:href="#DejaVuSans-46"/>
      <use transform="translate(303.955078 0.234375)" xlink:href="#DejaVuSans-49"/>
     </g>
    </g>
    <g id="line2d_44">
     <path d="M 312.7025 79.260038 
L 332.7025 79.260038 
" style="fill:none;stroke:#fbc15e;stroke-dasharray:14.8,6.4;stroke-dashoffset:0;stroke-width:4;"/>
    </g>
    <g id="line2d_45"/>
    <g id="text_20">
     <!-- Prior -->
     <defs>
      <path d="M 19.671875 64.796875 
L 19.671875 37.40625 
L 32.078125 37.40625 
Q 38.96875 37.40625 42.71875 40.96875 
Q 46.484375 44.53125 46.484375 51.125 
Q 46.484375 57.671875 42.71875 61.234375 
Q 38.96875 64.796875 32.078125 64.796875 
z
M 9.8125 72.90625 
L 32.078125 72.90625 
Q 44.34375 72.90625 50.609375 67.359375 
Q 56.890625 61.8125 56.890625 51.125 
Q 56.890625 40.328125 50.609375 34.8125 
Q 44.34375 29.296875 32.078125 29.296875 
L 19.671875 29.296875 
L 19.671875 0 
L 9.8125 0 
z
" id="DejaVuSans-80"/>
      <path d="M 41.109375 46.296875 
Q 39.59375 47.171875 37.8125 47.578125 
Q 36.03125 48 33.890625 48 
Q 26.265625 48 22.1875 43.046875 
Q 18.109375 38.09375 18.109375 28.8125 
L 18.109375 0 
L 9.078125 0 
L 9.078125 54.6875 
L 18.109375 54.6875 
L 18.109375 46.1875 
Q 20.953125 51.171875 25.484375 53.578125 
Q 30.03125 56 36.53125 56 
Q 37.453125 56 38.578125 55.875 
Q 39.703125 55.765625 41.0625 55.515625 
z
" id="DejaVuSans-114"/>
      <path d="M 9.421875 54.6875 
L 18.40625 54.6875 
L 18.40625 0 
L 9.421875 0 
z
M 9.421875 75.984375 
L 18.40625 75.984375 
L 18.40625 64.59375 
L 9.421875 64.59375 
z
" id="DejaVuSans-105"/>
      <path d="M 30.609375 48.390625 
Q 23.390625 48.390625 19.1875 42.75 
Q 14.984375 37.109375 14.984375 27.296875 
Q 14.984375 17.484375 19.15625 11.84375 
Q 23.34375 6.203125 30.609375 6.203125 
Q 37.796875 6.203125 41.984375 11.859375 
Q 46.1875 17.53125 46.1875 27.296875 
Q 46.1875 37.015625 41.984375 42.703125 
Q 37.796875 48.390625 30.609375 48.390625 
z
M 30.609375 56 
Q 42.328125 56 49.015625 48.375 
Q 55.71875 40.765625 55.71875 27.296875 
Q 55.71875 13.875 49.015625 6.21875 
Q 42.328125 -1.421875 30.609375 -1.421875 
Q 18.84375 -1.421875 12.171875 6.21875 
Q 5.515625 13.875 5.515625 27.296875 
Q 5.515625 40.765625 12.171875 48.375 
Q 18.84375 56 30.609375 56 
z
" id="DejaVuSans-111"/>
     </defs>
     <g transform="translate(340.7025 82.760038)scale(0.1 -0.1)">
      <use xlink:href="#DejaVuSans-80"/>
      <use x="60.287109" xlink:href="#DejaVuSans-114"/>
      <use x="101.400391" xlink:href="#DejaVuSans-105"/>
      <use x="129.183594" xlink:href="#DejaVuSans-111"/>
      <use x="190.365234" xlink:href="#DejaVuSans-114"/>
     </g>
    </g>
   </g>
  </g>
 </g>
 <defs>
  <clipPath id="p8da62f5724">
   <rect height="217.44" width="375.84" x="17.0625" y="7.449101"/>
  </clipPath>
 </defs>
</svg>
