<?xml version="1.0" encoding="utf-8" standalone="no"?>
<!DOCTYPE svg PUBLIC "-//W3C//DTD SVG 1.1//EN"
  "http://www.w3.org/Graphics/SVG/1.1/DTD/svg11.dtd">
<!-- Created with matplotlib (https://matplotlib.org/) -->
<svg height="425.125156pt" version="1.1" viewBox="0 0 439.959844 425.125156" width="439.959844pt" xmlns="http://www.w3.org/2000/svg" xmlns:xlink="http://www.w3.org/1999/xlink">
 <defs>
  <style type="text/css">
*{stroke-linecap:butt;stroke-linejoin:round;}
  </style>
 </defs>
 <g id="figure_1">
  <g id="patch_1">
   <path d="M 0 425.125156 
L 439.959844 425.125156 
L 439.959844 0 
L 0 0 
z
" style="fill:#ffffff;"/>
  </g>
  <g id="axes_1">
   <g id="patch_2">
    <path d="M 42.159844 387.72 
L 432.759844 387.72 
L 432.759844 7.2 
L 42.159844 7.2 
z
" style="fill:#eaeaf2;"/>
   </g>
   <g id="matplotlib.axis_1">
    <g id="xtick_1">
     <g id="line2d_1">
      <path clip-path="url(#p7d7028e37c)" d="M 63.040189 387.72 
L 63.040189 7.2 
" style="fill:none;stroke:#ffffff;stroke-linecap:round;"/>
     </g>
     <g id="line2d_2"/>
     <g id="text_1">
      <!-- 0.0 -->
      <defs>
       <path d="M 4.15625 35.296875 
Q 4.15625 48 6.765625 55.734375 
Q 9.375 63.484375 14.515625 67.671875 
Q 19.671875 71.875 27.484375 71.875 
Q 33.25 71.875 37.59375 69.546875 
Q 41.9375 67.234375 44.765625 62.859375 
Q 47.609375 58.5 49.21875 52.21875 
Q 50.828125 45.953125 50.828125 35.296875 
Q 50.828125 22.703125 48.234375 14.96875 
Q 45.65625 7.234375 40.5 3 
Q 35.359375 -1.21875 27.484375 -1.21875 
Q 17.140625 -1.21875 11.234375 6.203125 
Q 4.15625 15.140625 4.15625 35.296875 
z
M 13.1875 35.296875 
Q 13.1875 17.671875 17.3125 11.828125 
Q 21.4375 6 27.484375 6 
Q 33.546875 6 37.671875 11.859375 
Q 41.796875 17.71875 41.796875 35.296875 
Q 41.796875 52.984375 37.671875 58.78125 
Q 33.546875 64.59375 27.390625 64.59375 
Q 21.34375 64.59375 17.71875 59.46875 
Q 13.1875 52.9375 13.1875 35.296875 
z
" id="ArialMT-48"/>
       <path d="M 9.078125 0 
L 9.078125 10.015625 
L 19.09375 10.015625 
L 19.09375 0 
z
" id="ArialMT-46"/>
      </defs>
      <g style="fill:#262626;" transform="translate(56.090189 401.877812)scale(0.1 -0.1)">
       <use xlink:href="#ArialMT-48"/>
       <use x="55.615234" xlink:href="#ArialMT-46"/>
       <use x="83.398438" xlink:href="#ArialMT-48"/>
      </g>
     </g>
    </g>
    <g id="xtick_2">
     <g id="line2d_3">
      <path clip-path="url(#p7d7028e37c)" d="M 132.808051 387.72 
L 132.808051 7.2 
" style="fill:none;stroke:#ffffff;stroke-linecap:round;"/>
     </g>
     <g id="line2d_4"/>
     <g id="text_2">
      <!-- 0.2 -->
      <defs>
       <path d="M 50.34375 8.453125 
L 50.34375 0 
L 3.03125 0 
Q 2.9375 3.171875 4.046875 6.109375 
Q 5.859375 10.9375 9.828125 15.625 
Q 13.8125 20.3125 21.34375 26.46875 
Q 33.015625 36.03125 37.109375 41.625 
Q 41.21875 47.21875 41.21875 52.203125 
Q 41.21875 57.421875 37.46875 61 
Q 33.734375 64.59375 27.734375 64.59375 
Q 21.390625 64.59375 17.578125 60.78125 
Q 13.765625 56.984375 13.71875 50.25 
L 4.6875 51.171875 
Q 5.609375 61.28125 11.65625 66.578125 
Q 17.71875 71.875 27.9375 71.875 
Q 38.234375 71.875 44.234375 66.15625 
Q 50.25 60.453125 50.25 52 
Q 50.25 47.703125 48.484375 43.546875 
Q 46.734375 39.40625 42.65625 34.8125 
Q 38.578125 30.21875 29.109375 22.21875 
Q 21.1875 15.578125 18.9375 13.203125 
Q 16.703125 10.84375 15.234375 8.453125 
z
" id="ArialMT-50"/>
      </defs>
      <g style="fill:#262626;" transform="translate(125.858051 401.877812)scale(0.1 -0.1)">
       <use xlink:href="#ArialMT-48"/>
       <use x="55.615234" xlink:href="#ArialMT-46"/>
       <use x="83.398438" xlink:href="#ArialMT-50"/>
      </g>
     </g>
    </g>
    <g id="xtick_3">
     <g id="line2d_5">
      <path clip-path="url(#p7d7028e37c)" d="M 202.575913 387.72 
L 202.575913 7.2 
" style="fill:none;stroke:#ffffff;stroke-linecap:round;"/>
     </g>
     <g id="line2d_6"/>
     <g id="text_3">
      <!-- 0.4 -->
      <defs>
       <path d="M 32.328125 0 
L 32.328125 17.140625 
L 1.265625 17.140625 
L 1.265625 25.203125 
L 33.9375 71.578125 
L 41.109375 71.578125 
L 41.109375 25.203125 
L 50.78125 25.203125 
L 50.78125 17.140625 
L 41.109375 17.140625 
L 41.109375 0 
z
M 32.328125 25.203125 
L 32.328125 57.46875 
L 9.90625 25.203125 
z
" id="ArialMT-52"/>
      </defs>
      <g style="fill:#262626;" transform="translate(195.625913 401.877812)scale(0.1 -0.1)">
       <use xlink:href="#ArialMT-48"/>
       <use x="55.615234" xlink:href="#ArialMT-46"/>
       <use x="83.398438" xlink:href="#ArialMT-52"/>
      </g>
     </g>
    </g>
    <g id="xtick_4">
     <g id="line2d_7">
      <path clip-path="url(#p7d7028e37c)" d="M 272.343775 387.72 
L 272.343775 7.2 
" style="fill:none;stroke:#ffffff;stroke-linecap:round;"/>
     </g>
     <g id="line2d_8"/>
     <g id="text_4">
      <!-- 0.6 -->
      <defs>
       <path d="M 49.75 54.046875 
L 41.015625 53.375 
Q 39.84375 58.546875 37.703125 60.890625 
Q 34.125 64.65625 28.90625 64.65625 
Q 24.703125 64.65625 21.53125 62.3125 
Q 17.390625 59.28125 14.984375 53.46875 
Q 12.59375 47.65625 12.5 36.921875 
Q 15.671875 41.75 20.265625 44.09375 
Q 24.859375 46.4375 29.890625 46.4375 
Q 38.671875 46.4375 44.84375 39.96875 
Q 51.03125 33.5 51.03125 23.25 
Q 51.03125 16.5 48.125 10.71875 
Q 45.21875 4.9375 40.140625 1.859375 
Q 35.0625 -1.21875 28.609375 -1.21875 
Q 17.625 -1.21875 10.6875 6.859375 
Q 3.765625 14.9375 3.765625 33.5 
Q 3.765625 54.25 11.421875 63.671875 
Q 18.109375 71.875 29.4375 71.875 
Q 37.890625 71.875 43.28125 67.140625 
Q 48.6875 62.40625 49.75 54.046875 
z
M 13.875 23.1875 
Q 13.875 18.65625 15.796875 14.5 
Q 17.71875 10.359375 21.1875 8.171875 
Q 24.65625 6 28.46875 6 
Q 34.03125 6 38.03125 10.484375 
Q 42.046875 14.984375 42.046875 22.703125 
Q 42.046875 30.125 38.078125 34.390625 
Q 34.125 38.671875 28.125 38.671875 
Q 22.171875 38.671875 18.015625 34.390625 
Q 13.875 30.125 13.875 23.1875 
z
" id="ArialMT-54"/>
      </defs>
      <g style="fill:#262626;" transform="translate(265.393775 401.877812)scale(0.1 -0.1)">
       <use xlink:href="#ArialMT-48"/>
       <use x="55.615234" xlink:href="#ArialMT-46"/>
       <use x="83.398438" xlink:href="#ArialMT-54"/>
      </g>
     </g>
    </g>
    <g id="xtick_5">
     <g id="line2d_9">
      <path clip-path="url(#p7d7028e37c)" d="M 342.111636 387.72 
L 342.111636 7.2 
" style="fill:none;stroke:#ffffff;stroke-linecap:round;"/>
     </g>
     <g id="line2d_10"/>
     <g id="text_5">
      <!-- 0.8 -->
      <defs>
       <path d="M 17.671875 38.8125 
Q 12.203125 40.828125 9.5625 44.53125 
Q 6.9375 48.25 6.9375 53.421875 
Q 6.9375 61.234375 12.546875 66.546875 
Q 18.171875 71.875 27.484375 71.875 
Q 36.859375 71.875 42.578125 66.421875 
Q 48.296875 60.984375 48.296875 53.171875 
Q 48.296875 48.1875 45.671875 44.5 
Q 43.0625 40.828125 37.75 38.8125 
Q 44.34375 36.671875 47.78125 31.875 
Q 51.21875 27.09375 51.21875 20.453125 
Q 51.21875 11.28125 44.71875 5.03125 
Q 38.234375 -1.21875 27.640625 -1.21875 
Q 17.046875 -1.21875 10.546875 5.046875 
Q 4.046875 11.328125 4.046875 20.703125 
Q 4.046875 27.6875 7.59375 32.390625 
Q 11.140625 37.109375 17.671875 38.8125 
z
M 15.921875 53.71875 
Q 15.921875 48.640625 19.1875 45.40625 
Q 22.46875 42.1875 27.6875 42.1875 
Q 32.765625 42.1875 36.015625 45.375 
Q 39.265625 48.578125 39.265625 53.21875 
Q 39.265625 58.0625 35.90625 61.359375 
Q 32.5625 64.65625 27.59375 64.65625 
Q 22.5625 64.65625 19.234375 61.421875 
Q 15.921875 58.203125 15.921875 53.71875 
z
M 13.09375 20.65625 
Q 13.09375 16.890625 14.875 13.375 
Q 16.65625 9.859375 20.171875 7.921875 
Q 23.6875 6 27.734375 6 
Q 34.03125 6 38.125 10.046875 
Q 42.234375 14.109375 42.234375 20.359375 
Q 42.234375 26.703125 38.015625 30.859375 
Q 33.796875 35.015625 27.4375 35.015625 
Q 21.234375 35.015625 17.15625 30.90625 
Q 13.09375 26.8125 13.09375 20.65625 
z
" id="ArialMT-56"/>
      </defs>
      <g style="fill:#262626;" transform="translate(335.161636 401.877812)scale(0.1 -0.1)">
       <use xlink:href="#ArialMT-48"/>
       <use x="55.615234" xlink:href="#ArialMT-46"/>
       <use x="83.398438" xlink:href="#ArialMT-56"/>
      </g>
     </g>
    </g>
    <g id="xtick_6">
     <g id="line2d_11">
      <path clip-path="url(#p7d7028e37c)" d="M 411.879498 387.72 
L 411.879498 7.2 
" style="fill:none;stroke:#ffffff;stroke-linecap:round;"/>
     </g>
     <g id="line2d_12"/>
     <g id="text_6">
      <!-- 1.0 -->
      <defs>
       <path d="M 37.25 0 
L 28.46875 0 
L 28.46875 56 
Q 25.296875 52.984375 20.140625 49.953125 
Q 14.984375 46.921875 10.890625 45.40625 
L 10.890625 53.90625 
Q 18.265625 57.375 23.78125 62.296875 
Q 29.296875 67.234375 31.59375 71.875 
L 37.25 71.875 
z
" id="ArialMT-49"/>
      </defs>
      <g style="fill:#262626;" transform="translate(404.929498 401.877812)scale(0.1 -0.1)">
       <use xlink:href="#ArialMT-49"/>
       <use x="55.615234" xlink:href="#ArialMT-46"/>
       <use x="83.398438" xlink:href="#ArialMT-48"/>
      </g>
     </g>
    </g>
    <g id="text_7">
     <!-- x -->
     <defs>
      <path d="M 0.734375 0 
L 19.671875 26.953125 
L 2.15625 51.859375 
L 13.140625 51.859375 
L 21.09375 39.703125 
Q 23.34375 36.234375 24.703125 33.890625 
Q 26.859375 37.109375 28.65625 39.59375 
L 37.40625 51.859375 
L 47.90625 51.859375 
L 29.984375 27.4375 
L 49.265625 0 
L 38.484375 0 
L 27.828125 16.109375 
L 25 20.453125 
L 11.375 0 
z
" id="ArialMT-120"/>
     </defs>
     <g style="fill:#262626;" transform="translate(234.709844 415.738906)scale(0.11 -0.11)">
      <use xlink:href="#ArialMT-120"/>
     </g>
    </g>
   </g>
   <g id="matplotlib.axis_2">
    <g id="ytick_1">
     <g id="line2d_13">
      <path clip-path="url(#p7d7028e37c)" d="M 42.159844 380.6296 
L 432.759844 380.6296 
" style="fill:none;stroke:#ffffff;stroke-linecap:round;"/>
     </g>
     <g id="line2d_14"/>
     <g id="text_8">
      <!-- 0.0 -->
      <g style="fill:#262626;" transform="translate(21.259844 384.208506)scale(0.1 -0.1)">
       <use xlink:href="#ArialMT-48"/>
       <use x="55.615234" xlink:href="#ArialMT-46"/>
       <use x="83.398438" xlink:href="#ArialMT-48"/>
      </g>
     </g>
    </g>
    <g id="ytick_2">
     <g id="line2d_15">
      <path clip-path="url(#p7d7028e37c)" d="M 42.159844 334.658503 
L 432.759844 334.658503 
" style="fill:none;stroke:#ffffff;stroke-linecap:round;"/>
     </g>
     <g id="line2d_16"/>
     <g id="text_9">
      <!-- 0.5 -->
      <defs>
       <path d="M 4.15625 18.75 
L 13.375 19.53125 
Q 14.40625 12.796875 18.140625 9.390625 
Q 21.875 6 27.15625 6 
Q 33.5 6 37.890625 10.78125 
Q 42.28125 15.578125 42.28125 23.484375 
Q 42.28125 31 38.0625 35.34375 
Q 33.84375 39.703125 27 39.703125 
Q 22.75 39.703125 19.328125 37.765625 
Q 15.921875 35.84375 13.96875 32.765625 
L 5.71875 33.84375 
L 12.640625 70.609375 
L 48.25 70.609375 
L 48.25 62.203125 
L 19.671875 62.203125 
L 15.828125 42.96875 
Q 22.265625 47.46875 29.34375 47.46875 
Q 38.71875 47.46875 45.15625 40.96875 
Q 51.609375 34.46875 51.609375 24.265625 
Q 51.609375 14.546875 45.953125 7.46875 
Q 39.0625 -1.21875 27.15625 -1.21875 
Q 17.390625 -1.21875 11.203125 4.25 
Q 5.03125 9.71875 4.15625 18.75 
z
" id="ArialMT-53"/>
      </defs>
      <g style="fill:#262626;" transform="translate(21.259844 338.237409)scale(0.1 -0.1)">
       <use xlink:href="#ArialMT-48"/>
       <use x="55.615234" xlink:href="#ArialMT-46"/>
       <use x="83.398438" xlink:href="#ArialMT-53"/>
      </g>
     </g>
    </g>
    <g id="ytick_3">
     <g id="line2d_17">
      <path clip-path="url(#p7d7028e37c)" d="M 42.159844 288.687405 
L 432.759844 288.687405 
" style="fill:none;stroke:#ffffff;stroke-linecap:round;"/>
     </g>
     <g id="line2d_18"/>
     <g id="text_10">
      <!-- 1.0 -->
      <g style="fill:#262626;" transform="translate(21.259844 292.266312)scale(0.1 -0.1)">
       <use xlink:href="#ArialMT-49"/>
       <use x="55.615234" xlink:href="#ArialMT-46"/>
       <use x="83.398438" xlink:href="#ArialMT-48"/>
      </g>
     </g>
    </g>
    <g id="ytick_4">
     <g id="line2d_19">
      <path clip-path="url(#p7d7028e37c)" d="M 42.159844 242.716308 
L 432.759844 242.716308 
" style="fill:none;stroke:#ffffff;stroke-linecap:round;"/>
     </g>
     <g id="line2d_20"/>
     <g id="text_11">
      <!-- 1.5 -->
      <g style="fill:#262626;" transform="translate(21.259844 246.295214)scale(0.1 -0.1)">
       <use xlink:href="#ArialMT-49"/>
       <use x="55.615234" xlink:href="#ArialMT-46"/>
       <use x="83.398438" xlink:href="#ArialMT-53"/>
      </g>
     </g>
    </g>
    <g id="ytick_5">
     <g id="line2d_21">
      <path clip-path="url(#p7d7028e37c)" d="M 42.159844 196.745211 
L 432.759844 196.745211 
" style="fill:none;stroke:#ffffff;stroke-linecap:round;"/>
     </g>
     <g id="line2d_22"/>
     <g id="text_12">
      <!-- 2.0 -->
      <g style="fill:#262626;" transform="translate(21.259844 200.324117)scale(0.1 -0.1)">
       <use xlink:href="#ArialMT-50"/>
       <use x="55.615234" xlink:href="#ArialMT-46"/>
       <use x="83.398438" xlink:href="#ArialMT-48"/>
      </g>
     </g>
    </g>
    <g id="ytick_6">
     <g id="line2d_23">
      <path clip-path="url(#p7d7028e37c)" d="M 42.159844 150.774113 
L 432.759844 150.774113 
" style="fill:none;stroke:#ffffff;stroke-linecap:round;"/>
     </g>
     <g id="line2d_24"/>
     <g id="text_13">
      <!-- 2.5 -->
      <g style="fill:#262626;" transform="translate(21.259844 154.35302)scale(0.1 -0.1)">
       <use xlink:href="#ArialMT-50"/>
       <use x="55.615234" xlink:href="#ArialMT-46"/>
       <use x="83.398438" xlink:href="#ArialMT-53"/>
      </g>
     </g>
    </g>
    <g id="ytick_7">
     <g id="line2d_25">
      <path clip-path="url(#p7d7028e37c)" d="M 42.159844 104.803016 
L 432.759844 104.803016 
" style="fill:none;stroke:#ffffff;stroke-linecap:round;"/>
     </g>
     <g id="line2d_26"/>
     <g id="text_14">
      <!-- 3.0 -->
      <defs>
       <path d="M 4.203125 18.890625 
L 12.984375 20.0625 
Q 14.5 12.59375 18.140625 9.296875 
Q 21.78125 6 27 6 
Q 33.203125 6 37.46875 10.296875 
Q 41.75 14.59375 41.75 20.953125 
Q 41.75 27 37.796875 30.921875 
Q 33.84375 34.859375 27.734375 34.859375 
Q 25.25 34.859375 21.53125 33.890625 
L 22.515625 41.609375 
Q 23.390625 41.5 23.921875 41.5 
Q 29.546875 41.5 34.03125 44.421875 
Q 38.53125 47.359375 38.53125 53.46875 
Q 38.53125 58.296875 35.25 61.46875 
Q 31.984375 64.65625 26.8125 64.65625 
Q 21.6875 64.65625 18.265625 61.421875 
Q 14.84375 58.203125 13.875 51.765625 
L 5.078125 53.328125 
Q 6.6875 62.15625 12.390625 67.015625 
Q 18.109375 71.875 26.609375 71.875 
Q 32.46875 71.875 37.390625 69.359375 
Q 42.328125 66.84375 44.9375 62.5 
Q 47.5625 58.15625 47.5625 53.265625 
Q 47.5625 48.640625 45.0625 44.828125 
Q 42.578125 41.015625 37.703125 38.765625 
Q 44.046875 37.3125 47.5625 32.6875 
Q 51.078125 28.078125 51.078125 21.140625 
Q 51.078125 11.765625 44.234375 5.25 
Q 37.40625 -1.265625 26.953125 -1.265625 
Q 17.53125 -1.265625 11.296875 4.34375 
Q 5.078125 9.96875 4.203125 18.890625 
z
" id="ArialMT-51"/>
      </defs>
      <g style="fill:#262626;" transform="translate(21.259844 108.381922)scale(0.1 -0.1)">
       <use xlink:href="#ArialMT-51"/>
       <use x="55.615234" xlink:href="#ArialMT-46"/>
       <use x="83.398438" xlink:href="#ArialMT-48"/>
      </g>
     </g>
    </g>
    <g id="ytick_8">
     <g id="line2d_27">
      <path clip-path="url(#p7d7028e37c)" d="M 42.159844 58.831919 
L 432.759844 58.831919 
" style="fill:none;stroke:#ffffff;stroke-linecap:round;"/>
     </g>
     <g id="line2d_28"/>
     <g id="text_15">
      <!-- 3.5 -->
      <g style="fill:#262626;" transform="translate(21.259844 62.410825)scale(0.1 -0.1)">
       <use xlink:href="#ArialMT-51"/>
       <use x="55.615234" xlink:href="#ArialMT-46"/>
       <use x="83.398438" xlink:href="#ArialMT-53"/>
      </g>
     </g>
    </g>
    <g id="ytick_9">
     <g id="line2d_29">
      <path clip-path="url(#p7d7028e37c)" d="M 42.159844 12.860821 
L 432.759844 12.860821 
" style="fill:none;stroke:#ffffff;stroke-linecap:round;"/>
     </g>
     <g id="line2d_30"/>
     <g id="text_16">
      <!-- 4.0 -->
      <g style="fill:#262626;" transform="translate(21.259844 16.439727)scale(0.1 -0.1)">
       <use xlink:href="#ArialMT-52"/>
       <use x="55.615234" xlink:href="#ArialMT-46"/>
       <use x="83.398438" xlink:href="#ArialMT-48"/>
      </g>
     </g>
    </g>
    <g id="text_17">
     <!-- y -->
     <defs>
      <path d="M 6.203125 -19.96875 
L 5.21875 -11.71875 
Q 8.109375 -12.5 10.25 -12.5 
Q 13.1875 -12.5 14.9375 -11.515625 
Q 16.703125 -10.546875 17.828125 -8.796875 
Q 18.65625 -7.46875 20.515625 -2.25 
Q 20.75 -1.515625 21.296875 -0.09375 
L 1.609375 51.859375 
L 11.078125 51.859375 
L 21.875 21.828125 
Q 23.96875 16.109375 25.640625 9.8125 
Q 27.15625 15.875 29.25 21.625 
L 40.328125 51.859375 
L 49.125 51.859375 
L 29.390625 -0.875 
Q 26.21875 -9.421875 24.46875 -12.640625 
Q 22.125 -17 19.09375 -19.015625 
Q 16.0625 -21.046875 11.859375 -21.046875 
Q 9.328125 -21.046875 6.203125 -19.96875 
z
" id="ArialMT-121"/>
     </defs>
     <g style="fill:#262626;" transform="translate(14.944688 200.21)rotate(-90)scale(0.11 -0.11)">
      <use xlink:href="#ArialMT-121"/>
     </g>
    </g>
   </g>
   <g id="PathCollection_1">
    <defs>
     <path d="M 0 3.5 
C 0.928211 3.5 1.81853 3.131218 2.474874 2.474874 
C 3.131218 1.81853 3.5 0.928211 3.5 0 
C 3.5 -0.928211 3.131218 -1.81853 2.474874 -2.474874 
C 1.81853 -3.131218 0.928211 -3.5 0 -3.5 
C -0.928211 -3.5 -1.81853 -3.131218 -2.474874 -2.474874 
C -3.131218 -1.81853 -3.5 -0.928211 -3.5 0 
C -3.5 0.928211 -3.131218 1.81853 -2.474874 2.474874 
C -1.81853 3.131218 -0.928211 3.5 0 3.5 
z
" id="m3c69fafcce" style="stroke:#87ceeb;stroke-width:0.3;"/>
    </defs>
    <g clip-path="url(#p7d7028e37c)">
     <use style="fill:#87ceeb;stroke:#87ceeb;stroke-width:0.3;" x="63.040189" xlink:href="#m3c69fafcce" y="303.309895"/>
     <use style="fill:#87ceeb;stroke:#87ceeb;stroke-width:0.3;" x="64.793151" xlink:href="#m3c69fafcce" y="291.531664"/>
     <use style="fill:#87ceeb;stroke:#87ceeb;stroke-width:0.3;" x="66.546112" xlink:href="#m3c69fafcce" y="265.601994"/>
     <use style="fill:#87ceeb;stroke:#87ceeb;stroke-width:0.3;" x="68.299074" xlink:href="#m3c69fafcce" y="309.792678"/>
     <use style="fill:#87ceeb;stroke:#87ceeb;stroke-width:0.3;" x="70.052035" xlink:href="#m3c69fafcce" y="255.45759"/>
     <use style="fill:#87ceeb;stroke:#87ceeb;stroke-width:0.3;" x="71.804996" xlink:href="#m3c69fafcce" y="248.485479"/>
     <use style="fill:#87ceeb;stroke:#87ceeb;stroke-width:0.3;" x="73.557958" xlink:href="#m3c69fafcce" y="310.380442"/>
     <use style="fill:#87ceeb;stroke:#87ceeb;stroke-width:0.3;" x="75.310919" xlink:href="#m3c69fafcce" y="282.627402"/>
     <use style="fill:#87ceeb;stroke:#87ceeb;stroke-width:0.3;" x="77.06388" xlink:href="#m3c69fafcce" y="238.955164"/>
     <use style="fill:#87ceeb;stroke:#87ceeb;stroke-width:0.3;" x="78.816842" xlink:href="#m3c69fafcce" y="215.93457"/>
     <use style="fill:#87ceeb;stroke:#87ceeb;stroke-width:0.3;" x="80.569803" xlink:href="#m3c69fafcce" y="316.773743"/>
     <use style="fill:#87ceeb;stroke:#87ceeb;stroke-width:0.3;" x="82.322764" xlink:href="#m3c69fafcce" y="369.577958"/>
     <use style="fill:#87ceeb;stroke:#87ceeb;stroke-width:0.3;" x="84.075726" xlink:href="#m3c69fafcce" y="207.360566"/>
     <use style="fill:#87ceeb;stroke:#87ceeb;stroke-width:0.3;" x="85.828687" xlink:href="#m3c69fafcce" y="260.811151"/>
     <use style="fill:#87ceeb;stroke:#87ceeb;stroke-width:0.3;" x="87.581648" xlink:href="#m3c69fafcce" y="178.985839"/>
     <use style="fill:#87ceeb;stroke:#87ceeb;stroke-width:0.3;" x="89.33461" xlink:href="#m3c69fafcce" y="315.719503"/>
     <use style="fill:#87ceeb;stroke:#87ceeb;stroke-width:0.3;" x="91.087571" xlink:href="#m3c69fafcce" y="302.055624"/>
     <use style="fill:#87ceeb;stroke:#87ceeb;stroke-width:0.3;" x="92.840532" xlink:href="#m3c69fafcce" y="297.806138"/>
     <use style="fill:#87ceeb;stroke:#87ceeb;stroke-width:0.3;" x="94.593494" xlink:href="#m3c69fafcce" y="311.377612"/>
     <use style="fill:#87ceeb;stroke:#87ceeb;stroke-width:0.3;" x="96.346455" xlink:href="#m3c69fafcce" y="335.773157"/>
     <use style="fill:#87ceeb;stroke:#87ceeb;stroke-width:0.3;" x="98.099416" xlink:href="#m3c69fafcce" y="261.915721"/>
     <use style="fill:#87ceeb;stroke:#87ceeb;stroke-width:0.3;" x="99.852378" xlink:href="#m3c69fafcce" y="296.707507"/>
     <use style="fill:#87ceeb;stroke:#87ceeb;stroke-width:0.3;" x="101.605339" xlink:href="#m3c69fafcce" y="268.232744"/>
     <use style="fill:#87ceeb;stroke:#87ceeb;stroke-width:0.3;" x="103.358301" xlink:href="#m3c69fafcce" y="319.327463"/>
     <use style="fill:#87ceeb;stroke:#87ceeb;stroke-width:0.3;" x="105.111262" xlink:href="#m3c69fafcce" y="309.422045"/>
     <use style="fill:#87ceeb;stroke:#87ceeb;stroke-width:0.3;" x="106.864223" xlink:href="#m3c69fafcce" y="230.840453"/>
     <use style="fill:#87ceeb;stroke:#87ceeb;stroke-width:0.3;" x="108.617185" xlink:href="#m3c69fafcce" y="213.333009"/>
     <use style="fill:#87ceeb;stroke:#87ceeb;stroke-width:0.3;" x="110.370146" xlink:href="#m3c69fafcce" y="227.115888"/>
     <use style="fill:#87ceeb;stroke:#87ceeb;stroke-width:0.3;" x="112.123107" xlink:href="#m3c69fafcce" y="305.645995"/>
     <use style="fill:#87ceeb;stroke:#87ceeb;stroke-width:0.3;" x="113.876069" xlink:href="#m3c69fafcce" y="236.006774"/>
     <use style="fill:#87ceeb;stroke:#87ceeb;stroke-width:0.3;" x="115.62903" xlink:href="#m3c69fafcce" y="345.231468"/>
     <use style="fill:#87ceeb;stroke:#87ceeb;stroke-width:0.3;" x="117.381991" xlink:href="#m3c69fafcce" y="325.820459"/>
     <use style="fill:#87ceeb;stroke:#87ceeb;stroke-width:0.3;" x="119.134953" xlink:href="#m3c69fafcce" y="285.162217"/>
     <use style="fill:#87ceeb;stroke:#87ceeb;stroke-width:0.3;" x="120.887914" xlink:href="#m3c69fafcce" y="336.198564"/>
     <use style="fill:#87ceeb;stroke:#87ceeb;stroke-width:0.3;" x="122.640875" xlink:href="#m3c69fafcce" y="262.73067"/>
     <use style="fill:#87ceeb;stroke:#87ceeb;stroke-width:0.3;" x="124.393837" xlink:href="#m3c69fafcce" y="238.507669"/>
     <use style="fill:#87ceeb;stroke:#87ceeb;stroke-width:0.3;" x="126.146798" xlink:href="#m3c69fafcce" y="233.263323"/>
     <use style="fill:#87ceeb;stroke:#87ceeb;stroke-width:0.3;" x="127.899759" xlink:href="#m3c69fafcce" y="229.831812"/>
     <use style="fill:#87ceeb;stroke:#87ceeb;stroke-width:0.3;" x="129.652721" xlink:href="#m3c69fafcce" y="283.028118"/>
     <use style="fill:#87ceeb;stroke:#87ceeb;stroke-width:0.3;" x="131.405682" xlink:href="#m3c69fafcce" y="326.522425"/>
     <use style="fill:#87ceeb;stroke:#87ceeb;stroke-width:0.3;" x="133.158643" xlink:href="#m3c69fafcce" y="285.613902"/>
     <use style="fill:#87ceeb;stroke:#87ceeb;stroke-width:0.3;" x="134.911605" xlink:href="#m3c69fafcce" y="261.548249"/>
     <use style="fill:#87ceeb;stroke:#87ceeb;stroke-width:0.3;" x="136.664566" xlink:href="#m3c69fafcce" y="282.505131"/>
     <use style="fill:#87ceeb;stroke:#87ceeb;stroke-width:0.3;" x="138.417527" xlink:href="#m3c69fafcce" y="244.284983"/>
     <use style="fill:#87ceeb;stroke:#87ceeb;stroke-width:0.3;" x="140.170489" xlink:href="#m3c69fafcce" y="213.303846"/>
     <use style="fill:#87ceeb;stroke:#87ceeb;stroke-width:0.3;" x="141.92345" xlink:href="#m3c69fafcce" y="315.29676"/>
     <use style="fill:#87ceeb;stroke:#87ceeb;stroke-width:0.3;" x="143.676412" xlink:href="#m3c69fafcce" y="204.660847"/>
     <use style="fill:#87ceeb;stroke:#87ceeb;stroke-width:0.3;" x="145.429373" xlink:href="#m3c69fafcce" y="290.430311"/>
     <use style="fill:#87ceeb;stroke:#87ceeb;stroke-width:0.3;" x="147.182334" xlink:href="#m3c69fafcce" y="183.105792"/>
     <use style="fill:#87ceeb;stroke:#87ceeb;stroke-width:0.3;" x="148.935296" xlink:href="#m3c69fafcce" y="280.372705"/>
     <use style="fill:#87ceeb;stroke:#87ceeb;stroke-width:0.3;" x="150.688257" xlink:href="#m3c69fafcce" y="254.728897"/>
     <use style="fill:#87ceeb;stroke:#87ceeb;stroke-width:0.3;" x="152.441218" xlink:href="#m3c69fafcce" y="356.410326"/>
     <use style="fill:#87ceeb;stroke:#87ceeb;stroke-width:0.3;" x="154.19418" xlink:href="#m3c69fafcce" y="336.427967"/>
     <use style="fill:#87ceeb;stroke:#87ceeb;stroke-width:0.3;" x="155.947141" xlink:href="#m3c69fafcce" y="219.987898"/>
     <use style="fill:#87ceeb;stroke:#87ceeb;stroke-width:0.3;" x="157.700102" xlink:href="#m3c69fafcce" y="201.082926"/>
     <use style="fill:#87ceeb;stroke:#87ceeb;stroke-width:0.3;" x="159.453064" xlink:href="#m3c69fafcce" y="113.65824"/>
     <use style="fill:#87ceeb;stroke:#87ceeb;stroke-width:0.3;" x="161.206025" xlink:href="#m3c69fafcce" y="277.679247"/>
     <use style="fill:#87ceeb;stroke:#87ceeb;stroke-width:0.3;" x="162.958986" xlink:href="#m3c69fafcce" y="199.265928"/>
     <use style="fill:#87ceeb;stroke:#87ceeb;stroke-width:0.3;" x="164.711948" xlink:href="#m3c69fafcce" y="307.0521"/>
     <use style="fill:#87ceeb;stroke:#87ceeb;stroke-width:0.3;" x="166.464909" xlink:href="#m3c69fafcce" y="337.80148"/>
     <use style="fill:#87ceeb;stroke:#87ceeb;stroke-width:0.3;" x="168.21787" xlink:href="#m3c69fafcce" y="333.125466"/>
     <use style="fill:#87ceeb;stroke:#87ceeb;stroke-width:0.3;" x="169.970832" xlink:href="#m3c69fafcce" y="241.387582"/>
     <use style="fill:#87ceeb;stroke:#87ceeb;stroke-width:0.3;" x="171.723793" xlink:href="#m3c69fafcce" y="184.079388"/>
     <use style="fill:#87ceeb;stroke:#87ceeb;stroke-width:0.3;" x="173.476754" xlink:href="#m3c69fafcce" y="260.513228"/>
     <use style="fill:#87ceeb;stroke:#87ceeb;stroke-width:0.3;" x="175.229716" xlink:href="#m3c69fafcce" y="227.047948"/>
     <use style="fill:#87ceeb;stroke:#87ceeb;stroke-width:0.3;" x="176.982677" xlink:href="#m3c69fafcce" y="254.544585"/>
     <use style="fill:#87ceeb;stroke:#87ceeb;stroke-width:0.3;" x="178.735639" xlink:href="#m3c69fafcce" y="295.887656"/>
     <use style="fill:#87ceeb;stroke:#87ceeb;stroke-width:0.3;" x="180.4886" xlink:href="#m3c69fafcce" y="240.597079"/>
     <use style="fill:#87ceeb;stroke:#87ceeb;stroke-width:0.3;" x="182.241561" xlink:href="#m3c69fafcce" y="170.255649"/>
     <use style="fill:#87ceeb;stroke:#87ceeb;stroke-width:0.3;" x="183.994523" xlink:href="#m3c69fafcce" y="200.828424"/>
     <use style="fill:#87ceeb;stroke:#87ceeb;stroke-width:0.3;" x="185.747484" xlink:href="#m3c69fafcce" y="251.788836"/>
     <use style="fill:#87ceeb;stroke:#87ceeb;stroke-width:0.3;" x="187.500445" xlink:href="#m3c69fafcce" y="117.265404"/>
     <use style="fill:#87ceeb;stroke:#87ceeb;stroke-width:0.3;" x="189.253407" xlink:href="#m3c69fafcce" y="217.811299"/>
     <use style="fill:#87ceeb;stroke:#87ceeb;stroke-width:0.3;" x="191.006368" xlink:href="#m3c69fafcce" y="225.042233"/>
     <use style="fill:#87ceeb;stroke:#87ceeb;stroke-width:0.3;" x="192.759329" xlink:href="#m3c69fafcce" y="241.778131"/>
     <use style="fill:#87ceeb;stroke:#87ceeb;stroke-width:0.3;" x="194.512291" xlink:href="#m3c69fafcce" y="236.62957"/>
     <use style="fill:#87ceeb;stroke:#87ceeb;stroke-width:0.3;" x="196.265252" xlink:href="#m3c69fafcce" y="194.878224"/>
     <use style="fill:#87ceeb;stroke:#87ceeb;stroke-width:0.3;" x="198.018213" xlink:href="#m3c69fafcce" y="260.069515"/>
     <use style="fill:#87ceeb;stroke:#87ceeb;stroke-width:0.3;" x="199.771175" xlink:href="#m3c69fafcce" y="153.600468"/>
     <use style="fill:#87ceeb;stroke:#87ceeb;stroke-width:0.3;" x="201.524136" xlink:href="#m3c69fafcce" y="217.561492"/>
     <use style="fill:#87ceeb;stroke:#87ceeb;stroke-width:0.3;" x="203.277097" xlink:href="#m3c69fafcce" y="254.513726"/>
     <use style="fill:#87ceeb;stroke:#87ceeb;stroke-width:0.3;" x="205.030059" xlink:href="#m3c69fafcce" y="199.945661"/>
     <use style="fill:#87ceeb;stroke:#87ceeb;stroke-width:0.3;" x="206.78302" xlink:href="#m3c69fafcce" y="230.848763"/>
     <use style="fill:#87ceeb;stroke:#87ceeb;stroke-width:0.3;" x="208.535981" xlink:href="#m3c69fafcce" y="211.963323"/>
     <use style="fill:#87ceeb;stroke:#87ceeb;stroke-width:0.3;" x="210.288943" xlink:href="#m3c69fafcce" y="178.90819"/>
     <use style="fill:#87ceeb;stroke:#87ceeb;stroke-width:0.3;" x="212.041904" xlink:href="#m3c69fafcce" y="347.930105"/>
     <use style="fill:#87ceeb;stroke:#87ceeb;stroke-width:0.3;" x="213.794866" xlink:href="#m3c69fafcce" y="157.823798"/>
     <use style="fill:#87ceeb;stroke:#87ceeb;stroke-width:0.3;" x="215.547827" xlink:href="#m3c69fafcce" y="213.054933"/>
     <use style="fill:#87ceeb;stroke:#87ceeb;stroke-width:0.3;" x="217.300788" xlink:href="#m3c69fafcce" y="205.336103"/>
     <use style="fill:#87ceeb;stroke:#87ceeb;stroke-width:0.3;" x="219.05375" xlink:href="#m3c69fafcce" y="262.994362"/>
     <use style="fill:#87ceeb;stroke:#87ceeb;stroke-width:0.3;" x="220.806711" xlink:href="#m3c69fafcce" y="195.026849"/>
     <use style="fill:#87ceeb;stroke:#87ceeb;stroke-width:0.3;" x="222.559672" xlink:href="#m3c69fafcce" y="195.819141"/>
     <use style="fill:#87ceeb;stroke:#87ceeb;stroke-width:0.3;" x="224.312634" xlink:href="#m3c69fafcce" y="212.916824"/>
     <use style="fill:#87ceeb;stroke:#87ceeb;stroke-width:0.3;" x="226.065595" xlink:href="#m3c69fafcce" y="252.892953"/>
     <use style="fill:#87ceeb;stroke:#87ceeb;stroke-width:0.3;" x="227.818556" xlink:href="#m3c69fafcce" y="136.578737"/>
     <use style="fill:#87ceeb;stroke:#87ceeb;stroke-width:0.3;" x="229.571518" xlink:href="#m3c69fafcce" y="257.726597"/>
     <use style="fill:#87ceeb;stroke:#87ceeb;stroke-width:0.3;" x="231.324479" xlink:href="#m3c69fafcce" y="178.372316"/>
     <use style="fill:#87ceeb;stroke:#87ceeb;stroke-width:0.3;" x="233.07744" xlink:href="#m3c69fafcce" y="197.193426"/>
     <use style="fill:#87ceeb;stroke:#87ceeb;stroke-width:0.3;" x="234.830402" xlink:href="#m3c69fafcce" y="167.706176"/>
     <use style="fill:#87ceeb;stroke:#87ceeb;stroke-width:0.3;" x="236.583363" xlink:href="#m3c69fafcce" y="174.989963"/>
     <use style="fill:#87ceeb;stroke:#87ceeb;stroke-width:0.3;" x="238.336324" xlink:href="#m3c69fafcce" y="141.140745"/>
     <use style="fill:#87ceeb;stroke:#87ceeb;stroke-width:0.3;" x="240.089286" xlink:href="#m3c69fafcce" y="202.300299"/>
     <use style="fill:#87ceeb;stroke:#87ceeb;stroke-width:0.3;" x="241.842247" xlink:href="#m3c69fafcce" y="238.949751"/>
     <use style="fill:#87ceeb;stroke:#87ceeb;stroke-width:0.3;" x="243.595208" xlink:href="#m3c69fafcce" y="259.967449"/>
     <use style="fill:#87ceeb;stroke:#87ceeb;stroke-width:0.3;" x="245.34817" xlink:href="#m3c69fafcce" y="193.709339"/>
     <use style="fill:#87ceeb;stroke:#87ceeb;stroke-width:0.3;" x="247.101131" xlink:href="#m3c69fafcce" y="229.737085"/>
     <use style="fill:#87ceeb;stroke:#87ceeb;stroke-width:0.3;" x="248.854093" xlink:href="#m3c69fafcce" y="153.139349"/>
     <use style="fill:#87ceeb;stroke:#87ceeb;stroke-width:0.3;" x="250.607054" xlink:href="#m3c69fafcce" y="187.230457"/>
     <use style="fill:#87ceeb;stroke:#87ceeb;stroke-width:0.3;" x="252.360015" xlink:href="#m3c69fafcce" y="174.851062"/>
     <use style="fill:#87ceeb;stroke:#87ceeb;stroke-width:0.3;" x="254.112977" xlink:href="#m3c69fafcce" y="213.695523"/>
     <use style="fill:#87ceeb;stroke:#87ceeb;stroke-width:0.3;" x="255.865938" xlink:href="#m3c69fafcce" y="165.063202"/>
     <use style="fill:#87ceeb;stroke:#87ceeb;stroke-width:0.3;" x="257.618899" xlink:href="#m3c69fafcce" y="226.573356"/>
     <use style="fill:#87ceeb;stroke:#87ceeb;stroke-width:0.3;" x="259.371861" xlink:href="#m3c69fafcce" y="176.555817"/>
     <use style="fill:#87ceeb;stroke:#87ceeb;stroke-width:0.3;" x="261.124822" xlink:href="#m3c69fafcce" y="129.489026"/>
     <use style="fill:#87ceeb;stroke:#87ceeb;stroke-width:0.3;" x="262.877783" xlink:href="#m3c69fafcce" y="189.859659"/>
     <use style="fill:#87ceeb;stroke:#87ceeb;stroke-width:0.3;" x="264.630745" xlink:href="#m3c69fafcce" y="149.324383"/>
     <use style="fill:#87ceeb;stroke:#87ceeb;stroke-width:0.3;" x="266.383706" xlink:href="#m3c69fafcce" y="198.168611"/>
     <use style="fill:#87ceeb;stroke:#87ceeb;stroke-width:0.3;" x="268.136667" xlink:href="#m3c69fafcce" y="148.468748"/>
     <use style="fill:#87ceeb;stroke:#87ceeb;stroke-width:0.3;" x="269.889629" xlink:href="#m3c69fafcce" y="164.817042"/>
     <use style="fill:#87ceeb;stroke:#87ceeb;stroke-width:0.3;" x="271.64259" xlink:href="#m3c69fafcce" y="228.013355"/>
     <use style="fill:#87ceeb;stroke:#87ceeb;stroke-width:0.3;" x="273.395551" xlink:href="#m3c69fafcce" y="237.784074"/>
     <use style="fill:#87ceeb;stroke:#87ceeb;stroke-width:0.3;" x="275.148513" xlink:href="#m3c69fafcce" y="209.045388"/>
     <use style="fill:#87ceeb;stroke:#87ceeb;stroke-width:0.3;" x="276.901474" xlink:href="#m3c69fafcce" y="156.518362"/>
     <use style="fill:#87ceeb;stroke:#87ceeb;stroke-width:0.3;" x="278.654435" xlink:href="#m3c69fafcce" y="189.362104"/>
     <use style="fill:#87ceeb;stroke:#87ceeb;stroke-width:0.3;" x="280.407397" xlink:href="#m3c69fafcce" y="252.34902"/>
     <use style="fill:#87ceeb;stroke:#87ceeb;stroke-width:0.3;" x="282.160358" xlink:href="#m3c69fafcce" y="266.65368"/>
     <use style="fill:#87ceeb;stroke:#87ceeb;stroke-width:0.3;" x="283.91332" xlink:href="#m3c69fafcce" y="159.352293"/>
     <use style="fill:#87ceeb;stroke:#87ceeb;stroke-width:0.3;" x="285.666281" xlink:href="#m3c69fafcce" y="186.011976"/>
     <use style="fill:#87ceeb;stroke:#87ceeb;stroke-width:0.3;" x="287.419242" xlink:href="#m3c69fafcce" y="135.596199"/>
     <use style="fill:#87ceeb;stroke:#87ceeb;stroke-width:0.3;" x="289.172204" xlink:href="#m3c69fafcce" y="114.043293"/>
     <use style="fill:#87ceeb;stroke:#87ceeb;stroke-width:0.3;" x="290.925165" xlink:href="#m3c69fafcce" y="164.71198"/>
     <use style="fill:#87ceeb;stroke:#87ceeb;stroke-width:0.3;" x="292.678126" xlink:href="#m3c69fafcce" y="125.259977"/>
     <use style="fill:#87ceeb;stroke:#87ceeb;stroke-width:0.3;" x="294.431088" xlink:href="#m3c69fafcce" y="98.774869"/>
     <use style="fill:#87ceeb;stroke:#87ceeb;stroke-width:0.3;" x="296.184049" xlink:href="#m3c69fafcce" y="215.071789"/>
     <use style="fill:#87ceeb;stroke:#87ceeb;stroke-width:0.3;" x="297.93701" xlink:href="#m3c69fafcce" y="165.100648"/>
     <use style="fill:#87ceeb;stroke:#87ceeb;stroke-width:0.3;" x="299.689972" xlink:href="#m3c69fafcce" y="175.475904"/>
     <use style="fill:#87ceeb;stroke:#87ceeb;stroke-width:0.3;" x="301.442933" xlink:href="#m3c69fafcce" y="223.190965"/>
     <use style="fill:#87ceeb;stroke:#87ceeb;stroke-width:0.3;" x="303.195894" xlink:href="#m3c69fafcce" y="138.753819"/>
     <use style="fill:#87ceeb;stroke:#87ceeb;stroke-width:0.3;" x="304.948856" xlink:href="#m3c69fafcce" y="181.32206"/>
     <use style="fill:#87ceeb;stroke:#87ceeb;stroke-width:0.3;" x="306.701817" xlink:href="#m3c69fafcce" y="224.322291"/>
     <use style="fill:#87ceeb;stroke:#87ceeb;stroke-width:0.3;" x="308.454778" xlink:href="#m3c69fafcce" y="119.11782"/>
     <use style="fill:#87ceeb;stroke:#87ceeb;stroke-width:0.3;" x="310.20774" xlink:href="#m3c69fafcce" y="102.254785"/>
     <use style="fill:#87ceeb;stroke:#87ceeb;stroke-width:0.3;" x="311.960701" xlink:href="#m3c69fafcce" y="196.897879"/>
     <use style="fill:#87ceeb;stroke:#87ceeb;stroke-width:0.3;" x="313.713662" xlink:href="#m3c69fafcce" y="127.503304"/>
     <use style="fill:#87ceeb;stroke:#87ceeb;stroke-width:0.3;" x="315.466624" xlink:href="#m3c69fafcce" y="200.49709"/>
     <use style="fill:#87ceeb;stroke:#87ceeb;stroke-width:0.3;" x="317.219585" xlink:href="#m3c69fafcce" y="146.178925"/>
     <use style="fill:#87ceeb;stroke:#87ceeb;stroke-width:0.3;" x="318.972547" xlink:href="#m3c69fafcce" y="182.694923"/>
     <use style="fill:#87ceeb;stroke:#87ceeb;stroke-width:0.3;" x="320.725508" xlink:href="#m3c69fafcce" y="191.966627"/>
     <use style="fill:#87ceeb;stroke:#87ceeb;stroke-width:0.3;" x="322.478469" xlink:href="#m3c69fafcce" y="203.644234"/>
     <use style="fill:#87ceeb;stroke:#87ceeb;stroke-width:0.3;" x="324.231431" xlink:href="#m3c69fafcce" y="126.962566"/>
     <use style="fill:#87ceeb;stroke:#87ceeb;stroke-width:0.3;" x="325.984392" xlink:href="#m3c69fafcce" y="102.055299"/>
     <use style="fill:#87ceeb;stroke:#87ceeb;stroke-width:0.3;" x="327.737353" xlink:href="#m3c69fafcce" y="128.779377"/>
     <use style="fill:#87ceeb;stroke:#87ceeb;stroke-width:0.3;" x="329.490315" xlink:href="#m3c69fafcce" y="146.072268"/>
     <use style="fill:#87ceeb;stroke:#87ceeb;stroke-width:0.3;" x="331.243276" xlink:href="#m3c69fafcce" y="178.784394"/>
     <use style="fill:#87ceeb;stroke:#87ceeb;stroke-width:0.3;" x="332.996237" xlink:href="#m3c69fafcce" y="135.252424"/>
     <use style="fill:#87ceeb;stroke:#87ceeb;stroke-width:0.3;" x="334.749199" xlink:href="#m3c69fafcce" y="93.560394"/>
     <use style="fill:#87ceeb;stroke:#87ceeb;stroke-width:0.3;" x="336.50216" xlink:href="#m3c69fafcce" y="141.660465"/>
     <use style="fill:#87ceeb;stroke:#87ceeb;stroke-width:0.3;" x="338.255121" xlink:href="#m3c69fafcce" y="79.629817"/>
     <use style="fill:#87ceeb;stroke:#87ceeb;stroke-width:0.3;" x="340.008083" xlink:href="#m3c69fafcce" y="84.29613"/>
     <use style="fill:#87ceeb;stroke:#87ceeb;stroke-width:0.3;" x="341.761044" xlink:href="#m3c69fafcce" y="108.667039"/>
     <use style="fill:#87ceeb;stroke:#87ceeb;stroke-width:0.3;" x="343.514005" xlink:href="#m3c69fafcce" y="70.772325"/>
     <use style="fill:#87ceeb;stroke:#87ceeb;stroke-width:0.3;" x="345.266967" xlink:href="#m3c69fafcce" y="121.652329"/>
     <use style="fill:#87ceeb;stroke:#87ceeb;stroke-width:0.3;" x="347.019928" xlink:href="#m3c69fafcce" y="122.30914"/>
     <use style="fill:#87ceeb;stroke:#87ceeb;stroke-width:0.3;" x="348.772889" xlink:href="#m3c69fafcce" y="99.14699"/>
     <use style="fill:#87ceeb;stroke:#87ceeb;stroke-width:0.3;" x="350.525851" xlink:href="#m3c69fafcce" y="152.950914"/>
     <use style="fill:#87ceeb;stroke:#87ceeb;stroke-width:0.3;" x="352.278812" xlink:href="#m3c69fafcce" y="170.951629"/>
     <use style="fill:#87ceeb;stroke:#87ceeb;stroke-width:0.3;" x="354.031774" xlink:href="#m3c69fafcce" y="89.821146"/>
     <use style="fill:#87ceeb;stroke:#87ceeb;stroke-width:0.3;" x="355.784735" xlink:href="#m3c69fafcce" y="115.907666"/>
     <use style="fill:#87ceeb;stroke:#87ceeb;stroke-width:0.3;" x="357.537696" xlink:href="#m3c69fafcce" y="220.047585"/>
     <use style="fill:#87ceeb;stroke:#87ceeb;stroke-width:0.3;" x="359.290658" xlink:href="#m3c69fafcce" y="69.561714"/>
     <use style="fill:#87ceeb;stroke:#87ceeb;stroke-width:0.3;" x="361.043619" xlink:href="#m3c69fafcce" y="126.270204"/>
     <use style="fill:#87ceeb;stroke:#87ceeb;stroke-width:0.3;" x="362.79658" xlink:href="#m3c69fafcce" y="202.310959"/>
     <use style="fill:#87ceeb;stroke:#87ceeb;stroke-width:0.3;" x="364.549542" xlink:href="#m3c69fafcce" y="134.698865"/>
     <use style="fill:#87ceeb;stroke:#87ceeb;stroke-width:0.3;" x="366.302503" xlink:href="#m3c69fafcce" y="181.761569"/>
     <use style="fill:#87ceeb;stroke:#87ceeb;stroke-width:0.3;" x="368.055464" xlink:href="#m3c69fafcce" y="150.363524"/>
     <use style="fill:#87ceeb;stroke:#87ceeb;stroke-width:0.3;" x="369.808426" xlink:href="#m3c69fafcce" y="72.564814"/>
     <use style="fill:#87ceeb;stroke:#87ceeb;stroke-width:0.3;" x="371.561387" xlink:href="#m3c69fafcce" y="121.362814"/>
     <use style="fill:#87ceeb;stroke:#87ceeb;stroke-width:0.3;" x="373.314348" xlink:href="#m3c69fafcce" y="77.513463"/>
     <use style="fill:#87ceeb;stroke:#87ceeb;stroke-width:0.3;" x="375.06731" xlink:href="#m3c69fafcce" y="123.334248"/>
     <use style="fill:#87ceeb;stroke:#87ceeb;stroke-width:0.3;" x="376.820271" xlink:href="#m3c69fafcce" y="81.233613"/>
     <use style="fill:#87ceeb;stroke:#87ceeb;stroke-width:0.3;" x="378.573232" xlink:href="#m3c69fafcce" y="253.920464"/>
     <use style="fill:#87ceeb;stroke:#87ceeb;stroke-width:0.3;" x="380.326194" xlink:href="#m3c69fafcce" y="148.183523"/>
     <use style="fill:#87ceeb;stroke:#87ceeb;stroke-width:0.3;" x="382.079155" xlink:href="#m3c69fafcce" y="124.588868"/>
     <use style="fill:#87ceeb;stroke:#87ceeb;stroke-width:0.3;" x="383.832116" xlink:href="#m3c69fafcce" y="100.150292"/>
     <use style="fill:#87ceeb;stroke:#87ceeb;stroke-width:0.3;" x="385.585078" xlink:href="#m3c69fafcce" y="127.718443"/>
     <use style="fill:#87ceeb;stroke:#87ceeb;stroke-width:0.3;" x="387.338039" xlink:href="#m3c69fafcce" y="182.789937"/>
     <use style="fill:#87ceeb;stroke:#87ceeb;stroke-width:0.3;" x="389.091" xlink:href="#m3c69fafcce" y="84.82168"/>
     <use style="fill:#87ceeb;stroke:#87ceeb;stroke-width:0.3;" x="390.843962" xlink:href="#m3c69fafcce" y="171.529959"/>
     <use style="fill:#87ceeb;stroke:#87ceeb;stroke-width:0.3;" x="392.596923" xlink:href="#m3c69fafcce" y="81.644486"/>
     <use style="fill:#87ceeb;stroke:#87ceeb;stroke-width:0.3;" x="394.349885" xlink:href="#m3c69fafcce" y="157.864611"/>
     <use style="fill:#87ceeb;stroke:#87ceeb;stroke-width:0.3;" x="396.102846" xlink:href="#m3c69fafcce" y="155.867955"/>
     <use style="fill:#87ceeb;stroke:#87ceeb;stroke-width:0.3;" x="397.855807" xlink:href="#m3c69fafcce" y="133.448384"/>
     <use style="fill:#87ceeb;stroke:#87ceeb;stroke-width:0.3;" x="399.608769" xlink:href="#m3c69fafcce" y="78.929447"/>
     <use style="fill:#87ceeb;stroke:#87ceeb;stroke-width:0.3;" x="401.36173" xlink:href="#m3c69fafcce" y="25.342042"/>
     <use style="fill:#87ceeb;stroke:#87ceeb;stroke-width:0.3;" x="403.114691" xlink:href="#m3c69fafcce" y="89.290597"/>
     <use style="fill:#87ceeb;stroke:#87ceeb;stroke-width:0.3;" x="404.867653" xlink:href="#m3c69fafcce" y="194.854659"/>
     <use style="fill:#87ceeb;stroke:#87ceeb;stroke-width:0.3;" x="406.620614" xlink:href="#m3c69fafcce" y="134.929964"/>
     <use style="fill:#87ceeb;stroke:#87ceeb;stroke-width:0.3;" x="408.373575" xlink:href="#m3c69fafcce" y="86.433959"/>
     <use style="fill:#87ceeb;stroke:#87ceeb;stroke-width:0.3;" x="410.126537" xlink:href="#m3c69fafcce" y="28.991966"/>
     <use style="fill:#87ceeb;stroke:#87ceeb;stroke-width:0.3;" x="411.879498" xlink:href="#m3c69fafcce" y="88.616502"/>
    </g>
   </g>
   <g id="line2d_31">
    <path clip-path="url(#p7d7028e37c)" d="M 63.040189 288.687405 
L 411.879498 104.803016 
L 411.879498 104.803016 
" style="fill:none;stroke:#ffd700;stroke-linecap:round;stroke-width:2;"/>
   </g>
   <g id="patch_3">
    <path d="M 42.159844 387.72 
L 42.159844 7.2 
" style="fill:none;"/>
   </g>
   <g id="patch_4">
    <path d="M 432.759844 387.72 
L 432.759844 7.2 
" style="fill:none;"/>
   </g>
   <g id="patch_5">
    <path d="M 42.159844 387.72 
L 432.759844 387.72 
" style="fill:none;"/>
   </g>
   <g id="patch_6">
    <path d="M 42.159844 7.2 
L 432.759844 7.2 
" style="fill:none;"/>
   </g>
   <g id="legend_1">
    <g id="line2d_32">
     <path d="M 51.159844 19.857812 
L 71.159844 19.857812 
" style="fill:none;stroke:#ffd700;stroke-linecap:round;stroke-width:2;"/>
    </g>
    <g id="line2d_33"/>
    <g id="text_18">
     <!-- True Regression Line -->
     <defs>
      <path d="M 25.921875 0 
L 25.921875 63.140625 
L 2.34375 63.140625 
L 2.34375 71.578125 
L 59.078125 71.578125 
L 59.078125 63.140625 
L 35.40625 63.140625 
L 35.40625 0 
z
" id="ArialMT-84"/>
      <path d="M 6.5 0 
L 6.5 51.859375 
L 14.40625 51.859375 
L 14.40625 44 
Q 17.4375 49.515625 20 51.265625 
Q 22.5625 53.03125 25.640625 53.03125 
Q 30.078125 53.03125 34.671875 50.203125 
L 31.640625 42.046875 
Q 28.421875 43.953125 25.203125 43.953125 
Q 22.3125 43.953125 20.015625 42.21875 
Q 17.71875 40.484375 16.75 37.40625 
Q 15.28125 32.71875 15.28125 27.15625 
L 15.28125 0 
z
" id="ArialMT-114"/>
      <path d="M 40.578125 0 
L 40.578125 7.625 
Q 34.515625 -1.171875 24.125 -1.171875 
Q 19.53125 -1.171875 15.546875 0.578125 
Q 11.578125 2.34375 9.640625 5 
Q 7.71875 7.671875 6.9375 11.53125 
Q 6.390625 14.109375 6.390625 19.734375 
L 6.390625 51.859375 
L 15.1875 51.859375 
L 15.1875 23.09375 
Q 15.1875 16.21875 15.71875 13.8125 
Q 16.546875 10.359375 19.234375 8.375 
Q 21.921875 6.390625 25.875 6.390625 
Q 29.828125 6.390625 33.296875 8.421875 
Q 36.765625 10.453125 38.203125 13.9375 
Q 39.65625 17.4375 39.65625 24.078125 
L 39.65625 51.859375 
L 48.4375 51.859375 
L 48.4375 0 
z
" id="ArialMT-117"/>
      <path d="M 42.09375 16.703125 
L 51.171875 15.578125 
Q 49.03125 7.625 43.21875 3.21875 
Q 37.40625 -1.171875 28.375 -1.171875 
Q 17 -1.171875 10.328125 5.828125 
Q 3.65625 12.84375 3.65625 25.484375 
Q 3.65625 38.578125 10.390625 45.796875 
Q 17.140625 53.03125 27.875 53.03125 
Q 38.28125 53.03125 44.875 45.953125 
Q 51.46875 38.875 51.46875 26.03125 
Q 51.46875 25.25 51.421875 23.6875 
L 12.75 23.6875 
Q 13.234375 15.140625 17.578125 10.59375 
Q 21.921875 6.0625 28.421875 6.0625 
Q 33.25 6.0625 36.671875 8.59375 
Q 40.09375 11.140625 42.09375 16.703125 
z
M 13.234375 30.90625 
L 42.1875 30.90625 
Q 41.609375 37.453125 38.875 40.71875 
Q 34.671875 45.796875 27.984375 45.796875 
Q 21.921875 45.796875 17.796875 41.75 
Q 13.671875 37.703125 13.234375 30.90625 
z
" id="ArialMT-101"/>
      <path id="ArialMT-32"/>
      <path d="M 7.859375 0 
L 7.859375 71.578125 
L 39.59375 71.578125 
Q 49.171875 71.578125 54.140625 69.640625 
Q 59.125 67.71875 62.109375 62.828125 
Q 65.09375 57.953125 65.09375 52.046875 
Q 65.09375 44.4375 60.15625 39.203125 
Q 55.21875 33.984375 44.921875 32.5625 
Q 48.6875 30.765625 50.640625 29 
Q 54.78125 25.203125 58.5 19.484375 
L 70.953125 0 
L 59.03125 0 
L 49.5625 14.890625 
Q 45.40625 21.34375 42.71875 24.75 
Q 40.046875 28.171875 37.921875 29.53125 
Q 35.796875 30.90625 33.59375 31.453125 
Q 31.984375 31.78125 28.328125 31.78125 
L 17.328125 31.78125 
L 17.328125 0 
z
M 17.328125 39.984375 
L 37.703125 39.984375 
Q 44.1875 39.984375 47.84375 41.328125 
Q 51.515625 42.671875 53.421875 45.625 
Q 55.328125 48.578125 55.328125 52.046875 
Q 55.328125 57.125 51.640625 60.390625 
Q 47.953125 63.671875 39.984375 63.671875 
L 17.328125 63.671875 
z
" id="ArialMT-82"/>
      <path d="M 4.984375 -4.296875 
L 13.53125 -5.5625 
Q 14.0625 -9.515625 16.5 -11.328125 
Q 19.78125 -13.765625 25.4375 -13.765625 
Q 31.546875 -13.765625 34.859375 -11.328125 
Q 38.1875 -8.890625 39.359375 -4.5 
Q 40.046875 -1.8125 39.984375 6.78125 
Q 34.234375 0 25.640625 0 
Q 14.9375 0 9.078125 7.71875 
Q 3.21875 15.4375 3.21875 26.21875 
Q 3.21875 33.640625 5.90625 39.90625 
Q 8.59375 46.1875 13.6875 49.609375 
Q 18.796875 53.03125 25.6875 53.03125 
Q 34.859375 53.03125 40.828125 45.609375 
L 40.828125 51.859375 
L 48.921875 51.859375 
L 48.921875 7.03125 
Q 48.921875 -5.078125 46.453125 -10.125 
Q 44 -15.1875 38.640625 -18.109375 
Q 33.296875 -21.046875 25.484375 -21.046875 
Q 16.21875 -21.046875 10.5 -16.875 
Q 4.78125 -12.703125 4.984375 -4.296875 
z
M 12.25 26.859375 
Q 12.25 16.65625 16.296875 11.96875 
Q 20.359375 7.28125 26.46875 7.28125 
Q 32.515625 7.28125 36.609375 11.9375 
Q 40.71875 16.609375 40.71875 26.5625 
Q 40.71875 36.078125 36.5 40.90625 
Q 32.28125 45.75 26.3125 45.75 
Q 20.453125 45.75 16.34375 40.984375 
Q 12.25 36.234375 12.25 26.859375 
z
" id="ArialMT-103"/>
      <path d="M 3.078125 15.484375 
L 11.765625 16.84375 
Q 12.5 11.625 15.84375 8.84375 
Q 19.1875 6.0625 25.203125 6.0625 
Q 31.25 6.0625 34.171875 8.515625 
Q 37.109375 10.984375 37.109375 14.3125 
Q 37.109375 17.28125 34.515625 19 
Q 32.71875 20.171875 25.53125 21.96875 
Q 15.875 24.421875 12.140625 26.203125 
Q 8.40625 27.984375 6.46875 31.125 
Q 4.546875 34.28125 4.546875 38.09375 
Q 4.546875 41.546875 6.125 44.5 
Q 7.71875 47.46875 10.453125 49.421875 
Q 12.5 50.921875 16.03125 51.96875 
Q 19.578125 53.03125 23.640625 53.03125 
Q 29.734375 53.03125 34.34375 51.265625 
Q 38.96875 49.515625 41.15625 46.5 
Q 43.359375 43.5 44.1875 38.484375 
L 35.59375 37.3125 
Q 35.015625 41.3125 32.203125 43.546875 
Q 29.390625 45.796875 24.265625 45.796875 
Q 18.21875 45.796875 15.625 43.796875 
Q 13.03125 41.796875 13.03125 39.109375 
Q 13.03125 37.40625 14.109375 36.03125 
Q 15.1875 34.625 17.484375 33.6875 
Q 18.796875 33.203125 25.25 31.453125 
Q 34.578125 28.953125 38.25 27.359375 
Q 41.9375 25.78125 44.03125 22.75 
Q 46.140625 19.734375 46.140625 15.234375 
Q 46.140625 10.84375 43.578125 6.953125 
Q 41.015625 3.078125 36.171875 0.953125 
Q 31.34375 -1.171875 25.25 -1.171875 
Q 15.140625 -1.171875 9.84375 3.03125 
Q 4.546875 7.234375 3.078125 15.484375 
z
" id="ArialMT-115"/>
      <path d="M 6.640625 61.46875 
L 6.640625 71.578125 
L 15.4375 71.578125 
L 15.4375 61.46875 
z
M 6.640625 0 
L 6.640625 51.859375 
L 15.4375 51.859375 
L 15.4375 0 
z
" id="ArialMT-105"/>
      <path d="M 3.328125 25.921875 
Q 3.328125 40.328125 11.328125 47.265625 
Q 18.015625 53.03125 27.640625 53.03125 
Q 38.328125 53.03125 45.109375 46.015625 
Q 51.90625 39.015625 51.90625 26.65625 
Q 51.90625 16.65625 48.90625 10.90625 
Q 45.90625 5.171875 40.15625 2 
Q 34.421875 -1.171875 27.640625 -1.171875 
Q 16.75 -1.171875 10.03125 5.8125 
Q 3.328125 12.796875 3.328125 25.921875 
z
M 12.359375 25.921875 
Q 12.359375 15.96875 16.703125 11.015625 
Q 21.046875 6.0625 27.640625 6.0625 
Q 34.1875 6.0625 38.53125 11.03125 
Q 42.875 16.015625 42.875 26.21875 
Q 42.875 35.84375 38.5 40.796875 
Q 34.125 45.75 27.640625 45.75 
Q 21.046875 45.75 16.703125 40.8125 
Q 12.359375 35.890625 12.359375 25.921875 
z
" id="ArialMT-111"/>
      <path d="M 6.59375 0 
L 6.59375 51.859375 
L 14.5 51.859375 
L 14.5 44.484375 
Q 20.21875 53.03125 31 53.03125 
Q 35.6875 53.03125 39.625 51.34375 
Q 43.5625 49.65625 45.515625 46.921875 
Q 47.46875 44.1875 48.25 40.4375 
Q 48.734375 37.984375 48.734375 31.890625 
L 48.734375 0 
L 39.9375 0 
L 39.9375 31.546875 
Q 39.9375 36.921875 38.90625 39.578125 
Q 37.890625 42.234375 35.28125 43.8125 
Q 32.671875 45.40625 29.15625 45.40625 
Q 23.53125 45.40625 19.453125 41.84375 
Q 15.375 38.28125 15.375 28.328125 
L 15.375 0 
z
" id="ArialMT-110"/>
      <path d="M 7.328125 0 
L 7.328125 71.578125 
L 16.796875 71.578125 
L 16.796875 8.453125 
L 52.046875 8.453125 
L 52.046875 0 
z
" id="ArialMT-76"/>
     </defs>
     <g style="fill:#262626;" transform="translate(79.159844 23.357812)scale(0.1 -0.1)">
      <use xlink:href="#ArialMT-84"/>
      <use x="61.037109" xlink:href="#ArialMT-114"/>
      <use x="94.337891" xlink:href="#ArialMT-117"/>
      <use x="149.953125" xlink:href="#ArialMT-101"/>
      <use x="205.568359" xlink:href="#ArialMT-32"/>
      <use x="233.351562" xlink:href="#ArialMT-82"/>
      <use x="305.568359" xlink:href="#ArialMT-101"/>
      <use x="361.183594" xlink:href="#ArialMT-103"/>
      <use x="416.798828" xlink:href="#ArialMT-114"/>
      <use x="450.099609" xlink:href="#ArialMT-101"/>
      <use x="505.714844" xlink:href="#ArialMT-115"/>
      <use x="555.714844" xlink:href="#ArialMT-115"/>
      <use x="605.714844" xlink:href="#ArialMT-105"/>
      <use x="627.931641" xlink:href="#ArialMT-111"/>
      <use x="683.546875" xlink:href="#ArialMT-110"/>
      <use x="739.162109" xlink:href="#ArialMT-32"/>
      <use x="766.945312" xlink:href="#ArialMT-76"/>
      <use x="822.560547" xlink:href="#ArialMT-105"/>
      <use x="844.777344" xlink:href="#ArialMT-110"/>
      <use x="900.392578" xlink:href="#ArialMT-101"/>
     </g>
    </g>
    <g id="PathCollection_2">
     <g>
      <use style="fill:#87ceeb;stroke:#87ceeb;stroke-width:0.3;" x="61.159844" xlink:href="#m3c69fafcce" y="35.117187"/>
     </g>
    </g>
    <g id="text_19">
     <!-- Sampled Data -->
     <defs>
      <path d="M 4.5 23 
L 13.421875 23.78125 
Q 14.0625 18.40625 16.375 14.96875 
Q 18.703125 11.53125 23.578125 9.40625 
Q 28.46875 7.28125 34.578125 7.28125 
Q 39.984375 7.28125 44.140625 8.890625 
Q 48.296875 10.5 50.3125 13.296875 
Q 52.34375 16.109375 52.34375 19.4375 
Q 52.34375 22.796875 50.390625 25.3125 
Q 48.4375 27.828125 43.953125 29.546875 
Q 41.0625 30.671875 31.203125 33.03125 
Q 21.34375 35.40625 17.390625 37.5 
Q 12.25 40.1875 9.734375 44.15625 
Q 7.234375 48.140625 7.234375 53.078125 
Q 7.234375 58.5 10.296875 63.203125 
Q 13.375 67.921875 19.28125 70.359375 
Q 25.203125 72.796875 32.421875 72.796875 
Q 40.375 72.796875 46.453125 70.234375 
Q 52.546875 67.671875 55.8125 62.6875 
Q 59.078125 57.71875 59.328125 51.421875 
L 50.25 50.734375 
Q 49.515625 57.515625 45.28125 60.984375 
Q 41.0625 64.453125 32.8125 64.453125 
Q 24.21875 64.453125 20.28125 61.296875 
Q 16.359375 58.15625 16.359375 53.71875 
Q 16.359375 49.859375 19.140625 47.359375 
Q 21.875 44.875 33.421875 42.265625 
Q 44.96875 39.65625 49.265625 37.703125 
Q 55.515625 34.8125 58.484375 30.390625 
Q 61.46875 25.984375 61.46875 20.21875 
Q 61.46875 14.5 58.203125 9.4375 
Q 54.9375 4.390625 48.796875 1.578125 
Q 42.671875 -1.21875 35.015625 -1.21875 
Q 25.296875 -1.21875 18.71875 1.609375 
Q 12.15625 4.4375 8.421875 10.125 
Q 4.6875 15.828125 4.5 23 
z
" id="ArialMT-83"/>
      <path d="M 40.4375 6.390625 
Q 35.546875 2.25 31.03125 0.53125 
Q 26.515625 -1.171875 21.34375 -1.171875 
Q 12.796875 -1.171875 8.203125 3 
Q 3.609375 7.171875 3.609375 13.671875 
Q 3.609375 17.484375 5.34375 20.625 
Q 7.078125 23.78125 9.890625 25.6875 
Q 12.703125 27.59375 16.21875 28.5625 
Q 18.796875 29.25 24.03125 29.890625 
Q 34.671875 31.15625 39.703125 32.90625 
Q 39.75 34.71875 39.75 35.203125 
Q 39.75 40.578125 37.25 42.78125 
Q 33.890625 45.75 27.25 45.75 
Q 21.046875 45.75 18.09375 43.578125 
Q 15.140625 41.40625 13.71875 35.890625 
L 5.125 37.0625 
Q 6.296875 42.578125 8.984375 45.96875 
Q 11.671875 49.359375 16.75 51.1875 
Q 21.828125 53.03125 28.515625 53.03125 
Q 35.15625 53.03125 39.296875 51.46875 
Q 43.453125 49.90625 45.40625 47.53125 
Q 47.359375 45.171875 48.140625 41.546875 
Q 48.578125 39.3125 48.578125 33.453125 
L 48.578125 21.734375 
Q 48.578125 9.46875 49.140625 6.21875 
Q 49.703125 2.984375 51.375 0 
L 42.1875 0 
Q 40.828125 2.734375 40.4375 6.390625 
z
M 39.703125 26.03125 
Q 34.90625 24.078125 25.34375 22.703125 
Q 19.921875 21.921875 17.671875 20.9375 
Q 15.4375 19.96875 14.203125 18.09375 
Q 12.984375 16.21875 12.984375 13.921875 
Q 12.984375 10.40625 15.640625 8.0625 
Q 18.3125 5.71875 23.4375 5.71875 
Q 28.515625 5.71875 32.46875 7.9375 
Q 36.421875 10.15625 38.28125 14.015625 
Q 39.703125 17 39.703125 22.796875 
z
" id="ArialMT-97"/>
      <path d="M 6.59375 0 
L 6.59375 51.859375 
L 14.453125 51.859375 
L 14.453125 44.578125 
Q 16.890625 48.390625 20.9375 50.703125 
Q 25 53.03125 30.171875 53.03125 
Q 35.9375 53.03125 39.625 50.640625 
Q 43.3125 48.25 44.828125 43.953125 
Q 50.984375 53.03125 60.84375 53.03125 
Q 68.5625 53.03125 72.703125 48.75 
Q 76.859375 44.484375 76.859375 35.59375 
L 76.859375 0 
L 68.109375 0 
L 68.109375 32.671875 
Q 68.109375 37.9375 67.25 40.25 
Q 66.40625 42.578125 64.15625 43.984375 
Q 61.921875 45.40625 58.890625 45.40625 
Q 53.421875 45.40625 49.796875 41.765625 
Q 46.1875 38.140625 46.1875 30.125 
L 46.1875 0 
L 37.40625 0 
L 37.40625 33.6875 
Q 37.40625 39.546875 35.25 42.46875 
Q 33.109375 45.40625 28.21875 45.40625 
Q 24.515625 45.40625 21.359375 43.453125 
Q 18.21875 41.5 16.796875 37.734375 
Q 15.375 33.984375 15.375 26.90625 
L 15.375 0 
z
" id="ArialMT-109"/>
      <path d="M 6.59375 -19.875 
L 6.59375 51.859375 
L 14.59375 51.859375 
L 14.59375 45.125 
Q 17.4375 49.078125 21 51.046875 
Q 24.5625 53.03125 29.640625 53.03125 
Q 36.28125 53.03125 41.359375 49.609375 
Q 46.4375 46.1875 49.015625 39.953125 
Q 51.609375 33.734375 51.609375 26.3125 
Q 51.609375 18.359375 48.75 11.984375 
Q 45.90625 5.609375 40.453125 2.21875 
Q 35.015625 -1.171875 29 -1.171875 
Q 24.609375 -1.171875 21.109375 0.6875 
Q 17.625 2.546875 15.375 5.375 
L 15.375 -19.875 
z
M 14.546875 25.640625 
Q 14.546875 15.625 18.59375 10.84375 
Q 22.65625 6.0625 28.421875 6.0625 
Q 34.28125 6.0625 38.453125 11.015625 
Q 42.625 15.96875 42.625 26.375 
Q 42.625 36.28125 38.546875 41.203125 
Q 34.46875 46.140625 28.8125 46.140625 
Q 23.1875 46.140625 18.859375 40.890625 
Q 14.546875 35.640625 14.546875 25.640625 
z
" id="ArialMT-112"/>
      <path d="M 6.390625 0 
L 6.390625 71.578125 
L 15.1875 71.578125 
L 15.1875 0 
z
" id="ArialMT-108"/>
      <path d="M 40.234375 0 
L 40.234375 6.546875 
Q 35.296875 -1.171875 25.734375 -1.171875 
Q 19.53125 -1.171875 14.328125 2.25 
Q 9.125 5.671875 6.265625 11.796875 
Q 3.421875 17.921875 3.421875 25.875 
Q 3.421875 33.640625 6 39.96875 
Q 8.59375 46.296875 13.765625 49.65625 
Q 18.953125 53.03125 25.34375 53.03125 
Q 30.03125 53.03125 33.6875 51.046875 
Q 37.359375 49.078125 39.65625 45.90625 
L 39.65625 71.578125 
L 48.390625 71.578125 
L 48.390625 0 
z
M 12.453125 25.875 
Q 12.453125 15.921875 16.640625 10.984375 
Q 20.84375 6.0625 26.5625 6.0625 
Q 32.328125 6.0625 36.34375 10.765625 
Q 40.375 15.484375 40.375 25.140625 
Q 40.375 35.796875 36.265625 40.765625 
Q 32.171875 45.75 26.171875 45.75 
Q 20.3125 45.75 16.375 40.96875 
Q 12.453125 36.1875 12.453125 25.875 
z
" id="ArialMT-100"/>
      <path d="M 7.71875 0 
L 7.71875 71.578125 
L 32.375 71.578125 
Q 40.71875 71.578125 45.125 70.5625 
Q 51.265625 69.140625 55.609375 65.4375 
Q 61.28125 60.640625 64.078125 53.1875 
Q 66.890625 45.75 66.890625 36.1875 
Q 66.890625 28.03125 64.984375 21.734375 
Q 63.09375 15.4375 60.109375 11.296875 
Q 57.125 7.171875 53.578125 4.796875 
Q 50.046875 2.4375 45.046875 1.21875 
Q 40.046875 0 33.546875 0 
z
M 17.1875 8.453125 
L 32.46875 8.453125 
Q 39.546875 8.453125 43.578125 9.765625 
Q 47.609375 11.078125 50 13.484375 
Q 53.375 16.84375 55.25 22.53125 
Q 57.125 28.21875 57.125 36.328125 
Q 57.125 47.5625 53.4375 53.59375 
Q 49.75 59.625 44.484375 61.671875 
Q 40.671875 63.140625 32.234375 63.140625 
L 17.1875 63.140625 
z
" id="ArialMT-68"/>
      <path d="M 25.78125 7.859375 
L 27.046875 0.09375 
Q 23.34375 -0.6875 20.40625 -0.6875 
Q 15.625 -0.6875 12.984375 0.828125 
Q 10.359375 2.34375 9.28125 4.8125 
Q 8.203125 7.28125 8.203125 15.1875 
L 8.203125 45.015625 
L 1.765625 45.015625 
L 1.765625 51.859375 
L 8.203125 51.859375 
L 8.203125 64.703125 
L 16.9375 69.96875 
L 16.9375 51.859375 
L 25.78125 51.859375 
L 25.78125 45.015625 
L 16.9375 45.015625 
L 16.9375 14.703125 
Q 16.9375 10.9375 17.40625 9.859375 
Q 17.875 8.796875 18.921875 8.15625 
Q 19.96875 7.515625 21.921875 7.515625 
Q 23.390625 7.515625 25.78125 7.859375 
z
" id="ArialMT-116"/>
     </defs>
     <g style="fill:#262626;" transform="translate(79.159844 37.742187)scale(0.1 -0.1)">
      <use xlink:href="#ArialMT-83"/>
      <use x="66.699219" xlink:href="#ArialMT-97"/>
      <use x="122.314453" xlink:href="#ArialMT-109"/>
      <use x="205.615234" xlink:href="#ArialMT-112"/>
      <use x="261.230469" xlink:href="#ArialMT-108"/>
      <use x="283.447266" xlink:href="#ArialMT-101"/>
      <use x="339.0625" xlink:href="#ArialMT-100"/>
      <use x="394.677734" xlink:href="#ArialMT-32"/>
      <use x="422.460938" xlink:href="#ArialMT-68"/>
      <use x="494.677734" xlink:href="#ArialMT-97"/>
      <use x="550.292969" xlink:href="#ArialMT-116"/>
      <use x="578.076172" xlink:href="#ArialMT-97"/>
     </g>
    </g>
   </g>
  </g>
 </g>
 <defs>
  <clipPath id="p7d7028e37c">
   <rect height="380.52" width="390.6" x="42.159844" y="7.2"/>
  </clipPath>
 </defs>
</svg>
